<?xml version="1.0" encoding="UTF-8" standalone="no"?>
<!DOCTYPE svg PUBLIC "-//W3C//DTD SVG 1.1//EN" "http://www.w3.org/Graphics/SVG/1.1/DTD/svg11.dtd">
<svg xmlns="http://www.w3.org/2000/svg" xmlns:xlink="http://www.w3.org/1999/xlink" version="1.1" viewBox="0 0 19.5 16.5">
    <g id="parallax-letter_s__g" enable-background="new">
        <g>
            <path d="M 13.348 .07 C 13.113 .074 12.832 .082 12.586 .09 C 9.75 .215 7.562 .844 6.047 1.973 C 5.383 2.469 4.852 3.051 4.445 3.734 C 4.309 3.957 4.184 4.203 4.082 4.445 C 4 4.637 3.934 4.816 3.898 4.938 C 3.82 5.207 3.781 5.477 3.785 5.754 C 3.789 5.879 3.797 5.977 3.812 6.09 C 3.82 6.152 3.836 6.246 3.844 6.25 C 3.844 6.25 5.445 7.242 7.402 8.457 C 9.355 9.672 10.957 10.668 10.961 10.668 C 10.961 10.672 10.871 10.898 10.703 11.332 C 10.559 11.695 10.434 12.02 10.422 12.051 C 10.148 12.828 9.855 13.312 9.445 13.68 C 8.824 14.227 7.898 14.516 6.508 14.586 C 6.414 14.59 6.309 14.594 6.137 14.598 C 6.086 14.602 5.328 14.602 3.324 14.602 L .582 14.605 L .324 15.336 C .184 15.738 .066 16.066 .066 16.066 C .066 16.066 1.527 16.148 3.309 16.25 L 6.547 16.43 L 6.805 16.43 C 6.949 16.43 7.098 16.43 7.141 16.426 C 7.293 16.422 7.359 16.422 7.438 16.418 C 9.898 16.34 11.824 15.91 13.27 15.121 C 13.906 14.773 14.457 14.352 14.906 13.859 C 15.379 13.344 15.746 12.762 16.027 12.078 C 16.035 12.059 16.07 11.957 16.109 11.84 C 16.148 11.73 16.184 11.625 16.191 11.609 C 16.254 11.426 16.293 11.219 16.309 10.973 C 16.309 10.918 16.309 10.719 16.309 10.664 C 16.293 10.398 16.254 10.145 16.195 9.91 C 16.188 9.875 16.18 9.844 16.18 9.844 C 16.18 9.84 15.152 9.199 12.746 7.703 C 10.855 6.527 9.312 5.562 9.312 5.562 C 9.312 5.559 9.664 4.582 9.684 4.539 C 9.906 3.965 10.141 3.547 10.422 3.215 C 10.516 3.105 10.629 2.996 10.734 2.902 C 11.098 2.594 11.555 2.363 12.133 2.203 C 12.664 2.059 13.312 1.965 14.098 1.926 C 14.277 1.918 14.41 1.914 14.691 1.906 C 14.75 1.906 15.387 1.902 16.867 1.902 L 18.957 1.902 L 19.195 1.184 C 19.328 .789 19.434 .461 19.434 .461 L 19.43 .461 C 19.43 .461 18.098 .371 16.477 .266 L 13.527 .07 L 13.457 .07 C 13.418 .07 13.371 .07 13.348 .07 Z M 13.348 .07 "/>
        </g>
    </g>
</svg>