<?xml version="1.0" standalone="no"?>
<!DOCTYPE svg PUBLIC "-//W3C//DTD SVG 20010904//EN"
 "http://www.w3.org/TR/2001/REC-SVG-20010904/DTD/svg10.dtd">
<svg version="1.0" xmlns="http://www.w3.org/2000/svg"
 width="10724.000000pt" height="9060.000000pt" viewBox="0 0 10724.000000 9060.000000"
 preserveAspectRatio="xMidYMid meet">

<g transform="translate(0.000000,9060.000000) scale(0.100000,-0.100000)"
fill="#000000" stroke="none">
<path d="M73758 90585 c-2 -3 -179 -5 -394 -6 -530 -3 -1620 -25 -2234 -44
-1746 -57 -2727 -101 -4090 -185 -14588 -902 -25941 -4349 -33930 -10303
-3671 -2736 -6616 -5975 -8865 -9747 -740 -1241 -1434 -2605 -2010 -3945 -454
-1059 -824 -2047 -1019 -2720 -432 -1494 -632 -2974 -613 -4515 9 -702 48
-1234 138 -1854 52 -361 151 -863 175 -886 5 -5 8872 -5512 19704 -12239
10832 -6727 19699 -12237 19704 -12244 5 -9 -481 -1262 -1426 -3673 -789
-2012 -1485 -3802 -1547 -3977 -986 -2797 -1981 -4836 -3174 -6506 -1719
-2406 -3928 -4123 -6862 -5331 -3324 -1370 -7732 -2116 -13350 -2260 -225 -5
-464 -13 -530 -16 -66 -3 -6971 -9 -15343 -12 l-15224 -7 -1428 -4050 c-786
-2227 -1428 -4050 -1427 -4051 1 0 1181 -67 2622 -148 1441 -81 4139 -232
5995 -336 1856 -105 5015 -282 7020 -395 2005 -113 5569 -313 7920 -445 2351
-132 6077 -342 8280 -466 l4005 -225 1455 5 c800 2 1640 9 1865 15 1837 47
2855 84 4155 151 12425 644 22285 2989 29790 7085 3530 1927 6561 4265 9060
6990 2603 2837 4640 6074 6200 9850 47 114 248 680 466 1315 210 613 410 1193
444 1289 370 1058 590 2313 650 3711 11 259 5 1305 -9 1550 -85 1499 -284
2843 -613 4140 -49 195 -92 364 -95 375 -3 14 -614 400 -2006 1266 -1101 686
-4216 2625 -6922 4309 -2706 1685 -6241 3885 -7855 4890 -1614 1005 -4517
2812 -6450 4015 -5977 3721 -11603 7223 -13232 8237 -857 534 -1558 973 -1558
977 0 19 1954 5437 2046 5676 1240 3188 2527 5484 4110 7330 507 592 1127
1213 1719 1720 1276 1096 2784 2016 4525 2762 3464 1485 8049 2348 14095 2653
1039 52 2246 93 3145 105 228 4 433 9 455 12 22 3 5276 8 11676 10 l11636 4
1316 3982 c725 2190 1317 3988 1317 3995 0 6 -9 12 -20 12 -12 0 -7372 486
-16357 1080 l-16337 1080 -382 0 c-210 -1 -383 -3 -386 -5z"/>
</g>
</svg>
