<svg xmlns="http://www.w3.org/2000/svg">
<defs>
<font id="Access-Distorted" horiz-adv-x="500" >
  <font-face 
    font-family="Access Distorted"
    font-weight="400"
    font-stretch="normal"
    units-per-em="1000"
    panose-1="0 0 0 0 0 0 0 0 0 0"
    ascent="800"
    descent="-200"
    x-height="451"
    cap-height="687"
    bbox="-308 -263 1258 947"
    underline-thickness="50"
    underline-position="-205"
    unicode-range="U+000D-FB02"
  />
<missing-glyph horiz-adv-x="682" 
d="M141 626l-1 -17l9 -18l-2 -15l7 -12l-5 -13l-7 -16l5 -23l7 -9v-18l-9 -13l9 -18l-9 -12l-5 -13l4 -21l2 -11l6 -19l2 -12l-12 -17l1 -16l2 -17l9 -14l-9 -13l2 -17l-5 -17v-7l6 -16l6 -17l-7 -20l-1 -10l7 -13l-1 -15v-18l-3 -15l2 -12l-10 -25l-1 -6l11 -20l9 -10
l21 -6l12 3l20 -2h13l13 -4l18 1l13 3l14 3l19 -1l4 -4l20 5l12 -1l15 -1l17 3h17l17 -1l15 -4l5 1l25 2l15 3l12 -8l18 3l16 4l13 -5l6 17l4 11l-3 15l-2 17l5 20l3 17l-4 13l-1 15l1 17l9 10l-2 18l-5 10l4 18l-10 13l4 18l-1 13l2 22l-2 10l10 12l-8 21l3 14l-1 14l4 20
l-10 12l11 16l-11 16l-2 13l3 9l3 18v19l6 18l-12 8l10 13l3 20l-5 15v15l-5 19l-2 9l-6 15l-22 7l-15 -7h-5l-17 2h-24l-8 -4l-22 2h-10l-17 6l-19 -5l-11 -1l-8 6l-15 -3l-21 3l-8 -8l-17 3l-18 6l-12 -7l-13 4h-17l-14 -3l-21 -1l-15 2l-16 3zM578 3l-23 -2l-15 1l-9 1
l-22 -8l-19 9l-8 -5l-21 3l-2 -6h-21l-17 1l-14 3l-14 -3l-11 6l-25 -2l-11 2l-19 -4l-8 -4l-9 7l-24 -7l-8 9l-15 -1l-25 -4l-8 -4l-9 6l-25 -1l-18 3l-15 -2l-14 3l-14 -2l-13 -2h-12l-11 19l-9 9l9 14l-8 18l11 14l-8 11l8 22l-14 7l14 16l-14 19l9 14l-5 19l3 7l7 17
l-8 21l8 11l-9 12l-1 18l9 18l1 11l-14 12l5 20l-4 14l5 12v15l7 13l-2 23l-1 11l-8 16l10 16l-10 12l-2 20v10l14 18l-10 9v14l1 16l5 13l-8 21l5 16l-7 12l12 18l-11 9l6 19l-2 9l11 18l15 -3l21 5l11 3h19l18 1l9 -8l21 6h15l6 -7l15 7l21 -1h49l3 1l16 2h24l14 -4l15 -1
h12l11 3l24 1l15 1h10l18 -8l12 3l32 -2l15 4l5 -4l28 3l6 -20l10 -10l-14 -17l14 -15l-3 -13l3 -12l-13 -13l10 -17l-11 -19l7 -18l-1 -6l-4 -23l9 -8l3 -20l-8 -9l-6 -22l4 -13l5 -9l-4 -18l-3 -16l-1 -15l2 -20l9 -9l2 -12l-10 -19l-2 -10l8 -22l4 -10l-13 -17l7 -19

<glyph glyph-name=".notdef" horiz-adv-x="682" 
d="M141 626l-1 -17l9 -18l-2 -15l7 -12l-5 -13l-7 -16l5 -23l7 -9v-18l-9 -13l9 -18l-9 -12l-5 -13l4 -21l2 -11l6 -19l2 -12l-12 -17l1 -16l2 -17l9 -14l-9 -13l2 -17l-5 -17v-7l6 -16l6 -17l-7 -20l-1 -10l7 -13l-1 -15v-18l-3 -15l2 -12l-10 -25l-1 -6l11 -20l9 -10
l21 -6l12 3l20 -2h13l13 -4l18 1l13 3l14 3l19 -1l4 -4l20 5l12 -1l15 -1l17 3h17l17 -1l15 -4l5 1l25 2l15 3l12 -8l18 3l16 4l13 -5l6 17l4 11l-3 15l-2 17l5 20l3 17l-4 13l-1 15l1 17l9 10l-2 18l-5 10l4 18l-10 13l4 18l-1 13l2 22l-2 10l10 12l-8 21l3 14l-1 14l4 20
l-10 12l11 16l-11 16l-2 13l3 9l3 18v19l6 18l-12 8l10 13l3 20l-5 15v15l-5 19l-2 9l-6 15l-22 7l-15 -7h-5l-17 2h-24l-8 -4l-22 2h-10l-17 6l-19 -5l-11 -1l-8 6l-15 -3l-21 3l-8 -8l-17 3l-18 6l-12 -7l-13 4h-17l-14 -3l-21 -1l-15 2l-16 3zM578 3l-23 -2l-15 1l-9 1
l-22 -8l-19 9l-8 -5l-21 3l-2 -6h-21l-17 1l-14 3l-14 -3l-11 6l-25 -2l-11 2l-19 -4l-8 -4l-9 7l-24 -7l-8 9l-15 -1l-25 -4l-8 -4l-9 6l-25 -1l-18 3l-15 -2l-14 3l-14 -2l-13 -2h-12l-11 19l-9 9l9 14l-8 18l11 14l-8 11l8 22l-14 7l14 16l-14 19l9 14l-5 19l3 7l7 17
l-8 21l8 11l-9 12l-1 18l9 18l1 11l-14 12l5 20l-4 14l5 12v15l7 13l-2 23l-1 11l-8 16l10 16l-10 12l-2 20v10l14 18l-10 9v14l1 16l5 13l-8 21l5 16l-7 12l12 18l-11 9l6 19l-2 9l11 18l15 -3l21 5l11 3h19l18 1l9 -8l21 6h15l6 -7l15 7l21 -1h49l3 1l16 2h24l14 -4l15 -1
h12l11 3l24 1l15 1h10l18 -8l12 3l32 -2l15 4l5 -4l28 3l6 -20l10 -10l-14 -17l14 -15l-3 -13l3 -12l-13 -13l10 -17l-11 -19l7 -18l-1 -6l-4 -23l9 -8l3 -20l-8 -9l-6 -22l4 -13l5 -9l-4 -18l-3 -16l-1 -15l2 -20l9 -9l2 -12l-10 -19l-2 -10l8 -22l4 -10l-13 -17l7 -19
l-4 -13l5 -14v-10l3 -22l-8 -8l-3 -21l12 -9l-2 -15l-7 -17l-3 -13l12 -18l-5 -11l-7 -15l1 -22l7 -13z" />
    <glyph glyph-name="uni0000" horiz-adv-x="0" 
 />
    <glyph glyph-name="uni0000" horiz-adv-x="0" 
 />
    <glyph glyph-name="uni000D" unicode="&#xd;" horiz-adv-x="0" 
 />
    <glyph glyph-name="space" unicode=" " horiz-adv-x="220" 
 />
    <glyph glyph-name="exclam" unicode="!" horiz-adv-x="313" 
d="M215 35l-14 -15l-1 -11l-8 -16l-19 -1l-37 2l-9 3l-13 15l-3 10l-11 10l-8 36l13 10l5 13l13 9l21 7l31 5l17 -6l2 -14l19 -13v-14zM121 681l18 5l11 -5l20 4l23 -4l14 -8l-3 -21l-7 -12l10 -19l-4 -16l-5 -12l7 -12l3 -18l-2 -18l-7 -13l9 -9l-13 -15v-22l9 -14l1 -17
l-2 -15l-5 -13l-1 -17l7 -7l2 -22l-12 -8l2 -22l6 -16l-4 -14l2 -10l4 -21l-1 -7l-1 -18l2 -12l-10 -16l6 -18l4 -17l-24 -18l-14 7l-14 -5l-25 7l-11 10l-9 15l3 19l4 15v15l-5 9l11 19l-6 10l-1 18l1 12l4 22l-9 13l4 14l-7 13l5 18l-4 13l8 18l-6 11l8 16l-7 15l-7 17
l1 17l7 8l3 17l-12 20l9 11l-1 20l-6 15l-2 11l12 18l-13 14l14 10z" />
    <glyph glyph-name="quotedbl" unicode="&#x22;" horiz-adv-x="350" 
d="M138 674l-8 -19l-7 -17l4 -15l-4 -19l10 -8l-3 -22l-3 -9l-1 -22l7 -9l-6 -21l-6 -8v-18l7 -13l-18 -16l-11 -7l-20 4l-7 1l-24 11l-2 16l2 21l2 14l-7 15l5 9l6 18l-1 16l-9 19l3 12l-4 17l7 10l-8 23l4 8l7 23l22 -1l9 -4l23 2l10 -4zM298 665v-7l6 -24l-1 -13l-2 -17
l-5 -12l-2 -17l4 -15l7 -16l-4 -16l-2 -10l1 -21l4 -16l-9 -13l-12 -13l-11 -2l-25 1l-2 -4l-21 20l-3 12l-2 18l7 13l1 16l-9 17l3 14l5 21l-1 12l-4 16l-6 18l1 9l-2 22l3 13l14 12l14 6l13 -7h23l16 3z" />
    <glyph glyph-name="numbersign" unicode="#" horiz-adv-x="759" 
d="M311 413l9 -19l-11 -6l2 -19l-16 -14l6 -10l-12 -20l-10 -12l6 -10l-3 -16l-11 -20l16 -15l12 4l13 -3l24 4l14 -1l7 3l18 -2l13 1l21 -7l15 4l16 11l-1 20l13 9l4 16v18l10 12l6 18l-7 13l14 17l-2 14l11 13l-21 14l-6 -3l-23 5l-5 -4h-21l-12 -4l-12 1h-15l-16 -1
l-23 -1zM432 2l-15 -1h-19l-18 -1l-13 -5l-2 21l-2 8l10 15l2 19l3 9l6 15l-1 11l7 21l11 11l-4 16l13 6l-7 20l-8 14l-8 -5l-18 7l-14 -5l-24 2l-12 3l-28 -4l-23 1h-8l-23 -17l2 -15v-11l-5 -10l-6 -13l-6 -20l-5 -8l-2 -17l-12 -14l-2 -16l3 -8l-10 -16l-23 -20l-16 3
l-6 -2l-15 5l-22 2l-8 6l13 20l1 8l-3 22l2 13l14 11v14l5 13l-2 16l17 13l-5 13l13 15l-13 9l-12 -1l-23 9l-9 -9l-11 7l-21 1l-9 -8l-20 21v14l-7 15l3 13l19 18l11 -1l11 4l12 -7l21 -1l13 9l16 -3l16 3l14 -7l17 14l4 14l9 16v14l8 20l7 12l-3 17l10 14l4 14l8 6l-6 19
l-7 14l-11 5l-24 -6l-3 -1l-26 6l-6 -4l-9 4l-22 -7l-10 4l-11 11l-5 17l-6 14l7 15l10 21l12 -4l23 -3l10 9l24 -2l5 -5l26 6l11 1l6 -4l16 -3l24 12l12 14l-4 15l12 20l-8 15l12 10l6 16l5 9l8 16l-4 15l11 9l-6 15l26 14l9 -1l17 3l10 1l16 5l8 -17l-1 -15l-9 -13v-19
l-8 -14l1 -13l-7 -12l5 -8l-16 -21l-6 -7l8 -22l-2 -7l3 -17l11 -5l18 1l14 6l16 -7l20 2l15 -1l11 1l21 1l6 -1l29 17l5 11l-1 14l10 18l-6 13l12 15l5 10l-1 11l1 21l12 14l2 15l11 13l14 16l19 -3l15 -1h3l21 1v-34l-4 -10l2 -12l-7 -15l-12 -18l3 -11l-3 -8l-11 -21
l-5 -10l4 -18l-2 -12l-1 -9l27 -9h9l18 3l16 1l8 4l23 -6l12 -14l-1 -18l1 -15l6 -12l-20 -18l-12 4l-13 -2l-20 1l-12 1h-15l-19 -1l-18 -2l-1 2l-28 -12l-5 -16l1 -19l-2 -5l-10 -18l-1 -20v-10l-9 -10l-17 -29l5 -21l13 -13l8 6l12 -9l13 4l12 5l24 -7l11 5l8 -5l21 2
l12 -14l-2 -11l5 -23l-3 -15l-17 -15l-14 5l-21 2h-2l-14 -3l-30 1l-6 -3l-10 4h-29l-2 -1l-25 -19l-1 -13l-6 -10l-5 -18l-8 -16v-12l-13 -11l-4 -17v-14l-4 -12l-4 -15l-5 -9z" />
    <glyph glyph-name="dollar" unicode="$" horiz-adv-x="566" 
d="M348 78l16 10l9 4l18 12l13 6l11 10l-4 14l7 16l15 13l-9 36l4 14l-5 11l-21 9l2 16l-22 12l-6 4l-23 11l-10 2l-13 -5l4 -15l-2 -19l7 -14l-10 -19l2 -9l-2 -19l7 -14l2 -10v-16l-11 -21l5 -14l-4 -17zM229 604l-18 -4l-13 -8l-4 -17l-8 -6l-8 -18l-14 -11l8 -9l-11 -37
l11 -16l5 -11l8 -9l4 -15l19 -12l10 -1l9 -7l20 8l-2 13v11l-1 18l6 15v9l-8 16v20l3 13l5 15l-1 13l1 16zM420 18l-18 -7l-12 -8l-11 -2l-17 -5h-22l-8 -24v-11l-1 -16l3 -14l3 -16l-19 -18l-13 2h-22l-5 -6l-9 7l-15 14l-2 15l-6 12l3 18l-5 14l-11 25l-12 -4l-11 8l-18 1
l-11 5l-20 11l-12 2l-20 9l-4 1l-20 13l-9 11l-18 6l-8 13l-5 11l-21 9l9 21l10 6v10l8 11l15 9l11 9l16 -10l20 -17l12 -5l3 -8l13 -12l10 -6l25 -9l10 -5l15 -4l11 -9l11 12l10 17l-1 15l-4 20l6 13l-1 17l1 11l-4 14l-9 16l4 15l-4 12l12 23l-1 14l-9 11l6 14l-15 26h-7
l-22 6l-17 3l-14 14v2l-12 10l-25 10l-9 9l-8 9l-25 23l-2 6l-11 16l-4 12l-5 17l6 19l-7 10l2 32l-4 17l3 12l14 20v11l5 17l11 6l6 14l14 18l23 17l7 -1l13 16l5 -1l22 7l12 9h11l24 1l14 20l-9 17l-2 12l7 20l-1 12l3 10l5 16l24 2h11l19 3l2 -8l23 -15l-3 -11l-1 -12
l-7 -18l2 -18l12 -12v-15l16 -4l21 -8h16l17 -10l5 -1l15 -7l8 -10l20 -6l13 -8l13 -17l8 -5l-3 -24l-7 -7l-2 -14l-20 -5l4 -10l-25 -6l-7 13l-16 3l-10 13l-17 7l-13 11l-12 7l-13 -2l-16 -9l-9 -13l12 -16l2 -19v-11l-12 -18l12 -10l-9 -15l-5 -15l8 -19l2 -13l-5 -11
l2 -24l6 -10l2 -12l17 -6l4 -2l15 -7l14 -12l18 -6l7 -4l17 -4l10 -11l19 -11l-1 -9l15 -8l10 -9l14 -9l9 -19l-2 -10l7 -12l4 -16l3 -10l6 -15l-11 -30l7 -18l-4 -10l1 -24l-9 -14l-16 -7l6 -19l-13 -3l-12 -19l-9 -4l-6 -11l-15 -11z" />
    <glyph glyph-name="percent" unicode="%" horiz-adv-x="872" 
d="M573 145l2 -10l13 -24v-5l17 -19l1 -7l12 -8l24 -9l16 -1l25 -6l12 12l12 2l20 12l15 3l9 19l1 9l5 14l9 16l-5 33l-7 11l-5 17l-1 10l-7 19l-2 6l-17 14l-9 5l-24 6l-8 4l-21 -6l-16 2l-21 -11l-9 -1l-7 -14l-12 -14l-14 -5l-1 -14l-11 -13l5 -15zM831 232l6 -6l3 -20
l-8 -16l9 -13l-6 -27l4 -23l1 -6l-11 -19l1 -15l-9 -17l-3 -4l-18 -12l-8 -13l-5 -8l-21 -15l-26 -15l-14 -9l-9 -2l-15 4l-24 -1l-24 -5l-18 -3l-20 8l-2 8l-18 -2l-14 7l-17 11l-3 5l-21 13l-11 15l-3 6l-9 31l-19 12l5 11l-6 19l-9 11l4 34l4 16l1 19l11 15l4 14l8 9
l7 13l-1 10l10 17l13 7l23 5l16 20l19 3l11 5h11l27 9l29 -8l8 -2l15 1l21 -4l17 -7l9 -4l17 -9l5 -11l17 -7l11 -11l9 -17zM299 532l4 15l-18 16l8 13l-8 12l-20 12l-4 5l-9 8l-24 8l-15 -1l-25 2h-12l-9 -4l-18 -7l-11 -17l-3 -5l-11 -9l-4 -17l-8 -10v-21l2 -29l-9 -14
l8 -15l5 -10l21 -17l1 -11l15 -7l21 -5l9 -9l55 8l15 10v4l23 7v17l6 10l13 22l1 9zM173 13l6 11l17 17l2 12l12 4l3 22l11 11l12 13l9 13l1 8l7 10l21 12l3 20l3 12l17 7l-4 11l18 14l7 14l4 17l10 10l9 8l4 19l11 7l18 26l7 16l11 9l10 16l1 13l15 6l-2 13l19 15l9 11
l9 17l-2 5l17 12l-3 21l11 6l8 19l7 9l8 8l7 13l19 15l2 8l6 17l7 13l4 8l13 14l4 15l21 9l-1 13l11 18l9 5l1 21l35 6l8 7l14 -2l14 -5l21 1v-6l-16 -20l1 -7l-22 -44l-11 -5l-3 -12l-18 -17l1 -11l-16 -13l-6 -11l-10 -15l-7 -7l-7 -17l-2 -17l-9 -7l-16 -10l-5 -18
l-16 -11l-7 -9l5 -20l-19 -8l-6 -16v-5l-11 -15l-8 -10l-8 -15l-5 -16l-13 -9l-15 -17l3 -14l-12 -4l-5 -16l-8 -13l-14 -14l-13 -8l3 -14l-9 -14l-16 -12l-5 -17l-16 -12l1 -11l-14 -6l-7 -12l-8 -17l-12 -9l1 -20l-17 -3l1 -19l-18 -11l6 -15l-9 -13l-9 -8l-26 -18l-20 9
l-8 -3l-19 -5l-16 5zM43 447l3 9l-17 14l-2 21l3 14l1 30l7 12l-5 16l9 22l9 11l5 9v19l20 10l2 15l14 7l16 6l23 17l13 7l12 5l10 -1l15 4l41 -5l13 7l6 -8l24 -2l16 -7l17 -11l7 1l11 -11l10 -11l17 -13l5 -9l18 -31l2 -16v-11l11 -11l1 -19l-4 -29l-3 -17l-2 -20l-4 -5
l-5 -21l-7 -9l-12 -14l-11 -14l-6 -11l-4 -5l-17 -11l-19 -14l-29 -10h-9l-8 -7l-18 -5l-55 4l-2 9l-20 -4l-20 10l-24 17l-10 3l-5 14l-16 8l-7 10z" />
    <glyph glyph-name="ampersand" unicode="&#x26;" horiz-adv-x="633" 
d="M293 78l16 -7l20 12l16 5l7 -2l22 10l2 13l15 11l8 10l3 18l14 11l3 17l1 11l5 20l-4 26l-5 14l9 24l-10 28l-8 19l-19 -1l-22 -5l-15 -1l-6 -1l-18 9l-20 -7l-25 1l-14 1l-25 -5l-6 -5l-18 -1l-18 -8l-3 -8l-9 -10l-22 -13l-8 -12l3 -13l-2 -16l-16 -10l13 -52l1 -15
l9 -10l1 -15l26 -18l15 -7l11 -12l22 -3l7 -5l18 -2zM601 377l6 -16l-3 -12v-21l-19 -16l-14 7l-18 -1l-13 -1l-26 -19l4 -13l-3 -20l5 -20l-13 -12l1 -28l7 -16l-1 -16l-11 -14l-7 -15l-1 -10l2 -16l-5 -17l-10 -8l-7 -13l-14 -18l-13 -5l-13 -13l-5 -6l-21 -11l-28 -15
l-8 -11l-17 -2l-34 -5l-15 -1l-15 -5l-31 3l-12 1l-15 1l-17 8l-10 -5l-22 6l-3 5l-23 8l-10 8l-13 6l-11 13l-4 8l-21 12l-11 9l-8 29l-7 17l-6 12l-1 11l-2 23l-11 15l-2 29l6 10l10 20l-1 13v12l5 15l12 14l10 9l5 12l24 7l1 14l14 2l19 7l7 9l-1 9l-6 7l-16 8l-9 13
l-6 8l-9 13l-19 18l-9 12l-4 15l-5 11l-4 11l-1 15l-4 36l13 11l-4 19l9 10l-2 16l7 9l13 21l9 12l15 4l9 11l10 18h18l24 21l13 4l16 7l16 1l12 -1l12 4l35 5l18 -10l8 4l9 -3l17 -9l19 -6l7 -4l20 -1l11 -6l16 -14l13 -6l5 -9l12 -7l9 -13l11 -8l17 -18l-11 -16l-22 -25
l-6 -11l-30 -3l-5 11l-13 10l-4 14l-24 9l-5 7l-12 7l-12 12l-21 -4l-6 9l-16 -3l-25 8l-16 -1l-21 -9l-8 -3l-15 -5l-7 -13l-19 -11l-8 -9l-9 -21l4 -9l-3 -13l-10 -28l3 -17l13 -11l6 -15l13 -14l11 -15h6l8 -16l11 -5l17 -3h24l18 -3l19 -2l18 9l10 -3h23l16 -3h37l23 3
h12l23 -1l2 -1l24 5l9 -3l39 3l9 -2l10 -3l25 5z" />
    <glyph glyph-name="quotesingle" unicode="'" horiz-adv-x="177" 
d="M126 672l11 -16l-11 -14l9 -14l-11 -22l1 -18l7 -13v-13l-2 -11l3 -19l-4 -16v-12l-2 -23l-5 -11l-9 -19l-22 4l-8 1l-18 -3l-18 17l1 14l7 20l-12 14l5 14l-6 14l10 14l-5 14l6 19l-11 14l10 20l-12 10l10 21l-11 15l14 8l20 8l18 -2l17 -7l9 6z" />
    <glyph glyph-name="parenleft" unicode="(" horiz-adv-x="417" 
d="M367 643l-10 -4l-26 -11l1 -7l-12 -8l-21 -17l-1 -11l-14 -5l-3 -15l-22 -15l-10 -14l-9 -7l1 -9l-9 -15l-12 -24l-4 -20l-8 -16l-7 -12l-13 -11v-11l-12 -21l3 -15l2 -12l-15 -10l9 -17l-13 -17l-1 -13l3 -20l-3 -13l-2 -30l10 -10l-3 -18l1 -20l4 -14l6 -12l2 -18
l4 -13l3 -10l1 -21l-1 -11l5 -12l11 -16l-1 -17l12 -14l11 -24l8 -15l7 -14l23 -7l1 -12l15 -11l13 -16l8 -10l8 -13l10 -8l6 -9l16 -6l9 -15l18 -9l3 -11l7 -20v-6l-5 -16l-8 -11l-6 -16l-20 3l-11 9l-24 6l-3 8l-12 9l-16 4l-4 14l-21 7l-10 13l-14 7l-10 11l-3 16l-10 9
l-10 5l-5 14l-17 14l-6 16l-14 4l2 19l-16 22l-11 17l2 7l-14 14l-12 13l2 19l-9 17l4 11l-14 12v15l-10 14l11 14l-7 19l2 9l-1 19l-7 12l-1 22l4 14l-7 31l5 12l-4 11l10 21l-11 10l1 17l15 13l-7 16l2 17l13 11l8 15l5 19l-9 8l13 18l7 9l11 14l-1 22l13 13l3 19l20 15
l4 10l5 9l6 12l11 15l16 15l1 10l15 12l5 7l18 14l2 7l20 8l14 14l9 3l8 11l21 9l5 8l8 4l20 4l11 -20l1 -11l21 -12l5 -7z" />
    <glyph glyph-name="parenright" unicode=")" horiz-adv-x="417" 
d="M41 -142l11 9l14 9l9 13l14 8l12 8l8 11l14 11l12 11l3 18l8 5l12 12l13 15l3 12l8 17l23 20l-4 18l13 17l-1 9l15 19l7 6l-9 13l5 24l3 12l16 11v19l-6 10l7 19l1 14l-7 13l3 36l4 9l-8 20l3 8l-4 16l7 19l-13 19l-6 14l5 8l-9 16l-4 18l-7 10l-8 12l-5 18l1 16l-23 18
l-11 14l1 17l-8 12l-14 17l-3 9l-19 9l-1 16l-22 2l-12 19l-1 8l-17 8l-15 9l-1 13l-18 8l-8 14l12 14l3 18l18 4v13l17 2l10 -7l13 -8l11 -6l18 -9l13 -12l2 -2l10 -14l11 -10l21 -5l7 -16l10 -9l7 -12l18 -15l-3 -5l21 -13l1 -15l8 -9l11 -15l13 -28l12 -12l1 -11l12 -11
l7 -12l3 -17l-1 -15l3 -14l14 -14l4 -17l-7 -11l9 -19l5 -17l-1 -8l-5 -19l15 -14l-2 -14l-10 -20l1 -26l6 -14l-9 -14l4 -20l1 -10l-7 -21l-2 -12l-1 -9v-32l-7 -19l-3 -16l-14 -10l-8 -14l4 -18l-16 -7v-17l-10 -15l-14 -26l-7 -5l-7 -14l-12 -17l-4 -9l-14 -14l-3 -15
l-20 -11l-10 -13l-11 -8l-10 -5l-17 -14l-12 -14l-4 -10l-17 -10l-13 -3l-9 -6l-8 -17l-18 11l-21 9l3 17l-6 10l-13 12z" />
    <glyph glyph-name="asterisk" unicode="*" horiz-adv-x="479" 
d="M392 439l-17 -5l-9 -12l-14 -9h-25l-6 13l-11 21l-9 13l-6 14l-16 9l-12 16l-9 13v5l-15 15l-14 1l-7 -17l-4 -13l-16 -4l2 -14l-23 -14l-4 -14l-7 -17l-12 -6l-8 -19l-16 -6l-9 18l-20 9l-17 8l5 17l10 12l-1 15l17 13l11 12v12l12 6l8 14l13 16l18 8l-12 20l-8 6h-34
l-20 12l-11 -2l-12 9l-19 5l-9 -2l-16 8l-17 20l6 16l4 16l6 11l29 13l6 -4l10 -11l18 1l20 -7l14 -9l8 -9l23 -2l14 -3l6 -7l14 15l4 12l-4 16l-1 17l1 17l4 14l-5 17l4 11l-1 14l7 21l13 -9l19 9l17 -1l13 -23l12 -14l-10 -16l-1 -7l6 -20l-3 -19l-3 -15l4 -15l-12 -14
l22 -11l14 12l15 2l20 2l13 4l13 7l14 11l3 2l20 5l22 12l15 -17l10 -13l5 -19l-7 -17l3 -14l-24 -1l-8 -13h-14l-14 -2l-12 -7l-15 2l-21 -7l-10 -9l-26 -1l5 -18l1 -6l12 -14l19 -15l6 -13l1 -14l17 -11l9 -5l12 -18l-2 -9z" />
    <glyph glyph-name="plus" unicode="+" 
d="M457 356l-1 -16l6 -12l-3 -17l-12 -10l-17 -4l-12 2l-16 -4l-22 -1h-18l-5 8l-21 -3l-7 3l-25 -7l-18 -11l11 -21l-11 -7l7 -17l1 -20l-4 -15l-1 -11l6 -19l4 -11l-3 -18l-19 -13l-19 -7l-14 1l-12 5l-12 -6l-14 14l2 23l-9 15l14 8l-5 23l1 8l2 19l-6 16l6 18l-1 11
l-16 19l-21 -6l-13 8l-18 -5h-17l-18 -1l-7 7l-12 -6l-26 4h-4l-14 17l-13 11v17l4 17l17 18l15 -1l20 -8h18l15 4l4 -3l27 3l2 -2l20 3l13 -5l26 21l-3 11l4 15l-5 18l5 16l-3 17l1 18l-10 9l-2 21l9 18l12 10l15 -1h12l15 -3l18 6l10 -14l10 -18l-7 -18l4 -15v-15l-5 -15
l5 -14l-10 -12l5 -18l1 -16l8 -20l26 6l12 -5l13 6l12 -2l18 -4l15 4h15l23 3l3 -9z" />
    <glyph glyph-name="comma" unicode="," horiz-adv-x="261" 
d="M138 117l37 -13l8 -15l2 -14l8 -12l-9 -22l6 -19l-11 -12l-10 -30l7 -10l-15 -14l-7 -20l5 -8l-2 -20l-10 -14l-5 -9v-12l-28 -13l-5 -2l-28 -6l-5 18l-2 16l11 13l-9 17l17 11l3 15l-10 13l16 15l-6 17l-9 22l-9 10v8l-11 15l8 26l-9 10l11 17l18 9l2 8h14z" />
    <glyph glyph-name="hyphen" unicode="-" horiz-adv-x="360" 
d="M300 249h-20l-16 -2l-14 -1l-19 2l-16 -2h-13l-17 -1l-6 -3l-19 7l-18 -8l-16 4l-11 4l-13 -1l-23 -6l-8 6l-22 7l-4 16l8 16l3 17l-7 12l16 19l8 -3l19 -3h19l11 4l13 -1l27 -3l14 -2l10 2l10 7l23 -2l20 -6l2 2l29 -1l10 3l12 -4l15 -15l1 -9l4 -17l4 -10l-12 -19z" />
    <glyph glyph-name="period" unicode="." horiz-adv-x="261" 
d="M188 40l5 -18l-7 -5l-12 -10l-15 -9l-22 -10l-18 8h-10l-26 5l-8 16l-4 11l-2 9l-4 27l9 12l11 20l4 1l17 12l4 8l41 -8l1 -1l18 -9l7 -9l11 -6l9 -21z" />
    <glyph glyph-name="slash" unicode="/" horiz-adv-x="445" 
d="M410 675l-6 -17l-14 -17l4 -14l-12 -15l-10 -7l6 -12l-13 -18v-14l-14 -14l-3 -16l-1 -14l-5 -6l-10 -23l-7 -12l-1 -12l-13 -11l4 -18l-7 -7l-13 -22l2 -7l-7 -19l-12 -10v-18l-8 -9l-1 -13l-16 -12l-4 -22l-4 -4l-9 -16l-1 -13l-8 -13l-4 -16l-2 -18l-16 -9l-3 -13
l-3 -20l-13 -6l-2 -22l-9 -10v-12l-2 -12l-5 -13l-9 -14l-6 -18l-12 -16l5 -12l-7 -9l-12 -18l-21 -9h-6l-28 -4l-14 -1l-13 1l-12 18l17 11l-1 15l8 9l7 13l2 19l2 12l8 15l4 11l3 18l20 15l-1 10l3 17l7 10l11 12l8 18l-8 6l13 15l4 19l6 8l8 17l2 17l8 14l6 10l14 16
l3 11l3 13l2 11l14 17l-7 18l17 12l5 16l-4 11l9 14l7 13l13 13l-1 14l3 14l9 16l8 11l-3 10l10 13l8 13l12 16l4 14l6 20l7 9l1 15l1 12l23 13l18 6l7 -3l27 -5l16 6z" />
    <glyph glyph-name="zero" unicode="0" horiz-adv-x="617" 
d="M440 215l14 17l3 20l-1 12l-8 17l11 10l-4 19l5 11l-4 39l7 12l-6 12l4 16l-15 15l10 17l-2 11l-14 13l5 22l-13 11l4 15l-4 10l-10 11l-8 20l-3 4l-8 19l-23 11l-9 11l-1 8l-23 6l-14 4l-9 -1l-24 3l-23 -10l-19 -3l-5 -2l-9 -9l-17 -10l-12 -10l-12 -20l-10 -4l-4 -19
l-9 -17l-4 -13l3 -24l-7 -15l-10 -22v-14l5 -12l-6 -15l3 -13v-25l-12 -27l-1 -17l14 -16l-8 -14l5 -13l-4 -8l9 -23l-4 -10l10 -13l-2 -19l9 -7l3 -19l18 -14l-1 -13l14 -5l10 -20l12 -15l18 -5l5 -7l18 -10l20 3l32 -9l3 7l13 10l17 1l22 12l10 7l9 7l5 16l4 14l14 13
l-2 12l9 11zM84 169v17l-4 15l-8 15l-2 12l-3 24v29l1 12l-1 22l-6 10l-3 36l9 8l-2 14l5 14l-7 21l8 13l-7 11l5 14l13 19l-8 11l9 20l11 16l-3 10l11 12l5 12l10 14l2 18l11 12l8 11l10 12l4 4l46 28l7 16l6 5l26 3l5 2l25 9l11 5l7 1l45 -2l2 -3l22 1l21 -6l1 -8l18 -7
l16 -2l12 -11l13 -4l13 -9l12 -17l2 -13l22 -12l4 -9l7 -16l6 -7l6 -15l11 -16l4 -30l9 -13l2 -14l5 -12l13 -11l-9 -15l5 -13l7 -15l-6 -21l1 -13l8 -13l-4 -18l-5 -25l7 -13v-15l-1 -14l-2 -22l-3 -11l-10 -14l-1 -18l6 -15l-14 -15l-1 -14l-11 -22l-6 -17l-9 -11l4 -12
l-11 -12l-13 -17l-4 -7l-16 -16l2 -11l-13 -13l-35 -16l-4 -3l-34 -14l-5 -5l-14 -7l-15 -4l-22 6l-25 -8l-18 7l-11 -4l-21 6l-15 5l-17 6l-1 9l-15 7l-21 2l-4 12l-19 14l1 10l-10 5l-13 17l-14 10l-8 13l1 14l-13 13l2 13z" />
    <glyph glyph-name="one" unicode="1" horiz-adv-x="357" 
d="M143 596l-13 -10l-11 -16l-2 -6l-18 -10l-8 -8l-23 -10l-8 -7l-18 -1l-9 6l-4 9l6 16v13l5 17l9 22v7l19 10l6 6l22 6l8 17l8 8l19 5l13 10l21 5l18 -1l20 2h6l22 -2l3 -3l25 -11l-7 -13l5 -16v-19l5 -10l-9 -19l4 -12l-5 -16l4 -11l-4 -16l9 -14l-1 -20l-3 -18l4 -8
l-1 -16l-9 -17v-16l9 -11l1 -19l-7 -13l9 -17l-9 -17l7 -11l-2 -12l-8 -18l8 -10v-16l-4 -13l4 -18l2 -12l-8 -17v-13l8 -18l-2 -20l-7 -6l-3 -24l2 -9l-1 -18l1 -11l4 -15v-22l-4 -26l2 -11l6 -16l-25 -15l-12 1l-12 -5h-24l-9 -2l-12 22v15l-4 16v14l5 15l-1 8l2 17v13
l-7 20v31l-3 16v9l3 17l-3 20l3 7l-5 17v16l11 19l3 13l-11 19l5 15l-8 8l13 15l-3 18l4 17l-9 16l5 17l-2 13l-5 13l11 15l-10 12l3 14l-1 18l5 18l2 14l-1 18l-1 10l-2 15z" />
    <glyph glyph-name="two" unicode="2" horiz-adv-x="523" 
d="M181 81l15 -4l9 4l17 1l11 -1l18 -3l11 -1l17 -2l12 4l20 -1l11 -2l22 4l5 -5l17 2l22 1l16 4l15 -3l17 2l10 2h20l3 -19l9 -18l-6 -17l7 -9l-16 -20l-17 -5l-20 3l-7 3l-23 -4l-18 3l-11 -2l-18 -1l-7 6l-20 -5l-16 -2l-3 3l-25 -1l-15 3h-14l-14 -2l-20 2l-5 -6l-14 6
l-22 -5l-5 6l-25 1l-9 -7l-16 4h-22l-10 -2l-13 3l-11 -3l-26 15l1 24v10l9 29l16 13l4 10l11 10l12 20l9 5l7 15l23 21l19 10v17l16 5l4 17l15 7l15 16l-2 11l8 11l9 9l30 23l4 16l7 10l10 11l19 13l12 19l7 13l20 17l-3 4l8 13l18 21l1 10l5 18l9 17l5 15l-7 30l-6 15
l-7 10l-7 14l-5 16l-11 13l-13 2l-13 4l-21 5l-16 6l-27 5l-24 -14l-10 4l-22 -7l-6 -15l-22 -1l-12 -18v-4l-16 -9l-20 -10l-10 -8l-8 9l-15 11l-14 15l1 2l-10 24l15 15l6 12l21 9l10 9l12 4l12 11l6 7l10 12h22l14 6l9 3l7 6l17 8l12 -6l25 10l41 -10l20 3l7 -7l17 -4
l8 1l12 -7l23 -5l2 -11l18 -14l7 -6l13 -15l10 -9l15 -20l5 -18v-13l12 -10l-1 -19l6 -11l-11 -33l11 -12l-2 -16l-13 -13l2 -16l-16 -14l-5 -16l-5 -7l-10 -19l-6 -10l-3 -10l-8 -15l-9 -15l-18 -13l-14 -17l-18 -20l-6 -11l-8 -6l-7 -12l-13 -8l-4 -13l-9 -14l-22 -8
l3 -18l-22 -5l1 -11l-14 -9l-13 -13v-18l-16 -7l-7 -9l-7 -18l-18 -11z" />
    <glyph glyph-name="three" unicode="3" horiz-adv-x="537" 
d="M149 330l3 12l6 25l-10 15l11 15l27 -2l17 -1l2 -1l15 -1h29l23 6l6 4l17 2l23 15l5 1l4 17l11 6l12 14l1 20l5 9l3 37l-6 8l-7 19l-1 14l-17 8l-3 12l-6 10l-12 5l-19 3l-18 6l-17 3l-17 -3l-15 2l-25 -5l-9 -3l-14 -12l-13 -5l-11 -13l-7 -6l-18 -12l-15 -11v-10l-34 3
l-3 16l-7 5l-16 17l3 17l3 11l17 16l10 5l7 8l8 15l16 10l2 4l22 8l12 4l32 10l9 4l11 1l16 9l17 -5l29 3l8 -3l26 1l5 -7l16 3l11 -15l32 -4l10 -8l19 -15l12 -4l1 -17l18 -11l16 -24l-6 -11l8 -19v-8l6 -15l8 -18l-10 -29l2 -15l-7 -13l-1 -16v-11l-3 -15l-18 -7l-9 -14
l-10 -10l-5 -3l-12 -15l-21 -1l7 -15l5 -8l19 -4l14 -13l8 -11l20 -3l3 -16l12 -6l11 -18l4 -16l13 -9l3 -16v-13l1 -14l-2 -36l-5 -16l1 -14l-7 -13l-3 -16l-7 -15l-8 -7l1 -20l-9 -12l-16 -8l-13 -13l-10 -7l-22 -10l-23 -10l-9 -7l-15 -1l-12 -10l-20 -5l-15 3l-19 -4
l-19 -1l-12 8l-16 1l-25 -3l-6 8l-10 4l-25 -1l-14 6l-15 4l-10 12l-7 7l-16 4l-9 12l-15 4l-11 11l-17 10l-7 11l8 23l6 9l6 15l12 6l3 14h30l-3 -14l15 -4l7 -11l19 -5l18 -11l13 -11l6 1l20 -7l16 -9l8 3l7 -3l16 -8l34 7l9 -5l27 4l2 10l14 6l14 12l18 5l5 11l16 13
l1 11l8 20l-4 16l7 26l-10 15l5 18l-9 12l-15 12l-2 8l-15 15l-12 1l-21 9l-9 5l-16 2l-6 7l-21 -2h-26l-23 7h-11l-15 -4l-19 -3z" />
    <glyph glyph-name="four" unicode="4" horiz-adv-x="578" 
d="M139 247l21 -8l10 1l21 1l19 3l6 -6l21 9l14 -4l18 -3l3 -1l18 4l16 2l14 -2l17 -2l12 12l13 19l-3 20l-3 11l-4 17l3 10l1 15l-3 14l-4 22l1 13l6 15l-8 14l12 14l-9 11l7 17l-1 13l-3 23v9l-5 21l7 9l-3 5l-21 -14l2 -15l-7 -10l-18 -10v-7l-10 -21l-14 -4l-2 -12
l-20 -17l-17 -23l-4 -12l-5 -9l-11 -12l-15 -18l-1 -12l-18 -6l-1 -19l-7 -6l-7 -18l-8 -11l-14 -14l-9 -10l-14 -6zM372 682h10l21 -1l14 4h8l14 -11l7 -16l-2 -21l-7 -15l3 -9l1 -16l-1 -23l5 -13l-1 -17l-5 -16l3 -9l8 -17l-6 -18l-7 -12l4 -15l7 -12l-7 -35l9 -12
l-2 -15l-10 -16l10 -20l-9 -13l-2 -11l6 -20l-4 -19l9 -10l2 -19l13 -10h7l12 1l18 -7l7 8l23 -2l15 -16l-9 -23l7 -16v-16l-17 -15l-8 7l-17 -1l-16 -4l-15 -2l-6 5l-27 -22l8 -9l-3 -11l-6 -15l1 -21l1 -15l1 -10l-1 -21l9 -8l-10 -19l-6 -9l-24 -9l-15 6l-7 -2l-14 -3
l-20 17l6 17l-7 9l9 21l-7 9v23l9 6l-10 23l-1 11l5 10l-19 19l-6 -2h-27l-12 7l-5 -1l-16 -5l-15 3h-24l-12 -6l-9 2l-22 6l-19 -4l-9 -1l-14 3h-9l-13 2l-19 1l-23 -1l-8 -6l-10 -2l-15 4l-24 13v17l10 21v30l11 16l14 8l2 9l10 11l16 16l6 14l10 13l1 13l10 12l12 13
l10 13l13 11l6 10v11l18 11l-1 16l15 10l14 17l4 11l7 7l12 14l4 15l11 10l11 16l1 6l21 12l-3 12l18 18l3 10l19 15l-4 9l21 12l9 14l10 10l-5 16z" />
    <glyph glyph-name="five" unicode="5" horiz-adv-x="545" 
d="M479 318l2 -17l9 -13l-1 -19l4 -12l1 -10l2 -22l2 -26l1 -15l-1 -13l-1 -17l-16 -11l3 -20l-13 -11l-2 -10l-5 -16l-10 -6l-16 -20v-7l-13 -10l-18 -7l-1 -12l-39 -12l-12 -10l-8 -3l-18 -5l-21 2l-3 -8l-21 3l-24 -5l-19 2l-23 4l-10 8l-20 -1l-16 2l-9 4l-20 6l-10 5
l-15 6l-23 23l-10 7l-17 8l-5 10l-10 17l-5 19l6 14l14 2l4 14l11 12l28 -2l3 -6l19 -15l14 -12l10 -2l3 -13l19 -2l12 -13l21 -4l17 -5l16 -3l5 1l27 -2l20 4l13 8l12 1l21 7l6 8l26 30l17 7l5 12l3 24l9 7l-11 20l8 35l-11 6l6 22l-4 11l-13 12v14l-14 13l-5 4l-11 16
l-18 4l-7 11l-17 1l-17 4l-14 -2l-26 7l-12 -7l-18 -5l-12 2l-16 -5l-17 -8l-11 -2l-11 -13l-32 1l-13 13l-9 7l-10 9l-26 20l12 17l-9 18l11 14l-5 11l5 14l3 15l-5 16l12 13l1 22v15l-9 11l3 15l11 17l-4 12v14l2 19l-1 10l11 23l-10 11l7 18l21 12l11 -5l10 2l13 6l21 -1
l7 -7h16l17 3l13 2l21 -2l18 4l5 2l25 -7l8 3l14 -1l16 2l19 -3l15 1l12 -4h8l17 9l13 -6l15 -18l3 -9l-3 -23l9 -9l-15 -22l-12 -3l-22 1l-17 -1l-12 5l-14 -1l-15 -4l-19 9l-14 -2l-15 1l-12 1l-12 -3l-10 2l-17 -5l-17 -3h-12l-15 9l-19 -21l-1 -10l-3 -16l1 -15l-4 -19
l-5 -11l7 -14l-6 -16v-17l5 -17l-14 -12l1 -19l14 -9l16 12l19 1l9 4l6 6h16l19 4l29 -9l13 -1l10 3h16l13 -8l13 -1l21 -12l20 -2l-1 -8l14 -9l10 -7l19 -6l2 -19l16 -7l13 -9z" />
    <glyph glyph-name="six" unicode="6" horiz-adv-x="563" 
d="M139 198l-5 -8l11 -12l-1 -23l14 -10l10 -12l-1 -6l28 -23l3 -6l15 -11l15 -3l16 -6l5 -1l20 -1l34 -5l11 3l11 5l15 8l24 2l3 16l20 17l16 13l-4 11l12 17l2 11v11l1 22l12 22l-11 17l7 9l-8 20l-11 15l3 10l-21 10l-7 23l-12 2l-15 9l-14 10l-14 3l-7 6l-23 -3l-28 -2
l-13 -2l-21 -4l-2 2l-23 -8l-9 -7l-10 -11l-15 -16l-11 -10l-8 -14v-19l-3 -6l-7 -16l-6 -13zM494 322v-15l15 -21l-7 -6l5 -18l6 -15l-1 -15l4 -27l3 -16l-5 -22l1 -13l-15 -9v-13l-12 -13l-3 -22l-8 -4l-9 -20l-8 -5l-11 -13l-14 -9l-2 -10l-19 -12l-22 -9l-15 -13l-20 -2
l-19 -8l-3 6l-29 -7h-6l-29 3l-27 -4l-14 1l-6 9l-19 -3l-21 5l-3 6l-14 7l-19 16l-13 3l-3 12l-13 6l-10 12l-15 10l-2 20l-17 26l-14 9l1 14l-2 12l-7 14l-3 23l-5 12l-3 27v18l9 11l1 18l12 12v19l1 13l7 10v12l11 16l9 17l6 16l-1 13l20 13l-3 8l21 12l7 18l2 6l22 27
l-2 15l17 12l5 12l16 14l-1 13l16 3l-1 15l8 14l7 14l14 8l12 12l-1 11l14 18l12 7l2 19l30 7l13 -3l17 3l17 -2l20 4l3 -16l1 -6l-10 -18l-17 -8l-5 -15l-11 -10l-11 -17l4 -13l-15 -7l-13 -8l-9 -15l-3 -18l-9 -5l-10 -16l-4 -8l-17 -19l2 -4l-20 -15l1 -12l-6 -18l-6 -3
l15 6l29 4h29l15 -10l15 3l18 -9l2 4l26 -10l5 -8l30 -13l16 -8l13 -9l12 -5l7 -13l12 -6l9 -20z" />
    <glyph glyph-name="seven" unicode="7" horiz-adv-x="481" 
d="M451 670l-3 -8l7 -23l-7 -7l2 -33l-2 -12l-9 -17l-3 -14l-13 -13l-10 -11l6 -13l-4 -15l-11 -11l-9 -15l-9 -20l2 -7l-8 -18l-3 -8l-15 -14l-5 -23v-8l-4 -13l-10 -19l4 -11l-9 -17l-16 -11l2 -17l-13 -12l-3 -11l-6 -21v-6l-10 -14l-5 -17l-5 -15l-5 -19l-11 -10l-3 -16
l-8 -14l4 -8l-7 -20l-13 -10l2 -16l-7 -12l-9 -15l-5 -15l-2 -9l-15 -19l-10 -18l-25 9l-13 -8l-8 7l-14 -3l-22 2l2 8v19l2 11l16 12v21l4 8l5 15l7 13l6 12l6 17l5 13l7 11v19l5 8l13 20v13l16 6l4 20l-1 15l3 14l8 6l16 15l4 19l2 10l7 20v8l14 19l7 5l3 22l7 13l4 14
l1 15l10 6l3 17l-2 12l9 12l5 18l4 10l7 19l14 16l-3 6l10 13l12 15l-13 12l-21 2l-6 7l-22 -4l-18 -2l-12 5l-14 -7l-10 4l-22 -2l-8 1l-28 -3l-10 8l-8 -3l-23 -2l-18 3l-13 -3l-10 -3l-18 2l-9 -1l-17 5l-24 -1l-15 15l1 13l3 17l8 22l12 14l7 -4l18 2l14 1h22l16 -4
l11 2l13 -3l11 1l24 8l7 -4l15 2l19 -1l16 -5l10 5l16 3l13 -3l16 3h14l14 -1l25 -8l6 7l16 -3l17 1h15l11 3l27 -3l9 -5z" />
    <glyph glyph-name="eight" unicode="8" horiz-adv-x="590" 
d="M152 179l2 -9l4 -17l9 -17l6 -7l14 -12l30 -30l16 -8l14 2l23 -11l3 -1l32 7l20 -1l12 2l21 6l11 7l6 12l26 19l16 3l6 20l-2 10l4 8l8 14l4 34l-6 13l1 20l-15 6l3 13l-15 12l-17 9l-10 9l-10 7l-17 9l-12 3l-12 7l-13 -3l-37 2l-9 3l-17 -2l-12 -6l-17 -14l-7 2
l-15 -12l-20 -13l-11 -15l4 -12l-8 -10l-10 -9l-1 -16zM181 489l1 -17l7 -16l9 -7l-4 -12l24 -13l8 -11l6 -9l23 -5l6 1l24 -1l32 1l4 -1l12 7l14 2l13 2l20 17l6 10l9 12l5 14l9 8l10 20l-3 26l-9 20l-8 6l2 19l-12 12l-11 9l-19 13l-12 4l-8 3l-12 3l-11 7h-29l-25 -1
l-13 -11l-12 -5l-18 -6l-8 -7l-4 -14l-18 -8l2 -13l-5 -15l-15 -17zM526 180l9 -21l-4 -8l-4 -19l-11 -14l-4 -15l-8 -8l-17 -12l-1 -15l-14 -6l-10 -13l-13 -10l-9 -9l-8 -11l-28 -12l-15 1l-23 -10l-16 -2h-14l-12 -6l-15 2l-29 -2l-10 5l-13 -2l-22 4h-11l-20 4l-6 12
l-19 2l-7 4l-17 12l-19 6l-11 13l-12 7l-5 11l-9 7l-17 29l-15 13l-2 12l-3 19l-4 7l2 21l1 31l1 19l2 6l11 17l-5 21l5 8l11 17l9 7l8 17l11 10l20 10l18 8l9 5l1 14l-21 8l1 18l-19 11l-5 5l-13 10l-5 22l-3 11l-1 12l-16 18l4 12l-5 26l12 16l-10 11l10 23l12 12l-5 5
l14 18l9 11l4 10l9 12l22 10l10 5l5 13l26 16l14 5l19 1h16l12 5l19 4l28 -5l18 -2l15 3l20 -1l16 -5l10 -4l17 -6l11 -12l19 -11v-9l20 -9l13 -5l8 -19l13 -25l9 -10v-8l2 -13l9 -16v-22l1 -23l4 -21l-10 -9l-6 -17l-12 -11l-5 -16v-10l-9 -16l-19 -7l-14 -14l-1 -7l-5 -10
l13 -10l18 -7l9 -16l9 -8l17 -8l6 -20v-7l7 -19l7 -8l8 -16l3 -11l5 -23z" />
    <glyph glyph-name="nine" unicode="9" horiz-adv-x="563" 
d="M419 479l3 18l-5 14l-9 16l-4 5l-6 19l-4 9l-24 21l-8 12l-16 8l-14 4h-3l-27 1v1l-30 7l-26 -5l-20 -2l-2 -4l-12 -9l-13 -10l-23 -22l-17 -9l-5 -19l-3 -13l-8 -12l-6 -18l8 -7l-10 -33l7 -15l9 -9l-2 -17l7 -13l6 -10l12 -19l15 -17l24 -15l18 -8l13 -6l21 -3l35 -1
l4 8l21 4l4 2l22 9l13 3l7 12l23 20l13 10v10l6 15l-1 10l4 15l10 17zM244 1l-2 -6l-26 2l-2 -1l-18 4l-16 -5l-11 21l9 7l17 11l4 18l8 6l7 14l6 10l21 18v6l5 16l11 7l13 12l-1 14l22 10l7 13l4 18l7 6l4 10l10 14l18 11l-13 7l-13 -2l-17 3l-40 -3h-3l-20 9l-11 -1l-20 5
l-11 1l-22 7l-7 11l-19 5l-2 4l-11 13l-16 14l-6 7l-10 10l-15 10l-15 25l-8 22l-7 7l-3 16l-6 13l-5 17l-1 10l10 30l-7 24l7 15l-2 12l10 16l1 8l3 20l13 12l8 13l16 10l2 12l15 6l12 19l14 8l3 6l28 11l15 14l21 -3l12 11l16 -3l16 7l7 -3l32 6l19 -9l15 2l21 -7l6 1
l19 -3l14 -14l8 -7l23 -1l6 -6l13 -17l17 -12l3 -11l16 -4l4 -13l13 -33l11 -8l-4 -21l6 -6l7 -24l9 -14l-4 -14l5 -24l-4 -21v-11l-1 -14l-8 -20v-6l-16 -15l5 -20l-17 -8l6 -18l-13 -13l-1 -13l-8 -11l-10 -13l-16 -11l-1 -18l-13 -13l-9 -12l-20 -22v-15l-5 -10l-18 -13
l-8 -15l-6 -8l-8 -17l-3 -6l-8 -14l-20 -17l-3 -10l-10 -6l1 -14l-21 -13l-2 -10l-2 -11z" />
    <glyph glyph-name="colon" unicode=":" horiz-adv-x="261" 
d="M188 40l5 -18l-7 -5l-12 -10l-15 -9l-22 -10l-18 8h-10l-26 5l-8 16l-4 11l-2 9l-4 27l9 12l11 20l4 1l17 12l4 8l41 -8l1 -1l18 -9l7 -9l11 -6l9 -21zM188 388l5 -18l-7 -5l-12 -10l-15 -9l-22 -10l-18 8h-10l-26 5l-8 16l-4 11l-2 9l-4 27l9 12l11 20l4 1l17 12l4 8
l41 -8l1 -1l18 -9l7 -9l11 -6l9 -21z" />
    <glyph glyph-name="semicolon" unicode=";" horiz-adv-x="261" 
d="M139 112l16 -6l14 -7l5 -5l13 -11l-2 -19l6 -23l-1 -16l-8 -13v-30l-17 -14l-2 -16l-3 -14l-10 -17l5 -14l-9 -14l-4 -9l-3 -15l-14 -8l-25 -6h-15l-16 11l3 15l13 22l-10 8l5 14l14 20v8l5 16v18l-15 21l-5 10l-7 5l1 11l-7 29l8 16l12 16l4 10l19 3v5zM198 389l-12 -12
l-5 -17l-13 -9l-12 -5l-7 -3l-32 -6l-8 3l-18 12l-8 11l-17 15l7 9v29l-4 11l22 19l6 16l19 3l31 -1l13 -6l9 -6l16 -14l-5 -11l4 -16z" />
    <glyph glyph-name="less" unicode="&#x3c;" 
d="M153 334l23 -7l10 -13h11l20 -15l18 -9l23 -5l7 -7l14 -9l19 -6l11 -6l10 -1l15 -6l9 -8l15 -9l17 -6l6 -2l16 -13l22 -3l10 -4l7 -5l7 -26l-3 -13l-1 -8l-15 -18l-8 -8l-10 -8l-20 6l-2 2l-13 9l-27 3l-3 7l-10 10l-22 10l-5 3l-13 2l-22 13l-10 3l-21 4l-13 6l-5 6
l-20 10l-9 9l-11 3l-20 6l-5 12l-22 3l-10 4l-5 7l-12 11l-19 7l-15 8l-11 1l-8 10l-20 15l3 21l3 12l-12 15l26 30l10 1l2 9l22 6l7 9l12 6l18 6l14 -1l9 16l19 -3l13 11l13 5l18 4l15 14l11 1l4 11l18 2l17 7l4 9l18 1l21 10l1 4l13 8l21 5l4 14l21 -2l19 9l1 13l22 -7
l7 -21l4 -4l9 -21v-14l1 -16l-18 -3l-16 -10l-2 -9l-16 -7h-18l-8 -13l-18 -7l-14 -3l-16 -11l-15 2l-5 -10l-13 -9l-13 -3l-12 -12l-21 -6l-13 -7l-8 2l-16 -14l-24 -14l-17 -4z" />
    <glyph glyph-name="equal" unicode="=" 
d="M465 270l-11 -19l9 -18l-5 -10l-15 -17l-15 4l-17 -4l-16 3h-10l-14 2l-17 -6l-20 -1h-10l-15 -1l-18 7h-10l-14 -1l-22 1l-16 -4l-7 -3l-19 1l-22 2l-2 -2l-15 2l-28 -1l-6 1l-11 1l-28 1l-15 -4l-12 7l-18 -2l-13 9l2 21l2 15l-4 16l14 15l23 -4l20 2l13 -1l15 -2l9 3
l17 3l21 -2l15 1h12l17 1l7 2l13 -9l20 1l16 3l17 4l8 -3l19 -5l12 3l21 4l19 2h12l15 -7l11 1l19 4l9 -5l13 5zM459 449l-2 -15l8 -34l-23 -13l-12 2l-23 2l-7 1l-12 -7h-25l-7 4l-22 3l-11 -4l-21 -4l-5 6l-18 3l-18 -7l-6 7l-29 -1l-8 -3h-18l-15 -2l-17 4l-14 -5l-8 -2
l-24 2l-11 2l-13 -4l-20 2l-15 7l-17 -1l-2 11l-7 21l3 8l-6 22l23 12l13 3l7 -5l24 -1l12 5l8 -3l17 6l15 -6l16 -2l16 8l19 -2l8 2l17 -9l40 5l5 -4l27 7h6l19 -8l20 4l7 1l11 -3l26 7l9 -6l12 -3l12 8l15 -5z" />
    <glyph glyph-name="greater" unicode="&#x3e;" 
d="M467 359v-14l-6 -12v-24l-14 -13l-4 -14l-18 -7l-6 -1l-17 -7l-18 -6l-17 -8l-13 -3l-6 -15l-16 -2l-12 -10l-13 -6h-19l-15 -6l-1 -14l-24 -5l-4 -9l-19 3l-17 -11l-1 -11l-16 3l-24 -8l-14 -6l1 -12l-21 -3l-15 -5l-9 -6l-16 -10l-23 11l1 10l-4 16l-9 6l-3 16l1 15
l23 8l6 8l10 8l14 5l15 7l21 11l9 4h17l7 6l20 15l6 7l8 3l13 7l27 5l11 5l6 8l10 9l17 7l10 -1l27 5l2 14l11 14l-20 5l-16 2l-10 10l-12 1l-18 14l-7 1l-15 5l-11 14l-17 4l-12 2l-23 7l-6 6l-15 14l-16 3l-7 2l-12 8l-10 7l-25 13l-5 1l-24 8l-12 8l-7 14l17 13l4 14
l-2 16l12 10l24 6l3 -7l13 2l19 -14l12 -7l6 -2l14 -10l24 -8l7 -6l22 -6l26 -10l11 -7l13 -2l9 -8l11 -9l14 -4l15 -10l9 -2l14 -6l12 -7l24 -10l3 -7l16 -8l8 -8l27 -4l11 -3l10 -4z" />
    <glyph glyph-name="question" unicode="?" horiz-adv-x="489" 
d="M285 31l2 -8l-6 -17l-18 -4l-14 -13l-34 7l-7 5l-12 6l-16 16l-2 13l-6 26l13 19v9l19 12l18 8l28 -2l9 -9l16 -8l2 -14l14 -8zM424 589v-15l12 -20l-6 -13l11 -12l-7 -15l12 -33l-8 -18l2 -14l-7 -10l-4 -22l-11 -10l-1 -8l-11 -20l-30 -16l-5 -14l-15 -6l-6 -12
l-24 -12l-6 1l-11 -7l-17 -7l-13 -21l-2 -14l5 -15l-10 -5l5 -18l-5 -12l5 -19l-24 -11h-9l-8 -6l-24 6l-9 -2l-10 14l-4 12l6 22l-12 5l-1 21l6 16l-4 10l12 12l-2 19l-5 16l-2 15l21 17l8 1l29 1l12 6l22 5l9 5l3 1l22 18l10 5l9 13l2 8l4 14l5 16l5 18l3 26l-1 23l-5 11
l-12 16l1 9l-7 17l-15 8l-13 4l-14 7l-22 7l-15 5l-9 5l-33 1l-19 -9l-11 -5l-18 -2l-14 -3l-4 -13l-13 -8l-20 -1l-11 -10l-5 -20l-18 7l-18 6l-2 15l-12 5l-7 29l17 11l-4 6l11 8l15 10l18 13l14 3l7 10l20 9l11 2l18 6l10 -1l11 6l10 2l27 -2l26 1l6 3l25 -8l4 2l25 -10
l7 -3l10 -5l17 -9l19 -5l1 -8l12 -5l15 -12l7 -14l5 -6z" />
    <glyph glyph-name="at" unicode="@" horiz-adv-x="871" 
d="M314 165l3 -10l6 -15v-11l9 -12l2 -19l8 -6l10 -15l18 -2l15 -10l14 -3l17 -2l27 -2l8 3l11 12l19 -2l9 10l32 26l9 17l2 10v21l5 17l-1 29l2 13v18l-9 9l-9 18l-10 4l-2 16l-37 20v1l-18 4l-17 6l-25 3l-23 -4l-9 -1l-9 -15h-14l-23 -29l-3 -5l-17 -18l6 -17l-14 -5
l11 -16zM643 -164l-10 -5l-27 -6l-11 3l-14 -6l-12 -12l-29 -6l-35 3h-5l-26 1l-11 -5h-29l-36 6h-6l-22 2l-19 -2l-13 2l-8 5l-17 5l-8 10h-21l-12 10l-17 4l-6 10l-19 -1l-11 12l-6 11l-19 10l-7 3l-11 8l-16 17l-16 5l-10 13l-3 10l-7 10l-16 12l-7 16l-8 20l-7 20
l-16 15l-3 11v13l-8 17l-6 14l9 13l-5 16l-12 13l9 18l-15 10l3 19l1 29l8 11l-4 15l1 16l6 22l-5 14l13 10l-1 19l2 14l4 13l18 12l3 12l10 16l3 15l3 9l5 16l12 7l16 15l7 15l5 5l23 10l11 15l9 5l8 16l18 2l13 14l23 12l18 7l4 8l23 6l8 7h20l15 5l6 5l24 -1l10 2l7 4
l19 5l10 -1h38l16 -7l8 6l16 -5l26 1l3 -11l21 2l14 -6l18 -6l19 -5v-8l19 -2l22 -9l2 -2l35 -15l11 -9l9 -13l6 -12l23 -7l11 -14l6 -7v-18l17 -13l13 -7l12 -26l10 -17l-2 -10l11 -13v-15l9 -14l-5 -18l18 -11l-9 -15l10 -18l-1 -17l6 -19l-1 -23l-11 -16l-3 -11l5 -18
l-6 -15l3 -14l-6 -14l-2 -19l-18 -5l-2 -20l1 -14l-20 -7l1 -13l-13 -7l-30 -20l-1 -6l-24 -8l-14 1l-13 -5l-34 -5l-5 2l-18 7l-23 3v6l-23 11l-10 11l-6 16l-8 4l-21 -13l-12 -13v-7l-15 -4l-18 -7l-21 -4l-5 -6l-15 -5l-34 6l-15 -5l-14 2l-22 8l-12 8l-21 15l-23 4
l-6 15l-16 9l1 10l-10 10l-13 30l-18 11l6 20l-12 8l-6 20l-1 12l3 32l6 7l1 20l10 11l-4 15l13 10l3 15l-2 17l11 12l20 9l3 7l15 14l1 7l30 18l10 8l14 4l26 -2l7 5l10 4l41 2l14 -8l4 -4l25 -5l9 -7l17 -8l14 -6v-7l13 5l4 16l16 16l14 -4l25 -2l6 -16l7 -8l-4 -19
l-8 -19l14 -12l-10 -15l-2 -10l11 -21l-10 -16l2 -12l-3 -14l-2 -13l8 -21l-3 -14v-15l2 -31l-5 -16l11 -15l1 -12l11 -4l8 -17l15 -5l34 5l5 3l18 5l19 10l8 13l-5 13l17 13l-8 16l17 14l-1 16l-2 15l6 19l-7 15l7 29l-11 18l11 11l-15 12l2 21l-1 7l-10 22l-6 10l-7 15
l1 12l-3 18l-8 14l-9 13l-22 4v11l-10 11l-17 13l-5 9l-25 11l-6 8l-27 14l-15 10l-9 5l-11 2l-17 7l-24 -3l-10 4h-10l-23 2l-12 5l-38 -3l-1 5h-18l-13 -8l-14 2l-14 -9l-20 -6l-19 2l-7 -3l-20 -14l-13 -5l-8 -9l-20 -8h-6l-16 -14l-13 -13l3 -8l-12 -6l-12 -14l-14 -8
l-9 -12l-3 -17l-11 -27l-11 -6l-14 -13v-21l4 -9l-8 -14l-3 -12l-6 -15l6 -18l-14 -12l1 -19l7 -26l-6 -14l3 -20l-3 -11l4 -14l17 -18l-3 -16l4 -12v-12l8 -13l14 -9l6 -17l9 -9l5 -16l14 -17l-1 -6l21 -10l5 -15l7 -9l21 -5l3 -10l23 -9l24 -15l13 -9h4l20 -12l15 4
l16 -10l29 -2l6 -2l15 -3l18 -4l27 3l21 -2h3l26 1l5 2l19 10h31l5 7l18 5l9 10l15 2l28 -8l-4 -16l10 -13z" />
    <glyph glyph-name="A" unicode="A" horiz-adv-x="687" 
d="M339 554l-12 -17l-7 -6l3 -23l-11 -6v-20l-14 -9l-7 -14l1 -21l-4 -8l-16 -13l-2 -22l-4 -6l1 -23l-12 -10l-4 -16l-6 -15l-10 -8l6 -18l-14 -9l-11 -19l16 -15l15 4l21 -7v4l29 4l5 -2l16 -2l20 -3l4 7l15 -8l14 2h23l17 7l9 -4l14 -5l21 2l10 20l-7 13l-16 9l-2 14
l-4 21l-6 7l4 18l-7 13l-9 16l-1 10l-15 14l3 16l-5 15l-20 12l-3 19l-5 9l-7 18l-6 15l-1 8l-12 15v17h-7zM656 -4l-16 5l-10 -5l-18 7l-14 -8l-13 9l-28 5l-2 20l-6 13l-4 16l-6 10l-5 10l-7 17l3 8l-5 13l-12 14l-5 15l-4 15l-24 10h-13l-16 8l-17 -8l-11 1h-10l-25 -2
l-10 9l-18 -5l-18 2l-11 -5l-8 7l-16 -1l-21 -2l-12 -1l-14 1l-17 -3l-15 6l-14 -2l-19 -3l-20 -11l-2 -20l-11 -15l5 -7l-14 -15l-9 -17l-2 -17l-2 -12l-2 -17l-7 -9l-17 -18l-13 -19l-21 4l-21 2l-3 1l-24 1l-15 9l17 15l6 11l8 16l-2 15l10 11l1 13l7 16l-1 20l9 8l7 18
l5 11l8 19l4 13l1 9l13 18v17l6 10l6 16l17 13l-8 17l9 10l2 10l9 17l15 18l-4 6l3 17l12 10l14 16l1 19l7 13l-1 13l9 14l9 13l-4 10l5 20l15 15l-2 15l4 12l19 10l6 13l3 18l7 10l-5 17l14 13v16l5 15l13 8l18 17l11 2l21 2l20 1l7 -4l29 -13l-2 -15l8 -14l-3 -17l15 -9
l9 -15l-6 -12l13 -14l6 -21l6 -8l4 -16l13 -9l-2 -17l3 -11l15 -19l-2 -11l4 -21l4 -11l5 -8l18 -14l6 -21l-6 -8l17 -21v-10l16 -32l3 -13l-1 -6l16 -20l3 -10v-14l11 -20l-4 -11l9 -11l1 -13l14 -13l11 -20l-3 -11l6 -15l6 -11l13 -16l2 -16l6 -11l-2 -19l14 -16l6 -9
l-3 -14l6 -15z" />
    <glyph glyph-name="B" unicode="B" horiz-adv-x="613" 
d="M183 294l5 -9l6 -20l-9 -19l1 -9l-1 -15l-1 -20l5 -10l4 -22l-1 -9l-4 -20l1 -17l4 -9l-11 -23l24 -12l16 5l7 -7l15 5l12 -2h12l20 3l30 -1l21 1l10 -2l7 5l25 8l5 -2l18 4l18 9l-1 17l18 9l12 10l6 16l2 8l-3 20l10 26l-5 18l-3 8l-4 15l-13 15l-12 6l-5 12l-17 3
l-18 10l-10 8l-12 -3l-23 5l-8 4h-24l-30 1h-2l-15 -4l-17 -2l-11 7l-15 -7l-17 7zM182 583l4 -15l1 -11l7 -11l-10 -20l3 -13v-31l5 -9l-4 -19l-3 -16l5 -12v-21l16 -11l13 -3l23 6l5 -2l22 -3l11 -1l35 2l14 4l15 -1l13 6l19 6l10 7l12 11l9 4l4 16l18 10l-3 16v15l3 29
l-2 7l-7 16l-1 18l-19 6l-11 10l-2 11l-11 7l-22 2l-14 8l-18 -4l-47 7l-13 1l-17 -4l-14 -1l-9 6h-17zM100 10l-7 23l-3 9l7 18l-7 17l5 8l-2 14l2 19l3 12l3 20l-10 10l4 15l3 23l-3 9l-5 20l13 15l-10 10l3 15l2 12l-3 23l-4 15l11 8l-5 15l-6 12l4 20l-6 11l10 22l1 12
v17l2 14l-5 11l-3 18l-5 12l13 19l-6 10l-1 22l5 7v17l-4 20l3 11l-4 19l-2 9l3 12v20l1 14l7 14l20 -3l13 5h25l8 3l22 1l3 -8l24 5l9 -6l15 3l14 6l27 -1l23 1l18 -9l20 1l4 -4l17 3l12 -3l16 -9l16 -3l13 -7l21 -6l4 -10l16 -5l19 -14l9 -10l-1 -11l14 -14l1 -8l13 -12
l5 -13l-3 -15l3 -24l-4 -24l1 -15l-4 -18l-5 -6l3 -18l-19 -17l-2 -6l-9 -11l-12 -7l-6 -9l-18 -17l-15 -6v-11l13 -6l15 -3l20 -7l16 -12l7 -8l10 -14l4 -9l16 -12l1 -12l9 -15l8 -17l4 -17l-6 -12l-3 -30l4 -14l-6 -16l-7 -17v-8l-3 -14l-12 -9l-9 -20l-4 -6l-9 -7
l-22 -16l-6 -8l-9 -2l-12 -10l-37 -15l-12 -3l-11 -1l-18 -9l-21 -2l-11 1l-19 -1l-16 -4l-33 6l-3 -2l-20 -4h-14l-24 5l-13 -6l-14 5l-14 4l-11 -2l-18 -6l-11 3l-17 4z" />
    <glyph glyph-name="C" unicode="C" horiz-adv-x="671" 
d="M180 466l-16 -17l4 -10l-9 -20l-2 -13l-11 -16l-3 -16l9 -17l-1 -35l4 -6l-5 -15l7 -24v-7l7 -13l-1 -16l15 -28l1 -13l12 -12l5 -18l11 -14l8 -6l20 -11l1 -9l24 -8l20 -17l18 -3l2 -13l26 2l5 -4l19 -6l17 -3l9 1h33l6 -2l17 -1l20 4l7 6l22 6l10 6l16 9l3 6l22 4l10 9
l8 14l16 11l2 3l28 5l3 -12l10 -7l15 -20l15 -7l-9 -21l-5 -9l-17 -8l-6 -15l-19 -3l-2 -15l-16 -2l-14 -13l-16 -5l-11 -3l-11 -9l-23 -5l-11 -5h-18l-17 -7l-2 -5l-21 4l-9 -5l-36 1l-9 5l-23 -5l-8 6l-25 -1l-16 3l-14 4l-14 13l-3 6l-25 3l-7 9l-17 1l-5 8l-18 12l-9 12
l-9 2l-10 9l-14 13l-5 14l-15 12l-12 10l-6 17l-7 8l-23 28l5 13l-15 18l2 10l-9 19l-5 14l2 13l-7 16l-7 11l-1 22l1 15l4 26l-2 21l-4 17l14 7l-8 14l5 23l12 11l4 16l-6 16l15 7l7 14l8 22l-1 5l16 22v3l8 17l15 14l6 6l18 12l8 14l11 3l19 9l7 11l32 17l3 3l23 11l8 4
l14 9l15 4l11 1l21 6l8 -4l23 8l7 -4l31 1l26 -4l18 -1l8 -1h19l14 -3l16 -4l15 -10l14 -8l14 -4l5 -7l15 -1l19 -13l-1 -13l24 -7l5 -2l14 -12l-1 -21l-8 -12l-17 -9v-16l-21 -9l-13 -5l-13 19l-17 2l-1 11l-14 11l-17 3l-7 3l-24 13l-3 1l-18 4l-11 6h-12l-20 2l-27 -1
l-23 -3l-10 5l-11 -7l-16 -8l-24 -5l-15 -7l-14 -6v-2l-14 -17l-19 -3l-12 -14l-13 -6l-4 -18l-10 -11l-13 -16z" />
    <glyph glyph-name="D" unicode="D" horiz-adv-x="703" 
d="M186 581l10 -14v-9l1 -17l-1 -22l-12 -7l10 -24l-3 -14l-5 -13l8 -14l-9 -17l3 -11v-18l-4 -12l11 -17l2 -11l-4 -16l4 -23l-6 -11l7 -17l-1 -10l-2 -15l-4 -23l-5 -13l-1 -15l7 -8l3 -22l-9 -13l9 -17l-11 -12l13 -15l-6 -19l-6 -17l29 -14l16 7l8 1l24 -8l20 5l16 -5
l14 7h39l10 6l6 -1l18 7l25 10l11 2l5 12l12 -1l25 11l7 14l8 1l6 15l22 14l5 4l2 13l7 19l14 9v12l13 17l-3 11l4 16l8 21l-7 7v19l-3 35l5 15l6 15l-16 15l3 7l1 21l-3 10l-18 17l5 14l-19 9l-8 12l-7 15v11l-22 6v15l-23 8l-13 2l-2 12l-24 5l-5 3l-22 11l-9 1l-12 3
l-18 1l-18 7l-14 3l-11 -3l-22 7l-28 -2l-16 -3l-16 5l-6 -4zM89 12v21l7 9l-5 21l3 14l-4 12l3 15l1 14l-4 12l1 17l8 21l-7 14l-2 13l7 10l-8 14l4 20l9 17l-10 9l7 17l-5 20l-4 6l9 17l-10 18l7 9l6 22l-13 12l2 15l-1 15l4 18l-5 14l13 16l-6 15l-2 16l7 8l-9 13v23
l11 15l-10 15l3 15l5 7v24l-12 9l9 18l3 13l1 17l15 9l9 3l23 -4l4 7l23 -3l11 -1l19 -3l12 4l16 2l12 2l39 -8l4 7l23 -6l13 5l11 -7l25 1l5 -9l25 4l15 -3l4 -9l17 -7l18 1l13 -12l15 -3l20 -10l9 -5l11 -8l16 -7v-10l33 -21l8 -9l12 -6l7 -14l2 -15l21 -26l3 -13l8 -13
l12 -17l1 -7l-1 -16l5 -19l6 -12l-4 -10l7 -20l6 -11l-9 -13v-29l11 -18l-7 -20l-7 -13l-3 -10l-5 -22l-2 -8l-3 -15l2 -19l-11 -8l-2 -19l-11 -12l2 -12l-8 -14l-28 -18l-11 -8l-1 -14l-23 -13l-1 -4l-9 -9l-15 -11l-14 -8l-21 -7l-20 -16l-17 -8l-14 -5l-18 -3l-16 1
l-2 -2l-25 -5l-6 -6l-24 2l-15 -7l-13 2l-13 3l-21 -4l-21 -2l-24 1l-6 1l-25 -6l-5 2l-23 1l-7 6h-16l-22 -1l-10 -3z" />
    <glyph glyph-name="E" unicode="E" horiz-adv-x="566" 
d="M489 -1l-8 4l-12 -6l-25 -2l-8 4h-20l-10 1l-12 -4h-10l-22 8l-19 -5l-29 2l-12 -4l-11 -1h-13l-26 1l-13 -1l-6 5l-13 3l-15 -2l-27 -3l-15 -1h-29l-14 -3l-15 9l-8 10l2 17l-8 14l1 13l7 19l-10 16l5 12l1 17l5 9l-9 16l4 18l-1 13l-4 12l7 14l3 14l-9 15v16l12 14
l-12 24l6 10l-1 18l1 13l2 12l-8 20l3 15l1 13l-3 18l-2 14l-1 13l11 12v19l-4 15l-5 13l-1 14l-1 18l4 13l-4 17l14 10l-8 13l4 15l-7 14l8 21l-3 10v16l6 15l5 15h13l12 1h15l16 -4l19 9h23l1 -8l29 1l2 3l18 -2l22 3l10 2l14 -3l14 2l20 -3l7 5l19 -1l19 -8l16 4l13 -2
l12 5l7 -5l24 7l15 -5l14 -1l19 5l3 -20l7 -7v-18l-7 -13v-18l-6 -15l-24 2l-4 6h-25l-18 -6h-4l-18 3l-15 -1l-15 1l-18 -5l-21 6l-3 2h-25l-4 -6l-20 4h-11l-25 -1l-5 -5l-17 3h-25l-11 -28l3 -13l3 -15l-3 -15l-6 -19l6 -13v-12l-1 -17l3 -14v-14l-1 -14l4 -21l5 -10
l16 -3l11 4l27 3l15 -3l14 -6h8l8 8l19 -3l20 3l11 -1l14 -7l25 9h11l12 -9l10 7l21 -4l16 2l14 -1l14 -14l-7 -14l2 -15l10 -11l1 -15l-18 -19l-14 8l-18 -2l-11 -3l-22 6h-17l-18 -7l-7 -1l-12 4l-22 -2l-13 5l-12 -1l-19 2l-12 -3h-10l-14 -2l-14 1l-17 2l-20 1l-19 -21
l-1 -11l3 -13l6 -24l-1 -7l3 -23v-6l-5 -17l-5 -19l5 -11l6 -16l-13 -15l2 -13l5 -16l9 -15l25 -2l9 3h26l31 -4l14 -5l25 4l20 -1l13 6l12 -4l9 4l27 -3l3 -2l25 2l12 -6l7 9l29 -5l14 5l7 -15l-1 -13l2 -17l-5 -11l1 -15z" />
    <glyph glyph-name="F" unicode="F" horiz-adv-x="545" 
d="M178 -4l-13 5l-21 -1l-11 -3l-17 -1l-14 18l-6 16l7 11l-7 18l5 14l-2 11l3 22l-6 14v16l4 12l-9 19l-1 12l-1 19l10 7l-7 22l-1 10l2 15l5 16l-9 18l7 12l-5 15l3 12l4 12l-3 17l-1 19l5 10l3 20l-9 18l8 7l-10 17l3 20l-2 11l7 10l4 23l-1 12l-4 18l-1 16l4 12l-2 11
l-1 13l-8 22l11 22l-3 21l-6 17l15 7l16 3l25 -3l11 8l10 -4l15 -2l20 4l15 2l17 -2l11 2l18 -4l16 2l5 2l22 -4l10 -3l18 2l11 5h14l28 -1l6 -6l15 1l12 2h21l12 -2l17 3l22 1l16 -20l-3 -7l-7 -19l-3 -13l1 -9l-8 -21l-13 6l-17 -5l-17 2l-20 -1h-14l-14 1l-14 -4l-7 7
l-16 -3h-21l-18 -1l-14 2l-5 -2l-17 4l-15 -1l-21 3l-6 -5l-25 1l-9 1l-20 -19v-11l-2 -21l13 -7l-5 -17l-2 -20l-6 -14l7 -12l4 -18l-6 -18l-6 -9l13 -17l-2 -15l-7 -17l16 -13l17 1l11 -2l14 5h17l15 -2l12 -6l29 4l6 1l21 1l13 3l9 -9h21l11 6l12 -6l26 1l7 6l22 -3
l16 -11l1 -18l4 -14l-9 -8l5 -19l-13 -13l-21 3l-9 -4l-26 -3l-6 -1l-18 7l-16 -7l-20 2l-27 6l-20 -4l-14 5l-8 -4l-17 4l-23 -2l-4 -2l-28 -1l-4 5l-22 -23l10 -13l-3 -14l-2 -19l-5 -17l-3 -9l2 -21l6 -10l4 -14l-9 -22l9 -7l-11 -17l11 -22l-11 -12l8 -15l-10 -14
l10 -13l4 -21z" />
    <glyph glyph-name="G" unicode="G" horiz-adv-x="752" 
d="M709 308l1 -21l7 -13l-1 -17l-9 -12l-8 -14l1 -15l-12 -17l4 -9l-16 -19l1 -11l-6 -11l-11 -17l-2 -7l-10 -17l-6 -10l-21 -11l-13 -8l-15 -21l-12 -5l-6 -9l-29 -17l-15 -10l-17 -6l-11 -5l-22 -1l-10 -3l-17 -8l-16 -2h-9l-27 -6l-20 -1l-21 1l-19 11l-9 -1l-14 -3
l-21 7l-17 3l-6 4l-21 8l-14 9l-1 5l-27 1v12l-12 14l-22 1l-12 13l-13 12l-6 10l-6 6l-19 12l-2 16l-5 12l-10 12l-12 26l-4 16l-17 9l5 21l-17 17l6 10l-6 14l-8 15l-4 13l7 18l-2 18l-6 31l6 13l5 19l2 10l4 14l1 23l4 12l7 10l4 15l2 15l9 13l4 14l3 14l11 10l2 14
l21 15l8 8l13 16l-2 9l18 7l17 11l-1 16l24 7l26 14l6 2l16 11l15 8l12 1l22 7l17 3l13 1l17 -3l8 2l17 2l35 6l9 1l13 -1l13 -4l15 -3l13 -2l22 -8l19 -4l10 1l15 -10l10 -1l29 -11l17 -10l10 -8l16 -9l10 -8l14 -5l16 -16l-9 -18l-9 -9l-10 -15l-13 -7l-6 -12l-18 1
l-15 12l-14 1l-16 16l-8 -1l-15 8l-7 7l-19 4l-3 7l-27 8l-2 -4l-20 9l-21 -1h-18l-10 -2l-21 1l-27 5l-16 -7l-5 -3h-13l-22 -11l-15 -9l-5 2l-20 -16l-12 -1l-4 -14l-13 -7l-16 -19l-9 -10l-3 -13l-9 -10l-20 -24l-3 -15l-1 -21l-8 -7l-6 -20l-4 -16l-6 -17l4 -9v-36
l5 -18l-10 -13l12 -10l6 -18l-1 -18l10 -11l-1 -10l7 -18l12 -17l2 -5l11 -13l10 -16l6 -13l19 -8l4 -9l11 -14l21 -13l22 -6l3 1l20 -12l8 -3l14 -2h24l9 -6l39 -2l8 8l23 -4l12 4l11 12l20 1l14 10l3 6l19 4l6 14l24 10l-1 12l21 13l13 17l5 14l9 12l6 14l4 16l9 22l-18 7
l-16 5h-22l-27 -1l-4 2l-13 1l-27 -2l-5 -1l-25 -1l-11 1l-12 2l-24 -1l-6 1l-12 11l-7 11l1 14l4 23v11l8 14l23 -1l12 1l20 -4h3l17 4h27l16 -5l10 6l20 -5h14l17 -2l4 4l19 -1l15 -1l17 1l12 3l23 -2l15 -1l3 1l16 -6l13 -15z" />
    <glyph glyph-name="H" unicode="H" horiz-adv-x="738" 
d="M619 0l-4 1l-26 -4l-17 -2l-16 5l-11 18l6 13l3 10l-6 13l-1 22l-7 13v11l13 14l-11 15l10 23l-4 15l-2 11l8 10v20l-4 11l-9 17l9 21l-3 9l-4 11l4 16l-9 15l-18 8l-14 -1l-14 -3l-24 -2l-17 -3l-14 1l-10 5l-21 -1l-12 -1l-5 -1l-15 4l-13 -4l-21 6l-17 -3l-17 -1
l-33 -5l-8 2h-11l-23 -2l-5 9h-24l-18 -17l1 -18v-19l7 -11l-5 -12l2 -14l2 -15v-43l4 -22l-7 -16l6 -10l4 -16l-8 -18v-8l2 -18l-6 -18l6 -8l2 -19l-16 -19l-23 7l-5 1l-26 -5l-18 1l-5 16l1 19l-13 10l6 20l2 9l-5 15v11l3 24l7 7l-9 16l1 19l-4 13l13 11l-9 21l-3 15l7 9
l-5 21l-3 17l10 10l-2 17l5 17l-12 15l-1 13l6 11l3 16l-7 13l-3 17l5 12v18l6 18l-1 11l1 17l-5 14l-4 13l3 13l1 20l-4 16l6 14l-5 9l11 22l-9 17l-1 7v19l2 9l6 17l13 17l14 1l13 -4l19 2l13 -2l23 -16l2 -8l-6 -23l-7 -12l11 -11l-8 -15l1 -18l2 -18l1 -15l-3 -12l5 -18
l2 -14l1 -16v-14l1 -19l-8 -8l-4 -23l7 -6l6 -23l35 2l23 -3l15 1v6l15 -7l28 1l31 2l10 4l18 2l10 -2h8l15 -4l15 4l19 -5l17 6h13l17 -6l12 6l10 -4l25 3l11 17l3 12l4 13l-10 17l8 15l-7 15l-2 14l12 20l-11 8l6 14l-4 24v10l-4 19l3 15v14l4 17l5 8l-13 17l23 18l12 -2
l22 -1l18 3l7 4l27 -20l-4 -10l-3 -23l-2 -10l7 -12l1 -18l-8 -11l-5 -17l10 -16l-7 -15l-2 -12l2 -18l7 -19l-8 -7l8 -23l-6 -9l-4 -19l14 -11l-8 -18l-1 -14l-1 -12l10 -14v-16l-6 -13v-20l-2 -14v-18l-2 -15l10 -15l-5 -9l3 -21l-1 -17l-11 -5l14 -20l-9 -11l2 -14l5 -24
l-3 -10l5 -17l-12 -13l2 -14l1 -18l-2 -10l7 -18l-9 -17z" />
    <glyph glyph-name="I" unicode="I" horiz-adv-x="287" 
d="M172 -1l-17 5h-15l-13 -1l-14 -3l-12 16l-10 11l2 19l6 9l-8 17l1 18v33l6 6l-6 16l-3 18l3 18l-1 16l2 15l-1 7l9 14l-2 16l3 20v15l-10 11l5 20l4 10l-2 18l-1 14l4 13l-7 21l-6 13l8 12l1 20l-6 8l11 20l-9 17l-2 9l8 20l2 15l-9 12l8 11l-8 13l10 20l-12 18l6 13
l-6 14l11 13l-8 12l-2 16l21 15l7 1l17 3l16 1l29 -7l9 -14l-1 -9l3 -15l-1 -18l-8 -15l2 -13l-1 -13l8 -21l2 -15l-11 -13v-10l1 -20l4 -15l-4 -11v-18l12 -16l-2 -12l-2 -20l-5 -10l5 -13l-7 -14l6 -22v-8l3 -18l-5 -11v-18l7 -13l-13 -22l8 -10l-8 -17l6 -17l-2 -13l2 -9
l5 -17l-8 -20l10 -8l-7 -20l-5 -16l5 -12l5 -16l-5 -15l1 -9l7 -16l-6 -14l-1 -17z" />
    <glyph glyph-name="J" unicode="J" horiz-adv-x="476" 
d="M388 668l4 -15l6 -12l-4 -19l-2 -18l5 -15l-3 -10v-19l1 -12l4 -13l-8 -19l-5 -16l8 -13l6 -15l-8 -12l-1 -17l6 -20l-11 -8l7 -19l2 -11l-9 -18v-17l12 -15l-9 -18l-2 -8l5 -22l5 -12l-2 -13l-8 -16l9 -14l-1 -13l-1 -37l-9 -8l3 -17l-8 -16l10 -20l-8 -9l-4 -19l-16 -9
l5 -14l-16 -17l-4 -8l-6 -6l-13 -17l-25 -9l-3 -4l-20 -9l-4 1l-28 -3l-4 -2l-34 -6l-31 3l-9 2l-23 -3l-17 5l-12 4l-15 6l-11 4l-13 11l-20 8v11l-17 7l-10 16l-3 16l2 16l17 8l6 6l9 12l25 -2l5 -9l15 -4l30 -20l11 -4l21 -4l3 -6l39 7l17 -4l4 4l23 13l13 7v12l9 13
l7 13l14 21l-4 8l6 23l-3 25l2 11l-1 17l5 20l-5 18l1 6l-4 22l-1 9l5 19v10l-6 22l6 13l-9 13l1 20l-1 11l10 15l-10 17l2 10l-1 19l11 19l-9 12l10 12l-11 16l2 19l6 9l-2 20l3 13l-5 17l-6 18l1 8l2 20l17 12l18 7l20 -4l7 2l15 2z" />
    <glyph glyph-name="K" unicode="K" horiz-adv-x="644" 
d="M173 4l-14 -1l-12 -5l-13 -3l-25 1l-12 15l-1 15l-6 23l-1 15l13 13l-12 9l13 19l-13 9l3 16l1 17l7 15l-10 17l1 19l2 7l3 16l4 14l-2 22l1 6l-10 15l11 23l-12 7l4 24l2 13l-3 13l-2 12l10 20l-4 12l7 18l-5 10l-3 13l1 15l-6 18l6 17l6 16l-12 8l2 20l-2 11l2 19l7 14
l-8 13l9 12l-2 15l-3 16l-5 13l3 23l14 9h18l20 1l9 2l27 -1l16 -17l-6 -12l-2 -20l8 -6l-1 -24l2 -6l-9 -17l1 -13l1 -16l-4 -19l2 -14l9 -15l-1 -20l-11 -7l1 -15l-1 -23l5 -7l-3 -16l21 -8l10 8l10 13l7 7l13 15l9 15l7 6l15 6l13 15l9 15l14 3l4 15l21 13l7 8l1 9l26 18
l17 19l8 11l17 3l1 11l17 17l11 5l13 14l7 7l9 12l33 8v3l24 -3l7 2l26 3l1 -4h25l-7 -6v-10l-10 -16l-9 -8l-15 -7l-15 -17l-5 -8l-16 -10l-1 -15l-19 -8l-6 -12l-12 -3l-9 -10l-6 -15l-13 -12l-8 -4l-14 -17l-8 -9l-20 -5l-12 -18l1 -7l-11 -10l-22 -11l-4 -9l-19 -13
l-2 -14l-17 -9l-5 -5l-7 -16l-13 -7l-7 -23l22 -5v-17l13 -8l10 -6l14 -18l1 -4l16 -14l6 -12l14 -7l18 -11l2 -9l16 -10l3 -14l9 -14l12 -5l12 -15l5 -7l16 -9l14 -12l15 -14v-13l19 -12l11 -5l-1 -10l15 -14l10 -7l14 -17l2 -7l8 -10l14 -15l11 -3l19 -18l-6 -10l-21 2
l-8 1l-21 -2l-18 2l-11 -5l-22 2l-17 17l-13 6l-7 8l-25 9l-3 14l-16 12l-12 11l-10 5l-2 15l-17 9l-10 14l-20 18l-13 17l-9 10l-8 5l-17 12l2 15l-17 9l-14 14l-21 17v9l-17 14l-7 4l-8 15l-22 8v7l-16 -2l-1 -14l-2 -13l-4 -17l4 -20l-3 -13l-3 -16v-11l1 -15l10 -18
l2 -14l-6 -20l3 -11l-5 -19l2 -15l-2 -10l-6 -16l10 -16l-5 -13z" />
    <glyph glyph-name="L" unicode="L" horiz-adv-x="514" 
d="M210 87l17 -5l5 -3l23 7l10 -1l17 -5l9 3l25 -4l9 1l12 5l10 -1l16 1l21 -2l15 -1l18 1l9 -1l16 -2l11 6l12 -4l21 -16l-4 -9v-13l5 -15l-6 -17l-14 -11l-15 -5l-5 1l-31 5l-17 -4l-21 -3l-11 4l-23 4l-10 -4l-8 2l-23 2l-16 -4l-13 5l-13 -8l-15 8l-21 -3l-15 1l-4 -2
l-22 -5l-11 2l-18 4l-7 -6l-23 7l-14 -6l-10 21l-4 11l6 16l-14 18l11 12l-10 16l12 14l-1 11l-4 20l-5 9l2 24l-1 10l-2 18l3 10l-3 16v12l7 22l3 7l-8 18l-2 19l1 9l-2 14l9 15l-9 14l9 24l2 15l2 12l-2 15l2 10l-12 20l10 18l-2 10l-6 11l5 22l-5 15l9 7l-11 21l6 18l2 7
v23l-7 15l3 6l-1 17l7 21l-3 11l19 10l8 6l16 -6l20 1l15 5l11 -19l-2 -8l8 -20l-8 -12l3 -16l-4 -14l3 -22v-10l1 -15l2 -20l4 -14l-1 -10l1 -20l3 -15l-5 -11l1 -11l-1 -18l5 -14l-8 -14l-2 -21l10 -14l1 -16l-10 -15l5 -12v-13l1 -15l-4 -19l-5 -17l7 -14l5 -14l1 -14
l-1 -13l-4 -17l-7 -19l6 -10l-5 -13l1 -18l-2 -19l10 -10z" />
    <glyph glyph-name="M" unicode="M" horiz-adv-x="939" 
d="M506 2l-15 1l-19 -7l-10 5l-8 1l-14 -5l-19 13l-11 18l-1 12l-8 12l-5 16l1 15l-5 17l-6 13l-14 15l-1 9l-10 16v19l-1 11l-15 31l2 13l-15 18l3 11l-15 17l-1 12l1 15l-6 11l-8 21l-13 11l4 15l-6 13l-11 17v6l-3 15v22l-19 13l6 14l-6 12l-14 14l-5 19l3 11l-14 1
l1 -14l-8 -18v-16l2 -12l-8 -13l11 -18l-16 -13l11 -16l-6 -17l2 -13l-4 -10l-1 -17l-13 -13l-4 -15l11 -21l-6 -14l-2 -14l-13 -13l6 -10l-9 -22v-12l4 -10l2 -16l-11 -20l-3 -8l-2 -20l4 -9l-2 -23l-3 -9l-10 -18l4 -10l-5 -20l5 -11l-9 -18l-27 -14l-23 1l-15 -1h-12
l-12 19l6 13v32l3 13l3 16l8 17l-6 14l-2 10l6 12l1 19l6 11l7 19l3 19l-3 13l-6 10l6 20l9 16l6 16l-4 9l8 13l-10 15l16 20l1 8l-2 17l2 15l1 18l3 17l-2 17l6 7l9 20v9l-3 23l5 6l-2 16l5 20l5 11l-3 19l11 13l-5 15l-4 14l7 17l-1 10l1 21l7 16l25 14l7 -2l20 -5l19 8
l19 -5l12 -16l5 -8l10 -17l-3 -18l18 -9l-3 -20l2 -7l11 -16l10 -17l-3 -14v-17l9 -15l10 -6l5 -18l1 -16l5 -16l4 -6l2 -20l3 -9l17 -16v-16l10 -19l2 -5l3 -19l-1 -9l7 -20l7 -10v-21l11 -12l-1 -9l13 -16l11 -20l-4 -13l1 -15l11 -16l9 -7l-2 -16l13 -17l6 -12l-4 -18
l16 5l2 10l2 13l4 20l7 16l7 8l3 19l7 16l11 11l-4 11l13 13l7 16l6 20l-3 14l6 6l11 15l-1 21l5 12l-2 13l7 13l6 14l12 18l8 16l-6 13l9 8l5 23l6 7l8 17l-1 11l13 22l-4 10l9 17l1 8l9 21l6 8l4 16l3 19l4 13l15 9l-6 14l29 20l4 -7l29 2h2l16 5l25 -16l-6 -14l7 -22
l1 -11l4 -14l-1 -16l9 -13l1 -13l4 -21l-6 -12l13 -20l3 -8l-8 -22l13 -14l-7 -9l1 -15l9 -12l2 -22l2 -14l1 -9l7 -17v-27l2 -17l10 -15l-9 -21l14 -7l1 -15l-11 -15l7 -15l1 -20l10 -17l1 -13l7 -10l-1 -22l-6 -9l10 -22l-6 -8l12 -13l5 -16l-5 -20l-1 -11l8 -21v-11
l9 -10l-24 -19l-4 -2h-38l-12 -1l-16 19l-12 13l12 17l-13 16l-5 15l-1 9l-4 15l8 14v18l-9 14l-2 19l2 18l-7 10l5 18l-9 9v16l3 16l-7 13l-11 19l1 16l8 13l-9 16l-8 14l-2 19l-2 14l-3 13l-3 10l6 17l-2 22l-10 7l6 20l-12 10l1 18l5 17l-19 2l-1 -19l-1 -15l-1 -16
l-4 -14l-6 -14l-4 -11l-12 -18l3 -7l-19 -16l-4 -10l-3 -19l-2 -14l-8 -19l-4 -12l-1 -14l-12 -13l4 -15l-13 -9l-2 -17l1 -11l-12 -22l-8 -13l-6 -12l7 -15l-6 -12l-8 -13l-12 -12l3 -13l-7 -20l-12 -12l1 -19l-8 -12l-7 -10l8 -15l-6 -16z" />
    <glyph glyph-name="N" unicode="N" horiz-adv-x="728" 
d="M623 -5l-24 9l-6 -4l-18 -2l-16 2l-32 7l-3 13l-2 14l-10 15l-21 17l-10 23l-8 6l-5 17l-13 11l-9 10l-5 17l-10 11l-7 17l-16 10l-4 10l1 13l-18 17l-3 3l-13 12l-7 14l-6 18l-2 7l-17 18l-4 7l-7 12l-14 13l-10 15v15l-10 7l-10 20l-5 8l-8 16l-9 6l-6 12l-14 11l-5 20
l-5 10l-21 21l-7 11l-5 15l-22 -5l5 -10l-5 -17l11 -12l-10 -15l9 -13l2 -21l-4 -7l6 -14l-12 -24l8 -6l-6 -21l4 -17l-7 -15l-1 -6v-16l3 -18l-2 -20l11 -15l-5 -7l6 -22l-3 -9l-7 -19l7 -16l-5 -16l2 -6l-4 -14l2 -21l5 -9l3 -19l-13 -17l9 -15l-6 -10l3 -16l-3 -21
l-16 -14l-11 8l-8 -5l-16 4l-24 -2l-12 17l3 16l-1 10l-3 18l2 12l-1 10l1 16l9 17l-8 18l-1 9l2 19l-5 19l11 15l-8 14l-5 7l1 21v9l12 18l-11 17l7 13l-2 14l4 14l-1 20l3 12l-13 18l10 15l-1 12l-8 14v13l8 16l1 13l-6 16l1 21l9 10l-8 20l-1 15l4 10l-5 12l3 16v15
l-4 15l-2 19l-1 10l1 18l13 16l10 11l9 1l15 4l15 -4l24 1l25 -9l5 -16l12 -7l5 -15l12 -13v-18l12 -3l13 -21l2 -13l10 -9l13 -9l2 -17l3 -10l15 -10l4 -15l22 -20l13 -16l7 -13l5 -16l2 -8l11 -15l12 -7l8 -13l8 -15l12 -16l-2 -8l10 -11l10 -14l4 -18l6 -9l13 -12l5 -12
l17 -17l5 -12l12 -7l-1 -18l15 -7l3 -18l11 -12l5 -10l7 -9l15 -3v16l-1 18l-4 17l-1 7l1 20l9 14l-10 20l12 15l-6 8l-1 17l-3 10l1 19l-2 18l-2 8l2 21l-2 17l4 10l-4 15v11l6 16l-3 21l10 14l-6 16l3 10l-5 19l8 10l-1 18l-7 18l8 9l-12 13l3 14l10 24l-10 12l4 14l14 9
l7 9l19 -4h16l10 -2l20 -17l4 -12l-10 -10l5 -18l-5 -16l9 -18l-5 -14l4 -15l-4 -9l-1 -21l7 -15l-5 -14l7 -14l-5 -9l-2 -24l-4 -8l5 -15l-2 -21l7 -10l2 -19l-6 -10l5 -15l-1 -15l-3 -20l-1 -16l-5 -11l-1 -14l6 -16l5 -17l-10 -14l1 -10l5 -14l2 -18l-7 -19v-9l10 -19
l-7 -17l-5 -10l6 -17l-4 -16v-12l8 -19l-11 -9l8 -16l-5 -17z" />
    <glyph glyph-name="O" unicode="O" horiz-adv-x="784" 
d="M608 219l6 18l13 12l-7 16l13 19l-3 12l2 19l9 15l-11 22l9 18l-2 17l-8 11l-2 17l-8 12l5 23l-8 9l-15 16l3 9l-6 13l-16 19l-12 4l-6 16l-8 6l-13 15l-12 10l-21 11l-24 13l-2 2l-27 2l-14 4l-3 4l-30 7h-41l-6 -7l-12 1l-23 -6l-14 2l-7 -6l-18 -13h-14l-17 -16l-9 -5
l-16 -6l-14 -12l-4 -10l-12 -17l-12 -14l-4 -13l-15 -26l-8 -17l-7 -15l6 -6l-10 -22l-1 -10v-19l-4 -13l4 -35v-13l1 -17l-3 -11v-22l8 -9l13 -17l6 -8l4 -13l10 -18l4 -16l14 -9l6 -13l2 -5l8 -11l19 -10l10 -12l27 -19l9 -6l36 -12l14 -4l9 -3h18l5 -3l33 1l21 5h32l8 11
l17 7l12 -1l8 14l14 1l20 14l11 12l4 2l24 20l1 12l14 12l8 9zM84 176l5 10l-18 20l5 13l-12 20l4 14l-5 8l-5 18l-4 12l-7 18l3 16l-1 35l7 15l-9 12l11 14l-4 17l12 16l-2 18l10 6l2 23l-1 8l5 15l7 13l11 17l4 10l15 17l16 7l10 14l3 13l11 3l7 18l17 9l11 6l8 12l36 12
l1 8l16 7l22 2l17 3l7 8l18 3l15 5l19 2l12 4l11 -1l36 -1l5 -3l15 4l25 -5l16 -4l5 1l22 -6l5 -7l22 -5l17 -10l11 -4l18 -6l11 -9l2 -4l12 -9l18 -13l5 -7l23 -11l10 -13l-2 -8l15 -19l3 -14l17 -5l13 -33l7 -12l6 -14l1 -15v-11l10 -20l4 -9l-1 -17l7 -14l5 -20l-4 -12
l-7 -30l-2 -20l8 -16l-2 -12l-2 -22l-9 -8l-5 -16l-1 -16l-5 -11l-9 -16l-9 -17v-8l-9 -15l-2 -11l-8 -17l-9 -15l-18 -11l-11 -9l-4 -12l-21 -7l-8 -10l-12 -11l-4 -8l-32 -11l-7 -13l-27 -3l-2 -5l-18 -3l-17 -11h-17l-12 -6l-21 -1l-8 1l-12 -3l-36 -3l-18 8l-8 3l-14 3
l-22 -3l-11 7l-10 -1l-19 7l-9 10l-24 1l-13 6l-1 4l-18 13l-18 12l-5 7l-7 7l-14 7l-14 14l-9 16l-13 3l-11 17l-1 7l-13 14z" />
    <glyph glyph-name="P" unicode="P" horiz-adv-x="585" 
d="M185 586l11 -13l-3 -20l-10 -9l9 -19l-6 -20l6 -8l-9 -20l1 -12l3 -18l5 -13l-8 -11l10 -21l-10 -10l6 -18l3 -13l17 -15l13 -1l6 -3h17l13 4l22 -6l34 7h16l14 -5l15 4l2 9l25 5l5 6l9 13l13 12l16 13l-2 13l5 7l14 15l6 20l-7 26l-2 18l-9 10l4 16l-10 16l-9 13l-16 12
l-8 7l-7 8l-18 8l-15 -2l-22 8l-12 -5l-17 10l-44 -3l-12 -1l-8 5l-17 -4l-20 3zM178 2l-15 -4l-27 4l-4 -6l-14 6l-18 8l-8 24l8 12l-4 13l-6 17l5 8l1 20l-4 10l6 16l2 14l-11 20v19l3 10l2 17l-5 10l9 13l1 18l-1 16l4 15l-5 18l-1 14l2 15l-5 9l9 15l-3 22l-5 8l4 18
l-6 17l8 10l1 22l-8 9l5 18l-3 10l-2 15l-4 18l10 13l-5 19l-5 15l5 14l8 17l-1 12l-2 12l4 15l-7 18l2 17l9 15l25 -6l12 1l14 2l13 -2l9 1l23 3l17 -3l6 -2l22 5l8 -3l16 2l40 -2l13 1l7 -6l18 -2l29 2l14 -9l19 -2l16 -2l6 -9l18 -14h10l12 -15l4 -8l19 -6l3 -20l11 -9
l2 -8l20 -18l4 -15l5 -16v-12l5 -14l-11 -15v-29l6 -18l-7 -16l-1 -10l-2 -16l-4 -14l-11 -10l-12 -31l-9 -9l-5 -13l-21 -10l-4 -2l-19 -9l-12 -11l-16 -5l-4 -1l-15 -12l-15 3l-18 -9l-23 1l-2 -9l-21 4l-18 -3l-31 -1l-14 5l-13 -7l-19 2l-10 7l-8 -8l-26 -15l14 -13
l-1 -11l1 -16l-13 -19l6 -11v-23l-3 -10l3 -17l5 -9l-10 -24l12 -9l-12 -18l5 -11l7 -22l-4 -14z" />
    <glyph glyph-name="Q" unicode="Q" horiz-adv-x="784" 
d="M172 466l-6 -18v-10l-12 -18l-1 -17l-1 -10l-7 -18l-3 -14l1 -31l5 -17l9 -15l-8 -14l14 -21v-8l8 -14l5 -12l2 -17l8 -14l8 -18l8 -8l16 -8l6 -13l3 -13l10 -10l20 -8l23 -18h15l4 -12l24 2l7 -9l21 2l13 -10l6 3l33 1l21 3l14 3l15 3l8 -4l20 7l6 8l15 18l-9 16l-15 11
l-13 5l-2 21l-11 9l-17 9l-6 11l-5 16l-10 6l-4 28l3 3l10 14l20 5l2 12l22 -6l22 -12l3 -4l7 -18l10 -13l9 -6l21 -20l7 -5l12 -17l10 -6l21 -7l2 12l7 18l7 12l9 17l8 14l-4 16l2 5l15 19l-9 18l7 7l-6 18l5 34l6 14l-5 18l2 6l-12 15l-4 23l-6 15l2 7l-13 17l1 13l-13 17
l-8 6l-2 18l-16 5l-17 8l-5 18l-18 6l-26 17l-8 7l-14 7h-11l-19 1l-14 6l-10 3l-22 -1h-29l-6 -3l-14 -1l-27 2l-5 -7l-23 -9l-10 -7l-9 1l-23 -16l-2 -9l-13 -7l-20 -11l-7 -10l-13 -11l-10 -14l5 -17zM719 -34l-5 -13l-20 -8l-3 -8l-16 -13l-14 11l-17 12v6l-13 14l-21 8
l-10 14l-1 14l-8 13l-11 7l-23 10l-11 -10l-21 -8l-19 -6h-6l-17 -13l-19 5l-14 -5l-9 -6l-17 3l-10 -6l-32 5l-23 1l-7 3l-15 -6l-16 9l-23 2l-17 6l-7 1l-17 3l-4 10l-17 3l-16 12l-13 4l-12 10l-13 6l-16 14l-6 12l-7 7l-8 13l-10 11l-13 14l-9 5l-6 20l-19 20l-6 20
l-10 9l-2 18l-7 16l6 10l-10 20l-11 15l-1 17l2 15l2 17l-6 29v10l8 20l5 17l-1 12l10 19l5 9l-7 18l6 18l15 6l1 17v18l9 8l10 13l4 12l13 18l17 6l4 16l19 6l2 13l10 13l22 5l13 12l24 9l14 5l13 8l10 4l16 13l7 -2l38 6h18l17 10l11 -3h29l18 -4l13 4l9 -4l16 -6l23 -2
l17 -1l6 -9h9l18 -9l22 -10l3 -7l19 -1l7 -9l13 -8l18 -18l6 -1l14 -14l9 -15l8 -6l9 -13l10 -13l9 -18l12 -20l7 -12l11 -14l2 -20l10 -19l-8 -8l10 -21l6 -12l-3 -15l-2 -17l9 -14l-7 -35l7 -10l-5 -22l-8 -11l8 -11l-15 -17l2 -19l-1 -17l-14 -10l-6 -16l3 -11l-8 -14
l-8 -11l-14 -14l-14 -19l4 -13l-21 -9l-2 -16l18 -16l8 -10l15 -12l12 -13l7 -10v-13l9 -7l12 -17v-19z" />
    <glyph glyph-name="R" unicode="R" horiz-adv-x="610" 
d="M185 583l-3 -18l2 -6l7 -25l-7 -13v-18l2 -6l9 -22l1 -15l-8 -15l-6 -11l9 -24l1 -15l-3 -11l22 -18l3 6l17 -1l12 -4l26 -1l10 5l14 -1l36 -2l12 3l14 -1l18 7l9 5h22l15 10l5 7l16 11l9 17l-1 10l16 13l-6 18v30l2 13l-10 17l-8 17l-9 5l-12 19l1 4l-27 8l-13 7l-13 6
l-12 -1l-18 2l-12 6l-35 -1h-18l-10 -3l-17 8l-19 -1l-15 -3l-16 -5zM175 3h-16l-12 -1l-19 1l-19 -1l-19 14l3 10l8 19l-3 15l-9 12l13 20l-5 14l-3 16l-2 12l2 10l-1 24l-3 8l12 21l-6 6l-6 17l-1 20l1 12l10 13l-2 22l1 12l-8 10v19l6 10l-1 17l-7 20l13 10l-10 21l8 15
l-9 10l3 19l9 16l-13 9l6 18l-6 13l10 11l3 19l-4 16l2 16l-5 15l-2 12l-5 12l6 20l6 15l-1 11l-9 14l24 15l9 -1l21 5l5 -2l15 -3l27 -1h4l22 7l13 1l20 1l11 -7h17l19 -1l17 3l23 -1h8l26 2l5 -10l17 -4l19 3l15 -1l14 -13l7 -3l13 -8l16 -7l6 -3l15 -18l15 -7l12 -12
l5 -28l15 -10l-1 -13l8 -13l2 -24l8 -15l-6 -24l1 -20v-17l-9 -10l-12 -15l-6 -17l2 -8l-26 -26l-7 -12l-3 -13l-13 -6l-20 -5l-17 -9l-11 -12l-3 -12l13 -20l-2 -8l14 -16l9 -11l-3 -15l7 -8l18 -21l1 -13l15 -11l-1 -7l7 -17l10 -11l6 -12l16 -19l2 -12l3 -10l5 -12
l12 -17l6 -9l7 -16l6 -16l-4 -10l-14 -2l-21 3l-4 -7l-21 4l-10 -1l-22 10l-11 16l-10 12l-2 13l-6 10l-13 14l-4 20l2 8l-18 16l4 16l-20 6l-5 11l-2 16l-3 19l-14 9l1 10l-13 11l-4 16l-5 14l-6 14l-7 10l-27 14l-20 5l-18 -2l-6 -6l-20 3l-17 -4l-10 1l-12 4l-19 -4
l-17 -10l10 -12l-2 -22l2 -8l-6 -17l-6 -13l5 -17l5 -21l-10 -8l4 -18l-5 -19l5 -10l3 -21l-2 -10l-2 -19l7 -14l-5 -15l3 -12z" />
    <glyph glyph-name="S" unicode="S" horiz-adv-x="566" 
d="M158 495l18 -11l-1 -22l2 -8l28 -17l9 -13l21 -9l9 -7l18 -1l18 -2l5 -13l14 -6l27 -2l31 -12l11 -6l6 -3l26 -5l22 -11l11 -12l17 -7l13 -5l3 -15l21 -7l8 -16l11 -12v-15l8 -9l-5 -16l9 -14l-1 -18l4 -35l-7 -6l4 -16l-7 -20l-4 -13l-3 -14l-15 -16l-13 -7v-16l-19 -4
l-7 -18l-13 -5l-6 -4l-37 -17l-14 -10l-11 -4l-15 -3l-32 -2h-15l-29 -6l-13 2l-15 2l-10 9l-22 -1l-16 7l-7 -1l-17 2l-20 6l-9 6l-15 15l-8 6l-20 4l-10 12l-16 7l-10 9l-3 11l-19 9l1 22l10 7l12 20l-1 2l13 18l21 -5l5 -13l22 -11l12 -2l11 -10l8 -6l12 -15l11 -7l25 -7
l9 -1l24 2l13 -9l18 3l11 -3l30 -2l5 -1l18 3l14 11l11 1l19 5l12 13l2 12l21 14l3 4l11 16l-11 18l1 27l1 14l-5 16l-6 8l-22 20l-8 10l-20 8l-11 7l-14 5l-18 2l-10 11h-16l-28 12h-19l-12 9l-10 3l-11 10l-13 2l-13 15l-21 1l-13 11l-15 7l-2 13l-13 12l-16 4l-2 15
l-20 31l-7 12l-7 11l-4 14l7 17l-1 24l-4 14l2 18l13 10l-3 21l6 7l15 14l4 9l17 14l1 15l11 11l14 9l19 3l23 17l18 -5l14 11h4l13 -1l18 11h10l39 -2h6l18 -6l14 -3l11 -4l22 2l6 -13l15 -6l18 -7l17 -3l12 -7l12 -8l15 -11l2 -10l15 -3l9 -30l-14 -4l-14 -9l2 -15
l-20 -11h-19l-2 14l-17 4l-21 12l-3 7l-15 3l-9 4l-22 10l-18 2l-2 9l-27 -1l-23 -3l-11 -3l-21 -3l-19 3l-6 -11l-22 -6l3 -14l-13 -12l-8 -8l-6 -11l-1 -16z" />
    <glyph glyph-name="T" unicode="T" horiz-adv-x="553" 
d="M210 602l-12 -5l-14 3l-17 4l-20 -7l-13 2l-13 -3l-15 7l-17 -7l-17 2l-8 6l-13 -5l-24 -2l-13 18l1 15l8 10l-4 14l3 15l17 20l12 -9l13 7l15 1l17 -4l15 3l9 -1l22 -5l14 8h17l16 -1l11 1l23 -9l12 9l4 -2l26 2l15 -3l10 -3l23 -1h12l11 -2l20 9l17 -1l11 -4l7 4l21 -7
l21 8l11 -9l20 7l7 -5l19 5l5 -7l24 9l20 -22l-8 -8v-21l6 -7l-7 -13l-8 -19l-15 3l-25 -1l-11 2l-21 -2l-43 3l-7 -4l-13 3l-15 -3l-26 2h-2l-15 -14v-19l-12 -17l10 -8l3 -19l-7 -19l4 -12l-7 -11v-17l-1 -20l11 -8l-3 -22l2 -13l1 -9v-21l-13 -9l1 -19l5 -18l4 -10
l-4 -13l7 -16l-9 -19l-3 -15v-11l1 -14l5 -22l-7 -9l9 -23l1 -15l-8 -12l2 -16l8 -15l-11 -12l12 -19v-12l-4 -12l-9 -19l13 -12l-5 -16l-22 -13l-14 2l-8 -2l-20 -2l-23 1l-5 16l2 11l-3 21l-10 15l6 6l-3 21l1 13l-4 18l1 16l12 10l-12 21l-1 9l12 21v6l1 23l-11 15l8 14
l-4 15l-4 11l-1 15l10 20l3 9l-8 23l3 11l-9 14l4 11l5 17v22l3 14l-12 22l14 23l-5 7l3 19l-1 11l-10 15l11 20l-2 17l-3 13z" />
    <glyph glyph-name="U" unicode="U" horiz-adv-x="680" 
d="M594 672l7 -22l-6 -6l10 -18l-13 -19l6 -9l3 -20l3 -14l-11 -13l2 -16l8 -15l-7 -18l-5 -9l14 -15l-12 -14l2 -21l-1 -8l5 -20l-5 -19l-3 -9l11 -18l-9 -11v-18l7 -16l-3 -18l-3 -10l-1 -12l9 -31l-10 -13l10 -18l-4 -18l-11 -10l-3 -21l-4 -11l3 -15l-3 -17l-21 -12
l-5 -9l2 -15l-13 -9l-9 -11l-6 -19l-10 -9l-19 -2l-8 -17l-32 -12l-13 -6l-13 -1l-14 -3l-12 -6l-12 -4l-7 -6l-16 1l-18 3l-37 -2l-13 -5l-11 3l-13 2l-19 4l-8 3l-11 10l-17 10l-16 2l-34 15l-13 9l-8 15l-11 8l-9 12l-8 9l1 16l-26 29l1 14l-10 12l-1 16l-9 11v20l-3 17
l-1 14l2 11l-4 35l1 13l-2 14l8 11l3 24l1 10l-8 17l1 11l7 16l-4 18l-5 12l9 14l1 22l1 9l-6 19l-5 12l2 17l1 10l-3 13l4 23l-4 15l-2 10l7 13l-8 22l1 14l3 16l-2 8l13 18l23 -4l12 9l23 -8l17 -1l12 -13l-4 -17l10 -10l-2 -13l-7 -35l-4 -16l1 -6l13 -24l-3 -15l-7 -14
l1 -12l-2 -18l-1 -15l-1 -9l13 -17l-7 -18l2 -15l-2 -14l3 -14l-1 -16v-17l-1 -10l-7 -10l2 -21l1 -16l1 -9l2 -35l3 -18l-5 -9l7 -21l4 -13l9 -8l6 -19l-4 -10l17 -17l3 -5l14 -13l17 -9l7 -7l17 -16l12 3l13 -10l13 2l11 -2h27l28 -2l12 6l15 5h9l15 13l17 4l6 11l12 8
l2 17l9 5l11 15v12l16 20l-9 18l10 6l4 24l-4 10l7 36l2 11l-1 10l-10 16l-2 14l-1 14l2 24l-2 14l14 14l-13 14l12 10l1 15l-12 15l-2 23l14 7l-1 18l-3 10l-4 16l7 16l-3 16l-9 19l1 8l6 23l2 13l-8 14l8 12l4 14l11 16h6l18 -3l17 7l16 -5z" />
    <glyph glyph-name="V" unicode="V" horiz-adv-x="640" 
d="M534 683l28 2l15 3l10 -1l11 2l11 -15l-3 -22l-6 -7l7 -19l-10 -12l-13 -11l-2 -19l-5 -13l4 -11l-12 -14l1 -14l-15 -15l-1 -11l-13 -13l-3 -22l-5 -13v-12l-7 -12l-11 -12l-6 -15l-3 -13l-2 -13l4 -14l-19 -15l-1 -15l1 -19l-14 -12l-1 -14v-13l-6 -11l-12 -19l-4 -14
l-1 -16l-13 -10l6 -17l-7 -14l-12 -14l2 -9l-5 -19l-8 -13l-3 -11l-6 -13l-14 -19l7 -6l-13 -16l-10 -12l-5 -19l8 -12l-26 -18l-14 1l-19 -1l-20 1l-9 3l-29 17l9 6l-16 19l-3 16l-8 12l-2 10v13l-15 19l-1 11l-7 14l-9 20l9 12l-7 12l-10 12l-9 19l-6 13l3 16l-10 13
l-11 8l2 15l-12 15l4 19l-4 5l-9 20l-7 16l-2 12l-9 12v13l-1 12l-7 17l-12 9l-5 21l-8 16l-4 11l-10 12l-1 16l-8 11l-5 15l7 16l-9 8l-3 19l-14 12l-4 12l-3 18l1 11l-16 21l-3 10l1 9l13 18l12 1l12 -4l4 -1l23 5l16 -4l17 -10l2 -15l2 -10l5 -16l10 -14l11 -21l2 -27
l9 -11l1 -12l14 -14l-2 -14l3 -14l14 -16l-5 -19l2 -15l15 -7l4 -19l9 -12l-1 -12l5 -17l7 -14l5 -15l11 -17l-5 -6l2 -16l14 -21l4 -12l4 -9l9 -16l6 -16l-5 -18l5 -10l9 -17l3 -14l1 -14l9 -11l9 -13l4 -18l12 -2l7 19l-1 12l4 18l6 8l10 19l8 14l-2 11l7 15l10 11l6 18
l-2 17v16l18 12l5 9l6 16l-7 11l6 17l8 18l2 9l7 16l15 16l-9 12l19 17l-8 11l11 19l3 16l12 8l-6 20l5 14l11 13l6 14l-1 17l11 6l3 14l2 20l13 12l5 13l2 11z" />
    <glyph glyph-name="W" unicode="W" horiz-adv-x="978" 
d="M938 681l13 -13l-1 -13l-8 -8l-5 -14l-8 -21l-3 -10l-5 -14l-12 -16l-4 -15l2 -15l-9 -7l-7 -23l2 -7l-8 -21l2 -12l-10 -15l-9 -9l-2 -15l-13 -12l-1 -20l-3 -12l-7 -17l-9 -11v-25l-13 -16l1 -15l-5 -15l-7 -9l-10 -11l-6 -17l-1 -12l-6 -20l-3 -8l-8 -18l-13 -15
l2 -14v-9l-10 -21l-4 -11l-10 -18l-7 -12l-2 -15l3 -14l-5 -8l-18 -14l-7 -16l-4 -13l-12 -11l-16 -1l-18 -2l-10 1l-18 1l-20 12l1 11l-8 21l-5 7l4 14l-4 16l-14 21l3 21l-12 17l5 15l-6 17l-14 14l8 18l-5 6l-13 18l2 13v15l-17 17l4 11l-5 20l-1 14l-5 13l-3 14l-6 16
l-9 10l4 18l-11 15l1 13l-14 14l3 4l-14 -17l-4 -19l-1 -14l-7 -13l6 -12l-14 -14l6 -17l-12 -12l-2 -14l-8 -20l7 -10l-17 -19v-16l1 -7l-11 -18l-1 -9l-5 -20l-7 -10l4 -19l-6 -18l-12 -14l8 -11l-5 -13l-15 -18l-6 -13l-4 -17l-3 -8l-2 -21l-6 -15l-21 -14l-12 3l-9 -1
l-13 2l-27 -2l-12 14l-12 18l-1 9l-4 16l2 17l-12 7l-2 16l-10 15v13l-10 19l-5 7l-6 18l-9 13l-1 17l-4 14l-10 8l8 19l-19 15l3 10v14l-16 19l-6 11l1 11l-2 13l-5 16l-12 16l-8 17l2 15l-11 10l-8 11l-1 16l1 13l-4 13l-9 20l-5 11l-7 12v13l-10 21l4 8l-9 15l-12 18
l-1 9l-3 17l-1 11l-13 19l-2 6l-4 15l-7 18l15 14l10 2l12 -2l18 -1l2 -4l19 4l24 -13l-2 -18l15 -9l-7 -16l11 -11l9 -15l2 -18v-15l8 -12l7 -9l1 -19l9 -14l10 -12l5 -12l4 -14v-22l11 -11l1 -14l6 -9l3 -16l8 -19l8 -12l-3 -16l5 -14l-1 -16l6 -8l9 -20l1 -10l13 -11
l2 -13l2 -17l14 -17l-1 -13l7 -18l6 -11l1 -14l7 -14l9 -11l1 -17l6 -3l7 21l2 11l7 16l-3 10l3 22l4 14l16 10l-6 13l11 14l-7 17l5 15l8 13l5 12l1 21l8 12l7 13l-4 16l9 18l-3 7l10 23l-5 13l5 16l13 6l-8 22l16 10l-7 15l9 14l-3 12l12 20l4 7l-4 17l10 20l10 11l-5 16
l7 17l4 11l8 18l11 15l9 -4l24 -1l10 -18l3 -8l5 -20l7 -14l3 -15l5 -9l8 -21v-16l3 -7l10 -14v-16l-3 -14l11 -23l3 -8l1 -14l8 -18v-19l-2 -12l9 -9l4 -15l-5 -23l11 -14l10 -8l5 -14l-10 -15l11 -14l3 -20l5 -11l-3 -14l5 -15l15 -15l1 -15l2 -19l-3 -14l3 -10l7 -16
l8 -20l16 17l2 9l8 19l-2 13l9 14l5 10l3 23l3 11l9 13l7 11l1 19l6 16l4 11l15 12l-4 10l10 20l10 8l5 22l-3 8l4 13l15 21l5 11l-6 16l3 12l12 13l8 12l-4 19l10 12l7 14l12 16l-2 8l10 12l7 14l3 20l3 14l5 10l9 16l-4 12l25 19h36l13 2z" />
    <glyph glyph-name="X" unicode="X" horiz-adv-x="645" 
d="M610 -1l-25 3l-13 -1l-18 -1l-15 3l-12 -4l-31 13l5 9l-23 15l6 16l-20 5l2 18l-18 5l-11 13l-4 14l-9 17l-8 6l-10 14l-5 11l-11 12l-9 13v11l-19 20l4 6l-20 13l-3 15l-13 13l-7 11l-19 -3l-6 -14l-2 -12l-15 -13l-1 -11l-12 -10l-4 -12l-14 -14l-6 -8l-10 -13l-12 -17
l-5 -4l-6 -17l-4 -12l-8 -14l-13 -8l-11 -17l-10 -7l-3 -13l-15 -11l-11 -19l-2 -8l-21 -13l-14 -2l-17 -2l-8 9l-24 -4l-7 1l-9 10l12 16v10l10 12l8 9l17 12l8 14l2 16l6 11l6 13l11 12l17 8l-1 14l7 10l10 16l8 14l10 12l14 6l6 14l12 17l7 13v9l5 14l9 14l19 12l2 8
l6 13l17 15l-1 20l-4 17l-19 8l-9 10l1 20l-12 7l-12 12l-5 10l-14 12l-7 16l-3 8l-7 13l-18 13v17l-13 12l-1 12l-9 13l-17 13l-10 9l2 15l-8 8l-16 10l-12 20l-4 9l-11 8l-8 18l14 10l8 -1l14 -2l25 5l19 1l12 -4l29 -11l1 -10l11 -23l12 -18l11 -13l9 -10l1 -17l20 -7
l-1 -13l19 -10l9 -11l3 -10l13 -13v-15l11 -9l6 -18l5 -14l14 -6l1 -14l25 3l10 7l6 14l2 14l11 14l13 12l7 5v16l11 13l12 14l3 10l17 7v12l9 21l19 5l9 10l-4 16l9 11l7 11l11 19l28 9l14 -1l13 1l14 -5l10 1l15 8l19 -18l-12 -11l-11 -14l-6 -13l-11 -13l-10 -12l-7 -6
l-13 -12l-3 -20l-2 -10l-10 -7l-20 -20v-8l-17 -14l-7 -10l-5 -12l-7 -9l-7 -16l-13 -8l-11 -19l1 -8l-14 -12l-11 -13l-4 -10l-10 -16l-2 -17l-3 -22l5 -7l17 -19l2 -10l14 -9l3 -11l13 -17l6 -10v-12l13 -11l8 -10l18 -14l5 -18v-9l19 -14l7 -6l1 -12l4 -12l9 -12l13 -19
l3 -6l12 -17l9 -12l10 -11l10 -10l8 -16l10 -9l2 -15z" />
    <glyph glyph-name="Y" unicode="Y" horiz-adv-x="601" 
d="M508 684h12l8 2l13 2l23 -8l7 6l8 -12l-13 -16l-10 -14l5 -10l-15 -11l-8 -17l-5 -11l-12 -8l-10 -17l1 -11l-10 -12l-2 -13l-7 -10l-9 -17l-18 -15l-11 -22l-13 -12l2 -18l-5 -9l-20 -10l-4 -18l-10 -10l-4 -14l-12 -14l-6 -6l-5 -17l-4 -16l-12 -7l-3 -9l-18 -37l6 -8
l6 -16l-2 -12v-18l-10 -18l6 -9l-6 -20l8 -9l2 -13l-6 -14l2 -17l8 -20l-11 -11l11 -17l-10 -17l2 -7l3 -20l2 -9l-20 -21l-15 -2l-22 9l-7 -5l-25 1l-10 19l-4 7l4 21l-1 15l5 8l3 18l-5 14l-8 14l11 13l1 19l-1 12l1 15l-12 16l6 18l-2 9l-1 17l-1 20l2 8l2 13l-4 32
l-18 12l2 18l-13 9l-11 9l-4 14l-10 19l-11 13l-3 14l-9 6l-13 12l1 16l-11 10l-7 17l-15 17l1 5l-14 17l-5 17l-9 8l-1 13l-8 17l-20 7l6 14l-19 13v16l-6 12l-20 12l2 17l-19 6l8 14l27 5l5 1l24 -6l14 5h5l29 -15l3 -16l15 -23l6 -14l19 -14l-3 -8l18 -10l2 -17l23 -29
l6 -4l-3 -16l17 -14l11 -16l1 -10l2 -16l14 -5l8 -19l8 -9l13 -12v-15l15 -14l5 3l7 16l9 14l11 10l14 6l3 17l7 14l12 14l1 9l11 12v11l11 17l10 12l10 10l-1 10l16 21v9l8 8l19 16l5 16l-2 13l13 12l10 10z" />
    <glyph glyph-name="Z" unicode="Z" horiz-adv-x="570" 
d="M173 78l11 5l10 -1l27 5l14 -8l8 2l22 -2l16 3l9 1l19 -1l13 5h17l11 -7l11 1l21 -3l15 1l7 6l24 -5l17 7h11l15 -7l11 2l20 2l16 -1l4 -10l9 -33v-15l-4 -14l-13 -9h-11l-26 -6l-14 1l-12 6l-18 -8l-19 5l-9 -3l-8 2l-27 3l-12 -6l-6 2l-29 5l-6 -5h-22l-4 4l-26 -7
l-12 4l-12 5l-24 -4l-16 -4l-13 6l-10 -3l-13 4l-15 -8l-21 1l-6 4l-27 -4l-14 4l-11 3l-15 -3l-20 14v15l1 12l7 13l10 32l8 9l-1 16l17 9l4 10l15 12l8 10l2 18l5 10l15 15l8 13l1 13l11 6l13 14l14 11l-5 11l9 15l9 10l7 16l9 8l14 15l15 10l4 20l8 13l15 9l-1 16l17 8
l1 8l10 13l1 19l16 11l8 15l16 4l-2 20l14 9l12 10l6 12l2 13l5 18l16 5l12 12l10 19l-9 6l-15 1l-25 3l-3 4l-26 -9l-17 1l-9 3h-9l-19 3l-19 -2l-8 1l-26 -4l-8 4l-12 -2l-15 -2l-24 -1h-10l-24 -1l-12 4l-11 -3l-17 3h-20l-5 10l-12 23l1 14l2 7l-1 17l18 15l10 -5l26 6
h28l6 -6l27 -1l3 3l20 1l14 -2l24 4l7 2l9 -2l15 -2l27 1l13 -1l16 4l11 -2l15 -1l14 -3l14 -2l16 6l13 3l13 -5l14 -4l27 7l9 -4l22 -2l11 7l17 -7l8 -7l4 -18l5 -18l-7 -6l-11 -30l-2 -11l-10 -13l-13 -11l-13 -16l-4 -7l-1 -13l-20 -15l-5 -16l-2 -6l-11 -14l-8 -11
l-4 -19l-15 -9l-8 -16l-7 -5l-5 -13l-11 -13l-7 -14l-8 -18l-14 -21l-21 -15l1 -10l-12 -9l-3 -14l-11 -16l-12 -7l-3 -10l-14 -18l-13 -12l1 -14l-10 -6l-7 -17l-19 -15l-1 -7l-6 -16l-16 -14l-4 -9l-9 -17l-16 -11l-6 -10z" />
    <glyph glyph-name="bracketleft" unicode="[" horiz-adv-x="401" 
d="M206 -130l21 4l11 -9l17 8h5l22 1l7 -7l26 1l7 -1l19 -1l19 5l4 -12l8 -19l-6 -11l-1 -14l1 -15l-9 -14l-12 3h-14l-21 -7l-22 6l-11 2l-11 -1h-13l-13 -2l-22 -5l-20 4l-8 1l-10 3l-27 -5l-2 2l-15 -5l-18 -1l-11 20l-7 15l-5 14l-2 19v16l10 7l2 14l1 22l-13 13l3 12
l7 22l-7 10l4 16l6 12l-2 20l2 12l-1 19l-5 11l-2 17l4 17l-7 12l-2 18l5 14l-3 12l7 12l-5 20l3 14l3 16l-9 12l3 13l3 19l-6 18l11 16l-7 9l9 17l-11 16l4 9l5 21l-5 11l5 17l-8 15l4 12l5 21l-11 11v12l7 20l5 15l-5 11l5 21v12l-11 20l2 13l1 16l-6 15l3 13l2 18l3 10
l-8 16l14 17l-10 9l5 19l-3 16l13 16l20 -4l18 -1h16l15 1l3 2l16 -2l23 6l10 -8l18 7l15 -5l17 6l4 -7l19 -1h12l24 1h15l8 -13l8 -14l-5 -10l5 -12l-1 -17l-22 -15l-11 -5l-17 2l-14 3l-13 -3l-13 2l-18 3l-10 -3l-22 2l-2 -2l-17 -4l-19 -6l-4 -19l11 -12l-2 -22l-10 -7
l-1 -23l-1 -16l3 -13l9 -15l-5 -9l-5 -16l10 -17l-5 -14l5 -15l-6 -18l3 -17l2 -8l-3 -15l-1 -15l4 -21l3 -11l-12 -17l1 -14l6 -10l-9 -16l12 -17l2 -20l-3 -6l-4 -16l-6 -19l13 -15l-13 -17l2 -11l3 -19l1 -10l-4 -14l2 -15v-22l-3 -13l4 -17l3 -9l-2 -14l-7 -14l11 -22
l-1 -8v-14l2 -18l-2 -12l-8 -18l5 -13l6 -14z" />
    <glyph glyph-name="backslash" unicode="\" horiz-adv-x="445" 
d="M396 1l-17 1l-19 -2h-10l-8 3l-26 12l-13 12l4 11l-3 16l-19 13l-1 16l-6 17l1 5l-5 15l-5 12l-10 15l-4 16l-14 10l1 17l-7 18l-14 9l2 14l-12 11l7 15l-19 13l-5 21l3 5l-6 17l-15 13l8 16l-20 11l6 21l-15 6l-1 19l-1 8l-15 17l-2 9l-2 19l-12 9l-10 17l7 11l-17 18
l-2 12l-6 16l-2 15l-6 7l-14 15l-3 20l5 8l-9 20l-9 12l-11 15l6 6l-12 13l2 21l24 -5l11 6l17 -7l22 1l8 -16l8 -8l12 -13l-1 -17l12 -7l-2 -23l17 -9l3 -10l3 -20l4 -10l7 -15l7 -9l-1 -21l15 -13l5 -14l-3 -9l16 -16l2 -10l1 -18l5 -14l7 -12l4 -14l12 -19l13 -8v-24
l16 -14l-2 -19l2 -16l9 -9l6 -16l2 -12l10 -14l6 -19l6 -12l13 -9l-4 -13l11 -18v-16l4 -6l5 -18l6 -15l15 -16l2 -5l3 -15l3 -13l15 -22l9 -11l7 -7z" />
    <glyph glyph-name="bracketright" unicode="]" horiz-adv-x="401" 
d="M26 -200l3 15l-5 17l4 7l-4 19l26 14h16l4 2h26l3 -3h21l9 3l13 -7l20 -1l21 4h9l14 10l-6 21l2 17l5 14l4 11l2 20l-8 11l-4 12l1 18l1 13l8 13l-7 14l3 19l-2 12l2 20l-2 15l4 12l-6 18l10 18l-10 15l7 13l-9 15l2 16l9 10l-2 21l-8 9l3 12l9 15l-12 20l2 13l5 19
l-9 13l8 14l6 17l-10 14l5 15l2 11l-10 15v20l1 16l-1 10l6 16l2 18l1 14l-10 14l3 9l10 19l-12 17l7 13l2 17l-3 13l-11 15l-22 5l-14 -2l-14 -4l-9 5l-12 1l-24 -1l-7 -3l-23 -2l-11 -2l-22 6l-11 14l6 12l2 10l-8 22l5 13l7 13l20 -6l12 3l26 5l14 -3l8 -4l17 2l14 -3
l22 4l14 3l11 -3l9 -1l19 4l14 -2l13 3l24 -2l15 2l13 -19l-3 -19l-4 -10l7 -20l-2 -12l-7 -12l5 -16l-1 -20l3 -15l-5 -8l9 -15l1 -23l-1 -14l-7 -12l6 -15l-10 -10l8 -30l3 -20l-6 -16l8 -18l-10 -8l-1 -19l5 -18l-8 -8l10 -22l-2 -11l-3 -12l-5 -22l3 -11l10 -17v-15
l-2 -13l-5 -18l1 -16l-3 -14l-2 -12l8 -15l4 -13l-9 -14v-18l-1 -14l-2 -19l10 -7l-8 -18l9 -13l-2 -21l-1 -17l-6 -11l4 -19l-1 -7l2 -23l-5 -9l1 -16v-17l-2 -15l10 -14l-10 -19l5 -7l5 -16l-6 -21l3 -10l-19 -12l-7 -9l-25 9l-23 -8h-18l-14 8l-11 -9l-21 6l-22 -3
l-15 -3l-7 4l-21 -3l-13 -1l-15 3l-6 6l-28 -9z" />
    <glyph glyph-name="asciicircum" unicode="^" 
d="M299 671l2 -9l10 -17l-2 -15l5 -13l6 -12l16 -13l6 -19l3 -16l7 -13l2 -5l16 -16l5 -14l-1 -17l14 -10l3 -18l12 -17l4 -4l4 -18l6 -19v-8l17 -11l4 -14l4 -20l-1 -15l-28 -12l-18 -4l-17 -7l-16 6l-2 17l-7 16l-12 6l1 18l-13 11l-7 15l-6 14l2 8l-13 21l-9 6l6 15
l-8 12l-13 15l-4 14l-3 11l-2 20l-9 8l-15 17l-1 -1l-10 -13l-6 -14l-2 -18l-7 -11l-10 -8l-8 -13v-17l-5 -13l-8 -16l-5 -8l-9 -13l-12 -17l-1 -14l-5 -12l-11 -15v-10l-6 -20l-27 -13l-13 1l-16 7l-3 9h-23l1 20l2 15l8 9l8 16l6 11l2 21l1 11l19 10l-7 14l19 20l4 11
l-3 12l13 12l2 20l9 12l12 9v17l15 10l-5 20l7 8l9 16l2 18l5 12l14 14l28 14l16 -5l13 -3h18z" />
    <glyph glyph-name="underscore" unicode="_" horiz-adv-x="623" 
d="M584 -155h-10l-14 -6l-17 -3l-9 3l-21 5l-18 -3l-18 2l-6 -5l-21 2l-4 -4l-23 2l-16 6l-16 -7l-27 2l-21 5l-14 1l-5 -8l-17 -1l-20 9l-11 -7l-22 -2l-13 4l-17 -2l-11 4l-9 -2l-27 -1l-17 5l-1 1l-18 -7l-14 5l-23 2l-10 -8l-11 1l-16 5l-24 -4l-17 -2l-10 14l-5 20
l-2 14l7 20l16 8l20 2l5 3l19 -1l14 -5l18 2l6 -1h30l8 7l19 -6l11 7l14 -9l17 7l18 2l4 -6l27 4h4l26 -1h8l17 -1l9 3h17l19 -2l22 -1l11 3l19 -4l13 -4h13l16 4h16l17 4l12 -8l14 7l13 -6l10 2l26 -2l8 7l20 -3l14 -17l-1 -13l1 -18l2 -13z" />
    <glyph glyph-name="grave" unicode="`" 
d="M205 686l5 -9l8 -13l12 -9l17 -4l17 -16l16 -2l-2 -9l14 -12l13 -12l9 -3l13 -16l12 -8l7 -21l2 -14l-8 -14l-25 2l-19 -2l-15 11l-8 14l-28 6l-4 16l-26 2l-8 12l-11 10h-16l-13 16l-4 -1l-16 19l5 20l10 12l15 5l2 12z" />
    <glyph glyph-name="a" unicode="a" horiz-adv-x="584" 
d="M225 88l13 -8l6 -7l15 3l38 -3l17 -3l17 5l4 11l15 4l20 10l5 10l16 6l3 17l10 23l11 19l8 20l5 9l-13 38l11 15l-3 5l-7 14l-5 16l-5 18l-9 7l-7 9l-13 15l-7 9l-27 12l-23 9l-18 1l-11 4l-21 3l-19 -2l-24 -2l-11 -15l-9 1l-10 -11l-19 -9l-13 -11l-5 -11l-17 -30
l5 -13l-1 -22l-8 -19l-8 -25l8 -14l11 -24l-9 -15l20 -11l4 -12l2 -12l11 -16l21 -5zM489 4l-15 -6h-6l-18 1l-13 1l-23 18l9 15l-4 14l-9 6l-15 -13l-6 -9l-17 -12h-12l-8 -13l-20 -2l-6 -7h-16l-23 -6l-4 -1l-39 4l-9 -5l-17 3l-7 7l-12 5l-22 5l-10 7l-11 1l-21 6l-4 11
l-13 15l-13 6l-3 10l-12 10l-14 18l-15 25l5 10l-14 18l-3 17l5 14l-11 16l7 16l3 31l-7 16l-1 17l1 10l16 16l-1 18l5 9l8 13v13l15 12l10 10l13 18l8 12l13 12l35 23l16 3l30 15l37 6l31 -4h10l9 -5h16l13 -13l25 1l14 -11l-1 -2l25 -13l4 -15l12 -7l14 5l-8 13l6 16
l17 24l25 -2l18 -6l8 4l21 -10l-10 -20v-11l6 -14l-4 -22l10 -12l-9 -13l9 -14l-6 -22l-2 -13l-4 -17l-1 -10l10 -19l1 -12l1 -14l-11 -13v-14l7 -14l-7 -20l11 -17l2 -14v-13l-5 -18l-5 -12l-4 -12l11 -14l3 -20l-11 -19l9 -11z" />
    <glyph glyph-name="b" unicode="b" horiz-adv-x="584" 
d="M169 290l4 -19l-4 -15l-6 -12l3 -39l-6 -12l5 -13l9 -18l8 -12l6 -19l3 -7l24 -12l10 -9l27 -16l7 -12l10 -6l22 4l31 -3l9 7l16 -1l24 8l7 7l16 10l5 10l15 10l7 15l15 28l6 13l5 14l-8 18l4 28l-6 22l6 16l-5 6l-9 19l-12 10l-2 14l-11 12l-17 11l-27 22l-7 3l-12 4
l-25 -1l-25 -2h-13l-14 2l-18 -15l-18 -7l-13 -6l-1 -6l-12 -10l-8 -17zM516 329l7 -10l2 -16l9 -21l3 -16l-8 -16l4 -15l2 -22l3 -15l1 -15l-13 -16l5 -18l-14 -19l1 -7l-8 -19l-6 -12l-8 -15l-16 -5l-10 -10l2 -11l-14 -10l-14 -16l-24 -9l-12 -13h-23l-15 -7l-14 -7l-3 6
l-13 -10l-35 2l-11 4l-17 3l-19 8l-15 3l-5 -1l-11 14l-17 2l-15 15l-2 9l-11 11l-15 -7l-5 -18l-4 -18l-25 -13l-9 -1l-19 -1l-12 1l-9 19l-5 10l3 22l-11 9l10 21l-3 12l6 18v14l-9 8l-2 23l7 13l1 12l-2 17l4 12l1 12l-1 18l-6 19l2 11l-1 12v17l1 17l6 15l-8 20l3 10
l-1 13l4 21l-8 8l9 15v16l-12 20l6 11l-3 15l10 13l-1 18l-4 14l-9 14l6 14l-6 14l3 19l5 12l-7 19l6 18l-6 12l8 14l-9 14l12 20l10 8l11 4l24 -5l4 8l18 -2l18 -21l8 -15l-6 -6l-6 -17l9 -23l-6 -14l-4 -15l12 -8l-13 -22l10 -12l1 -15l-11 -15l4 -13l10 -16l-9 -20v-14
l6 -8l-9 -21l3 -16l7 -17l11 -2l1 16l19 8l6 6l16 9l8 7l21 5l17 6l11 4l18 5l35 -3l4 2l23 -8h15l10 -6l22 -5l-1 -3l27 -6l4 -15l14 -6l5 -6l19 -9l1 -13l16 -17l2 -10z" />
    <glyph glyph-name="c" unicode="c" horiz-adv-x="481" 
d="M145 291l3 -19l-4 -13v-23l-8 -26l9 -22l-6 -13l10 -14l12 -15l-2 -12l13 -9l5 -14l12 -9l31 -14l18 -15l13 3l13 -5h35l2 5h16l14 7l20 8l13 8l12 3l5 8l30 5l3 -12l8 -12l20 -5l-1 -14l6 -19l-20 -11l-6 -4l-18 -8l-8 -13l-15 -9h-6l-24 -12l-7 -2l-22 -5l-17 3l-12 -5
l-34 -2l-15 9l-14 -4l-6 5l-15 9h-17l-11 12l-15 7l-11 8l-25 8l2 3l-23 18l-12 7l3 8l-12 17l-13 22l-9 14l-11 18l-8 14l9 12l-7 18v17l-9 29l11 15l-4 19l12 16l-6 11l14 20v10l15 10v21l7 13l10 13l15 10l9 9l11 12l18 7l29 10l12 10l14 5l8 6l12 2l25 -1l5 9l45 -8h20
l21 -7h10l12 -10l15 -3l24 -8l2 -4l22 -11v-8l15 -20l-17 -11l-3 -13l-14 -7l-13 -10l-17 1l-21 7l-12 9l-14 8l-3 7h-18l-14 2l-40 2l-6 -7l-23 -2l-5 -2l-12 -14l-21 -9l-10 -4l-5 -14l-7 -11z" />
    <glyph glyph-name="d" unicode="d" horiz-adv-x="584" 
d="M213 87l22 -9l8 -9l18 3h54l12 5l10 2l20 15l3 2l9 10l23 13l3 16l22 30l-4 10l-1 20l3 16l-1 25l11 13l-6 17l-11 12v17l-13 16l-9 3l-2 16l-15 15l-12 9l-23 15l-23 5l-17 -2l-28 6l-22 -6h-11l-24 -12l-11 -12l-8 -13l-13 -5l-19 -15l-15 -29l-3 -15v-16l1 -13l-4 -32
l9 -16l1 -15l-5 -13l18 -22l-5 -8l9 -12l24 -11l13 -14zM486 0l-18 -1l-10 2l-18 2l-11 8l-11 23l-2 14l-13 1l-12 -8l-1 -11l-13 -7l-13 -11l-19 -7l-8 -6l-10 2l-23 -2l-11 -5h-17l-33 -8l-10 9l-14 1l-10 -1l-10 10l-27 2l-3 1l-15 12l-13 7l-19 6l2 18l-10 5l-11 7
l-15 12l-7 12l-19 28l5 20l-4 8l-13 15v21l-7 10l3 14l-7 31l3 20l7 11l7 15l-4 15l6 19l15 11l6 15l6 10l5 16l5 13l16 12v13l23 4l7 16l30 12l3 10h14l24 7h8l9 1l18 9l26 -4l28 1l11 -5l18 -4l6 -12l12 -3l21 -4l17 -16l3 -3l22 -11v-4l10 17l-12 13l10 20l-2 10l2 23
l-11 8l8 22l-3 8l-5 16l5 21l-5 15l13 10l1 15l-4 20l-10 12l6 18l-4 12l2 16l8 12l6 21l23 -1l12 -3l16 1l8 -3l25 -13l-9 -12l1 -20l9 -10l-8 -19l4 -16l-6 -11l10 -20v-24l-3 -17l3 -19v-10l-5 -13l5 -16l2 -17l-6 -19l3 -11l-7 -11l10 -22l-11 -7l-1 -19l6 -19l4 -7v-18
l-11 -14v-16l2 -13v-18l7 -14l-4 -14l1 -17l5 -18l-8 -12l7 -20l-1 -6l-8 -24l10 -9l-11 -21l11 -6l-6 -18l5 -15l-8 -13l-3 -18l3 -19l7 -16z" />
    <glyph glyph-name="e" unicode="e" horiz-adv-x="530" 
d="M398 279l-13 15l-6 8l5 17l-10 6l-20 18l-6 5l-14 12l-2 9l-19 -1l-11 10l-18 3l-29 -7l-15 6l-7 -8l-27 -8v-10l-11 -6l-21 -11l-1 -8l-12 -8l-3 -14l-9 -12l-13 -13l23 -20l14 5l12 -2l21 -5l5 6l22 -6l12 7l17 -4l20 -1h11l13 1l15 -3l18 9l18 -7l20 7l7 -7zM461 45
l-9 -2l-25 -9l-2 -12l-14 -1l-23 -10l-2 -2l-25 -11h-8l-14 -1l-23 -8l-7 -2l-10 -2l-32 1l-18 8l-15 3l-36 8l-11 1l-5 12l-40 10l-6 5l-14 12l-9 13l-17 7l-9 20l-8 5l-8 25l-4 14l-3 16l-17 21l3 15l-1 8l-5 23l7 30l2 12l-1 13l-3 19l6 16l7 11l-2 11l7 13l18 19l3 11
l13 15l11 8l11 14l14 5l7 6l18 20l26 7l3 2l21 4l8 8l17 -2l21 7l30 -4h8l22 -5l9 3l19 -5l11 -5l26 -20l4 -7l36 -21l9 -2l-1 -13l15 -10l11 -19l18 -23v-17l2 -9l11 -17l-6 -21l16 -14l-12 -10l-1 -40l-8 -11l-21 -2l-10 -3l-22 2l-17 -6l-6 6l-21 -3l-17 1l-11 -3l-11 6
h-35l-13 2l-15 -9l-19 2l-19 -2l-10 9l-17 -6l-8 4l-24 -6h-19l-6 2l-15 -11v-12l17 -18l9 -18l10 -3l9 -13l7 -12l19 -11l12 -5l4 -8l20 -7l19 3l29 1l5 -1l25 5l17 1l11 4l17 2l8 11l17 10h3l21 -2l10 -7l13 -17l12 -10z" />
    <glyph glyph-name="f" unicode="f" horiz-adv-x="364" 
d="M351 436l-4 -17l6 -22l-7 -10l-13 -13l-16 -9l-5 5l-20 -4l-10 2l-23 4l-11 -1l-11 2l-15 -6l-15 -17l4 -11l-12 -11l4 -15l10 -18l-2 -17l-2 -8l-4 -22l-1 -11l-3 -17l8 -12l-2 -20l1 -10l-6 -17l-2 -13v-12l2 -17l-2 -13v-21l11 -14l-10 -17l-2 -11l11 -16l-8 -11
l-6 -20l-27 -1l-16 2l-26 2l-7 14l-2 12l-8 17l2 19l-2 15l3 14l2 9l1 21l-6 17l6 13l-5 11l5 20l2 7l-4 20l-6 16l3 12l8 19l-4 8l-4 18l9 12l-10 14l-2 14l10 17l-2 16l-13 15l-25 -1l-13 6h-14l-13 -6l-25 14l9 14l-2 13v16l15 15l13 1l17 6l11 3l23 -6l4 9l-4 16l5 16
l-7 17l3 13l-4 28l1 18l9 13l1 18v31l9 15l6 6l13 15l5 14l9 13l17 8l10 6l8 3l20 6l14 7l4 -1l30 3l28 -10l8 -2l13 -4h13l22 -17l8 -1l3 -15l18 -22l-23 -6l-9 -11l5 -22l-26 -3l-19 14l-14 7l-2 3l-35 3l-10 -6l-14 -12l-13 -12l-2 -9l-8 -13l-6 -23l12 -32l-11 -12l1 -9
l3 -23l-6 -13l2 -20l23 -4l12 8l20 -5l5 3l16 1l19 -6l17 8l20 -6l9 2z" />
    <glyph glyph-name="g" unicode="g" horiz-adv-x="587" 
d="M221 86l19 -12l7 3l22 -5l25 1l23 -3l7 3l39 13l2 18l15 6l6 9l17 17l13 25l10 14l5 20l-10 12l13 31l-2 14l-13 16l6 11l-19 12l-7 20l3 9l-13 13l-5 10l-20 10l-17 13l-22 2l-6 4l-14 8l-57 -4l-2 -7l-21 -6l-16 -5l-11 -6l-7 -11l-18 -12l-6 -12l-14 -31l-4 -13l4 -14
l-6 -23l1 -31l-7 -12l6 -20l1 -16l6 -13l21 -10l-2 -11l10 -18l14 -2zM408 -186l-14 -12l-13 -1l-16 -1l-23 -10l-9 -2l-18 6l-12 -7l-27 5h-34l-11 -2l-15 4l-23 1l-3 2l-27 11l-25 11l-9 11l-9 1l-20 7l-12 11l3 30l3 8l19 11l5 22h23l4 -14l18 -6l15 -4l15 -11l18 -9
l18 2l6 -7l25 4l6 -6l29 -4l23 8l17 3h7l19 -1l7 11l22 7l16 4l5 10l15 13l-5 9l11 12l1 17l7 17l1 24l-3 16l-5 12l12 20l-10 11l4 13l-14 8l-8 -12v-13l-12 -15l-6 -2l-21 -11l-3 -14l-18 -8l-18 3l-14 -9l-14 -4l-8 2l-23 -1l-19 -3l-13 4l-20 -7l-13 3l-13 8l-17 4
l-7 11l-23 6l-3 5l-10 6l-12 19l-22 6l-3 11l-16 14l-1 8l-9 29l-17 11l-6 15l-1 15l4 15l-12 16l9 17l-7 34l1 15l-2 15l14 9l4 19l-4 16l3 15l6 9l22 11l-4 19l14 11l3 6l19 14l16 9l-1 14l30 15l14 -1l12 5l10 13l22 -4l14 2l8 8l36 -3l17 -7l7 2l22 -5l15 -2l9 -7l18 -9
l7 -7l10 -9l19 -13l10 -12l2 7l8 22l2 11l13 14l21 4l30 -3l16 -10v-12l5 -22l-1 -12v-16l2 -14l1 -15l-8 -16l-5 -17l5 -6l3 -22l2 -8l-9 -21l4 -10l8 -21l-2 -10v-18l1 -15l-2 -14l-8 -18l6 -13l3 -11l-8 -12l-2 -18l3 -17l4 -16l1 -17l-4 -11l-4 -12v-13l6 -29l-1 -20
l-4 -13l-7 -19l-1 -13l-3 -11l-2 -18l-7 -14l-11 -14l-11 -8l-7 -10l-4 -7z" />
    <glyph glyph-name="h" unicode="h" horiz-adv-x="558" 
d="M158 2l-15 -6l-19 -1l-17 8h-9l-13 12l-9 19l6 11l-10 15l11 10l-3 15l-6 20l-3 18l10 7l-3 19l6 20v13l-4 17v6l3 19l-9 12v22l4 12v16l1 13l-7 11l1 19l1 12l2 20l4 18l-8 6l2 21l2 9l3 18l-4 13l-1 15l11 22l-14 14v10l3 20l-2 15v13l8 16l5 15l-3 9l-5 21l-5 14
l-1 13l14 14l-13 18l6 19l10 7l22 6l13 1l12 -7l22 2l14 -9l1 -16v-14l2 -22l-9 -12l5 -10l-6 -15l7 -18l-6 -17l3 -17l8 -12l-2 -14l2 -15l-7 -9v-17l5 -20l-5 -11l2 -19l-1 -7l2 -15l-7 -19h18l7 5l7 17l13 8h17l7 16l20 -1l6 4l15 7l15 1l14 2l33 1l5 5l22 -9l4 -5l15 -1
l26 -4l7 -12l12 -5l3 -14l18 -8l12 -15l4 -6l1 -12l11 -21l-5 -10l16 -16l-3 -18l-2 -10l10 -17l-4 -28v-16l-1 -11l6 -13l-1 -22l-10 -14l8 -13l-6 -12l4 -18l1 -12l-6 -21l2 -9l-1 -14l2 -18l-2 -9l8 -14l-5 -23l-12 -13l-20 6l-20 -6l-14 1l-3 4l-19 10l-2 21l-6 9l6 21
l3 12l-7 11l4 17l2 13l-2 16l6 19l-3 8l3 19l-4 17l-4 15l1 10l4 21l-11 21l2 22l6 13l-11 10l-10 18l-6 10l-7 10l-14 15l-8 7h-14l-12 6l-33 3l-18 -8l-21 -1l-5 -11l-16 -3l-14 -16l-18 -3l-1 -18l-6 -6l-11 -37l-7 -12l3 -10l-5 -18l12 -15l-3 -18l-6 -7l3 -18l3 -16
l-5 -17l7 -14l1 -15l-3 -12l-9 -18l4 -12l5 -17l-1 -6l-10 -24l2 -11z" />
    <glyph glyph-name="i" unicode="i" horiz-adv-x="247" 
d="M98 450l9 2l16 -6l11 7l24 -6l16 -14l-10 -19l7 -8l-8 -16l11 -12l-3 -15l-1 -15l-5 -17l3 -14l8 -15l-10 -23l7 -12l-4 -18l-2 -6l8 -14l-11 -17l4 -17l5 -16l-8 -16l5 -13l-2 -14l-1 -20l9 -8l-6 -15l-2 -14l3 -15l-5 -22l10 -11v-14l-25 -19h-6l-18 3l-21 -5l-20 3
l-3 11l-6 21l-1 12l2 12l3 19l-10 13v22l8 13l-8 12l2 15v16l8 19v14l-4 12l6 13l-3 19l5 16l-1 10l-10 12l9 14l-8 21l10 17l-4 16l-8 13l2 8l9 15l-11 19v14l10 19zM179 574l-3 -14l-7 -9l-12 -7l-25 -4l-28 -1l-14 1l-9 15l-16 10v9l2 31l-2 19l10 10l25 16l11 2l30 3
l9 -14l20 -6l3 -14v-14z" />
    <glyph glyph-name="j" unicode="j" horiz-adv-x="251" 
d="M103 448l12 -2h6l18 7l17 -7l14 -15l1 -11l4 -12l-9 -17l5 -12l1 -23l5 -7l-1 -23l-6 -15l-3 -13l12 -11l-2 -17l2 -14l-8 -18l-4 -16l11 -12l-11 -12v-20l3 -11l-1 -16l10 -13l-11 -11l3 -18l9 -15v-14l-9 -12l1 -24l-3 -13l7 -12l3 -18l-11 -9l1 -14l-4 -34l3 -13
l1 -18l-5 -10l3 -17l-16 -12l-6 -16l-8 -16l-3 -10l-15 -9l-10 -5l-31 -17l-14 -2l-16 -7l-18 -2l-33 2l-12 -1l-6 1l-23 9l-7 8l-23 5l-3 6l-19 5v23l9 15l10 9l14 19l14 -3h19l4 -14h67l9 14l7 14l16 3l8 21l-3 11l-2 16l-1 30l8 15l1 15l-5 12l-4 20l6 17l-7 15l9 12l3 9
l-6 20l1 16l-6 10l8 14v22l-6 13l-2 14l3 21l6 11l-6 16l-4 13l11 12l-8 17l11 15l-7 16l5 17l1 14l1 10v22l-1 17l-2 7l-5 23zM181 575l-1 -8l-15 -17l-16 -4l-14 -6l-27 -9l-10 12l-19 9l3 14l-10 15l-10 31l11 13l8 13l19 5l9 12l32 1l12 -11l16 -5l16 -15l-3 -15z" />
    <glyph glyph-name="k" unicode="k" horiz-adv-x="520" 
d="M158 -4l-27 2l-8 5l-20 -4l-10 -1l-17 14l4 22l-6 10l-2 20l10 12l-3 12l1 20l-5 14l10 17l-5 7l-5 21l7 15l-6 13l7 18l-6 15l7 13l-3 15v12l3 17l-5 13l4 20l2 8l-11 14l-3 20l10 16l-1 9l-3 19l7 13l-8 18v42l5 13l-1 17l4 18l-4 15l-6 12l-3 14l10 18l-10 19l6 13
l5 11l-1 19l3 15l-6 18l1 11l9 10l27 6l10 -3l17 6l11 -5l21 -14l-6 -19l3 -16l2 -6l2 -18l-7 -21l-1 -8l4 -15l5 -15l-1 -14l-7 -17l6 -14l-10 -18l12 -10l-3 -15l-2 -19l-9 -19l8 -9l-4 -13l10 -22l-1 -16l-5 -6l-4 -19l3 -19l-3 -8l9 -17l-4 -19l-8 -12l14 -2l16 8l16 6
l4 10l11 14l16 11l2 10l10 12l16 2l4 14l15 7l21 15l6 11l14 10l6 1l17 16l-1 7l38 15l17 -8l8 4l20 3h17l6 1l12 -12l-21 -12l-15 -13v-11l-14 -6l-10 -13l-9 -11l-9 -9l-14 -4l-10 -15l-20 -12l-4 -8l-9 -5l-13 -16l-27 -18l-10 -8l5 -26l2 -13l7 -4l16 -12l4 -13l15 -14
l6 -10l14 -12l9 -5l2 -19l18 -7l9 -10l13 -8l1 -11l17 -12l11 -13l9 -9l-2 -16l8 -7l17 -13l13 -13l10 -15l9 -6l-10 -10l-22 -4l-15 -1l-14 -2l-8 4l-12 2l-27 14l-13 9l-9 9l-15 13l-4 16l-13 2l-8 18l-17 14l-7 8l-6 13l-16 10l-10 14l1 11l-16 10l-11 12l-6 10l-7 11
l-18 14l-21 -4l-14 -5l-5 -29l-7 -16v-8l1 -17l-3 -16l2 -17l9 -10l-5 -16l5 -17l1 -9l-4 -12l4 -17z" />
    <glyph glyph-name="l" unicode="l" horiz-adv-x="247" 
d="M88 707l24 2l14 -8l10 3l17 2l14 -16l6 -13l2 -21l-11 -11l-2 -13l13 -15l-13 -15l6 -16l-4 -13l-2 -15l10 -22l-7 -12l6 -14l2 -11l2 -15l-9 -21l9 -16v-8l-10 -15l-1 -16l3 -21l4 -10l-2 -20l4 -15l-3 -16l4 -12l-3 -11l-5 -21l5 -12l-1 -12l-3 -19l9 -11l-9 -16l7 -19
l-4 -17l-2 -13l-1 -16l4 -17v-7l3 -21l-3 -14l-2 -15l-4 -16l1 -11l7 -16l-1 -20l-14 -8l-17 -4l-25 1l-2 -2l-20 -2l-17 19l-1 15l-4 13l4 17l9 19l-9 9l-4 19l7 15l-3 13l-4 14l9 21l3 14l-9 13l3 9l-5 22l6 9l5 17l-8 16l8 17l-7 12l-2 13l-1 16l3 13l7 22l-2 16l-5 15
v13l-2 10l1 14l8 23l-10 16l3 13l4 8l-2 16l4 14l-4 18l3 16l1 14l2 17l-12 18l12 15l-12 10l6 18l-8 13l10 17l-3 15z" />
    <glyph glyph-name="m" unicode="m" horiz-adv-x="859" 
d="M151 2l-19 -3l-15 -2l-4 3l-15 2l-23 16l5 16l-9 6l5 21l5 12l-3 12l1 21l-4 10l9 22l-6 11l4 13l-8 14l2 18l-3 12l11 23l-12 11l3 18l8 12l-3 14l-5 10l3 24l-2 10l8 14l-4 19l4 12v17l-7 18l1 6l1 18l8 21l27 -2l14 -4l10 -1l14 -11l15 -19l1 -13l-3 -13l13 -3l8 18
l12 7l20 14l9 7l9 2l11 15l16 2h12l19 6l32 -1h35l13 -4l12 -11l13 -9l11 -2l15 -19l4 -4l20 -14l5 -15l9 5l18 6l9 11l17 6l7 9l5 8l11 11l13 7l17 7l11 6l23 5l19 -5l17 5l17 -4l17 -7l11 2l18 -12h24l8 -13l14 -10l11 -7l-1 -12l12 -16l5 -16l12 -12l3 -10l-5 -16l5 -13
l7 -20l3 -16l-2 -34l4 -15l-9 -10l9 -12l1 -18l-8 -10l5 -20l4 -9l-13 -17l9 -15l-8 -17l8 -16l-8 -8l9 -17l-4 -17l-1 -12l3 -21l-10 -11l-22 -1l-22 1l-12 5l-14 -7l-12 21l2 9l-6 16l2 16l1 11l1 19l-2 15l-3 18l5 12l-2 15l9 9l-1 18l-9 15l9 17l-8 13l7 13l-7 31l-3 19
l-3 8l6 20l-26 26l-7 11l-11 11l-17 12l-2 1l-15 4l-33 1l-17 -5l-11 -10l-16 2l-14 -15l-10 -6l-8 -7l-14 -21l3 -9l-11 -7l-7 -31l-5 -18l4 -9l-5 -15l6 -23l-3 -9l2 -16l7 -11l-2 -16l-3 -15l-5 -14l7 -20l1 -13l-2 -18l-7 -12l-1 -17l-2 -11l4 -22l-7 -13l-15 3l-24 -4
l-5 5l-19 -4l-16 20l-3 11l4 16l4 19v10l-13 12l2 14l5 24l5 10l-13 18l7 16l-6 13l4 13l6 19l-8 7l2 14l5 32l2 14l-15 16l7 15l-16 18l-8 6l-1 12l-9 13l-22 6l-6 6l-21 2l-32 -2l-7 5l-15 -7l-16 -6l-9 -15l-21 -5l-8 -11l-2 -10l-12 -21l-6 -19l-11 -21l-1 -15l9 -17
l-1 -9l-5 -15l4 -13l7 -17l-7 -11l-4 -19l3 -16l-3 -11l-2 -15l9 -12l-2 -15l-5 -14l2 -15l-3 -17l5 -13z" />
    <glyph glyph-name="n" unicode="n" horiz-adv-x="559" 
d="M154 -2l-14 -2l-19 4l-11 -5l-20 3l-10 20l4 15l-6 14l-3 8l9 18l-3 21l-1 9l-3 20l6 7l-12 21l14 14l-14 11l1 18l7 16l-1 13l-7 20l11 15l2 7l-6 16l6 16l-5 19l-8 13l5 11l5 14v22l-10 14l5 11l-1 16l2 17l12 19l26 -9l3 2l23 5l19 -12l-3 -15l-1 -20l12 -6l14 -9
l2 14l19 6l10 9l7 6l18 11l11 8l12 10l20 1l6 -2l11 8l40 -3l2 -4l18 3l23 -4l1 -8l17 -3l15 -14l14 -7l3 -9l29 -25l-4 -5l20 -14l-2 -14l-1 -18l3 -18l8 -14l-1 -6l9 -18l-7 -27l8 -15l-2 -23l4 -11l-8 -16l8 -11l-8 -13l3 -13v-17l6 -16l-2 -14l-4 -14l1 -17l-1 -14v-28
l-5 -14l-12 -15l-16 -6l-19 7h-4l-21 -4l-18 19l-2 11v13l4 16l3 13l-6 15l-1 16l4 20l-4 7l5 15l3 16l-3 23l5 14l-7 11l-1 19l6 7l-5 36l-4 13l-6 15l1 12l-9 14l-8 12l-14 15l-9 11l-11 10l-10 3l-24 -3l-28 5l-14 -1l-6 -6l-27 -9v-8l-20 -16l-6 -1l-18 -17l-2 -17
l-10 -19l-4 -15l3 -19l-8 -16l2 -8l11 -24l-11 -15l2 -5l2 -22l6 -16l2 -12l-12 -17l-1 -6l12 -23l-9 -10l3 -14l5 -13l2 -19l-8 -14z" />
    <glyph glyph-name="o" unicode="o" horiz-adv-x="558" 
d="M153 287l-9 -13l2 -18l-6 -15l-9 -32l3 -17l9 -18l1 -17l16 -6l5 -19l11 -11l2 -15l21 -3l25 -21l17 -3l4 -6l18 1h41l22 8l5 4l22 1l14 10l13 10l13 13l9 10l4 30l3 16l14 20v7l-9 39l8 10l-13 19l-9 27l-9 12l3 20l-16 6l-20 12l-15 20l-13 2l-23 7l-17 -2l-22 -1
l-26 4l-14 -10l-2 -2l-14 -7l-11 -8l-14 -10l-21 -17l-4 -5zM491 333l4 -16l7 -14l1 -18l8 -12l6 -15l-6 -19l-6 -30l-2 -15l6 -20l-1 -15l-7 -15l-3 -14l-10 -7l-5 -14l-13 -12l-2 -20l-10 -4l-8 -15l-19 -13l-2 -7l-23 -7l-17 -16l-16 -6l-15 -8l-19 1l-13 -10l-20 -3
l-9 4l-39 -5l-10 3l-15 2l-10 2l-15 1l-22 10l-16 6l-12 10l-8 5l-14 5l-8 15l-9 4l-9 15l-22 14l-7 12l-5 26l-13 18l-2 9l-11 16l4 12l-9 23l-2 7l4 39l-6 14l15 10l2 16l-8 16l11 18l6 15l7 12l5 12l16 8l1 13l11 14l17 7l10 11l7 10l31 21l10 3l21 10l14 4h19l8 2l22 -1
l30 2l13 -6h36l13 -10l11 4l13 -8l12 -10l9 -5l13 -9l20 -16l3 -11l14 -3l16 -12l5 -13z" />
    <glyph glyph-name="p" unicode="p" horiz-adv-x="584" 
d="M178 283l-4 -10l-16 -18l3 -11l8 -33l-3 -20l8 -7l-1 -18l-3 -10l10 -19l14 -6l5 -11l5 -10l11 -9l38 -18l7 -10l9 -3h13l40 6l12 -1l10 -1l14 10l19 3l12 15l5 11l21 4l-1 19l18 30l2 8l3 15l13 15l-5 36l-4 18l-5 18l6 11l-10 17l-9 14l-5 11l-17 12l-6 8l-27 17l-24 9
l-3 2l-18 -3l-33 6l-14 -9l-19 -4l-15 -2l-13 -6l-7 -12l-16 -10l-10 -8l-12 -9zM414 9l-3 1l-14 -6l-18 -5l-12 -9l-16 5l-24 -5l-30 5l-16 -6l-13 4l-16 4l-7 6l-20 6l-12 13l-13 7l-8 7l-16 17l-1 -5l-9 -17l7 -16l-9 -15l2 -11l3 -23l5 -16l2 -9l-4 -23l1 -13l-10 -10
l9 -14l-1 -15l-4 -19v-15l-3 -18l-6 -12h-16l-22 -6l-9 8l-13 -3l-26 17l1 14l11 10l-12 18l6 15v28l4 14l-2 20l-2 15l3 14l-9 18l13 7l-9 23l4 8l-8 18l11 14l-9 18l4 16l-4 9l9 18l-6 18l6 18l-4 8l3 20l1 10l-8 17l9 15l-7 20l7 7l-8 20l4 11l-7 20l6 17l-8 9v13l11 16
l-6 23l-4 15l-1 8l8 22l-6 14l22 17l17 -6l18 -2h14l19 -13l-8 -17l15 -17l8 -2l14 7l-1 10l18 13l6 6l23 4l10 13l16 -2l13 4l10 4l15 -1l26 1l24 2l8 -1l24 -9l7 4l7 -7l20 -8l14 -10l9 -7l19 -9l-2 -10l14 -6l8 -11l17 -18l7 -11l10 -25l11 -8l7 -18l-6 -12l4 -20l1 -15
v-42l8 -15l-6 -23l-5 -11l-2 -14l-10 -13l5 -15l-3 -13l-10 -17l-19 -7l-2 -18l-11 -6l-7 -19l-17 -1l-16 -15z" />
    <glyph glyph-name="q" unicode="q" horiz-adv-x="584" 
d="M227 87l14 -6l11 -5l18 -1h25l16 -6l17 10l3 5l24 5l8 7l11 9l17 12l7 13l6 30l5 13l11 16l8 17l-3 33l-13 18l10 12l-13 17l-11 12v15l-13 11l-7 14l-15 6l-24 21l-18 9h-12l-20 4l-29 -2l-10 2l-10 -11l-15 -1l-20 -12l-5 -5l-14 -7l-11 -12l-7 -14l-26 -33l4 -8
l-9 -17l-1 -13l-2 -32v-21l11 -8l-1 -15l14 -19l-8 -8l11 -17l13 -9l14 -10l5 -7zM441 449l22 -4l12 7l15 -7l22 -9l-2 -22l-6 -12l-4 -12l10 -18l-10 -18l6 -15l7 -8l-4 -23l-7 -9l5 -13l4 -17l-9 -14l3 -15l7 -21l1 -16l-5 -13l-9 -13l8 -20l4 -11l-8 -19l5 -8l-1 -22
l-8 -7l7 -23l7 -13l-8 -14l-5 -15l8 -17l-9 -13l5 -11v-16l2 -18l-4 -18l-3 -13l8 -11l-4 -15l9 -17l-7 -15l-6 -15l11 -15l-3 -21l-34 -10l-12 1h-13l-25 -5l-2 18l-2 19l-7 12l7 17l-9 15l6 26l2 23l-10 25l12 20l-11 10l5 23l-5 12l5 14l7 20l-12 -3l-15 -5l-14 -16
l-11 -9l-11 -3l-19 -14l-10 -4l-12 -3l-15 -2l-16 3l-40 -6h-7l-11 1l-18 6l-16 8l-13 7l-17 1l-12 7l-6 13l-19 4l-14 9v8l-18 12l-3 16l-14 12l-12 28l-6 11l-8 15l-5 17l5 17l-7 12l1 13l4 30l-4 18l5 17l3 10l5 16l4 13l1 22l1 13l12 13l15 5l11 12l4 17l25 25l14 3
l16 14l19 4l23 16l13 -1l11 7l21 1l34 -7l5 7l27 -2l22 -17l9 -2l20 -7l16 -8v-13l17 -4l1 -11l12 6l7 16l13 17z" />
    <glyph glyph-name="r" unicode="r" horiz-adv-x="358" 
d="M156 1l-20 -3l-18 2l-5 3l-19 -6l-17 22l1 7l5 22v12l-5 11v16l4 14l3 16l-1 15l-2 13l-10 22l-1 12l6 16l-1 13l-1 18l3 9l5 22l-4 16l-5 10l8 14v18l1 9l2 22l-9 9l-3 19v10l-1 20l2 10l1 15l24 18l4 1l20 -1l9 4l27 -2l4 -17l5 -9l4 -18l1 -11v-3l9 10l14 8l14 7
l11 13l19 5l16 2l14 1l13 10l10 -4l21 8l13 -15l-2 -17v-19l-6 -11l10 -14l-21 -18l-31 9l-14 -6l-21 -8l-11 -1l-4 -7l-15 -6l-18 -11l-11 -15l-4 -3l-4 -30l-4 -10l-4 -15l-1 -19l2 -20l-3 -5l5 -21l-5 -13l3 -13v-15l7 -20l-13 -13l4 -10l2 -22l-4 -12l7 -14l4 -14
l-10 -10l1 -23z" />
    <glyph glyph-name="s" unicode="s" horiz-adv-x="423" 
d="M53 345l1 16l6 18l11 6l7 21l8 8l9 14l21 4l3 3l22 15l15 -4l17 6l14 1l4 3l40 4l20 -6l2 -3l14 5l15 -12l22 1l8 -10l17 -6l15 -6l18 -11v-24l-7 -11l-13 -5l-4 -19l-34 2l-14 3l-2 7l-13 12l-30 7h-11l-32 1l-19 -8l-21 -3l-8 -12l-9 -14l3 -26l11 -13l20 -20l7 -10
l24 -3l1 -2l24 -9l20 -2l19 -7l22 -7l9 -6l10 -3l29 -21l15 -10l-3 -11l7 -19l14 -12l-1 -14v-9l13 -31l-12 -14l5 -15l-8 -22l-10 -12l-12 -13l-15 -4l-8 -12l-9 -9l-18 -5l-16 -6l-15 -9l-14 6l-8 -10l-20 -1l-29 6l-14 -5l-22 4l-8 6l-23 4l-16 -1l-10 12l-16 4l-6 7
l-13 8l-10 4l-14 12l-9 26l13 11l12 11l10 15l22 3l6 -16l18 -8l11 1l8 -7l17 -10l14 -1l20 -5h12l29 -5l3 3l18 1l9 13l17 6l18 8l3 20l-10 19l5 15l-25 23l-21 -1l-9 11l-23 4l-21 7l-20 3l-8 11l-14 6l-17 9l-10 6l-11 3l-16 11l-10 10l-16 9l-3 14l-7 13l-2 17l-6 17z
" />
    <glyph glyph-name="t" unicode="t" horiz-adv-x="416" 
d="M104 369l-27 -4l-6 2l-16 6l-15 -8l-17 17l3 22l-4 12l-1 17l16 10l20 1l5 3l26 -2l5 4l30 3l-7 14l9 8l5 13l-1 23l2 10l-9 9l10 18l-8 16l18 11l19 4l22 -2l16 -1l7 -13l-5 -13l13 -13l-2 -16l2 -17l-1 -7l-13 -18l4 -14l24 -17l3 6l22 -1h14l13 -5h26l2 5l17 -4l18 4
l15 -23l6 -15l-8 -11l12 -19l-24 -12h-14l-11 -7l-12 9l-29 -2l-11 -3l-13 -2h-22l-7 7l-17 -20l-5 -15l11 -16l-8 -18l2 -16v-7l-4 -15l-3 -22l12 -14l-7 -12l-4 -18l-1 -11l2 -25l9 -23v-22l2 -11l2 -8l23 -12l2 -13l15 -2l30 1l21 1l16 9l5 5l30 2l3 -9l6 -17l10 -8
l4 -28l-26 -13l-10 -3l-15 -10l-2 -7l-23 -2h-6l-14 -7l-38 4l-15 4l-6 2l-17 -2l-20 13l-5 2l-13 5l-15 15l-15 11l2 12l-11 12l-4 16l-5 17l-6 6l1 14l5 22l-3 31v10l-6 35l-4 12v14l7 14l6 19v21l-8 13l8 14v15l-7 16z" />
    <glyph glyph-name="u" unicode="u" horiz-adv-x="551" 
d="M456 -1h-17l-6 -4l-27 4l-16 -2l-5 23l-10 9l8 19l-16 4l-13 -9l-12 -15l1 -6l-17 -13h-22l-3 -11l-23 2l-9 -12l-21 3l-26 -5l-19 6l-7 5l-13 -2l-17 10l-13 7l-13 4l-18 14l-8 3l-3 20l-11 9l-5 11l-11 33l-13 15l5 13l-10 13l9 13l-1 28l-1 16l-6 14v16l-3 19l4 13
l-2 21l9 13l-5 31l-1 8l2 24l3 12l-1 11l-1 20l-7 14l-1 12l20 16l11 -2l16 2l21 -2l12 3l12 -16l12 -12v-19l-4 -13v-21l-1 -16l2 -6l-8 -15l1 -24l-2 -8l3 -16l-4 -18l3 -15l10 -19l-1 -16v-13l-12 -24l13 -15l4 -13v-18l11 -17l-2 -13l12 -8l19 -6l4 -5l12 -6h14l31 -8
l22 12l1 1l19 6l21 3l5 16l23 16l1 17l21 30l-8 15l-2 11l9 12l-6 16l-3 14l-2 14l7 21l-4 10l1 12l-3 23v14l10 17l-1 7l4 23l-14 11l2 9l10 16l-12 23l19 13l17 -1l23 -5l5 6h26l9 -22l-1 -10l7 -14l-11 -16l-2 -18l3 -9l-1 -14l-2 -22l14 -9l-6 -18l6 -18l-3 -12l-3 -17
l-2 -13l-6 -12l4 -20v-14l5 -14l-6 -18l1 -14v-17l-2 -6l8 -15l3 -24l-5 -8l-4 -20l3 -16l3 -11l3 -14z" />
    <glyph glyph-name="v" unicode="v" horiz-adv-x="487" 
d="M400 447l10 5l16 -5l14 6l10 -2l8 -14l-6 -20l-2 -12l-9 -10l5 -21l-9 -5l-4 -23l-10 -7l-1 -19l-14 -7l6 -14l-9 -21l-11 -10l-8 -16l-7 -9l-1 -22l-11 -11l2 -18l-1 -11l-11 -13v-18l-11 -11l-12 -16l2 -15l-11 -11l-2 -15v-10l-11 -13v-18l-15 -14l4 -9l-28 -21
l-32 -2l-18 2l-11 1l-17 19l-3 13l-19 12l-3 9l-8 20l3 9l-9 15l-6 14l-6 21l-1 14l-15 8l8 18l-6 10l-18 13l-7 14l-5 15l-1 17l1 17l-8 14l-15 15v6l-6 20l3 16l-18 14l-4 12l3 9l-16 14l6 12l-18 20l-2 15l1 12l5 11l10 7l29 -6l4 -1l27 6l14 -13l7 -21l3 -14l14 -12v-15
l-2 -11l8 -18l6 -13l5 -10l9 -11l2 -20l3 -9l9 -15l11 -18l8 -12l4 -12l2 -18l3 -6l6 -21l11 -13l4 -15l6 -9l5 -20l6 -8l10 -5l-2 17l12 11l1 14l3 13l9 21l5 15l8 13l10 10l-6 17l12 11l6 12l8 15l-5 19l10 10v14l8 13l14 9l-6 23l13 6l7 21l3 11l4 9l12 13z" />
    <glyph glyph-name="w" unicode="w" horiz-adv-x="761" 
d="M544 -2l-18 2l-15 1l-5 -5l-22 1l-19 19l-3 9l-11 13l1 20l-7 12l5 16l-7 9l-5 18l-1 10l-10 17v12l-1 18l-11 14l1 16l-3 12l-3 15l-15 14l-4 14l8 10l-7 19l-11 11l-1 3l-12 -12l7 -14l-3 -14l-6 -17l-15 -13l7 -15l-14 -16l3 -13l-5 -13l-8 -15l6 -11l-13 -14l2 -17
l-9 -15l-7 -15l1 -14l-3 -17l-1 -15l-3 -14l-4 -14l-29 -8h-15l-14 -3l-13 -2h-16l-27 20l3 13l-18 11l3 13l-1 18l-19 5l6 20l-10 15l-7 6l-2 19l-11 13l-5 15l-8 8l-8 19l-3 13l-4 9l-11 15l8 11l-20 23l6 13l-4 11l-11 14v13l-16 8l5 14l-18 20l4 15l-15 12l-5 9l-9 11
l2 23l-10 13l6 11l30 -1l9 -2l11 2h22l21 -13l2 -12l11 -18v-13l15 -18l-5 -11l14 -9l8 -20l-3 -12l15 -11l-4 -19l15 -12l-8 -8l6 -15l11 -22l12 -7l-1 -18l5 -16l8 -14l14 -11l2 -9l-2 -22l8 -13l11 -10l3 -11l14 -6l-4 14l12 14l-6 17l12 14l-1 12l3 20l3 13l10 18l3 11
l-4 12l17 33l-2 10l4 15l7 18l10 9l4 19l-2 13l-1 11l12 16l2 19l-1 9l10 22l19 8h12l21 5l9 -13l7 -21l5 -13l-3 -17l5 -8l14 -14l-2 -14l9 -14l-6 -15l10 -12l9 -18v-13l10 -14l-7 -19l5 -10l9 -11l-2 -21l7 -9l12 -17l-1 -13l7 -13l-1 -16l7 -12l-1 -19l11 5l4 8l7 16
l11 17l7 10l-2 14l11 19l5 6l8 18l5 10l11 13l-6 17l13 16l11 8l-3 20l3 9l5 11l17 21l6 7l7 19l-2 14l12 8l6 12l6 20l5 13l17 14l8 -4l18 7h11l27 -7l5 -13l-11 -15l5 -13l-7 -14l-11 -15l-10 -10l5 -12l-14 -11l-10 -18l6 -11l-6 -11l-7 -15l-14 -14l-6 -15l2 -19
l-15 -10l-1 -11l-6 -13l2 -12l-11 -16l-12 -16l3 -9l-14 -16l-1 -20l-6 -10l-2 -9l-10 -12l-4 -18l-3 -17l-11 -10l-6 -14l-1 -13z" />
    <glyph glyph-name="x" unicode="x" horiz-adv-x="480" 
d="M439 0l-2 4l-28 -4l-15 -1l-9 1l-22 -3l-12 10l-16 15v14l-22 13l-8 6l1 19l-16 5l2 13l-14 9l-11 12l-7 17l-4 8l-7 11l-23 1l-1 -11l-14 -6l-15 -20l-5 -9l-10 -8l1 -11l-22 -11l3 -13l-17 -17l1 -6l-16 -16l-8 -14l-27 -12l-14 3l-9 1l-6 -4l-14 2l-26 1l7 24l8 13
l5 8l20 12l-1 15l17 18l-2 4l21 14l9 10l-2 18l22 12l1 9l6 17l11 13l16 7l8 12l9 14l-9 27l1 6l-15 11l-3 16l-10 15l-11 10l-5 8l-16 18l-3 10l-9 9l-5 18l-10 13l-11 7l-20 12l3 11l-6 14l-10 13l-3 14l25 -4l5 4l14 -7h18l17 7l24 -15l14 -10l6 -13l9 -12l3 -15l18 -9
v-11l9 -12l15 -14l15 -16l-3 -8l28 -7l12 17l5 9l-1 19l11 5l15 20l10 7l12 11l9 18l7 12l6 9l17 17l16 -6l21 4l6 -7l24 1l10 1l2 -11l-9 -6l-9 -21l-10 -4l-6 -14l-12 -9l-5 -12l-15 -20l-2 -12l-12 -6l-1 -15l-6 -13l-17 -11l-9 -8l-4 -18l-17 -10l-5 -7l-6 -26l15 -18
l16 -5l2 -16l15 -8l1 -16l5 -12l15 -10l11 -20l10 -11l12 -8l-3 -9l17 -21l5 -13l6 -4l8 -16l15 -16l8 -9z" />
    <glyph glyph-name="y" unicode="y" horiz-adv-x="552" 
d="M368 -190l-15 -6l-17 -4l-6 -4l-18 1l-24 -6l-4 -2l-33 1l-15 3l-16 1l-19 2l-14 4l-14 -5l-8 4l-15 5l-14 11l-25 4l-2 10l-21 1l-12 12l-5 19l16 14l9 19l8 11l20 2l9 -4l13 -10l15 -13l15 -2l15 -5l12 -1l23 1h13l38 -1l14 -5l9 11l20 -4l9 8l11 6l10 1l15 12l3 11
l6 14l3 12l12 22l-9 8l3 18l-2 28l13 15l-3 18l-12 14l-4 -8l-2 -3l-17 -19l-15 -5l-7 -15l-8 1l-15 -10l-14 -9l-16 5l-13 -7l-13 -4l-35 5l-24 -5l-13 5l-5 3l-15 4l-22 7l-10 10l-8 14l-5 8l-19 6l-7 22l-3 6l-11 17l-5 17l4 7l-12 18l6 18l-4 9v37l-2 16l-5 10l7 20
l-5 7v22l4 8l4 18l1 19l-9 9l3 22l6 14l-7 13l8 12l-2 18l-7 18l8 16l10 9l13 4l20 -2l18 2l13 -2l19 -18l-12 -11l6 -17l-8 -14l6 -20l-5 -13l2 -12l10 -13v-18l-12 -12l6 -18l2 -19l5 -14l-7 -14l1 -13l5 -18l-2 -29l-2 -15l4 -18l10 -10l-5 -11l11 -14l16 -9l9 -7l9 -9
l14 -5l10 -3l28 1l15 2l25 5l13 7l1 3l20 16l3 9l24 5l6 18l-2 22l5 22l9 14l-10 17l-2 6l1 18l1 12l8 18l-1 15l-3 16l-7 12v17l11 14l-9 19l-1 9l4 16l-4 15l11 13l-4 23l20 14l14 -2l15 3h27l16 -17l-9 -13l6 -23l1 -14l-2 -8l-1 -19l5 -18l-9 -17l14 -7l-2 -20l-7 -15
l7 -13l-1 -12l-3 -23l-8 -14l2 -8l10 -18l2 -15l-3 -19l2 -12l-7 -14l6 -12l-6 -18l-6 -16l6 -16l4 -14l-1 -19l-6 -16l7 -13l-1 -10l-8 -19l10 -10l-1 -18l-6 -30l-3 -13l-2 -9l-10 -18l-13 -13l-5 -14l-5 -7l-19 -10l-11 -10z" />
    <glyph glyph-name="z" unicode="z" horiz-adv-x="448" 
d="M165 79l20 -5l11 8l21 -3l10 3l13 -3l16 -3l12 1l12 -1l43 -2l9 8l21 -8l8 9l23 -9l6 7l13 -14l10 -18l4 -14l-7 -23l-18 -13l-10 -4l-21 7l-5 -1l-21 -3l-13 1l-16 -2l-20 2l-18 3h-5l-18 1l-10 -3l-20 -5l-11 7l-18 -7h-13l-17 5l-19 3l-11 -3l-9 -1l-28 1l-7 3l-21 -7
l-12 3l-7 13l-11 25l6 13l11 31l1 3l18 15l13 11l3 18l15 10l2 7l10 19l7 10l22 6l-2 12l17 18l9 4l11 25l21 11l6 19l1 8l22 15l-1 11l8 6l11 18l9 7l21 12v12l-9 9l-10 5l-16 -4l-10 3l-11 -3l-26 -1l-6 -2l-20 8h-14l-14 -7l-10 6l-15 -2l-13 3l-21 -1l-15 -7l-20 22
l4 10l8 18l-13 14l26 20l3 -2l26 -1l4 -1l14 8l15 -7l21 -2l10 7l17 2l12 -2l24 -5l6 4l13 1l25 -7l8 9l22 -1l16 -2l9 2h17l11 -3l17 4l15 -5l8 2l20 -18l3 -13l-6 -13l-14 -37l-10 -12l-4 -6l-10 -14l-15 -11l1 -14l-9 -11l-13 -6l-11 -19l-14 -12l-11 -8l4 -9l-14 -11
l-17 -20l-3 -3l-18 -15v-15l-10 -6l-6 -15l-16 -16l-12 -4l-13 -19l-9 -9v-8l-17 -17z" />
    <glyph glyph-name="braceleft" unicode="{" horiz-adv-x="468" 
d="M429 -142l13 -19l1 -13l-11 -14l8 -15l-21 -16l-8 8l-16 -8l-33 1l-18 6l-13 -1l-18 4l-8 8l-12 -1l-18 13l-9 2l-16 16l-15 6l1 14l-11 8l-7 19l-9 11l-3 14l-10 18l-1 17l-5 16l2 8l3 21l-6 8l7 41l-1 33l-6 10l-6 14l-2 19l5 15l-11 11l7 18l-9 11l-7 5l-12 18l-6 2
l-15 10l-22 6l-10 8l-15 -1l-23 2l-14 4l-21 18l12 14l-2 15l-1 11l2 10v16l16 8l32 -6l17 5l19 3l11 16l13 7l1 11l14 3l9 16l7 18l3 15l1 8l8 19l-2 20l9 12l-11 36l-1 29l2 16l2 18l8 11l-5 17l4 21l9 14l12 15l2 16l4 11l9 14l13 4l13 20l5 1l14 15l8 2l18 4l12 4l16 8
l19 5l20 2l27 -6h14l8 5l24 -14l-6 -15l2 -16l1 -15l1 -17l-21 -12l-24 2l-26 -1l-16 -3l-8 -9l-20 -5l-13 -10l-3 -15l-11 -14l-3 -12l-8 -15l-2 -16l3 -15l-8 -9l1 -32l8 -17v-44l-5 -16l-12 -17l5 -13l-12 -15l6 -10l-9 -12l-8 -14l-10 -14l-14 -12l3 -10l-21 -11l-5 -7
l-12 -15l-19 -1l9 -15l1 -3l12 -14l11 -7l24 -6l-3 -14l13 -5l14 -19l9 -11l4 -18l4 -14l2 -15l10 -11l-9 -18l2 -12l6 -15l-4 -25l11 -16l-9 -34l9 -8l1 -18l-4 -17l10 -11l2 -21l2 -7l10 -16l19 -9l8 -4l10 -7l19 -4l30 -2l20 2z" />
    <glyph glyph-name="bar" unicode="|" horiz-adv-x="294" 
d="M114 685l19 2l16 2l15 -7l21 6l7 -19l-5 -25l2 -18l10 -18l-2 -11l-4 -16l5 -17l-1 -15l3 -10l-4 -18l-3 -17l4 -10l-9 -24l10 -15l3 -12l-11 -14l9 -12l-10 -22l6 -10l2 -20l-7 -6l11 -19l-3 -18l-8 -15l5 -9l-1 -15l1 -18l4 -15l-3 -18l-9 -12l2 -19l1 -15l2 -16l-1 -9
l-2 -12l8 -16l-2 -22l-4 -14l7 -14l-7 -10l10 -20l-13 -18l8 -14l-4 -7l-2 -17l3 -14l3 -18l-9 -18l9 -16l-5 -7l1 -20l-5 -16l13 -10l-1 -19l-1 -11l-2 -15l-5 -20l-7 -11l-18 -1l-17 -6l-11 1l-26 8l-6 12l-11 10v16l12 14l-12 18l9 12l1 14l2 18l-12 18l11 16l1 16
l-14 13l6 18l4 11l-1 10v16l-2 14l-4 21l-2 16l7 14v11l6 14l-10 18l-1 17l5 13l3 17l-8 11l-1 17l7 11l-8 17l2 16l4 15l5 12v19l-4 15l-2 16l3 12l-8 20l12 13l-2 14l-10 20l7 7l-5 17l-1 20l1 11l3 16v13l-1 13l4 15l3 14l-12 19l10 18l-1 10v18l4 12l-7 17l5 17l2 16z
" />
    <glyph glyph-name="braceright" unicode="}" horiz-adv-x="468" 
d="M268 -10l1 -7l-2 -17l9 -13l-15 -16l5 -18l-8 -15l-7 -16l2 -11l-8 -13l-18 -32l-10 -3l-8 -14l-15 -6l-21 -7l-5 -3l-22 -5l-18 -3l-12 -1l-14 -5h-35l-1 5l-20 -4l-16 12l-5 18l-1 13l2 12l9 12l8 15l22 6l28 -3l19 2l13 6l18 5l11 13l6 10v14l16 18l-1 16l2 11l1 13
l7 19l-9 28l-1 15l9 29l2 16l-7 13l14 15l-1 10l1 19l2 15l5 17l19 13l-3 9l20 11l-1 14l10 2l18 9l9 10l21 7l-8 19l-17 -2l-5 12l-11 11l-8 6l-19 12l-9 9v15l-17 11l-1 14l-10 17l7 10l-7 18l1 17l-1 15l-11 13l-3 39l9 29l-7 24l4 14l-12 14l-1 14l-8 13l-6 11l2 21
l-11 5l-22 11l-8 -2l-18 7l-36 -2l-18 4l-4 15v10l-2 20l-12 8l12 21l6 7l21 4l15 -5l24 3l15 3l16 -11l11 3l19 -9l17 -2l7 -10l9 -3l25 -10l8 -11l7 -14l7 -8v-20l18 -14l-7 -11l11 -18l1 -14l5 -13l3 -20l-6 -13l13 -14l-10 -37l5 -34l-7 -8l2 -21l2 -11l5 -21l9 -8
l5 -20l16 -16l-2 -12l20 -4l13 -12l5 -4l14 -8l21 -6l31 -2l5 1l18 -14l8 -17v-21l-9 -21l-13 -11l-8 -4l-31 -2l-17 -4l-18 -4l-10 -7l-5 -5l-12 -9l-15 -10l-6 -11l-8 -9l-9 -17l9 -16l-7 -13l-2 -13l1 -14l-13 -19l13 -27z" />
    <glyph glyph-name="asciitilde" unicode="~" 
d="M270 389l22 -3l33 -3l29 -2l14 4l2 4l25 15l-6 14l24 6l23 -8l9 -4l15 -6l2 -25l-2 -8l-19 -16l2 -8l-16 -11l-15 -19l-9 -4l-9 -3l-28 -12l-7 6l-26 -5h-15l-15 7l-26 7l-11 -2l-15 11l-23 3l-27 12l-23 6l-23 3l-25 -8l-6 -9l-8 -6l-10 -21l-27 -1l-11 7l-7 4l-25 9v18
l13 9l3 20l2 12l24 10v13l19 8l24 4l16 4l36 -4h20l11 5l18 -4l4 -7l24 -9z" />
    <glyph glyph-name="uni00A0" unicode="&#xa0;" horiz-adv-x="220" 
 />
    <glyph glyph-name="exclamdown" unicode="&#xa1;" horiz-adv-x="313" 
d="M197 251l3 -13v-14l2 -19l-9 -12l-1 -20l13 -13l-11 -13v-14l9 -18v-16l-11 -12l9 -21l-7 -8l5 -13l-1 -20l-4 -11l10 -13l2 -17l-1 -22l-2 -9l2 -21l-9 -8l7 -15l-4 -15l-1 -17l11 -16l-11 -16l8 -16l-7 -12l6 -12l4 -22l-28 -13h-7l-20 3l-13 -5h-13l-26 17v14l4 21
l-5 9l1 20l13 16l-13 7l6 16l3 20l1 17l-7 14l5 17l-7 8l3 22l10 6l-7 17v15l6 14l-8 20l2 17l-1 9v12l6 24l-8 9l4 19l10 11l-8 16l1 12l4 14l-5 15v19l4 12l12 21l18 -2l12 -3l24 -1zM100 419l1 15l7 18l17 3l14 6l34 6l7 -5l15 -10l10 -20l13 -7l1 -35l-3 -18l-11 -13
l-23 -9l-9 -7l-27 1l-22 8l-6 14l-16 8l-1 16z" />
    <glyph glyph-name="cent" unicode="&#xa2;" horiz-adv-x="480" 
d="M212 359l-7 -4l-14 -3l-5 -16l-19 -13l-4 -8l-9 -21l-12 -13l7 -10l-7 -21l-1 -11l-10 -27l2 -19l11 -14l-2 -18l4 -11l20 -19l6 -5l8 -13l13 -8l10 -11l14 -14l10 15l10 17l-3 12l-7 20l6 16l3 6l-4 16l-1 16l9 23l-14 11l4 13l7 21l-7 10l2 20l3 17l4 8l-10 18v16z
M440 53l-1 -6l-13 -17l-19 -2l-9 -10l-18 -3l-14 -10l-13 -4l-5 -2l-21 -8l-7 -20l-1 -12l-9 -13l2 -21v-13l-16 -18l-13 -2l-8 1l-7 6l-16 1l-15 16l1 8l2 19l-11 16l8 22l-26 12l-10 3l-4 10l-25 9l-6 1l-12 10l-13 5l-20 14l3 2l-22 14l-17 23l-11 10l6 13l-15 14l-5 15
l-9 18l-1 8l3 12l-9 19l8 16l-11 29v16l13 16l-2 8l6 17l-1 21l10 11l11 7l1 20l25 31l20 7l5 16l4 9l32 10l6 6l19 9l7 6l26 6l12 17l-5 16l-1 17l-3 5l1 16l13 14l5 16l22 2l13 2l5 -2l18 3l10 -19l10 -16v-7l-10 -16l9 -19l2 -17l7 -15l21 -6l2 -1h20l6 -5l25 -11l8 -11
l4 -9l12 -1l3 -29l-6 -5l-2 -14l-22 -11v-4l-23 2l-12 6l-20 14l-12 6l-15 -13l3 -18v-12l-2 -18l-3 -17l-2 -6l-4 -18l-2 -19l12 -10l1 -21v-13l-3 -14l-6 -11l-2 -18v-15l-1 -17l1 -10l-2 -20l11 -13l13 -13l16 8l3 7l21 12l19 7l7 2l16 -5l15 -17l11 -2l-3 -14z" />
    <glyph glyph-name="sterling" unicode="&#xa3;" horiz-adv-x="563" 
d="M517 71l1 -14l11 -16l-8 -12l2 -16l-15 -18l-14 3l-9 -3l-16 9l-24 -7l-6 3l-20 2l-12 2l-19 -9l-21 4l-3 -1l-25 1l-6 -4l-16 6l-20 2l-10 -7l-23 8l-9 -2l-15 -7l-47 9l-27 -8l-22 1h-19l-7 5l-23 1l-9 -4h-21l-9 -4l-10 18l-5 21l6 13l-7 16l11 13l29 4l20 5l11 3h13
l5 14l10 13l22 8l5 13l-6 20l11 7l2 15l2 37v8l-3 20l-11 14l7 13l-16 7l-8 17l-23 5l-6 -2l-13 -2l-15 -3l-20 4l-8 -1l-22 19l9 7l-12 19l14 12l-14 18l20 10h19l13 -5l16 3h18l9 14l-8 18l-2 15l7 9l-3 22l-9 11l2 35l4 6l6 23l7 10l-1 12l-2 17l14 9l12 16l-3 9l14 20
l14 9l12 10l7 13h14l16 17l23 4l15 3l5 7h11l25 10l8 1l36 -7l16 1l6 -2l16 -7l15 2l21 -2l12 -8l15 -6l5 -11l10 -11l14 -2l17 -19l14 -6l-8 -23l-2 -11l-14 -11l-5 -12l-10 -8l-19 8l-11 3l-14 17l-17 3l-17 11l-1 4l-18 3l-13 4l-23 4l-24 -5l-17 -4h-19v-11l-16 -6
l-21 -6l-7 -20l-8 -8l-4 -10l-12 -16l-4 -18l5 -18l-2 -28l6 -15l-1 -9l3 -20l2 -15l-8 -14l36 -8l34 -3l15 4l7 -1l17 -4l22 2h19l11 -4l16 4l17 -1l9 -3l15 -11l-3 -13v-14l8 -9l-7 -22l-8 -12l-28 2l-11 -5l-19 5l-13 -1l-6 -4l-16 5l-15 -5l-20 2l-14 2l-22 5l-11 -19
l3 -13l6 -17l5 -10l-8 -19l1 -11l1 -28l-4 -22l9 -14l-4 -7l-10 -18l-1 -13l-17 -9l17 -12l6 -3l19 3l22 -4l14 -5l10 4l11 -2l25 6l4 -2h26v3h27l11 -5l11 -3h22l17 3l8 2l22 -4l14 -1z" />
    <glyph glyph-name="yen" unicode="&#xa5;" horiz-adv-x="636" 
d="M556 223l3 -21l6 -16l-5 -18l-15 -15l-19 4l-11 -9l-20 4l-12 1l-9 -4l-20 3l-11 2l-13 3l-25 -8l-15 2l-9 1l-12 -12l-10 -16l11 -18l-10 -13l3 -17l1 -13l8 -20l-7 -16v-13l-14 -17l-18 -2l-18 2l-12 7l-15 -8l-17 23l1 16l-5 10l1 11v17l3 16v21l5 10l-10 21l-18 16
l-15 -2h-11l-5 -5l-21 7l-8 -7l-15 2l-18 2l-17 3l-15 -1h-15l-12 -1l-20 11l-3 20l6 19l1 13l10 20l24 -2l15 3l11 -6l10 3l19 3l10 -1l15 1l10 -5l24 1l6 3l26 -7l15 23l2 12l-13 16l8 23l-11 14l-25 -4l-3 6h-27l-12 -5l-38 5l-23 -2l-13 -2l-16 1l-4 1l-25 18l5 16
l-1 15l-3 15l14 17l21 3l11 -6l20 3l38 -4l2 4l27 1l4 5l-3 20l-14 10l-3 16l-9 4l-7 17l-15 10l-10 17l-11 15v4l-9 18l-11 14l-13 8l-2 13l-2 9l-22 14l-6 11l-2 20l-12 11l-3 7l-10 14l-3 11v12l21 7h4l14 -6l20 7l15 -2l26 -19l2 -4l21 -14l5 -20l9 -5l9 -14l1 -14l7 -9
l5 -19l10 -10l18 -25l5 -13l23 -11l8 -16l6 -7l-3 -18l8 -11l16 -13l7 -13l6 -16l19 8l17 21l16 15l1 13l1 10l15 13l4 17l15 3l6 22l15 11l7 6l2 13l7 12l8 15l17 13l7 11l-3 12l22 11l5 21v5l22 20l21 -2l8 -3l16 -1l13 -2l24 5l-6 -8l-7 -15l-1 -11l-4 -19l-14 -9
l-15 -14l-7 -16v-5l-15 -13l2 -18l-9 -6l-9 -15l-13 -12l-10 -14v-13l-9 -15l-15 -7l-9 -14l-8 -8l-9 -20l-1 -14l-12 -9l13 -11l7 4l15 -2l12 -4l16 -3l18 8l18 -5l2 5l15 -8l14 -9v-23l7 -11l3 -15l-20 -24l-20 6l-8 2l-8 1l-16 -6l-18 -1l-14 4l-17 -6l-21 4l-6 -3h-27
l-8 6l-20 -16l9 -19l-1 -19l-5 -17l24 -18l10 3l12 -2l38 3l3 -2l20 -2l14 1l15 -1l18 8l11 -2l16 -1z" />
    <glyph glyph-name="brokenbar" unicode="&#xa6;" horiz-adv-x="294" 
d="M107 -185l-12 17l9 16l-6 6l8 22l-13 8l3 22l7 13l-4 14l8 11l-6 20l3 12l-6 18l9 11l-4 13l-2 21l6 10l-10 13l-2 19l-2 16l14 18l-4 11l-7 13l26 20l13 -5l15 3l5 -6l23 9l14 -22l2 -8l-4 -21l5 -16v-8l-5 -15l1 -22l9 -16l-12 -8l5 -14l4 -14l-5 -15l3 -22l-5 -10
l4 -19l-2 -9l4 -20l3 -11l2 -36l-2 -11l-9 -12l6 -16l-22 -14l-9 -5l-12 7l-16 -5l-23 4zM116 680l10 1l21 8l22 -1l12 -3l19 -16l-2 -12l3 -13l-12 -17v-36l9 -14l-10 -12l-1 -18l3 -7v-16l6 -15l-9 -13l12 -24l-1 -7l2 -20l-2 -11l-11 -14l14 -19l-9 -11l2 -18l-3 -16
l8 -10l-20 -23l-19 2l-12 7l-23 -5l-13 -2l-11 18v14l-3 18v16l-1 12l-2 10l-2 17l14 18l-5 18l-1 13l-5 8l8 18l-10 12l12 23l-9 12l6 14l3 14l-3 11l4 17l-12 17l-1 16l2 15l9 18z" />
    <glyph glyph-name="section" unicode="&#xa7;" horiz-adv-x="465" 
d="M262 196l30 2l12 11l15 9l-1 8l12 15l9 13l4 13l-3 34l-7 8l-1 12l-15 12l-19 14l-5 10l-10 6l-17 9l-19 1l-32 4l-5 9l-38 5l-14 -16l-10 -2l-10 -17l2 -10l-18 -12l1 -17l-2 -32l2 -18l8 -8l11 -12l25 -8l9 -14l9 1l19 -5l16 -6l22 -16zM399 26l-11 -18l-7 -6l6 -20
l-18 -11l-2 -8l-10 -19l-4 -5l-12 -9l-16 -14l-33 -14l-10 2l-11 -9l-14 -5l-23 -3h-25l-17 5l-8 -2l-23 8l-12 3l-16 3l-10 11l-8 2l-16 9l-9 9l-11 18l8 19l11 10l14 11l15 6l12 -8l19 -4l3 -13l14 -5h15l9 -6l31 3h23l2 10h24l10 25l9 10l11 19l-5 24l-8 13l-3 18l-8 8
l-20 12l-4 3l-21 17l-16 -1l-10 7l-16 4l-22 11l-26 3l-8 7l-11 2l-16 6l-13 9l-24 23l-9 17l-11 11l-9 11l5 14l-16 11l6 16l5 37l-11 6l9 17l3 13l3 19l8 5l19 20l6 3l15 13l4 14l9 10l-6 18l-12 13l-14 11l4 10l-6 16l-5 16l-6 14l4 27l1 12l4 19l2 12l3 9l10 20l7 8
l15 11l12 11l7 9l33 11l25 14h15l12 3l48 -2l22 -2l1 -8l22 -4l14 1l11 -10l15 -5l7 -14l16 -6l5 -15l-2 -12l-20 -21l-8 -11l-15 4l-6 5l-12 3l-15 6l-22 12l-14 4l-9 -4l-22 4l-14 -7l-20 -4l-15 -8l-11 -8l-5 -12l-6 -16l-2 -5l2 -33l-6 -17l17 -12l9 -14l4 -6l23 -5
l13 -8l5 -7l25 -6l10 -9l27 -10l21 4l8 -12l18 -1l17 -13l3 -2l22 -13l13 -16l2 -2l12 -14l-1 -18l8 -9l-1 -20l5 -18v-27l4 -13v-15l-11 -12l-10 -19l-3 -11l-7 -13l-11 -12l-22 -4l-11 -12l-3 -17l12 -8l14 -16l4 -11l7 -12l2 -17l15 -8l-4 -22z" />
    <glyph glyph-name="dieresis" unicode="&#xa8;" 
d="M209 579l-10 -8l-8 -15l-3 -8l-16 -2l-29 4l-8 6l-13 4l-6 14l-17 9l10 27l7 17l4 10l11 4l20 8l15 -1l12 -2l21 -6l2 -18l17 -6zM396 587l-7 -20l-17 -10l-1 -8l-17 -2l-29 1l-14 8l-2 8l-23 3l6 19l-7 27l13 14l7 7l14 15l7 -1l29 3l12 -8l15 -8l13 -24z" />
    <glyph glyph-name="copyright" unicode="&#xa9;" horiz-adv-x="788" 
d="M287 323l4 -6l-5 -21v-12l11 -12l12 -15l22 -16l8 -16l16 -7l16 2l9 -10l38 2l16 2l9 8l18 4l11 12l16 10l14 -7l22 -6l12 -15l-9 -23l-12 -10l-6 -2l-25 -11l-1 -9l-17 -7l-19 -3l-22 -5l-15 1l-31 -1l-9 -4l-22 7l-14 1l-4 7l-16 4l-14 13l-13 5l-15 12l-10 12l-2 12
l-21 9l-12 32l-10 11l-1 16l-4 12l7 10l-8 17l4 32l-2 14v17l8 12l4 11l9 13l5 10l3 15l15 14l7 11v15l20 7l7 8l22 13l17 2l21 13l7 -2l15 2l7 2l45 -4l26 -1l14 -4l8 -3l18 -10l6 -7l22 -12l11 -4l-3 -23l-14 -14l-8 -12l-31 7l-29 18l-9 1l-24 5l-33 3l-10 -8l-11 -1
l-14 -10l-19 -12l1 -7l-24 -6l-2 -20l-7 -7l1 -13l-11 -16l4 -20v-32zM650 204l4 15l8 14l1 11l11 20l7 17v13l2 19l-7 8l8 32l-2 17v11l-2 24l-5 5l-10 20l6 14l-9 15l-2 10l-9 11l-12 14l-8 14l1 15l-10 6l-14 14l-3 10l-16 9l-8 17l-18 4l-15 5l-17 16l-14 12l-22 4
l-11 8l-21 6l-9 -2l-36 5h-15l-20 2l-13 -3l-29 -5l-2 -1l-17 -4l-19 2l-21 -3l-13 -13l-10 -2l-6 -11l-14 -5l-9 -8l-21 -14l-7 -11l-6 -2l-19 -14l-12 -17l-7 -4v-14l-25 -33l1 -10l-3 -10l-15 -15l3 -12l-8 -20l-1 -15l-5 -8l1 -13l7 -19l-2 -31l-9 -10l10 -21l5 -10
l-7 -12l9 -21l2 -14l4 -12l6 -7l11 -14l4 -13l14 -20l5 -4v-17l19 -5l9 -19l10 -4l6 -12l8 -13l49 -16l7 -10l19 -6l7 -5l23 -1l11 -9l22 -2h16l45 -4l7 7l14 -5l14 2l19 2l21 11h3l15 11l21 8l16 4v11l19 1l8 18l12 8l10 8l9 13l18 10l6 11l9 18zM91 172l-8 18l-18 13
l-4 12l6 18l-11 14l-5 20l3 12l-7 15l-6 18l7 15l5 27l-4 22l-3 13l6 13l5 14l-1 13l-4 11l11 18l8 13l6 17l7 9l1 12l3 19l18 9l1 11l14 13l1 12l15 12l16 6l9 15l11 7l9 13l7 3l13 9l21 16l17 9l24 4l1 10l27 1l3 9l15 -1h25l19 1l4 3l14 6l32 -2l17 -2l12 2l24 -3l18 -9
l7 -3l18 5l14 -14l12 1l18 -5l11 -10l6 -3l20 -12l16 -4l4 -16l18 -11l16 -5l3 -7l12 -15l17 -11l-4 -16l15 -13l5 -12l21 -22v-17l5 -9l9 -15l2 -10l10 -12l7 -20l-4 -10l1 -14l-1 -19l9 -15l-6 -10l-3 -28l2 -15l5 -23l-9 -8l-3 -19l8 -16l-14 -18l3 -9l-6 -17l-6 -10
l-16 -18l-3 -9l-1 -20l-14 -13l-15 -7l4 -14l-21 -12l-5 -8l-14 -13l-11 -14l-10 -1l-10 -16l-13 -10l-27 -14l-22 -6l-6 -7h-19l-5 -5l-25 -11l-14 -2l-6 1h-27l-8 -8l-9 -3l-31 5l-19 -1l-23 5l-17 1l-14 3l-12 -1l-12 8l-21 3l-6 9l-14 1l-12 6l-14 13l-22 3v16l-16 6
l-8 9l-16 10l-6 7l-10 16l-19 8l-8 17l-5 7l-6 15z" />
    <glyph glyph-name="ordfeminine" unicode="&#xaa;" horiz-adv-x="409" 
d="M56 316l14 -2l9 -6h11l17 2l25 -2l5 7l18 -2l16 -1l21 2l9 -2l18 -2l22 7l9 -1l20 -5h5l17 -3l23 4l16 4l12 -3h7l28 -19l-3 -10l-4 -11l-20 -14h-21l-13 -6l-40 4l-10 -7l-23 7l-10 -4l-18 2l-7 -5l-26 2l-14 6l-9 -5l-14 5l-24 -6l-4 5l-15 -1l-22 -3l-18 2l-11 -2
l-12 14l-6 16l4 11zM215 440l9 1l12 5l18 4l6 13l5 12l6 15l15 12l-1 18l-4 22l2 14l-2 22l-9 4l-10 14l-12 15l-8 2l-16 11l-20 -3l-23 1l-21 -3l-4 1l-14 -16l-17 -3l-2 -11l-6 -15l-2 -11l-2 -20l-8 -25l6 -17l-3 -11l14 -21l13 -8l12 -6l6 -10l10 -6l17 -5zM321 372
l-18 4l-16 15l1 13l-21 2l-9 -11l-13 -4l-3 -13l-15 -3l-17 1l-11 -5l-24 -1h-16l-17 1l-12 12l-12 1l-12 7l-13 12l-14 9l-10 13l-13 8l-17 27l4 17l-13 11l5 11l2 13l-2 29l2 17l-7 23l12 6l-1 17l13 13l7 11l16 12l2 13l15 11l21 14l37 18l48 -3l11 -6l22 2l3 -5l17 -5
l9 -9l18 -11h5l10 13l19 10l12 2l8 -2l14 -15l4 -12l5 -13l-2 -11l-2 -17l6 -16l-10 -11l5 -23l2 -9l6 -17l-6 -12l1 -17l-1 -19l-8 -13l7 -8l2 -17l2 -21l-1 -16l-4 -13l8 -9z" />
    <glyph glyph-name="guillemotleft" unicode="&#xab;" horiz-adv-x="631" 
d="M413 209l16 -6l3 -6l9 -17l13 -5l19 -14l8 -7l6 -12l15 -8l13 -15l13 -9l11 -8l3 -10l9 -15l21 -14l-6 -21l-10 -14l-14 -6l-6 -11l-23 1l-22 7l-15 25l-9 2l-8 12l-10 18l-9 2l-18 10l-10 19l-12 8l-16 6l-5 12l-11 16l-12 4l-2 11l-19 8l-3 16l-13 11l-6 8l-22 20
l17 17l7 10l12 12l6 5l18 7l2 18l11 7l14 8l17 10l14 15v9l18 12l3 8l7 8l12 19l20 7l16 23l30 14l21 3l1 -13l18 -10l5 -12l5 -19l-7 -16l-14 -3l-6 -14l-16 -10l-14 -14l-13 -7l2 -8l-21 -17l-12 -13l-8 -3l-14 -9l-3 -16l-7 -7l-12 -15zM160 215l2 -14l20 -6l11 -17
l10 -9l9 -6l7 -10l13 -8l4 -20l17 -11l25 -15l9 -15l11 -5l8 -12l4 -23l-18 -7l-8 -16l-12 -14l-30 6l-4 11l-6 6l-22 7l-7 9l-3 13l-13 10l-16 10l-5 16l-13 8l-12 15l-10 3l-8 11l-17 10l-13 16l-5 7l-7 15l-14 2l-6 11l-19 12l-7 23l10 13l14 7l4 17l10 7l21 15l-2 5
l23 10l2 9l12 13l20 12l-2 9l13 11l15 9l2 9l16 14l19 14v7l28 18l14 13l18 1l16 -9l7 -15l13 -8l-3 -27l-7 -10l-8 -8l-23 -12v-15l-11 -10l-16 -8l-7 -9l-12 -13l-4 -9l-16 -12l-17 -7l-13 -14l-10 -7l-6 -15z" />
    <glyph glyph-name="logicalnot" unicode="&#xac;" 
d="M365 300l-22 -6l-4 2l-16 -3l-19 5h-12l-15 -3h-24l-7 2l-16 4h-19l-20 -2l-12 -1l-11 -3l-18 -1l-9 -1l-17 8l-22 -8h-10l-14 1l-20 8l-17 -6l-13 13l10 22v9l1 17l13 17l9 -2l15 6h10l20 -7l11 3l24 -2l31 4l17 -1l12 3l5 -1l23 -6l13 9l12 -7l19 -2l13 8l22 1l1 -8
l28 -1l14 3l13 4l18 -3l2 3l27 -2l7 3l25 1l14 -3l14 -14l-1 -17l-4 -16l7 -14l-14 -26l3 -16l10 -13l-12 -19l3 -19l8 -13l-8 -18l10 -12l-5 -17v-10l-8 -12l-1 -17l-15 -12l-4 -5l-16 -3l-14 -1l-17 9l-9 7l-2 13l-8 16l-2 15l10 22v26l-2 13l-4 17l9 8l-8 19l-1 14z" />
    <glyph glyph-name="uni00AD" unicode="&#xad;" horiz-adv-x="0" 
 />
    <glyph glyph-name="registered" unicode="&#xae;" horiz-adv-x="788" 
d="M332 452l8 -19l-3 -11l-3 -12l8 -21l3 -17v-15l22 1l16 3l26 -4l11 4l14 13l6 13l1 7l12 31l-14 15l-12 14v3l-15 9l-32 3l-11 -7l-21 6zM325 172l-17 2l-22 -7l-2 14l-4 17l-7 20l10 8l-7 21l2 16v17l-8 12l6 12l-3 23l-3 6l13 23l-11 8l6 22v10l6 22l-2 14l-5 15l7 10
l-2 20l-11 11l5 20l10 16l22 -1l12 -6l6 9l21 -4l9 1l21 -5l21 7l19 -3l14 -2l18 -13l9 -5l15 -5l17 -14l14 -8l-7 -16l11 -11l6 -23l2 -23l-11 -13l2 -22l-23 -18l-4 -9l-11 -14l-5 -15l-5 -11l20 -22l-1 -12l8 -10l4 -13l5 -11l20 -15l-6 -11l8 -15l13 -6l-8 -14l-14 1
l-20 2l-7 -4l-23 11l-14 11l6 17l-8 15l-7 16l-10 12l-10 18l-14 6l1 12l-17 20h-12l-22 -1l-9 -14l-7 -13l7 -21l1 -10l-2 -15l-5 -17l10 -21l-9 -15zM654 208l6 8l6 20l1 16l-2 12l16 12l-11 20l16 12l-6 15l-4 38l5 6l-8 17l1 19l6 16l-5 13l-11 11l3 13l-5 15l-12 9
l-10 22l-11 10l2 7l-15 12l-6 15l-6 6l-22 19l-9 3l-3 13l-14 7l-27 10l-19 15l-4 1l-27 6l-14 5l-7 4l-12 6l-25 -4l-17 3l-24 3l-20 -2l-13 -3l-7 -6l-24 -5l-16 -6l-12 2l-11 -3l-22 -13l-9 -6l-10 -8l-8 -5l-16 -11l-16 -9l-5 -17l-16 -9l-12 -7l-8 -16l-9 -9l-6 -27
l-12 -19l-3 -14l-5 -8l-9 -16l6 -10l-12 -15v-17l-5 -16l6 -12l-7 -30l2 -19l6 -9l6 -14v-11l-2 -15l8 -23l8 -10l6 -15l1 -6l13 -13l9 -18l2 -9l15 -17l13 -4l4 -16l7 -9l20 -15l2 -8l20 -1l18 -17l24 -12l4 -5l18 -6l19 4l10 -5l12 -8l24 -2l4 3l37 2l16 -1h16l10 6l24 1
l10 1l9 12l22 -2l12 10l4 7l13 11l19 4l9 15l18 8l6 6l19 18v8l15 13l2 12zM79 179l-2 15l-12 7l8 23l-14 10l-9 13l-1 19l8 14l-8 10l-3 25l-5 10l10 28l-8 22l5 7v20l7 13l-6 14l7 16l11 12l3 16l4 11l8 16l-1 14l14 7l4 19l10 14l6 6l19 13l6 14l10 10l7 13l13 4l5 8
l15 7l10 10l39 24l14 6l14 4l18 11l10 -3l27 2l11 10l16 2l20 -1l6 -2l36 3l11 -5l22 1l11 -6l17 3l8 -7l13 1l21 -4l17 -6l8 -6l12 -12l16 -1l10 -15l10 -2l17 -13l15 -12l16 -3l8 -9l14 -19v-13l10 -4l16 -12l7 -21l8 -20l18 -26l4 -17l7 -7l-1 -18l12 -12l3 -14l-6 -19
l10 -16l-2 -8l-4 -17l3 -26l1 -17v-32l-14 -15l2 -20l-1 -10l-9 -19l-2 -14l-2 -13l-6 -11l-8 -13l-17 -10l-11 -14l5 -18l-14 -12l-20 -5l3 -19l-14 -12l-19 -6l-11 -11l-3 -8l-14 -4l-44 -30l-10 -6l-21 3l-14 -7l-14 -5l-12 -5l-23 2l-3 -2l-27 -3l-17 -5l-21 -4l-26 3
l-2 8l-14 -3l-22 4l-20 -1l-17 8l-13 9l-15 7l-3 4l-20 5l-8 10l-23 1l-1 10l-21 7l-10 16l-14 8l1 6l-19 12l-15 13v9l-18 13l3 15z" />
    <glyph glyph-name="overscore" unicode="&#xaf;" 
d="M143 626l3 -3l26 4l11 -2l20 2l16 -5l10 7l20 -4h1l18 2l19 -5l16 -1l6 1l22 -1l14 2l16 3l21 -15v-16l-9 -12l-4 -19l-3 -11h-18l-12 4l-27 -7l-9 3l-14 4h-12l-19 -5l-18 6l-9 -1l-13 -6l-16 4l-13 -3l-13 -1l-16 5l-15 -6l-16 22l2 12l-10 11l6 18z" />
    <glyph glyph-name="degree" unicode="&#xb0;" horiz-adv-x="394" 
d="M101 511l9 -19l11 -6l7 -15l9 -20l9 -4l7 -11l9 -8l26 2l26 -4l8 3l24 13l2 7l22 11l4 5l6 19l10 15l-6 7l9 38l-14 10l-2 12l-7 22l-10 10l-1 11l-21 9l-13 5h-18l-29 5l-9 -5l-13 -10l-8 -7l-12 -10l-22 -13l-7 -13v-18l-5 -9zM349 595l4 -8l5 -21l5 -14l4 -16l-4 -29
v-8l1 -14l-5 -18l-14 -11l-1 -16l-6 -12l-7 -12l-14 -11l-12 -5l-17 -8l-23 -18l-5 -10l-20 4l-7 -6h-14l-31 -3l-24 3l-10 -3l-9 7l-25 5l-12 9l-5 4l-11 9l-9 15l-12 8l-6 16l-27 19l5 15l-6 16l1 13l-11 14l3 34l-3 12l1 19l15 5v19l15 15l4 10l6 12l9 13l7 4l15 16
l22 14l16 5l12 -1l13 3l16 9l30 -7l18 -1l22 -5l8 -1l27 -11l11 -6l19 -5l6 -16l9 -9v-15z" />
    <glyph glyph-name="plusminus" unicode="&#xb1;" 
d="M465 61l-3 -12v-18l-2 -16l-7 -11l-20 -8l-18 7l-14 -8h-15l-15 9l-19 -2l-6 -2l-16 -2l-19 5h-23l-13 -8l-14 2l-8 1l-18 4h-15l-9 -6l-28 5l-13 3l-6 -9h-18l-12 5l-20 2l-23 -4l-2 -1l-22 6l-7 -3l-22 13l1 22l-4 13l3 9l12 16l14 8l24 -4l4 -3l18 -1l13 5l16 -5h16
l26 5l7 -5l22 7l4 1h41l8 -1l10 2l16 -9l20 1l21 8h11l14 -5l18 5l10 -3l15 -3l13 -3l23 6l18 2zM460 359l-6 -16l2 -12l6 -19l-17 -16l-10 1l-26 3l-6 -7l-21 7l-10 -3l-23 5l-9 -3l-24 -5l-8 1l-11 -8v-20l3 -16l-12 -13l-2 -16l9 -13l-3 -19l3 -21l-9 -13l6 -9l-9 -16
l-21 -6l-19 2l-9 3l-11 -1l-14 11l4 16l-4 17l-10 12l2 18l8 18l-1 19l5 16l-14 13l7 11l-15 15h-22l-10 -1l-16 1l-15 7l-19 -8l-5 8l-16 -7l-19 3l-11 -5l-17 22l-1 15l-4 30l12 14l24 5l13 -4l12 2l11 -5l16 7l26 1l13 -6l17 2l15 2l18 12l-7 21l5 9l-4 15l3 22l-5 14
l7 15l-6 12l1 20l6 9l13 14l14 6l11 -3h12l10 -3l20 -9l5 -18l-7 -14l3 -18l4 -17l-6 -13l7 -13l-10 -22l5 -14l3 -16l17 -15l12 4l10 -2l17 1l22 -4l15 1l13 -1l6 2l24 2l17 -2z" />
    <glyph glyph-name="uni00B2" unicode="&#xb2;" horiz-adv-x="308" 
d="M137 503l21 -4l9 -3l18 1l8 7h22l3 -5l26 -2l7 5l21 -13l1 -18l-11 -15l-9 -13h-10l-24 -1l-21 3l-15 -6l-26 4l-15 -7l-15 6l-18 -5l-6 8l-25 -5l-20 2l-15 -6l-11 18l7 24l8 27l14 10l-1 7l13 16l8 15l21 3l6 16v11l19 10l4 13l13 10l16 26l15 14l5 11l3 9l3 32l-14 19
l-6 8l-44 -6l-4 1l-15 -12l-23 -13l-21 -3l-1 9l-18 16l1 25l5 4l14 9l17 13l19 3l2 10l17 -2l16 9l34 1l16 -6l17 -7h6l12 -9l19 -12l11 -15l-1 -6l6 -14v-16l8 -33l-9 -21l1 -5l-15 -18l-7 -18l-8 -13l-15 -23l-15 -6l-3 -7l-13 -17l-12 -9l-6 -9l-14 -17l-15 -11z" />
    <glyph glyph-name="uni00B3" unicode="&#xb3;" horiz-adv-x="312" 
d="M115 604v16l-2 11l9 16l36 8l2 2l23 6l-1 14l3 27l-13 11l-11 11l-36 3l-17 1l-11 -11l-14 -10l-28 -8l-1 18l-10 7l-1 24l6 12l8 8l21 7l5 3l20 7l10 4l12 7h33l23 -4l4 -9l18 -5l15 -9l4 -9l12 -5l9 -18l2 -6l11 -23l3 -27l-13 -17l4 -9l-16 -18l-9 -4l6 -23l11 -4
l7 -15l6 -6l7 -14l2 -15l13 -34l-16 -9l8 -15l-19 -15l-6 -11l-11 -16l-5 -8h-22l-14 -10l-16 -1l-16 -7l-25 7l-10 -3l-23 7l-18 7l-9 -3l-14 7l-16 12l-11 6l-6 25l19 20l1 11h25l22 -13l14 -6l12 -4h10l30 -5l12 5l21 9l2 19v43l-21 11h-6l-9 3l-36 2z" />
    <glyph glyph-name="acute" unicode="&#xb4;" 
d="M169 531l-8 10l-9 15v17l21 10l9 7l14 12l4 5l18 14l11 10l12 12l13 7l15 4l6 8l13 15l8 13l19 -4l10 -13l9 -18l15 -7l7 -19l-4 -19l-23 -7l-8 -9l-12 -7l-17 -1l-13 -8l-7 -12l-21 -6l-3 -6l-21 -9l-11 -6l-15 -9l-19 -10z" />
    <glyph glyph-name="uni00B5" unicode="&#xb5;" horiz-adv-x="559" 
d="M141 -204l-17 6l-11 -5l-24 -1l-4 20l-11 14l1 17l1 15l6 10l-2 15l-7 20l7 16l-6 10l-2 19v10l2 23l1 14l7 9l-1 14l2 20l-1 16l-11 10l9 19l-8 14l12 20l-3 7l-3 14l-4 20l2 11l8 16l-1 20l-6 13l-1 19l9 15l-7 15l-6 13l4 18l4 11l5 19l-2 13l-5 16l3 13l3 11l-2 20
l-8 11l11 19l15 18l10 -8l21 7l23 -2l8 -12l4 -24l1 -12l-2 -13l3 -19l4 -12l-8 -17l-1 -11l7 -24l-6 -12l8 -17l2 -16l-8 -10l3 -20l-2 -15l4 -15l4 -23v-29l6 -20l2 -13l8 -5l9 -20l14 -2l16 -7l7 -7l16 3h24l19 -3l23 10l13 -1l12 13l12 11l11 4l2 14l6 15l22 29l-7 7
l7 18l-4 20l-10 12l1 16l2 8l9 15l-8 21l2 9l6 18l2 20l-2 13l-4 16l6 15l-8 13l6 11v20l-11 10l22 18l7 -2h29l11 5l8 -1l27 -15l-5 -16l-2 -17l5 -11l-11 -22l5 -14l-6 -12l11 -18l1 -9v-24l2 -8l-9 -18l2 -11l7 -15l-5 -15l-8 -21l9 -12v-14l3 -18l-12 -8l2 -24l7 -14
l-6 -10l5 -18l5 -10l-8 -17l1 -15v-16l5 -11l-14 -17l-24 -4l-18 3l-14 1l-9 10l-3 19l-10 15l-10 3l-21 -7l-5 -11l-18 -6v-8l-26 -11l-4 -3l-18 -12l-17 -2l-21 2l-30 -3l-14 2l-9 8l-22 -2l-17 -1l1 -20l11 -8l-10 -23l9 -6l-7 -22l7 -15l-4 -11l5 -17l-11 -11l13 -20
l-5 -9l5 -16z" />
    <glyph glyph-name="paragraph" unicode="&#xb6;" horiz-adv-x="757" 
d="M737 674v-15l8 -14l-10 -20l8 -7l-26 -14l-16 -2h-15l-14 3l-10 -6l-24 6l-9 -6h-18l-7 -13l-7 -11l8 -23l-6 -8l2 -21v-16l-7 -15l9 -12l-1 -18l-4 -10l-5 -19l7 -15l5 -12l-11 -12l8 -22l-2 -7l-7 -14l13 -16l-7 -14l6 -16l-12 -14l1 -19l11 -19l-11 -11l12 -10l-7 -15
l1 -20l-8 -15l11 -18l-11 -13l11 -8l-3 -23l5 -10l-13 -15l4 -15l5 -13l-5 -19l4 -16l4 -14l-11 -12l13 -22l-7 -13l6 -11l-7 -12l-6 -18l11 -14l-20 -16l-17 1l-12 3l-18 -2l-9 -4l-15 18l2 14l2 15l1 17l-10 16l7 8l-4 16l-1 13v16l2 16v20l4 9l-2 14l-2 15l2 22l4 16
l2 11l-11 13l9 13l-1 14l-2 14l-8 15l2 16l10 17l-9 20v8l9 17l-3 20l5 9l-12 20l-1 12l5 15l1 11l-3 20l9 10v17l-6 19l-3 10l-4 17l10 15l-7 13l9 20l-8 12l10 11l-9 16l4 13l-18 18l-14 -3l-18 9h-21l-15 -3l-14 -6l-6 3l-26 4l-16 -22l-1 -6l12 -18l-1 -12l3 -17l-8 -19
l-3 -13l6 -10l3 -23l-4 -11l3 -15l-8 -15l8 -18l-2 -14l-3 -11l-3 -22l9 -12l-7 -8l5 -24l-4 -8l3 -20l-9 -15l10 -12l2 -19l-10 -16l10 -9v-15l-9 -14l2 -18l2 -11l-4 -19l8 -12l-7 -20l5 -8l-3 -18l-1 -18v-10l2 -18l2 -11l-1 -14l-5 -20v-16l-1 -9l8 -17l-4 -20l4 -16
l-25 -8l-4 -1l-24 -2l-7 -4l-20 4l-12 12l-1 14l2 23l-4 10l-1 15l10 15l-9 18l1 17l2 10l-1 18l2 15l1 9l-1 18l3 12l4 19l1 10l-3 16v14l2 18l-4 12l-2 17l2 21v11l3 10l-17 19l-19 -3l-11 7l-19 5l-34 5h-8l-8 10l-28 6l-12 11l-5 8l-16 2l-11 12l-2 13l-17 12l-15 26
l-14 5l2 19l2 12l-14 16l7 12l-3 18l-3 21l7 15l-4 21l5 15l7 12v18l15 14l3 9l10 9l14 20l18 18l15 9l11 3l13 12l14 3l5 7l19 -2l15 7l18 1l11 3l16 5l42 -7l23 8l4 -5h13l22 -3l8 5l23 -5l30 5l16 2l12 -2h19l7 -5l23 6l9 -5l25 6l6 -2l17 -3l14 6l16 -5h17l13 3l19 2
l12 -9l18 9l14 -6l8 2l14 -5l18 9z" />
    <glyph glyph-name="middot" unicode="&#xb7;" horiz-adv-x="310" 
d="M206 301l1 -10l-10 -17l-9 -7l-15 -11l-39 -1l-14 7l-3 12l-16 13l-8 10l6 40l3 14l3 11l25 7l14 5l19 3l25 -6l3 -8l18 -12l2 -13z" />
    <glyph glyph-name="cedilla" unicode="&#xb8;" 
d="M224 -215l-16 5l-13 -1l-23 10l-2 4l-16 20l4 9l12 16l10 8l24 -10l2 -6l31 7l16 2l6 13l7 21l-13 13l-22 10l-26 9l-12 14l4 16l5 15l-1 20l8 12l3 9l23 13l13 4l16 -4l5 -8l-13 -24l-5 -14l15 -20l21 3l10 -8l7 -11l23 -6l-5 -14l16 -12l-6 -17l1 -32l-3 -6l3 -15
l-10 -16l-8 -11l-14 -1l-20 -12l-12 -1l-15 2z" />
    <glyph glyph-name="uni00B9" unicode="&#xb9;" horiz-adv-x="246" 
d="M91 719l-15 -12l-5 -12l-23 -2l-3 -16l-20 9l-4 20l14 10l11 26l11 9l4 18h20l13 11l24 8l3 8l17 -1l20 -4l11 -16l4 -11l-5 -19l2 -15l-5 -17l10 -9l-8 -21l7 -15l-5 -17l-1 -11l4 -19l-5 -17l2 -6l8 -19l-1 -13l2 -17l-13 -17l12 -12l-2 -21l-5 -17l5 -8l-8 -23l-5 -11
l-27 -2l-6 -1l-16 8l-13 9l-1 14l-4 18l2 15l-1 19v16l-2 15l10 7l-7 16l10 16l-4 16l-3 19l-5 13l3 10l9 24l-9 15l-3 13l4 17z" />
    <glyph glyph-name="ordmasculine" unicode="&#xba;" horiz-adv-x="391" 
d="M48 317l14 -5l16 -3h14l16 8l13 -6l16 -3l8 8l14 -4l14 1l23 -4l11 2l11 1l38 5l7 -3l14 -5l18 8l17 -6l15 6h13l20 -14l2 -17l4 -12l-19 -17l-13 -6h-24l-7 1l-53 4l-15 -1h-5l-19 4l-14 -9l-18 1l-19 8l-14 -8l-5 4l-17 2l-24 -3l-8 5l-14 -8l-22 2l-7 -3l-23 20l1 17
l8 10zM113 520l-6 -22v-11l14 -16l16 -4l2 -11l20 -14h8l16 -4l34 -1h2l12 8l18 10l9 13l18 10v6l4 17l7 12l-9 32l2 19l-6 10l-7 16l-5 13l-8 9h-14l-11 10l-23 2h-26l-20 -6l-23 -10l-12 -6l-1 -18l-12 -11l3 -14l-11 -15zM340 601l14 -17l-2 -6l-3 -19l11 -15l1 -25v-21
l-7 -15v-15l-16 -9l-6 -18v-10l-15 -16l-20 -8l-13 -12l-22 -13l-5 -2l-23 -5l-14 -6l-16 -3h-27l-9 1l-19 6l-10 10l-20 3l-8 3l-25 16l-8 7l-7 13l-11 9l-14 22l-8 15l5 21l-7 12l-1 12l-2 30v15l2 10l-2 18l13 16l9 12l2 11l5 13l9 5l22 16l11 9l26 6l9 6l17 3l10 10
l21 -3l26 1l11 -7l38 -5l10 -3l9 -8l17 -10l8 -5l10 -16l20 -8z" />
    <glyph glyph-name="guillemotright" unicode="&#xbb;" horiz-adv-x="631" 
d="M341 227l-25 -20l-8 -9l-2 -7l-15 -16l-7 -11l-7 -6l-23 -14l-2 -13l-10 -5l-16 -10l-13 -18l-12 -6l-2 -8l-21 -17l-11 -1l-6 -12l-12 -18l-9 -7l-2 -13l-20 -10l-26 3l-3 10l-10 17l-21 5l7 26l3 5l11 16l14 12l9 3l13 18l19 8l11 6v16l20 7l3 15l12 7l17 7l1 11l21 19
l-4 21l-18 6l-10 10v8l-18 11l-14 17l-6 5l-3 9l-13 17l-11 4l-22 16l-4 12l-15 10v12l-16 8l-3 18l15 17l15 10l9 9l15 3l23 -13l7 -6l7 -15l12 -4l12 -13l3 -13l11 -7l11 -9l10 -14l21 -13l6 -6l13 -12l8 -13l13 -5l8 -17l16 -6l11 -8l6 -16l10 -5zM589 228l-4 -19
l-17 -11l-12 -10l-10 -8l-9 -14l-14 -8l-1 -9l-19 -12l1 -12l-28 -19l-7 -13l-21 -9v-9l-12 -13l-19 -16l-6 -7l-7 -10l-10 -14l-12 -9l-22 -1l-9 15l-8 15l-19 12l-7 23l11 9l14 12l21 4l8 11l3 8l20 13l2 14l9 4l8 10l25 20v9l11 7l10 13l9 11v19l-5 10l-6 10l-15 16
l-11 5l-16 11l1 14l-23 11l1 10l-13 4l-16 14l-7 10l-16 11l-6 11l-9 14v21l9 10l8 8l10 18l32 2l2 -11l7 -16l21 -9l7 -5l14 -14l1 -10l22 -17l13 -2l8 -18l4 -3l9 -11l17 -9l5 -18l7 -11l13 -9l14 -5l12 -18l16 -5l10 -11z" />
    <glyph glyph-name="onequarter" unicode="&#xbc;" horiz-adv-x="726" 
d="M517 135h17l5 4l27 -1l12 -4l7 20l9 11l-7 18v12l4 10v33l3 11l-15 1v-3l-19 -16l-9 -11l4 -15l-16 -11l-14 -12l1 -15l-11 -12l-7 -6zM607 351l13 -1l13 5l25 -20l-7 -15l-3 -20l11 -6l2 -21l-13 -18l9 -11l2 -12l-5 -22l-2 -10l-2 -16l5 -18l-2 -15l17 -17l20 1l19 -12
l-3 -17l-1 -18l-20 -10l-20 -2l-7 -17l-8 -13l-1 -21l-1 -12l-13 -15l-10 3l-20 -1l-7 17l-5 10l-7 19l7 18l-23 14l-9 -3l-7 2l-37 -5l-7 2l-24 3l-16 -5l-14 1l-7 4l-18 16l-3 14l10 34l15 15l-1 6l11 18l15 9v15l21 13l7 8l6 12l9 15l9 12l12 8l12 13l3 19l1 10l13 8
l8 19zM86 610l-5 -6l-23 -16l-2 -8l-9 -5l-14 7l-8 15l7 12v31l20 8l9 10l11 9l22 12l40 3l7 4l22 -1l8 -13l-1 -15l6 -15v-14l2 -17l-11 -20l7 -17l-3 -8l4 -15l-5 -24l3 -6l-9 -19l8 -15l4 -19l-1 -13l-10 -11l10 -19l3 -16l-9 -19l2 -11l-2 -11l1 -21l-9 -16h-15l-11 3
l-25 4l-3 15l-3 12l-10 13l4 19l-3 13l11 15l-9 19l7 11l-5 12l3 20l-3 14l5 11l-3 18l3 10l-3 19l4 14l-10 21l10 15zM590 667l-10 -3l-11 -15l-1 -16l-1 -11l-18 -11l-6 -14l-12 -15l-8 -8l-3 -19l-14 -15l4 -12l-21 -13l3 -6l-11 -18l-11 -10l-9 -16l-7 -4l-8 -22l-6 -5
l-11 -19l-6 -8l-13 -12l2 -14l-5 -18l-8 -13l-10 -12l-6 -13l-10 -9l-11 -15l-10 -14l-4 -8l-10 -14l-8 -16l-9 -11l-9 -8l-7 -17l-10 -14l-10 -6l2 -16l-17 -9l-7 -12l-1 -13l-13 -12l-8 -22l-4 -4l-16 -18l-4 -15l-10 -14v-7l-15 -14l-12 -8l3 -17l-26 -12l-25 1l-17 -6
l-4 7l-19 11l11 13l3 16l15 12l5 10l7 15l8 6l6 16l17 16l2 13l3 8l10 17l15 11l3 8l11 16l2 11l15 19l4 11l17 10l-1 15l8 7l7 15l9 18l17 5l-3 12l10 16l6 18l11 9l4 14l15 12l5 12l13 15l11 11l5 15l1 13l8 4l5 20l12 9l9 15l5 14l6 6l17 20l6 9l14 16l4 10l5 16l9 6
l6 19l12 9l9 8l5 22l8 11l15 12l22 11l15 1l7 3l17 -5z" />
    <glyph glyph-name="onehalf" unicode="&#xbd;" horiz-adv-x="724" 
d="M556 63l6 -3l25 -4l5 3h20l15 1l11 1l21 -1l16 -3l5 -16l9 -14l-1 -11l-18 -19h-20l-20 4l-9 -2l-19 3l-7 2l-16 -5l-16 -3l-23 -1l-6 3l-29 2l-9 -2l-8 3l-26 -3l-12 23l-1 16l10 28l14 9l1 8l14 11l13 19l14 12l10 6l-1 10l21 18l10 7l7 15l22 22l9 12l9 13l-2 8l-2 32
l-8 16l-19 3l-24 1l-25 -2l-7 -6l-14 -17l-24 2l-10 11l-13 10l7 19l4 12l11 12l22 3l13 9l5 5l21 4l6 3l31 -1l20 5l16 -6l10 -7l12 -8l21 -16l2 -10l13 -11l2 -13l9 -17l-12 -28l1 -14l-7 -17l-5 -11l-14 -17l-7 -12l-15 -27l-9 -5l-10 -10l-15 -13l-2 -12l-13 -6l-13 -16
l-16 -13zM583 673l-15 -11l-5 -15l-3 -15l-7 -15l-17 -10v-14l-12 -11l-2 -9l-22 -15l-2 -18l-2 -11l-20 -11l5 -14l-12 -12l-15 -14v-8l-17 -18l-1 -4l-8 -18l-13 -7l-5 -13l-2 -22l-15 -9l-11 -8l-5 -17l-1 -13l-13 -12l-12 -13l2 -17l-10 -9l-6 -14l-16 -12l-5 -14l-7 -7
l-10 -17l-3 -12l-17 -8l-5 -18l-8 -9l-3 -17l-19 -9l-2 -12l-10 -14l-9 -10l-6 -15l-13 -17v-10l-6 -17l-8 -3l-7 -16l-12 -10l-1 -20l-36 -12h-4l-29 7l-4 -6l-21 18l20 5l-1 20l6 5l17 20l5 12l1 15l19 7l3 9l5 18l7 8l14 19l4 14l8 14l4 11l12 5l7 15l7 19l11 6l14 17
l9 7l9 17l1 16l14 8l9 10l2 13l7 14l6 16l18 10l-2 11l9 19l6 9l19 14l-2 10l11 18l12 14l1 12l7 6l11 18l16 6l-3 21l18 7l-3 14l20 8l8 22l1 12l9 9l6 13l8 9l2 16l12 16l23 22l21 10h16l22 2l13 -4zM92 614l-14 -11l-17 -14l-3 -7l-22 -11l-8 7l-3 20l9 16l1 25l15 11
l18 4l13 17l10 2l21 8l12 8l27 -4l24 -17l-11 -14l3 -19l-2 -9l5 -21l1 -9l7 -14l-4 -23l-7 -11l3 -18l3 -13l3 -19l-6 -10l4 -14l-3 -21l6 -17l1 -12l-6 -16l1 -16l-5 -10l3 -17l-4 -12l-5 -21l-20 4l-9 -2l-25 -1l-12 16l3 18l3 16l5 6l-6 20l-5 18l4 15l-4 13v14l8 19
l-11 11l9 20l-1 7l-4 17l-3 22l8 14v27z" />
    <glyph glyph-name="threequarters" unicode="&#xbe;" horiz-adv-x="792" 
d="M573 136l22 -4l17 1l9 6l21 -2l19 17l-1 15l4 11l-13 16l4 8l6 21l-4 12l-1 19h-14l-4 -15l-7 -6l-7 -14l-13 -12l-11 -13l-1 -16l-7 -6l-14 -16l-7 -14zM670 354h15l23 -2l17 -17l-9 -20l7 -15l-1 -9l5 -17l-6 -17l-5 -9l2 -20l3 -18l-4 -9l9 -14l-3 -19l-1 -16l18 -13
l17 2l7 -16l4 -19l-2 -14l-13 -14l-21 -5l-7 -10l-11 -14l10 -24l2 -15l-19 -8l-25 1l-16 -6l-6 18l-7 14v30l-17 15l-7 1l-17 5l-14 -2l-19 -3l-5 5l-20 -2h-17l-6 1l-24 -1l-5 18l-2 14l3 27l6 13l15 13l9 18l15 5l3 12l4 12l7 12l11 22l19 6l4 9l6 22l9 5l11 12l6 11
l8 13l15 21zM656 675l-12 -17l-7 -7l-12 -21l-2 -9l-11 -13l-4 -16l-5 -13l-16 -7l-3 -10l-10 -15l-2 -18l-19 -14v-6l-4 -18l-8 -12l-11 -12l-3 -10l-18 -18l-10 -5l-10 -17l3 -10l-6 -10l-7 -13l-18 -21l-4 -9l-6 -16l-8 -9l-10 -13l-2 -11l-9 -14l-20 -17l2 -6l-10 -15
l-16 -8l2 -15l-6 -15l-11 -16l-14 -13l-1 -11l-10 -7l-9 -12l-2 -20l-9 -10l-10 -14l-8 -14l-17 -10l-8 -15l-5 -6l-5 -16l-8 -11l-4 -12l-14 -20l-26 -6l-12 -6l-16 6h-21l-10 8l20 18l-5 11l16 14l14 8l-1 17l9 11l4 10l19 19l-3 5l7 16l14 8l12 20l3 12l11 9l8 15l10 11
l8 13l7 11l9 16l8 11l10 16l-1 6l16 21l-1 11l17 10l3 17l5 10l9 12l17 14l6 6l6 18l-1 17l10 8l14 9l8 16l11 12l-2 11l17 11l9 18l3 9l3 17l10 8l15 18l-1 15l14 12l12 5l4 17l11 13l6 11l4 14l12 15l10 10l19 9h24l5 5l13 -1zM110 501l-5 13l6 10l17 14l25 4l8 11l13 2
l15 11l-8 30l-5 10l-4 12l-13 4l-31 -3l-26 -1l-5 -9l-12 -9l-32 1l4 5l-22 15l6 15l5 11l11 15l19 5l4 12l20 5l16 5l16 2l33 1l12 -2l8 -11h25l5 -9l20 -9l8 -11l5 -12l1 -16l9 -19l1 -25l-11 -20l-5 -13l-6 -10l-17 -14l13 -16l2 -8l11 -9l21 -11l-5 -18l6 -9l-3 -29
l8 -17l-14 -16l-1 -8l-14 -16l-10 -5l-6 -17l-22 -1l-18 -6l-15 -7l-14 3l-26 3l-14 -8l-13 3l-21 9l-17 11l-9 6l-16 2l-8 13l-7 18l23 13l3 20l26 1l15 -9l14 -10l5 -4l47 -8l12 12l23 7l3 12l5 26l-6 20l-11 12h-20l-12 8l-33 2z" />
    <glyph glyph-name="questiondown" unicode="&#xbf;" horiz-adv-x="489" 
d="M451 -165l-18 -1l-6 -10l-18 -11l-16 -15l-11 -4l-13 -11l-12 -1l-17 -9l-3 2l-19 -11l-8 -2l-16 -1l-51 2h-11l-24 2h-10l-8 9l-16 1l-18 10l-16 3l-7 9l-21 17l-14 3l-1 15l-12 11l-22 27l4 16l-10 13v16l-4 10l-3 20l-2 25l-5 18l10 12l4 23l3 5l2 14l11 20l9 11
l25 23l15 7l-1 13l24 7l3 4l23 11l9 8l15 1l11 15l14 14l-14 15l8 19l-8 15l6 15l-6 11l28 11l6 2h13l18 4l7 -2l23 -11l-1 -19l1 -10l-8 -17v-15l3 -16l7 -17v-12l-5 -14l8 -9l-14 -24v-7l-22 -8l-22 1l-16 -11l-21 -1l-16 -7l-8 -2l-7 -12l-14 -9l-9 -11l-5 -17l-10 -17
v-8l-5 -21l7 -22l-8 -17l6 -18l5 -11l14 -16l7 -10l18 -8l7 -13l4 -2l28 -7l8 -7l19 2l28 1l18 4h12l15 8l4 4l24 9l15 1l12 9l13 13l8 16l12 -7l9 -5l19 -12l12 -13zM199 419l7 17l11 13l12 12l8 -1l34 8l22 -10l7 -13l14 -10l3 -9l-3 -35v-16l-17 -11l-10 -10l-16 -3
l-38 -9l-13 12v8l-9 18l-13 10z" />
    <glyph glyph-name="Aring" unicode="&#xc5;" horiz-adv-x="687" 
d="M339 554l-12 -17l-7 -6l3 -23l-11 -6v-20l-14 -9l-7 -14l1 -21l-4 -8l-16 -13l-2 -22l-4 -6l1 -23l-12 -10l-4 -16l-6 -15l-10 -8l6 -18l-14 -9l-11 -19l16 -15l15 4l21 -7v4l29 4l5 -2l16 -2l20 -3l4 7l15 -8l14 2h23l17 7l9 -4l14 -5l21 2l10 20l-7 13l-16 9l-2 14
l-4 21l-6 7l4 18l-7 13l-9 16l-1 10l-15 14l3 16l-5 15l-20 12l-3 19l-5 9l-7 18l-6 15l-1 8l-12 15v17h-7zM656 -4l-16 5l-10 -5l-18 7l-14 -8l-13 9l-28 5l-2 20l-6 13l-4 16l-6 10l-5 10l-7 17l3 8l-5 13l-12 14l-5 15l-4 15l-24 10h-13l-16 8l-17 -8l-11 1h-10l-25 -2
l-10 9l-18 -5l-18 2l-11 -5l-8 7l-16 -1l-21 -2l-12 -1l-14 1l-17 -3l-15 6l-14 -2l-19 -3l-20 -11l-2 -20l-11 -15l5 -7l-14 -15l-9 -17l-2 -17l-2 -12l-2 -17l-7 -9l-17 -18l-13 -19l-21 4l-21 2l-3 1l-24 1l-15 9l17 15l6 11l8 16l-2 15l10 11l1 13l7 16l-1 20l9 8l7 18
l5 11l8 19l4 13l1 9l13 18v17l6 10l6 16l17 13l-8 17l9 10l2 10l9 17l15 18l-4 6l3 17l12 10l14 16l1 19l7 13l-1 13l9 14l9 13l-4 10l5 20l15 15l-2 15l4 12l19 10l6 13l3 18l7 10l-5 17l14 13v16l5 15l13 8l18 17l11 2l21 2l20 1l7 -4l29 -13l-2 -15l8 -14l-3 -17l15 -9
l9 -15l-6 -12l13 -14l6 -21l6 -8l4 -16l13 -9l-2 -17l3 -11l15 -19l-2 -11l4 -21l4 -11l5 -8l18 -14l6 -21l-6 -8l17 -21v-10l16 -32l3 -13l-1 -6l16 -20l3 -10v-14l11 -20l-4 -11l9 -11l1 -13l14 -13l11 -20l-3 -11l6 -15l6 -11l13 -16l2 -16l6 -11l-2 -19l14 -16l6 -9
l-3 -14l6 -15zM390 859l-6 9l-5 14l-23 11h-25l-19 -17l-7 -7l-10 -9l-4 -39l9 -16l19 -3l9 -10l39 -3l10 8l10 10l-3 18zM239 853v16l2 13l17 17l7 6l16 13l9 6l13 12l10 5l15 6l24 -3l24 -6l3 1l19 -9l15 -12l21 -16l12 -18l-7 -11l8 -14l8 -36l-5 -15l-8 -11l-1 -12
l-19 -10l-7 -22l-12 -7h-21l-4 -6l-21 -3l-22 -1l-25 8l-12 5l-6 1l-13 9l-10 9l-13 19l-15 5l-2 14l-2 16z" />
    <glyph glyph-name="AE" unicode="&#xc6;" horiz-adv-x="884" 
d="M342 553l-11 -14l-10 -9l4 -17l-9 -14l-11 -10l-6 -20l-6 -9l-9 -21l4 -8l-14 -14l-1 -14l-5 -15l-1 -21l-13 -6l-1 -18l-7 -17l-6 -15l-1 -7l-10 -16l-4 -19l12 -16l8 4l14 5l13 -1l24 -1l15 -2l8 -4l35 4l5 1l19 -5l11 7l25 1l12 -4l6 -5l27 4l2 12l-11 13l-3 22l-4 15
l-7 7l-7 12l-5 19l-2 11l-1 22l-5 12l-15 8l2 19l-6 9l-6 14l-17 18l8 18l-13 14l-2 9l-6 12l-4 15l-8 16zM652 84l7 4h15l27 -2l13 2h14l18 -8l8 8l17 -7l20 4l13 -4h10l17 -14l-7 -16l6 -9l-8 -11l12 -16l-16 -20l-14 3l-20 2l-18 -5h-7l-29 2l-4 4l-14 -1h-24l-17 -2
l-15 -3l-17 4h-25l-12 1l-15 -3l-26 18l4 10l-5 18l-16 9l1 10l-13 18l1 14l-6 10v18l-4 13l-9 10l-15 20l-22 4l-9 7l-19 -1l-5 -5l-26 3l-13 1l-4 4l-16 -6h-43l-3 3h-15l-28 -6l-6 5h-11l-24 -1l-15 -2l-10 7l-16 -8l-13 -1l-25 -12l-3 -12l-2 -11l-17 -14l-7 -22l7 -12
l-15 -10v-18l-13 -14l-4 -15l-5 -15l-18 -19l-20 6h-19l-15 -1l-17 -5l-6 14l13 18l1 10l6 21l6 14v12l6 18l19 19l-1 18l5 17l3 13l13 12l10 14l-3 17l6 9l12 12l10 22l-4 11l4 12l8 18l1 12l12 15v11l5 11l18 16v13l1 16l10 10l6 19l4 17l14 8l-4 16l9 14l10 10l6 17l2 18
l3 12l1 18l14 13l10 7l6 32l4 11l8 18l4 17l5 10l7 11l17 21l15 -7l22 7l7 -9l20 2l9 3l27 -1l3 5l20 -3l22 -5l15 -1l12 6l13 1l22 -4l5 -2l13 1l16 7l24 -8l10 5l17 1l13 -4l22 1h17l15 -2l11 3l20 -4l11 6l9 -2l24 -2l11 1h15l19 -1l3 3h19l21 -15l-3 -18l-1 -11l6 -13
l-4 -10l-9 -18h-19l-11 -1l-18 1l-12 -2l-17 -1l-20 7l-18 -8l-8 3l-24 -1l-12 3l-13 2l-13 -7h-13l-22 7l-17 -8l-15 9l-4 -5l-27 -1h-3l-17 5l-16 -4l-10 1l-21 -5l-22 9l-13 -8l-8 -7l9 -21l-3 -7l13 -16l13 -15l-8 -15l17 -15l-6 -13l10 -12l15 -15l-6 -11l8 -17l11 -12
l9 -17l11 -11h34l14 3l11 3h14l19 -6l9 4l13 -5l15 2l22 1l16 4l8 -5l26 -4l16 3l2 -2l27 4l14 1l5 -3l14 -13v-12l7 -14l-3 -19v-7l-20 -17l-9 4l-12 -1l-14 -5l-16 -3l-20 6l-16 -4l-12 7l-11 -6h-10l-13 -2l-28 -1l-13 5l-2 -5h-18l-24 1l-11 1l-7 -8l7 -21l1 -9l16 -17
l-4 -10l2 -14l16 -18l-4 -13l6 -15l14 -18l3 -10l1 -10l15 -15l3 -19l-2 -15z" />
    <glyph glyph-name="Eth" unicode="&#xd0;" horiz-adv-x="726" 
d="M392 374l-4 -19v-15l4 -12l-4 -9l-16 -17h-16l-10 -5l-23 8l-17 -5l-21 -2l-4 3l-18 -2l-19 -3l-11 9l-17 -17l3 -17v-16l-12 -21l3 -9l9 -21l-1 -14l-9 -12l-1 -18l3 -18l-1 -7l1 -17l8 -16l5 -18l25 -2l19 1l9 -1l33 -1l9 1l14 4l15 6l26 1h4l19 7l12 -2l19 12l13 5
l18 3l12 11l8 3l6 14l19 4l5 15l18 10l3 14l7 10l11 15l7 13l2 9v13l11 20l2 12l-3 16l9 17l7 12l-7 32l2 18v6l-14 22l-1 9l8 15l-19 18l9 9l-15 14l-5 13l-7 14l-15 12l-6 15l-12 6l-5 8l-11 9l-13 6l-24 15l-5 3l-18 9l-15 1l-9 8l-22 3l-8 -2l-22 6l-17 -2l-8 9l-20 -8
l-19 5l-29 2l-3 -7h-28l-15 -8l-3 -14l6 -15v-22l-4 -15l9 -9l-4 -22l3 -16l-1 -14l-9 -18l8 -14l-1 -8l3 -17l18 -21l14 1l10 1l11 -1l18 4l26 -2l5 -4l15 5l18 -5l25 4zM19 312l-1 12l4 15l-1 15l-2 20l16 11l8 -1l23 1l6 4l15 -8l19 6l9 9l8 21l-4 12l1 16l-5 17l2 17
l6 6l-1 19l-9 18l6 9l7 14l-14 21l2 16l2 9l-2 23v13l6 12l-3 12l5 14l15 19l10 2l21 -6l11 9l10 -6l15 6h16l18 -2l23 -6l12 5l35 1l6 -5l26 5l6 -2l23 -6l12 3l17 -3l11 -10l20 4l6 -11l13 -6l19 2l12 -10l23 -9v-6l13 -2l27 -10l5 -6l15 -9l7 -12l7 -8l23 -16l8 -12l9 -9
v-10l20 -25l11 -12l-4 -20l12 -12l-4 -8l7 -21l2 -15l8 -14l6 -9l-2 -21l3 -8l-5 -18l5 -30l6 -13l-9 -19l-4 -16l7 -9l-11 -13l1 -21l-14 -10l8 -12l-19 -17l-2 -14l-4 -12l-13 -12l-1 -15l-13 -13l-1 -11l-16 -7l-13 -13l-11 -6l-5 -10l-17 -13l-14 -8l-7 -7l-20 -6
l-15 -13l-19 -4l-15 -6l-12 -7h-19l-8 -6h-15l-19 -7h-24l-12 -1l-4 -7l-18 -2l-57 1l-9 6l-18 -6l-15 -1l-10 7l-12 -6l-21 7l-23 -3l-4 3l-18 -3l-11 11l-12 20l6 9l-7 22l4 16l-3 7l6 21l-6 13l5 11l-6 17l2 22l11 6l-9 19l5 15l-3 14l3 17l-5 12l9 21v15l-25 16l-17 -7
l-7 7l-16 -3l-8 -2l-22 -2z" />
    <glyph glyph-name="multiply" unicode="&#xd7;" 
d="M322 321l10 -9l6 -10l16 -5l11 -16l5 -10l5 -14l13 -4l19 -11l9 -9l11 -12l-1 -14l21 -11l-13 -22v-10l-16 -8l-10 -12h-25l-1 13l-18 3l-11 17l-9 9l-16 13l-4 4l-7 8l-22 15l-3 11l-8 13l-21 10l-1 10l-28 -2l-8 -13l-7 -6l-11 -16l-12 -3l-8 -12l-14 -13l-11 -10
l-1 -12l-18 -11l-3 -13l-23 -6l1 -16l-33 6l-3 12l-9 10l-10 16l-5 20l9 11l8 6l7 17l22 4l2 12l18 11l6 8l1 17l23 3l8 12l4 10l21 11l-5 19l-6 15l-14 10l-9 6l-19 15v11l-12 7l-11 16l-13 9l-6 11l-24 8l-3 10l-10 11l-6 24l25 7v12l23 11l16 -1l4 -6l9 -7l25 -19l10 -8
l-1 -9l11 -5l18 -19l7 -5l8 -10l8 -14l12 -7l21 -11l21 3v8l15 11l6 12l16 6l10 13l10 4l11 15l8 8l6 14l13 14l14 8l5 12l19 -5l24 -15l4 -6l14 -18l6 -17l-9 -8l-16 -11l-13 -15l-15 -4l2 -13l-20 -16l-10 -10l-10 -3l-8 -10l-12 -12l-15 -12l-1 -14z" />
    <glyph glyph-name="Thorn" unicode="&#xde;" horiz-adv-x="588" 
d="M187 455l-2 -14l10 -19l-10 -17l9 -9l-2 -18l-3 -14l-6 -14l6 -15l-6 -19l1 -9l6 -14l-8 -18v-16l6 -18l3 -13l12 -14l11 -3l13 6l27 -5l5 3l17 -5l32 7h16l13 -1l17 4l16 8h9l16 12l13 2l15 11l4 16l6 13l2 17l15 25l-6 33l7 14l-6 17l-17 9l-2 15l-13 13l-2 7l-10 17
l-25 5l-9 6l-14 -1l-9 6l-26 5l-11 4h-25l-21 -3l-13 -3l-21 4l-6 -2l-12 -5zM415 148l-16 -4l-20 -4l-13 -1l-10 -10l-16 4l-20 -5l-11 3l-26 -3l-28 5l-10 -6l-20 1l-1 -1l-19 1l-22 -10l6 -17l2 -16l-7 -16l4 -10l4 -17l-9 -12l12 -17l-19 -18l-25 6l-14 -5l-7 1l-20 -2
l-19 21l11 17l-5 14l-3 8l5 14l-10 22l2 15l11 16l-1 13l-8 24l-2 24l7 9l5 11l-13 19l2 17l9 18l-7 11l5 13l-10 15l10 14l-6 18l2 9l-3 19l11 16l-6 10l5 24l-10 8l4 17l7 17l-11 10l-1 16l3 19l3 10l5 21l-2 15l-4 14l-2 17l5 12l-9 11l9 16l4 17l-11 12l5 12l-5 20
l26 12l7 2l22 3h18l15 -7l13 -12l1 -10l2 -18l-5 -15l-9 -13l7 -11l4 -16l2 -12l3 -17l27 -3l14 5l10 -9l18 8l4 -1l30 -1l19 -7l11 -1l22 5l8 -8l18 4l15 -10l14 -4l8 -5l20 -1l11 -10l17 -10l15 -7v-11l15 -16l16 -7l7 -15l9 -13l8 -12l2 -12l1 -12l6 -16l-3 -21l2 -13
l6 -30l-3 -11l-6 -19l-8 -8l5 -21l-12 -10l-2 -14l-6 -16l-6 -6l-11 -9l-19 -14l-2 -11l-19 -12l-8 -1l-13 -8z" />
    <glyph glyph-name="germandbls" unicode="&#xdf;" horiz-adv-x="640" 
d="M594 187l-1 -17l3 -10l-8 -21l-9 -6l3 -13l-1 -16l-10 -17l-9 -6l-8 -20l-13 -4l-12 -14l-14 -12l-9 -5l-22 -16l-18 -6l-14 -8l-6 -3h-20l-11 1l-42 -6l-10 -1l-24 6l-3 8l-30 4l-18 10l-7 2l-20 8l-7 29l3 16l8 8l10 18l20 -3l13 -3l23 -10l2 -1l24 -8l16 2l24 -6l11 6
h18l31 21l10 5l11 19l14 13l-7 12l18 14l-3 17l1 10l4 32l-2 17l-14 11l6 14l-18 15l-1 18l-4 4l-11 13l-14 11l-13 9l-16 9l-17 -1l-9 9l-26 -2l-16 2l-11 22l-13 13l2 11l10 28l10 7l6 9l6 8l5 16l10 10l6 15l5 16l-6 12l1 32v17l-6 8l-2 18l-17 9v14l-22 12h-16l-11 10
h-15l-33 4l-5 -4l-24 -7l-4 1l-13 -13l-12 -7l-9 -12l-3 -13l-14 -14l2 -10l3 -34l-5 -9l2 -23l1 -15l10 -15l20 -23l-2 -24l6 -12l-5 -14l-7 -19l13 -10l-4 -15l-2 -17l-8 -16l1 -12l10 -21l1 -15l-8 -8l5 -15l2 -22l-6 -15l4 -15l-1 -12l-3 -16l5 -15l4 -10l-3 -15
l-11 -18l14 -15l-7 -10l-4 -17l10 -21l-8 -5l1 -24l-16 -15l-9 8l-21 -1l-10 -7l-24 1l-16 16l8 16l-9 17l4 10l2 19l-1 15l3 15v12l-5 18l6 11l4 19l-13 13l8 14l-5 16l5 19l-2 13l5 13l-4 15l-7 14l10 11l-3 23l3 15l-5 5l6 15l-23 20h-20l-8 2l-13 -4l-22 -1l-7 22l-9 9
l2 13l5 17l8 15l14 2l13 5l20 -3l14 5l16 2l-15 15l-6 14l-1 12l6 20l-3 12l-8 11l4 32l-4 19l12 7l5 19l2 14l12 12l9 11l6 7l2 8l22 14l3 9l32 12h19l18 8l13 5l14 -2l12 1l31 -1l9 -2l10 -3l22 5l17 -7l14 -8l11 -6l18 -3l7 -7l6 -10l34 -26l2 -9l16 -8l-2 -12v-17l3 -12
l11 -21l-4 -9l-2 -30l3 -21l1 -9l-7 -18l-4 -11l1 -19l-16 -11l-4 -7l-5 -15l-5 -13l16 -1l17 -11l14 -6l12 1l17 -6l3 -16l17 -9l14 -6l3 -14l18 -4l4 -16l15 -14l-6 -14l16 -12l1 -19l6 -15l-8 -12l7 -11z" />
    <glyph glyph-name="aring" unicode="&#xe5;" horiz-adv-x="584" 
d="M225 85l7 -12l20 4l14 -5l35 1l9 3l15 -2l13 9l18 5l11 9l3 11l18 8l11 16l9 26l13 13l-5 20l9 21l2 26l-1 15l-6 10l-12 15l3 14l-8 19l-12 11l-9 12l-2 6l-22 10l-18 12l-21 5l-13 7l-19 7l-17 -2l-28 -8h-3l-24 -8l-16 -8l-6 -9l-6 -4l-11 -19l-14 -11l-10 -27
l-15 -11l4 -17l-11 -15l9 -36l-4 -11l5 -19l7 -15l12 -16l7 -11l2 -12l21 -10l12 -16zM495 -5l-24 4l-4 -3l-15 2l-19 3l-11 16l-3 16l-8 17h-8l-12 -9l-12 -6l1 -7l-17 -15l-7 -7l-21 -1l-20 -9l-5 -6l-22 6l-14 -4l-22 -2l-22 6l-9 -3l-13 7l-10 2l-13 8l-17 3l-14 8
l-15 8l-9 4l-19 16l1 4l-8 16l-10 8l-7 10l-18 33l-4 16l-6 14v14l-12 16l2 15l-3 13l6 27l-7 21l6 11l-1 17l3 13l5 18l6 8l6 16l17 11l8 21l-4 11l22 8v12l13 6l12 13l26 17l21 -1l13 6l11 9l13 4l17 4l13 -6l31 6h16l3 -10l20 3l8 -8l23 -10l7 -6l22 -9l6 -9l7 -7l15 -13
l12 5l1 23l6 15l20 19h8l12 -1l16 -1l24 -21l-7 -14l4 -14l-1 -14l5 -19l2 -11v-13l-12 -13v-16l8 -14l-1 -15l4 -18l-1 -12l-10 -22l6 -6l5 -19l-10 -15l9 -18l-9 -10l3 -17l-5 -17l5 -9l5 -23l1 -11l-1 -17l-1 -15l-7 -10l-1 -19l3 -14zM319 624l-1 6l-3 14l-16 11l-41 -1
l-14 -6l-6 -14l-1 -15l-8 -29l8 -16l20 -12l5 -11l26 6l16 8l11 13l15 11zM166 617l16 18l6 11l8 19l6 11l4 3l14 18l16 4l13 7l17 -3l27 6l13 -9l15 -5l22 -14l18 -14l19 -22l2 -7l9 -15v-35l-12 -17l1 -12l-5 -8l-15 -12l-10 -19l-25 -5l-6 -6l-14 -8l-6 -6l-28 3l-25 4
l-11 3l-20 11l-12 7l-9 11l2 13l-7 13l-9 10l-9 16z" />
    <glyph glyph-name="ae" unicode="&#xe6;" horiz-adv-x="911" 
d="M222 86l15 -7l9 -3l13 -1l38 -8l17 11l6 -4l23 11l10 5l8 8l13 16l14 6l6 8l13 34l3 18l12 11l1 17v32l-8 12l5 17l-14 8l6 16l-17 11l5 13l-23 15v4l-8 18l-32 7l-16 5l-8 11h-13l-57 -3l-15 -8l-10 3l-6 -15l-18 -3l-11 -9l-12 -12l-13 -10l-6 -28l-4 -17l-8 -23l-6 -8
l3 -35l4 -20l6 -8l-3 -20l7 -17l15 -12l7 -9l12 -9l9 -19zM785 277l-14 16l-9 18l-1 11l-17 7l-1 11l-11 12l-25 7l-10 13l-11 4l-11 5h-38l-9 -5l-10 -8l-19 3l-10 -14l-20 -3l-1 -13l-17 -12l-9 -13l-3 -10l-11 -17l-5 -9l17 -20l10 7l16 -7l21 1l7 2h25l14 1l9 -1l9 2h17
l23 4l20 -9l14 5l13 -5l17 4l9 3zM823 49l-1 -12l-11 -3l-12 -11l-16 -9l-13 -7l-17 -4l-14 -5l-14 -4l-17 -2h-16l-17 -2l-23 -2l-10 8l-19 -5l-10 2l-26 10l-4 7l-17 3l-6 4l-12 10l-20 9l-17 13l-10 10l1 -2l-13 -18l3 -17l5 -11l-24 -15l-20 1l-11 1l-13 18l-3 12l-8 16
l-5 11l1 -3l-13 -3l-19 -17l-5 -11l-16 -4l-12 -5l-9 -5l-20 -5l-12 -6l-9 -8l-15 2l-40 4l-6 -3l-13 5l-13 -2l-17 5l-14 12l-10 2l-20 2l-13 10l-6 11l-19 7l-5 10l-12 13l-5 9l-4 13l-12 27l-17 15l1 21l-8 9l1 14l-10 23v15l8 30v15l-3 8l7 15l7 23l-4 14l5 6l14 13v21
l13 14l6 6l9 10l10 13l20 7l5 16l31 8l3 11l22 3l8 2l11 10l25 -1l8 7l25 -2l25 -9l19 6l6 -7l15 -7l12 -3l16 -9l26 -19l5 -6l18 -12l6 -5v23l-4 5l3 16l29 17l4 -1l16 -3l20 -13l2 -30l5 -9l18 -4l8 12l7 9l7 8l22 12l18 9l12 -1l7 10l21 4h11l9 7l31 -6l12 5l22 -8l14 -4
l14 -2l9 -9h13l12 -12l16 -2l18 -15l3 -3l12 -17l3 -12l21 -5l3 -14l12 -29l13 -18l5 -13l6 -16l-10 -9l14 -16l-10 -21l6 -26l-18 -22l-13 -1l-20 3l-10 -2l-25 2l-8 3l-14 -5l-20 -2l-19 2l-16 1h-6l-17 -3l-21 5l-7 -4l-21 -2l-11 4l-19 -3l-9 -1h-21l-9 6h-16l-16 -6
l-14 -11l2 -10l15 -20l5 -4l5 -20l3 -4l13 -13l20 -7l16 -14l25 -4l9 -10l14 2l25 -4l16 3l23 10l5 -1l18 13l19 -1l4 8l11 16l18 -3l18 -14l15 -11l1 -16z" />
    <glyph glyph-name="eth" unicode="&#xf0;" horiz-adv-x="559" 
d="M425 209l3 27l-10 20l-9 9v17l-9 12l-3 12l-6 19l-20 16l-18 11l-10 6l-16 10h-4l-21 6l-12 5h-26l-21 -7l-8 -2l-21 -6l-12 -5l-3 -13l-17 -4l-13 -18l-10 -12l-3 -20l-20 -22l-2 -9v-26l10 -31l-10 -12l11 -19l10 -9l-4 -21l16 -12l10 -6l3 -12l11 -18l44 -15l15 -7
l16 2l23 -3h13l16 4l18 4l9 11l22 11l14 5l1 18l12 7l20 29l-5 18l15 14zM509 278l2 -30l-5 -21l4 -14l-2 -11l-1 -13l-11 -20l-2 -10l1 -14l-4 -16l-14 -21v-7l-10 -14l-13 -18l-10 -6l1 -14l-12 -11l-12 -8l-25 -14l-26 -3l-8 -11l-12 -1l-20 -1l-9 -3l-15 -4h-8l-31 -8
l-16 6l-17 1l-15 6l-22 -1l-10 7l-16 13l-17 2l-9 4l-16 17l-7 10l-9 7l-3 8l-24 11l3 13l-24 30l-5 10l-5 22l1 13l-13 16l6 8l-1 19l-4 33l1 17l1 14l6 15l8 9l-1 20l9 8l2 20l14 8l7 14l12 15l8 7l2 13l35 24l14 15l21 4l10 7l18 -2l10 7l12 6h24l30 -3l9 -2l23 -4l6 -2
h22l5 -15l22 -3l8 -10l4 -9l19 -8l5 -10l8 16l-8 18l-14 17l-3 9l-1 13l-13 13l-11 19l-6 4l1 15l-11 13l-23 7l-11 -2l-11 -13l-15 -12l-28 -6l-18 10l-8 8l3 26l7 12l10 6l-1 16l5 13l-20 7l-6 6l-11 9l-35 16l-15 -3l-14 22l11 11l-3 16l-1 12l24 8l21 -5l16 -6l4 -4
l13 -4l20 -9l14 -8l31 -8l20 -4l7 16l14 9l10 15l15 11h25l5 -6l8 -18l14 -18l-22 -12l3 -7l-19 -17l-7 -4l7 -29l6 -12l12 -3l6 -11l16 -14v-13l5 -12l18 -19v-7l10 -18l7 -14v-17l6 -9l5 -12l11 -14l1 -15l4 -23l-2 -10l6 -12l4 -19l1 -19l6 -13l2 -10z" />
    <glyph glyph-name="divide" unicode="&#xf7;" 
d="M310 133l-5 -14l-14 -19l-16 -1l-15 -11l-24 1h-11l-21 13l-1 11l-13 10l-2 9l-5 30l12 16l13 12l-1 10l11 1l25 10l29 -4l4 -5l17 -5l16 -19l4 -14zM461 363l-4 -22l9 -10l-1 -17l-26 -14l-8 -7l-9 7l-19 -3l-17 1l-11 -5l-19 3l-13 -3l-20 9l-13 -1l-10 -4l-21 3h-16
l-18 -5l-5 5l-23 -7h-9l-18 3l-11 3h-23l-6 -4l-19 1l-17 -2l-17 1l-7 4l-26 -3l-6 -1l-27 21l6 14l-4 17l9 9l16 21l9 -6h18l12 3l15 3l22 -2l13 2l6 -4l15 -1h14l17 3l16 2l24 -3h17l6 -3l14 1l16 -1l24 3l6 5l12 -8l24 3l15 -3l10 3l12 2h16l18 -3l12 6zM316 511l-14 -17
l-15 -9l-11 -12l-15 -13l-30 2l-6 9l-10 4l-14 11l-15 9l9 19l-13 20l7 17l15 14l7 3l18 9l14 8l20 2l20 -4l9 -13l13 -16l8 -10z" />
    <glyph glyph-name="thorn" unicode="&#xfe;" horiz-adv-x="584" 
d="M177 282l-9 -11l-5 -16l5 -19l-9 -33l8 -9l-6 -20l11 -17l8 -6l2 -15l15 -11l18 -17l11 -5l21 -24h8l18 -6l18 3l26 -8l10 10l18 -5l20 15l10 -2l18 11l10 17l15 6l4 10l9 33l6 14l10 15l-8 13l10 31l-11 16l6 15l-10 14l1 14l-10 17l-14 7l-14 24l-13 6l-6 12h-22l-4 5
l-21 4l-6 6l-43 -5l-5 3l-18 -5l-16 -4l-7 -4l-15 -17l-6 -7l-15 -10l-11 -8zM421 9l-23 1l-10 -11h-7l-25 -8h-11l-6 2l-29 2l-26 -1l-14 -1l-5 8l-11 1l-12 2l-16 12l-12 11l-21 6l-11 7l-7 11l-13 -1l11 -16l-10 -17l7 -15v-8l-3 -16l8 -14l-11 -18l6 -13l1 -15l3 -12
l-2 -20l-6 -10l3 -20v-10l2 -18l-5 -16l-17 -14l-9 1l-22 1l-9 -1l-9 -4l-27 20l1 14l6 14l-2 16l1 15l1 18l2 9l-9 23l1 11l-1 17l5 11l-7 16l10 15l-2 14l-8 20l5 16l4 14l5 10l-10 22l-1 7l1 18l9 18v18l-13 15l9 6l-7 24l11 13l-4 14l5 9l-4 16l-9 23l12 11l-3 20v7
l-6 20l6 11l1 20l-2 9l-9 16l13 21l-2 12l-9 14l8 12l-2 17l4 19l1 15l-2 16l-3 17l-6 10l-1 19l13 7l-6 21l6 34l-12 14l8 10l-4 16l-4 11l-2 19l27 11l17 4l5 -2l23 3l16 3l12 -23l-7 -8l8 -15l4 -16l-4 -17l-9 -11l5 -16l-6 -24l13 -8l-4 -13l-3 -19l-3 -12l6 -16l-3 -14
l7 -17l-7 -13l1 -15l-5 -19l8 -18l-3 -13l12 -2l8 10l8 7l12 13l19 3l5 4l12 13l14 1l23 4l15 3l12 5l17 -7l18 1h14l15 -6l36 -12h2l17 -8l16 -11l10 -7l11 -11l5 -6l21 -18l9 -3l7 -13l8 -27v-15l6 -22l17 -16l-4 -9l-2 -13l-2 -18l8 -34l2 -18l-3 -8l-1 -22l-15 -10
l-2 -12l-5 -16l-3 -15l-8 -12l-5 -13l-27 -27l-1 -9l-10 -11l-14 -10z" />
    <glyph glyph-name="ydieresis" unicode="&#xff;" horiz-adv-x="552" 
d="M368 -190l-15 -6l-17 -4l-6 -4l-18 1l-24 -6l-4 -2l-33 1l-15 3l-16 1l-19 2l-14 4l-14 -5l-8 4l-15 5l-14 11l-25 4l-2 10l-21 1l-12 12l-5 19l16 14l9 19l8 11l20 2l9 -4l13 -10l15 -13l15 -2l15 -5l12 -1l23 1h13l38 -1l14 -5l9 11l20 -4l9 8l11 6l10 1l15 12l3 11
l6 14l3 12l12 22l-9 8l3 18l-2 28l13 15l-3 18l-12 14l-4 -8l-2 -3l-17 -19l-15 -5l-7 -15l-8 1l-15 -10l-14 -9l-16 5l-13 -7l-13 -4l-35 5l-24 -5l-13 5l-5 3l-15 4l-22 7l-10 10l-8 14l-5 8l-19 6l-7 22l-3 6l-11 17l-5 17l4 7l-12 18l6 18l-4 9v37l-2 16l-5 10l7 20
l-5 7v22l4 8l4 18l1 19l-9 9l3 22l6 14l-7 13l8 12l-2 18l-7 18l8 16l10 9l13 4l20 -2l18 2l13 -2l19 -18l-12 -11l6 -17l-8 -14l6 -20l-5 -13l2 -12l10 -13v-18l-12 -12l6 -18l2 -19l5 -14l-7 -14l1 -13l5 -18l-2 -29l-2 -15l4 -18l10 -10l-5 -11l11 -14l16 -9l9 -7l9 -9
l14 -5l10 -3l28 1l15 2l25 5l13 7l1 3l20 16l3 9l24 5l6 18l-2 22l5 22l9 14l-10 17l-2 6l1 18l1 12l8 18l-1 15l-3 16l-7 12v17l11 14l-9 19l-1 9l4 16l-4 15l11 13l-4 23l20 14l14 -2l15 3h27l16 -17l-9 -13l6 -23l1 -14l-2 -8l-1 -19l5 -18l-9 -17l14 -7l-2 -20l-7 -15
l7 -13l-1 -12l-3 -23l-8 -14l2 -8l10 -18l2 -15l-3 -19l2 -12l-7 -14l6 -12l-6 -18l-6 -16l6 -16l4 -14l-1 -19l-6 -16l7 -13l-1 -10l-8 -19l10 -10l-1 -18l-6 -30l-3 -13l-2 -9l-10 -18l-13 -13l-5 -14l-5 -7l-19 -10l-11 -10zM230 579l-10 -8l-8 -15l-3 -8l-16 -2l-29 4
l-8 6l-13 4l-6 14l-17 9l10 27l7 17l4 10l11 4l20 8l15 -1l12 -2l21 -6l2 -18l17 -6zM417 587l-7 -20l-17 -10l-1 -8l-17 -2l-29 1l-14 8l-2 8l-23 3l6 19l-7 27l13 14l7 7l14 15l7 -1l29 3l12 -8l15 -8l13 -24z" />
    <glyph glyph-name="Aogonek" unicode="&#x104;" horiz-adv-x="687" 
d="M342 556l-16 -19l-8 -7l-3 -22l-8 -5l-6 -23l-6 -9l6 -19l-11 -6l-5 -18v-13l-6 -15l-18 -27l-2 -16l-13 -13l1 -12l-7 -21l-4 -15l-3 -7l-11 -17l8 -15l21 -3l17 8l2 -5l15 -2l24 5l4 -3l21 -3l19 1l6 2l22 4l12 -2l21 -6l4 1l19 5h15l12 13l-14 10l4 21l-3 10l-6 17
l-16 11l-1 19l-14 14l-2 9v13l-14 21l2 15l-10 7l-1 13l-11 14l-1 18l-5 11l-9 14l-7 16v13l-9 18h-5zM665 -192l-26 -5l-12 -3l-27 1l-20 1l-17 -1l-1 11l-24 7l-2 9l-10 7l-11 14l4 17l2 29l2 18l4 13l-1 13l7 8l8 14l7 6l11 13l20 15l-6 3l-9 11l-10 22l3 10l-14 11
l-7 15l-3 13l-1 18l-11 7l2 11l-1 19l-6 12l-9 11l-17 12h-42l-7 4l-23 4l-13 -5l-7 5l-19 -9l-21 4l-12 4h-16l-16 -2l-17 -4l-10 7l-18 -7l-12 -2l-21 7h-10l-8 -2l-22 -5l-15 -14l-15 -9v-11l-8 -22l-2 -15l-5 -8l-13 -13l3 -18l-16 -13l-7 -14l-6 -18l-20 -10l-24 -6
l-11 -3l-17 2l-15 16l2 13l10 16l-3 11l18 16l7 12l-3 16l2 11l18 22l-5 9l16 14l7 16l-4 11l1 11l18 21l7 7l-8 16l11 19l8 8l-1 19l11 14l1 13l11 18v12l19 15v10l-2 9l6 17l6 11l11 19l4 18l13 10l-7 10l6 19l19 17l2 14l-4 5l13 18l5 16l4 17l4 12l6 12l2 13l6 19l11 10
l12 16l-1 10l15 20l10 13l21 -5l9 -1l26 7h8l26 -22l4 -6l10 -20v-15l7 -14l6 -8l-1 -14l7 -16l9 -17l6 -12l7 -10l1 -22l3 -12l5 -14l16 -12l-4 -12l17 -21l-2 -9l8 -10v-23l9 -14l2 -11l11 -9l6 -18l-1 -11l17 -18l-5 -8l6 -16l11 -13l7 -17l8 -10l-5 -17l13 -15l5 -15
l2 -15l4 -9l7 -16l6 -17l4 -7l21 -35l-1 -15l3 -6l18 -15l2 -21l8 -9l-4 -13l8 -12l-2 -24l-18 -8l-11 -9l-1 -9l-9 -18l-21 -10l-1 -9l-5 -18l-5 -27l16 -15l11 -12l24 3l20 -14l4 -13l17 -13z" />
    <glyph glyph-name="aogonek" unicode="&#x105;" horiz-adv-x="584" 
d="M219 86l20 -9l10 -6l17 -1l22 -1l27 7l10 -2l6 13l18 5l14 8l9 9l15 12l7 7l20 31l5 21l-5 13l4 12l10 37l-5 15v8l-15 10l-4 21l-3 11l-10 7l-6 20l-13 6l-3 9l-31 11l-10 6l-22 7l-9 3l-36 -1l-9 -5l-20 2l-9 -11l-16 -4l-6 -7l-17 -12l-10 -11l-10 -16l-11 -24l-8 -11
l-8 -23l4 -16l-8 -32l1 -16l2 -14l15 -14l10 -14v-18l11 -11l9 -4zM495 -193l-10 -10l-12 -2h-37l-15 -1l-20 6l-8 10l-8 3l-14 11l-11 13l-4 20l-1 12l4 28l-6 10l11 18l10 8l7 15l9 12l8 15l13 3l4 15l17 23l-9 17l-8 17l-13 1l-12 -4l-10 -16l-1 -6l-22 -7l-8 -5l-7 -12
l-20 -4l-19 -2h-3l-24 -6l-19 4l-29 3l-2 1l-18 -1l-22 3l-1 12l-17 1l-21 4l-13 7l-11 18l-8 3l-3 9l-18 12l2 17l-8 7l-14 28l-17 12l3 23l-6 14l-5 11l-6 17l6 13l-9 33l12 11l-7 19l6 18l2 10l14 11l6 20l1 7l3 13l5 14l14 20l12 12l10 6l12 12l6 3l29 21l21 3l-1 11
l27 -3l2 9l21 -5l16 9l31 -7l14 4l5 -4l22 -4l11 -1l12 -8l16 -12l7 -1l11 -8l21 -10l12 -19l10 11l-8 18l5 14l27 14l15 -4h15l16 9l18 -18l2 -34l-6 -16l6 -13l-3 -16l3 -17l-6 -6l-1 -24l2 -6l4 -20l-4 -19v-14l3 -11l-2 -17l-9 -11l9 -18l-7 -13l8 -11l-6 -18l1 -19
l6 -17l-1 -6l-2 -21l-5 -17l6 -12l-7 -18l11 -15l-6 -11l-11 -19l-9 -13l-19 -13l-10 -2l-13 -15l3 -14l-16 -17l3 -12l-1 -27v-9l11 -8l36 -9l14 -9l16 -12l2 -15z" />
    <glyph glyph-name="Cacute" unicode="&#x106;" horiz-adv-x="671" 
d="M180 466l-16 -17l4 -10l-9 -20l-2 -13l-11 -16l-3 -16l9 -17l-1 -35l4 -6l-5 -15l7 -24v-7l7 -13l-1 -16l15 -28l1 -13l12 -12l5 -18l11 -14l8 -6l20 -11l1 -9l24 -8l20 -17l18 -3l2 -13l26 2l5 -4l19 -6l17 -3l9 1h33l6 -2l17 -1l20 4l7 6l22 6l10 6l16 9l3 6l22 4l10 9
l8 14l16 11l2 3l28 5l3 -12l10 -7l15 -20l15 -7l-9 -21l-5 -9l-17 -8l-6 -15l-19 -3l-2 -15l-16 -2l-14 -13l-16 -5l-11 -3l-11 -9l-23 -5l-11 -5h-18l-17 -7l-2 -5l-21 4l-9 -5l-36 1l-9 5l-23 -5l-8 6l-25 -1l-16 3l-14 4l-14 13l-3 6l-25 3l-7 9l-17 1l-5 8l-18 12l-9 12
l-9 2l-10 9l-14 13l-5 14l-15 12l-12 10l-6 17l-7 8l-23 28l5 13l-15 18l2 10l-9 19l-5 14l2 13l-7 16l-7 11l-1 22l1 15l4 26l-2 21l-4 17l14 7l-8 14l5 23l12 11l4 16l-6 16l15 7l7 14l8 22l-1 5l16 22v3l8 17l15 14l6 6l18 12l8 14l11 3l19 9l7 11l32 17l3 3l23 11l8 4
l14 9l15 4l11 1l21 6l8 -4l23 8l7 -4l31 1l26 -4l18 -1l8 -1h19l14 -3l16 -4l15 -10l14 -8l14 -4l5 -7l15 -1l19 -13l-1 -13l24 -7l5 -2l14 -12l-1 -21l-8 -12l-17 -9v-16l-21 -9l-13 -5l-13 19l-17 2l-1 11l-14 11l-17 3l-7 3l-24 13l-3 1l-18 4l-11 6h-12l-20 2l-27 -1
l-23 -3l-10 5l-11 -7l-16 -8l-24 -5l-15 -7l-14 -6v-2l-14 -17l-19 -3l-12 -14l-13 -6l-4 -18l-10 -11l-13 -16zM300 766l-8 10l-9 15v17l21 10l9 7l14 12l4 5l18 14l11 10l12 12l13 7l15 4l6 8l13 15l8 13l19 -4l10 -13l9 -18l15 -7l7 -19l-4 -19l-23 -7l-8 -9l-12 -7
l-17 -1l-13 -8l-7 -12l-21 -6l-3 -6l-21 -9l-11 -6l-15 -9l-19 -10z" />
    <glyph glyph-name="cacute" unicode="&#x107;" horiz-adv-x="481" 
d="M145 291l3 -19l-4 -13v-23l-8 -26l9 -22l-6 -13l10 -14l12 -15l-2 -12l13 -9l5 -14l12 -9l31 -14l18 -15l13 3l13 -5h35l2 5h16l14 7l20 8l13 8l12 3l5 8l30 5l3 -12l8 -12l20 -5l-1 -14l6 -19l-20 -11l-6 -4l-18 -8l-8 -13l-15 -9h-6l-24 -12l-7 -2l-22 -5l-17 3l-12 -5
l-34 -2l-15 9l-14 -4l-6 5l-15 9h-17l-11 12l-15 7l-11 8l-25 8l2 3l-23 18l-12 7l3 8l-12 17l-13 22l-9 14l-11 18l-8 14l9 12l-7 18v17l-9 29l11 15l-4 19l12 16l-6 11l14 20v10l15 10v21l7 13l10 13l15 10l9 9l11 12l18 7l29 10l12 10l14 5l8 6l12 2l25 -1l5 9l45 -8h20
l21 -7h10l12 -10l15 -3l24 -8l2 -4l22 -11v-8l15 -20l-17 -11l-3 -13l-14 -7l-13 -10l-17 1l-21 7l-12 9l-14 8l-3 7h-18l-14 2l-40 2l-6 -7l-23 -2l-5 -2l-12 -14l-21 -9l-10 -4l-5 -14l-7 -11zM176 531l-8 10l-9 15v17l21 10l9 7l14 12l4 5l18 14l11 10l12 12l13 7l15 4
l6 8l13 15l8 13l19 -4l10 -13l9 -18l15 -7l7 -19l-4 -19l-23 -7l-8 -9l-12 -7l-17 -1l-13 -8l-7 -12l-21 -6l-3 -6l-21 -9l-11 -6l-15 -9l-19 -10z" />
    <glyph glyph-name="Ccircumflex" unicode="&#x108;" horiz-adv-x="671" 
d="M180 459l-16 -13l-7 -15l-3 -14l5 -16l-14 -8l12 -18l-1 -16l-7 -31v-16l9 -17l-11 -12l4 -18l4 -12l5 -13l7 -13l17 -16l-5 -17l13 -7l4 -12l18 -17v-11l12 -5l18 -9l9 -11l22 -20l11 -4l22 -10l9 3l13 -5l15 -1l13 -7l15 3l32 -7l16 7l18 2l17 3l7 -2l14 7l16 11l15 -3
l9 15l17 2l7 14l6 10l20 4l4 16h23l2 -18l15 -4l8 -13l16 -8l2 -25l-20 -14l-7 -9l-17 -11h-11l-11 -17l-9 -9l-19 -3l-4 -11l-11 1l-24 -10l-7 -2l-15 -5l-13 -4l-13 -7l-26 -2l-3 -1l-17 -2l-33 6l-10 -6l-22 9l-14 2l-10 3l-26 -2v4l-26 10l-7 -1l-16 13l-13 7l-13 6
l-20 9l-2 10l-10 5l-17 4l-7 14l-12 11l-19 9l-9 11l-3 14l-15 16l-10 11l-7 30l-9 12l-3 12l-10 13l-6 18l5 8l-14 24l7 8l-9 20l3 15v16l4 31l-7 14l2 18l8 10l5 16l-9 13l15 14l-8 23l14 15l3 11l6 16l2 10l19 15v12l16 13v9l12 10l17 18l11 6l2 11l16 7l13 15l18 6
l17 20l15 3l17 2l16 5l17 5l2 8l15 -1l27 10l7 -1l18 1h18l25 3h11l14 -7l17 2l21 -1l14 -5l19 -3l4 -12h10l26 -4l10 -15l8 -2l11 -13l19 -3l4 -14l19 -11l6 -8v-22l1 -11l-15 -6l-8 -16l-20 -9h-12l-10 8l-9 8l-20 12l-12 8l-3 11l-21 7l-5 2l-16 2l-13 9l-16 -3l-20 11
l-21 -5l-17 -1l-19 -3l-10 2l-21 -2l-13 -2l-30 -13l-8 -10l-24 -4l-3 -10l-21 -11l-5 -11l-14 -12l-3 -11l-21 -13l-4 -10zM387 915l19 -6l12 -15l10 -2l3 -15l10 -7l21 -10l6 -4l7 -12l18 -7l16 -11l2 -16l11 -6l1 -21l-5 -13l-31 -18l-15 16l-10 5l-7 5l-10 17l-25 7
l-3 9l-14 8l-18 11l-24 -9l-9 -5l-15 -8l-8 -7l-8 -11l-11 -10l-18 -7l-7 -11l-19 -11l-19 5l-1 15l-11 16l1 21l4 2l20 8l4 13l16 15l13 3l7 12l12 10l17 5l12 15l3 8l9 12l9 6z" />
    <glyph glyph-name="ccircumflex" unicode="&#x109;" horiz-adv-x="481" 
d="M151 291l-6 -15l-2 -20l-6 -14l-3 -39l11 -13l1 -15l5 -18l8 -7l2 -16l4 -16l13 -9l11 -11l36 -12l2 -13l28 5l7 -11h26l13 2l26 3l6 6l21 11l15 5l10 10l14 11l19 -1l10 -9l4 -7l5 -19l9 -4l1 -23l-9 -7l-14 -10l-15 -12l-5 -1l-21 -12l-3 -5l-16 -3l-15 -5l-13 1
l-25 -6l-4 -6l-39 8l-12 -7l-16 8l-22 -1l-4 7l-23 5l-3 2l-21 8l-16 11l-9 13l-14 9l-5 10l-12 8l-18 8l-5 13l-20 35l4 13l-6 11l-5 16l-11 18l9 14l-3 13v31l-4 12l8 15l6 21l-3 17l1 15l8 5l3 18l7 13l16 10l3 17l18 13l8 9l20 4l12 15l22 13l7 9l23 5h5l29 5l13 -2
l18 4l20 -3l13 5l25 -7l17 -5l9 -1l7 -3l14 -5l17 -10l21 -6l3 -15l17 -5l8 -24l-22 -8l-2 -6l-8 -14l-17 -12l-23 9l-8 5l-6 7l-24 11l-4 -1l-13 2l-21 10l-34 -3l-15 -8l-7 -3h-12l-17 -8l-15 -9l-3 -16l-16 -3l-13 -14zM287 678l6 -9l7 -9l25 -17l3 -11l16 -3l21 -10
l2 -9l20 -10l6 -17l8 -4l13 -12l-3 -22l-4 -10l-8 -12l-29 1l-14 2l-10 9l-9 15l-11 4l-15 8l-5 12l-10 5l-21 10l-17 6l-20 -12l-5 -8l-18 -6l-5 -17l-9 -4l-22 -12l-1 -2l-23 -16l-16 5l-5 15l-15 5l8 25l7 12l16 5l10 9l7 8l8 12l18 16h1l20 13l13 15l5 3l7 13l20 5z" />
    <glyph glyph-name="Dcaron" unicode="&#x10e;" horiz-adv-x="703" 
d="M186 581l10 -14v-9l1 -17l-1 -22l-12 -7l10 -24l-3 -14l-5 -13l8 -14l-9 -17l3 -11v-18l-4 -12l11 -17l2 -11l-4 -16l4 -23l-6 -11l7 -17l-1 -10l-2 -15l-4 -23l-5 -13l-1 -15l7 -8l3 -22l-9 -13l9 -17l-11 -12l13 -15l-6 -19l-6 -17l29 -14l16 7l8 1l24 -8l20 5l16 -5
l14 7h39l10 6l6 -1l18 7l25 10l11 2l5 12l12 -1l25 11l7 14l8 1l6 15l22 14l5 4l2 13l7 19l14 9v12l13 17l-3 11l4 16l8 21l-7 7v19l-3 35l5 15l6 15l-16 15l3 7l1 21l-3 10l-18 17l5 14l-19 9l-8 12l-7 15v11l-22 6v15l-23 8l-13 2l-2 12l-24 5l-5 3l-22 11l-9 1l-12 3
l-18 1l-18 7l-14 3l-11 -3l-22 7l-28 -2l-16 -3l-16 5l-6 -4zM89 12v21l7 9l-5 21l3 14l-4 12l3 15l1 14l-4 12l1 17l8 21l-7 14l-2 13l7 10l-8 14l4 20l9 17l-10 9l7 17l-5 20l-4 6l9 17l-10 18l7 9l6 22l-13 12l2 15l-1 15l4 18l-5 14l13 16l-6 15l-2 16l7 8l-9 13v23
l11 15l-10 15l3 15l5 7v24l-12 9l9 18l3 13l1 17l15 9l9 3l23 -4l4 7l23 -3l11 -1l19 -3l12 4l16 2l12 2l39 -8l4 7l23 -6l13 5l11 -7l25 1l5 -9l25 4l15 -3l4 -9l17 -7l18 1l13 -12l15 -3l20 -10l9 -5l11 -8l16 -7v-10l33 -21l8 -9l12 -6l7 -14l2 -15l21 -26l3 -13l8 -13
l12 -17l1 -7l-1 -16l5 -19l6 -12l-4 -10l7 -20l6 -11l-9 -13v-29l11 -18l-7 -20l-7 -13l-3 -10l-5 -22l-2 -8l-3 -15l2 -19l-11 -8l-2 -19l-11 -12l2 -12l-8 -14l-28 -18l-11 -8l-1 -14l-23 -13l-1 -4l-9 -9l-15 -11l-14 -8l-21 -7l-20 -16l-17 -8l-14 -5l-18 -3l-16 1
l-2 -2l-25 -5l-6 -6l-24 2l-15 -7l-13 2l-13 3l-21 -4l-21 -2l-24 1l-6 1l-25 -6l-5 2l-23 1l-7 6h-16l-22 -1l-10 -3zM439 918l21 -18l7 -11l3 -21l-18 -13l-13 -3l-2 -8l-17 -10l-7 -13l-8 -8l-16 -12l-8 -10l-22 -4l-8 -8l-4 -18l-16 -6l-26 1l-2 13l-22 2l-10 14l-9 10
l-4 11l-21 10l-4 3l-17 12l-5 10l-17 11l-16 12l1 7l-13 23l9 9l10 16l22 -1l17 -12l18 -2l3 -11l11 -13l17 -7l7 -9l15 -4l8 -16l26 1l21 16l6 1l4 7l19 11l7 7l20 11l13 6l12 9z" />
    <glyph glyph-name="dcaron" unicode="&#x10f;" horiz-adv-x="639" 
d="M225 80l4 1l15 -10l17 2l27 1l17 4l14 -5l14 13l19 9h6l20 13l13 15l-3 5l29 29l1 23l1 11l-2 17l3 31l-6 9l-1 23l2 5l-7 19l-3 10l-8 9l-18 14l-12 11l-1 11l-24 19l-19 -2l-16 11l-6 -2l-43 -3l-6 4l-19 -11l-13 -5l-15 -3l-16 -12l-3 -7l-18 -14l-10 -12l-5 -23
l-13 -13l6 -23l-2 -13v-32l-12 -12l16 -19l-6 -19l10 -16l16 -5l-1 -21l10 -7l10 -12zM497 -2l-29 6h-11l-20 -5l-15 17l2 14l-7 18l-4 9l-20 -13l-2 -8l-20 -11l-12 -11l-8 -6l-12 -6l-22 -6h-6l-20 -5l-8 4l-30 -7l-25 7l-12 -4l-15 2l-12 6l-5 11l-13 3l-23 11l-10 7
l-7 9l-11 3l-9 15l-7 13l-15 7v12l-25 32l5 7l-8 16l-14 21l-5 13l6 17l-6 9v31l12 14l2 21l-2 8l-1 16l10 13l5 16l2 20l14 8l-1 13l18 15l11 6l8 18l11 9l4 12l36 15l3 -2l17 13l19 1l18 2v3l21 -1l38 1l7 -3h20l8 -8l25 1l2 -15l21 1l9 -15l14 -4l8 -17l17 5l-4 17v14
l-5 17l-1 12l4 13l1 22l1 12l6 15l-12 17l10 16l-8 12l-1 14l8 11l-3 15l8 15l-5 23l-6 14l-3 16l3 10l14 19l26 1l16 1h10l12 -5l14 -18l10 -15l-6 -6l6 -20l-3 -10l-7 -17l6 -22l4 -9l-2 -17l2 -15l-1 -19l-12 -8l8 -18l-9 -10l2 -15l7 -24l-9 -10l5 -18l-2 -14l5 -13
l4 -12l-3 -16l3 -18l-10 -19l12 -10l-12 -13l3 -14l2 -21v-17l1 -10l5 -18l-10 -11l9 -19l-2 -9l-7 -20l-1 -14l3 -19l2 -12l-3 -18l6 -30l4 -10l-6 -15l-1 -18l-2 -9l9 -14zM643 693l11 -20l-13 -11l-2 -16l-1 -18l13 -11l-7 -17l4 -23l-3 -7l-7 -23l4 -14l-23 -15l-8 2
l-29 2l-5 18l-13 11l6 17v12l4 22l-7 15l6 14l-4 12l8 12l-13 23l14 12l11 17l19 2l4 -6l19 5z" />
    <glyph glyph-name="Ebreve" unicode="&#x114;" horiz-adv-x="566" 
d="M489 -1l-8 4l-12 -6l-25 -2l-8 4h-20l-10 1l-12 -4h-10l-22 8l-19 -5l-29 2l-12 -4l-11 -1h-13l-26 1l-13 -1l-6 5l-13 3l-15 -2l-27 -3l-15 -1h-29l-14 -3l-15 9l-8 10l2 17l-8 14l1 13l7 19l-10 16l5 12l1 17l5 9l-9 16l4 18l-1 13l-4 12l7 14l3 14l-9 15v16l12 14
l-12 24l6 10l-1 18l1 13l2 12l-8 20l3 15l1 13l-3 18l-2 14l-1 13l11 12v19l-4 15l-5 13l-1 14l-1 18l4 13l-4 17l14 10l-8 13l4 15l-7 14l8 21l-3 10v16l6 15l5 15h13l12 1h15l16 -4l19 9h23l1 -8l29 1l2 3l18 -2l22 3l10 2l14 -3l14 2l20 -3l7 5l19 -1l19 -8l16 4l13 -2
l12 5l7 -5l24 7l15 -5l14 -1l19 5l3 -20l7 -7v-18l-7 -13v-18l-6 -15l-24 2l-4 6h-25l-18 -6h-4l-18 3l-15 -1l-15 1l-18 -5l-21 6l-3 2h-25l-4 -6l-20 4h-11l-25 -1l-5 -5l-17 3h-25l-11 -28l3 -13l3 -15l-3 -15l-6 -19l6 -13v-12l-1 -17l3 -14v-14l-1 -14l4 -21l5 -10
l16 -3l11 4l27 3l15 -3l14 -6h8l8 8l19 -3l20 3l11 -1l14 -7l25 9h11l12 -9l10 7l21 -4l16 2l14 -1l14 -14l-7 -14l2 -15l10 -11l1 -15l-18 -19l-14 8l-18 -2l-11 -3l-22 6h-17l-18 -7l-7 -1l-12 4l-22 -2l-13 5l-12 -1l-19 2l-12 -3h-10l-14 -2l-14 1l-17 2l-20 1l-19 -21
l-1 -11l3 -13l6 -24l-1 -7l3 -23v-6l-5 -17l-5 -19l5 -11l6 -16l-13 -15l2 -13l5 -16l9 -15l25 -2l9 3h26l31 -4l14 -5l25 4l20 -1l13 6l12 -4l9 4l27 -3l3 -2l25 2l12 -6l7 9l29 -5l14 5l7 -15l-1 -13l2 -17l-5 -11l1 -15zM249 888l-7 -18l5 -17l3 -11l21 -21l17 -4h33l9 1
l7 13l11 12l4 11l3 19l6 21l14 -1l13 5l23 -1h3l25 -6l-5 -26l-9 -20l7 -7l-9 -14l-5 -13l-13 -15l-13 -14l-9 -4l-4 -7l-26 -12l-5 -5l-10 -6l-15 4l-31 -1l-22 4h-16l-2 4l-22 4l-15 14l-9 11l-12 6l-4 11l-11 20l-5 14l-3 12l1 15l-3 18l15 15l10 2l20 -8l13 7z" />
    <glyph glyph-name="ebreve" unicode="&#x115;" horiz-adv-x="530" 
d="M398 279l-13 15l-6 8l5 17l-10 6l-20 18l-6 5l-14 12l-2 9l-19 -1l-11 10l-18 3l-29 -7l-15 6l-7 -8l-27 -8v-10l-11 -6l-21 -11l-1 -8l-12 -8l-3 -14l-9 -12l-13 -13l23 -20l14 5l12 -2l21 -5l5 6l22 -6l12 7l17 -4l20 -1h11l13 1l15 -3l18 9l18 -7l20 7l7 -7zM461 45
l-9 -2l-25 -9l-2 -12l-14 -1l-23 -10l-2 -2l-25 -11h-8l-14 -1l-23 -8l-7 -2l-10 -2l-32 1l-18 8l-15 3l-36 8l-11 1l-5 12l-40 10l-6 5l-14 12l-9 13l-17 7l-9 20l-8 5l-8 25l-4 14l-3 16l-17 21l3 15l-1 8l-5 23l7 30l2 12l-1 13l-3 19l6 16l7 11l-2 11l7 13l18 19l3 11
l13 15l11 8l11 14l14 5l7 6l18 20l26 7l3 2l21 4l8 8l17 -2l21 7l30 -4h8l22 -5l9 3l19 -5l11 -5l26 -20l4 -7l36 -21l9 -2l-1 -13l15 -10l11 -19l18 -23v-17l2 -9l11 -17l-6 -21l16 -14l-12 -10l-1 -40l-8 -11l-21 -2l-10 -3l-22 2l-17 -6l-6 6l-21 -3l-17 1l-11 -3l-11 6
h-35l-13 2l-15 -9l-19 2l-19 -2l-10 9l-17 -6l-8 4l-24 -6h-19l-6 2l-15 -11v-12l17 -18l9 -18l10 -3l9 -13l7 -12l19 -11l12 -5l4 -8l20 -7l19 3l29 1l5 -1l25 5l17 1l11 4l17 2l8 11l17 10h3l21 -2l10 -7l13 -17l12 -10zM215 653l-7 -18l5 -17l3 -11l21 -21l17 -4h33l9 1
l7 13l11 12l4 11l3 19l6 21l14 -1l13 5l23 -1h3l25 -6l-5 -26l-9 -20l7 -7l-9 -14l-5 -13l-13 -15l-13 -14l-9 -4l-4 -7l-26 -12l-5 -5l-10 -6l-15 4l-31 -1l-22 4h-16l-2 4l-22 4l-15 14l-9 11l-12 6l-4 11l-11 20l-5 14l-3 12l1 15l-3 18l15 15l10 2l20 -8l13 7z" />
    <glyph glyph-name="Edotaccent" unicode="&#x116;" horiz-adv-x="566" 
d="M489 -1l-8 4l-12 -6l-25 -2l-8 4h-20l-10 1l-12 -4h-10l-22 8l-19 -5l-29 2l-12 -4l-11 -1h-13l-26 1l-13 -1l-6 5l-13 3l-15 -2l-27 -3l-15 -1h-29l-14 -3l-15 9l-8 10l2 17l-8 14l1 13l7 19l-10 16l5 12l1 17l5 9l-9 16l4 18l-1 13l-4 12l7 14l3 14l-9 15v16l12 14
l-12 24l6 10l-1 18l1 13l2 12l-8 20l3 15l1 13l-3 18l-2 14l-1 13l11 12v19l-4 15l-5 13l-1 14l-1 18l4 13l-4 17l14 10l-8 13l4 15l-7 14l8 21l-3 10v16l6 15l5 15h13l12 1h15l16 -4l19 9h23l1 -8l29 1l2 3l18 -2l22 3l10 2l14 -3l14 2l20 -3l7 5l19 -1l19 -8l16 4l13 -2
l12 5l7 -5l24 7l15 -5l14 -1l19 5l3 -20l7 -7v-18l-7 -13v-18l-6 -15l-24 2l-4 6h-25l-18 -6h-4l-18 3l-15 -1l-15 1l-18 -5l-21 6l-3 2h-25l-4 -6l-20 4h-11l-25 -1l-5 -5l-17 3h-25l-11 -28l3 -13l3 -15l-3 -15l-6 -19l6 -13v-12l-1 -17l3 -14v-14l-1 -14l4 -21l5 -10
l16 -3l11 4l27 3l15 -3l14 -6h8l8 8l19 -3l20 3l11 -1l14 -7l25 9h11l12 -9l10 7l21 -4l16 2l14 -1l14 -14l-7 -14l2 -15l10 -11l1 -15l-18 -19l-14 8l-18 -2l-11 -3l-22 6h-17l-18 -7l-7 -1l-12 4l-22 -2l-13 5l-12 -1l-19 2l-12 -3h-10l-14 -2l-14 1l-17 2l-20 1l-19 -21
l-1 -11l3 -13l6 -24l-1 -7l3 -23v-6l-5 -17l-5 -19l5 -11l6 -16l-13 -15l2 -13l5 -16l9 -15l25 -2l9 3h26l31 -4l14 -5l25 4l20 -1l13 6l12 -4l9 4l27 -3l3 -2l25 2l12 -6l7 9l29 -5l14 5l7 -15l-1 -13l2 -17l-5 -11l1 -15zM366 822l-13 -20l-8 -9l-14 -12l-7 -1l-34 -1
l-17 -2l-14 15l-8 8l-13 19l13 33l-6 10l17 13l16 14l7 6l33 -5l16 1l12 -11l9 -18l13 -12z" />
    <glyph glyph-name="edotaccent" unicode="&#x117;" horiz-adv-x="530" 
d="M398 279l-13 15l-6 8l5 17l-10 6l-20 18l-6 5l-14 12l-2 9l-19 -1l-11 10l-18 3l-29 -7l-15 6l-7 -8l-27 -8v-10l-11 -6l-21 -11l-1 -8l-12 -8l-3 -14l-9 -12l-13 -13l23 -20l14 5l12 -2l21 -5l5 6l22 -6l12 7l17 -4l20 -1h11l13 1l15 -3l18 9l18 -7l20 7l7 -7zM461 45
l-9 -2l-25 -9l-2 -12l-14 -1l-23 -10l-2 -2l-25 -11h-8l-14 -1l-23 -8l-7 -2l-10 -2l-32 1l-18 8l-15 3l-36 8l-11 1l-5 12l-40 10l-6 5l-14 12l-9 13l-17 7l-9 20l-8 5l-8 25l-4 14l-3 16l-17 21l3 15l-1 8l-5 23l7 30l2 12l-1 13l-3 19l6 16l7 11l-2 11l7 13l18 19l3 11
l13 15l11 8l11 14l14 5l7 6l18 20l26 7l3 2l21 4l8 8l17 -2l21 7l30 -4h8l22 -5l9 3l19 -5l11 -5l26 -20l4 -7l36 -21l9 -2l-1 -13l15 -10l11 -19l18 -23v-17l2 -9l11 -17l-6 -21l16 -14l-12 -10l-1 -40l-8 -11l-21 -2l-10 -3l-22 2l-17 -6l-6 6l-21 -3l-17 1l-11 -3l-11 6
h-35l-13 2l-15 -9l-19 2l-19 -2l-10 9l-17 -6l-8 4l-24 -6h-19l-6 2l-15 -11v-12l17 -18l9 -18l10 -3l9 -13l7 -12l19 -11l12 -5l4 -8l20 -7l19 3l29 1l5 -1l25 5l17 1l11 4l17 2l8 11l17 10h3l21 -2l10 -7l13 -17l12 -10zM325 587l-13 -20l-8 -9l-14 -12l-7 -1l-34 -1
l-17 -2l-14 15l-8 8l-13 19l13 33l-6 10l17 13l16 14l7 6l33 -5l16 1l12 -11l9 -18l13 -12z" />
    <glyph glyph-name="Eogonek" unicode="&#x118;" horiz-adv-x="566" 
d="M478 -201l-16 4l-15 -8l-39 -3l-4 6l-27 3l-11 6l-15 10l-2 14l-16 13l2 11l-8 13l-3 32l16 6l-4 21l6 6l10 16l13 14l1 13l19 1l-2 10l7 15l-20 2l-15 -6l-10 -3l-15 7l-23 -4l-19 -1h-12l-14 3l-6 -3l-17 -1l-25 -1l-12 7l-22 -6l-7 3l-19 1l-14 -5l-15 5l-10 -3
l-18 17l-8 20l6 7l1 18l2 15l-5 12l7 19l-7 10v15l-3 23l-1 14l12 9l-3 16v27l3 19l-1 19l3 10l-14 14l6 14l-2 20l-4 11l8 31l-6 19l-1 10l12 11l-9 19l-1 12l1 16l2 20l4 14l4 11l-2 12l-9 17l2 19l8 17l-12 12v18l12 16l-2 8l-6 16l6 16l1 12l-4 17l18 11l3 3h19l23 -2
l15 4l8 3h10l26 -3l10 -5l19 9l5 -7l26 -1l3 2l26 2l17 4l6 -1l18 -1l12 2l23 -6l3 1l27 2l12 -1l4 -1l28 -1h8l21 -3l15 1l6 -9l-4 -19l9 -8l-1 -21l3 -13l-15 -6l-18 -2l-12 1l-19 -1l-12 -4l-13 -2l-26 1l-13 5l-14 2l-10 -9l-21 4l-14 1l-22 -2l-8 5l-12 -6l-21 7l-9 -5
l-24 -2l-11 5l-13 -3l-11 -14l-13 -12l3 -13l-2 -19l1 -13l10 -21l-11 -8l9 -19l-5 -10l7 -18l-7 -19l1 -7l-2 -17l13 -19l13 -1l21 2l9 -1l17 -1l23 6l8 3h12l20 -2l9 -3l23 2l8 2l16 -4l14 5l17 -6l13 -1l13 4l17 -6l25 7l13 -26l-6 -17l-5 -14l5 -18l-12 -15h-21l-3 7
l-28 -1l-9 -7l-22 9h-10l-9 -1l-16 -4l-12 1l-22 -1l-13 2l-18 -1h-18l-1 3l-27 -6l-10 6l-10 -1l-22 -5l-19 -8l3 -22l9 -12l-11 -16l13 -20l-2 -15l-2 -9l4 -16l-10 -11l2 -18l3 -15l-1 -18l-2 -16l1 -15l14 -13l23 -2l4 5l15 -5l13 -2l26 8l8 -8l13 6l18 -3l22 -1l4 3h23
l14 -5l23 7l2 -5l18 6l14 -1l21 -3h10l12 -3l21 -14l-1 -9l4 -13l-3 -19l1 -16l-19 -15l-26 1l-10 -14l-10 -5l-10 -18l-2 -5l-19 -10l-10 -15l10 -12l-2 -33l9 -12l13 -10l21 2l19 -12l13 -14l-8 -17z" />
    <glyph glyph-name="eogonek" unicode="&#x119;" horiz-adv-x="530" 
d="M397 276l-3 17l-9 9l-5 16l-12 15l-13 12l-5 3l-8 15h-10l-16 6l-13 3l-21 11l-32 -6l-3 -3l-28 -7l-2 -2l-17 -7l-9 -9l-12 -6l-6 -13l-14 -11l-5 -16v-10l-17 -15l24 -16l7 1l16 4l11 -3l18 -1l18 -2l22 8l12 -4l15 3l12 1l21 -5l11 -2l21 2l9 5l17 -9l10 4zM264 -15
l-14 5l-13 1l-23 5l-8 2l-21 6l-15 8l-16 6l-16 24l-9 4l-11 14l-21 12l-11 6l-8 17l-11 25v10l-15 22v14l-5 13v16l-8 15l6 31l-1 12l3 19l3 7l4 19l6 15l13 12l4 16l3 11l4 16l22 6l9 17l-2 9l20 9l5 12l34 18l12 5l7 6l17 -3l17 3l21 11l6 2l31 -1l12 -6l11 3l17 -12
l11 4l18 -12l20 -4l5 -3l10 -8l17 -10l12 -10l11 -16l12 -8l8 -10l11 -10l8 -30l14 -18l-5 -14l4 -17l14 -7l-9 -16l1 -18l7 -34l-21 -15l-18 -8l-11 2l-20 1h-15l-11 3l-10 -7l-13 2l-27 6l-15 -8l-15 4l-15 2l-12 1l-16 2l-9 -3h-25l-3 3l-19 -9l-13 1h-26l-11 3l-14 3
l-12 -14l12 -21l-3 -14l10 -12l17 -6l8 -15l12 -11l7 -2l13 -7l23 -15l13 -3l14 4l19 -7l27 4l10 1l21 7l16 6l6 10l9 4l12 14h36l-1 -21l21 -5l9 -15l-2 -20l-7 -13l-19 -11l-17 -17l-2 -7l-8 -18l-22 -6l4 -9l-15 -19l-12 -12l4 -12l-3 -14l1 -27l3 -17l12 -9l32 5l11 1
l25 -11l-6 -16l7 -10l-10 -20l-7 -6l-20 -7l-12 5l-42 -5l-2 -1l-23 6l-4 9l-14 12l-17 7l-6 15l-7 12l-1 6l2 30l-2 13l7 18l-1 18l6 3l11 13l18 14l2 15l-5 5l-18 -3z" />
    <glyph glyph-name="Ecaron" unicode="&#x11a;" horiz-adv-x="566" 
d="M502 -2l-28 -2l-4 5l-21 -5l-20 2v2l-23 4l-13 -3l-18 -5l-16 7l-30 -5l-18 6h-2l-19 -6h-18l-7 -3l-22 9l-17 -7l-17 3l-6 -5l-12 7l-22 -7h-11l-24 2l-4 4l-26 3l-4 13l-8 15l7 17l-7 15l9 7l-5 13l-7 15l7 24l2 6l-5 16l9 23l-6 8l-7 17l2 15l1 19l9 10l-7 17l4 18
l1 14l-8 15l8 8l-7 22l7 9l-6 20l9 16l-6 13l-6 10l10 18l-4 16l-7 17l12 13l-7 17l-3 11l3 11v17l8 16l-12 11l3 23l1 7l5 17l-2 22l2 7l-4 21l-2 10l-1 17l25 19l7 -7l23 2l4 2l22 -5l9 -1l16 5l20 1l17 -6l3 5l26 2l6 -7l20 7l14 -2l11 -3l19 4l7 -2l15 4h38l17 -5l6 4
l14 -3l21 1l15 4l18 -8l4 7l22 -20l-1 -16l-2 -7l-1 -21l5 -9l-24 -16l-8 4l-17 -7l-9 6l-24 1l-7 -1h-21l-17 1l-13 1l-7 -6l-18 3h-18l-15 -4l-36 7l-17 -7l-7 6l-21 -4l-18 3l-12 -3l-5 -17l-6 -6l-4 -18l8 -12l-6 -24l4 -5l-1 -24v-11l5 -12l-4 -13l3 -20l-10 -11l7 -19
l6 -11l14 -1l20 -5l22 3l14 1l6 4l19 -7l17 8h10l17 -8l19 8l14 -3l5 -1l16 -1l23 -4l7 8l17 -3l23 3l12 -7l10 -8l4 -13l-2 -13l-5 -21l3 -9l-19 -20l-1 5l-25 -3l-16 3l-12 -4h-8l-23 -2l-16 2l-9 3l-14 -3l-13 6l-15 -3l-17 3l-23 -6l-9 3l-10 3l-20 -4l-19 -1l-16 1
l-14 -19l11 -9l-13 -17l12 -19l-2 -16l-7 -6l6 -17l-4 -20l5 -15l-10 -14l7 -10l1 -24l6 -8l-11 -21l22 -8l7 -7l16 5l13 -6l26 5l4 -4h17l25 3l18 3l13 2l9 -7l23 1h16l5 4l20 -1l7 -6l18 3l22 2l9 -4l15 7l26 -14l-11 -18l-1 -18l6 -11l-7 -10zM430 919l13 -16l4 -17
l7 -18l-21 -5l-13 -10l-1 -15l-20 -11l-3 -7l-11 -12l-19 -1l-3 -14l-13 -10l-17 -6l-11 -7l-7 -19l-19 7l-21 10l-8 3l-11 13l-15 6l-2 18l-8 3l-14 15l-14 8l-10 3l-8 17l-23 10l-4 6l3 24l2 10l11 14h28l9 -14l4 -2l22 -10l5 -6l17 -9l9 -11l24 -16l24 -7l6 11l17 10
l18 10l12 6l-2 14l29 19l15 9z" />
    <glyph glyph-name="ecaron" unicode="&#x11b;" horiz-adv-x="530" 
d="M402 279l-7 14l-12 17l-8 5l-6 13l-12 11l-6 8l-16 10l-9 6l-14 11l-16 1l-9 6l-26 -5h-16l-12 -7l-25 -6l-10 -9l-11 -4l-9 -14l-12 -2l-7 -15l-4 -9l-3 -14l-9 -17l5 -19l20 9l10 -1l28 -1l16 -5l4 4l17 -5h17l22 -1l12 4l12 -1l10 5l18 -5l20 5l13 -1l24 -3zM462 51
l-12 -12l-21 -7l-14 -8l-13 -6l-3 -4l-16 -7l-12 -7l-19 -7l-7 2l-20 -6l-19 -3l-14 3l-33 2l-18 4l-10 1l-17 5l-6 1l-12 9l-28 1l-10 7l-13 6l-10 12l-13 7l-7 12l-16 15l-9 8l1 18l-21 24l-5 13l-3 14l-16 10l7 22v17l-1 16l-2 28l-11 16l16 13l-9 9l5 16l11 22v10l14 15
l8 10l11 11l6 10l7 20l17 7l8 5l5 10l25 24l21 1l5 4l27 2l8 9l8 -1l20 5l34 3l18 -4l15 -5l3 2l15 -11l16 -1l20 -5l5 -7l22 -13l2 -5l17 -13l15 -12l4 -5l7 -20l11 -6l15 -24l4 -16l8 -18l4 -18l-2 -10l11 -21l2 -8v-33l-28 -27l-17 9h-25l-9 -8l-23 1l-20 4l-13 -1l-12 4
l-22 -1l-9 -5l-10 3l-21 -1l-9 -1l-24 3l-11 -3l-20 5l-13 -4l-19 -5h-13l-14 4l-12 5l-11 -22l11 -8l4 -19l1 -10l14 -9l13 -13l4 -14l21 -3l2 -7l15 -7l14 -4l22 -5l31 -5l6 5l17 6l15 -4l15 7l19 7l5 4l20 5l12 9l18 1l8 -13l13 -10l12 -11zM401 675l8 -7l5 -16l2 -16
l-10 -13l-12 -11l-15 -5l-10 -7l-15 -12l1 -8l-17 -10l-16 -12l-6 -7l-19 -13l-2 -11l-7 -10l-37 3l1 8l-17 11l-3 8l-25 14l-3 11l-19 10l-8 7l-2 12l-14 5l-17 11l-2 4l-20 10l-1 28l10 5l6 18l30 4l14 -15v-8l18 -7l17 -8l3 -14l16 -8l17 -2l9 -11l22 3l17 8l2 7l11 7
l17 9l11 11l8 5l8 13l15 4z" />
    <glyph glyph-name="Gcircumflex" unicode="&#x11c;" horiz-adv-x="752" 
d="M709 308l1 -21l7 -13l-1 -17l-9 -12l-8 -14l1 -15l-12 -17l4 -9l-16 -19l1 -11l-6 -11l-11 -17l-2 -7l-10 -17l-6 -10l-21 -11l-13 -8l-15 -21l-12 -5l-6 -9l-29 -17l-15 -10l-17 -6l-11 -5l-22 -1l-10 -3l-17 -8l-16 -2h-9l-27 -6l-20 -1l-21 1l-19 11l-9 -1l-14 -3
l-21 7l-17 3l-6 4l-21 8l-14 9l-1 5l-27 1v12l-12 14l-22 1l-12 13l-13 12l-6 10l-6 6l-19 12l-2 16l-5 12l-10 12l-12 26l-4 16l-17 9l5 21l-17 17l6 10l-6 14l-8 15l-4 13l7 18l-2 18l-6 31l6 13l5 19l2 10l4 14l1 23l4 12l7 10l4 15l2 15l9 13l4 14l3 14l11 10l2 14
l21 15l8 8l13 16l-2 9l18 7l17 11l-1 16l24 7l26 14l6 2l16 11l15 8l12 1l22 7l17 3l13 1l17 -3l8 2l17 2l35 6l9 1l13 -1l13 -4l15 -3l13 -2l22 -8l19 -4l10 1l15 -10l10 -1l29 -11l17 -10l10 -8l16 -9l10 -8l14 -5l16 -16l-9 -18l-9 -9l-10 -15l-13 -7l-6 -12l-18 1
l-15 12l-14 1l-16 16l-8 -1l-15 8l-7 7l-19 4l-3 7l-27 8l-2 -4l-20 9l-21 -1h-18l-10 -2l-21 1l-27 5l-16 -7l-5 -3h-13l-22 -11l-15 -9l-5 2l-20 -16l-12 -1l-4 -14l-13 -7l-16 -19l-9 -10l-3 -13l-9 -10l-20 -24l-3 -15l-1 -21l-8 -7l-6 -20l-4 -16l-6 -17l4 -9v-36
l5 -18l-10 -13l12 -10l6 -18l-1 -18l10 -11l-1 -10l7 -18l12 -17l2 -5l11 -13l10 -16l6 -13l19 -8l4 -9l11 -14l21 -13l22 -6l3 1l20 -12l8 -3l14 -2h24l9 -6l39 -2l8 8l23 -4l12 4l11 12l20 1l14 10l3 6l19 4l6 14l24 10l-1 12l21 13l13 17l5 14l9 12l6 14l4 16l9 22l-18 7
l-16 5h-22l-27 -1l-4 2l-13 1l-27 -2l-5 -1l-25 -1l-11 1l-12 2l-24 -1l-6 1l-12 11l-7 11l1 14l4 23v11l8 14l23 -1l12 1l20 -4h3l17 4h27l16 -5l10 6l20 -5h14l17 -2l4 4l19 -1l15 -1l17 1l12 3l23 -2l15 -1l3 1l16 -6l13 -15zM386 921l19 -12l15 -10l2 -8l14 -11l6 -15
l16 -2l7 -15l15 -10l11 -7l12 -11l9 -6l9 -13l1 -19l-7 -16l-4 -8l-29 1l-12 10l-3 1l-20 14l-9 3l-16 8l-9 11l-7 12l-19 5l-12 -2l-14 -7l-14 -2l-15 -10l-12 -7l-15 -9l-13 -9l-1 -13l-11 -5l-23 -1l-10 11l-17 10l12 27l12 5l9 9l3 11l19 6l6 16l17 7l1 8l18 16l11 1
l8 9l13 15l16 7z" />
    <glyph glyph-name="gcircumflex" unicode="&#x11d;" horiz-adv-x="587" 
d="M221 86l19 -12l7 3l22 -5l25 1l23 -3l7 3l39 13l2 18l15 6l6 9l17 17l13 25l10 14l5 20l-10 12l13 31l-2 14l-13 16l6 11l-19 12l-7 20l3 9l-13 13l-5 10l-20 10l-17 13l-22 2l-6 4l-14 8l-57 -4l-2 -7l-21 -6l-16 -5l-11 -6l-7 -11l-18 -12l-6 -12l-14 -31l-4 -13l4 -14
l-6 -23l1 -31l-7 -12l6 -20l1 -16l6 -13l21 -10l-2 -11l10 -18l14 -2zM408 -186l-14 -12l-13 -1l-16 -1l-23 -10l-9 -2l-18 6l-12 -7l-27 5h-34l-11 -2l-15 4l-23 1l-3 2l-27 11l-25 11l-9 11l-9 1l-20 7l-12 11l3 30l3 8l19 11l5 22h23l4 -14l18 -6l15 -4l15 -11l18 -9
l18 2l6 -7l25 4l6 -6l29 -4l23 8l17 3h7l19 -1l7 11l22 7l16 4l5 10l15 13l-5 9l11 12l1 17l7 17l1 24l-3 16l-5 12l12 20l-10 11l4 13l-14 8l-8 -12v-13l-12 -15l-6 -2l-21 -11l-3 -14l-18 -8l-18 3l-14 -9l-14 -4l-8 2l-23 -1l-19 -3l-13 4l-20 -7l-13 3l-13 8l-17 4
l-7 11l-23 6l-3 5l-10 6l-12 19l-22 6l-3 11l-16 14l-1 8l-9 29l-17 11l-6 15l-1 15l4 15l-12 16l9 17l-7 34l1 15l-2 15l14 9l4 19l-4 16l3 15l6 9l22 11l-4 19l14 11l3 6l19 14l16 9l-1 14l30 15l14 -1l12 5l10 13l22 -4l14 2l8 8l36 -3l17 -7l7 2l22 -5l15 -2l9 -7l18 -9
l7 -7l10 -9l19 -13l10 -12l2 7l8 22l2 11l13 14l21 4l30 -3l16 -10v-12l5 -22l-1 -12v-16l2 -14l1 -15l-8 -16l-5 -17l5 -6l3 -22l2 -8l-9 -21l4 -10l8 -21l-2 -10v-18l1 -15l-2 -14l-8 -18l6 -13l3 -11l-8 -12l-2 -18l3 -17l4 -16l1 -17l-4 -11l-4 -12v-13l6 -29l-1 -20
l-4 -13l-7 -19l-1 -13l-3 -11l-2 -18l-7 -14l-11 -14l-11 -8l-7 -10l-4 -7zM281 686l19 -12l15 -10l2 -8l14 -11l6 -15l16 -2l7 -15l15 -10l11 -7l12 -11l9 -6l9 -13l1 -19l-7 -16l-4 -8l-29 1l-12 10l-3 1l-20 14l-9 3l-16 8l-9 11l-7 12l-19 5l-12 -2l-14 -7l-14 -2
l-15 -10l-12 -7l-15 -9l-13 -9l-1 -13l-11 -5l-23 -1l-10 11l-17 10l12 27l12 5l9 9l3 11l19 6l6 16l17 7l1 8l18 16l11 1l8 9l13 15l16 7z" />
    <glyph glyph-name="Gcommaaccent" unicode="&#x122;" horiz-adv-x="752" 
d="M397 -59l17 -6l19 -6l2 -9l6 -20l1 -32l-8 -9l-8 -12l-2 -23l-14 -17l-10 -10l-6 -16l-8 -19l-2 -13l-17 -3l-16 -5l-19 9l-3 18l3 6l4 19l13 13l-4 12l10 11l-4 23l-11 13l-11 7l1 31l15 19l-4 3l15 16h41zM709 305l7 -12l1 -22l-13 -9l4 -20l-3 -12l-13 -13l4 -19
l-8 -14l-5 -7l-3 -20l-13 -9l-12 -15l5 -5l-16 -15l-12 -15l-11 -8l-6 -14l-11 -6l-19 -13l-11 -6l-1 -10l-34 -11l-7 -10l-14 -6l-18 -4l-17 -3l-21 -7l-1 -1l-24 -10l-18 3l-11 -7h-30l-20 9l-12 -1l-8 6l-19 -4l-24 5l-1 8l-27 6l-5 3l-12 6l-11 6l-21 5l-13 12l-5 2
l-16 8l-16 12l-15 11l-5 7l-2 19l-20 10l-7 6l-5 12l-4 12l-25 30l1 13l-7 17l-8 11l-3 17l-12 14l9 21l-17 12l10 19l-10 13l9 11l-2 37l-6 14l4 12l4 13l4 19l-7 17l15 12l5 14l-5 14l16 15l7 14l2 18l6 14l2 12l8 4l20 12l13 18l10 8l6 13l24 16l9 11l18 9l14 13l18 12
l20 3l9 5l10 5l21 2l14 8h8l27 8l17 1l6 -5h26l21 7l20 -5l17 -2l13 -2l8 -1l37 -4l18 -6l11 -5l12 -8l5 -1l26 -7l1 -10l17 -7l12 -15l9 -1l18 -10l17 -14l-1 -20l-15 -11l-3 -11l-11 -7l-15 -13l-27 -5l-9 12l-1 6l-24 17h-10l-11 9l-6 7l-16 2l-22 6l-10 8l-8 2l-25 2
l-17 -1l-3 7l-27 -6l-31 6l-7 -3h-22l-13 -5l-16 -4l-8 -10l-10 -5l-17 -9l-11 -3l-22 -11l-8 -9l-15 -16l-12 -10l-10 -4l-2 -18l-3 -8l-19 -35v-10l-17 -12l1 -19l-7 -11l-1 -17l5 -14l-14 -16l9 -38v-27l4 -18l4 -14l-4 -16l9 -7l8 -16l1 -19l19 -11l-1 -12l14 -14l1 -10
l11 -8l16 -15l10 -9l16 -7l18 -20l23 2l8 -6l9 -11l13 -2l12 -7l23 5l12 -1h29l16 1l21 -3l6 2l23 12l5 -1l13 10l21 8l14 6l12 11l6 8l14 17l8 7l17 22l7 12l10 17l9 17l1 13v19l-2 12l-23 1l-4 -7l-25 5l-15 -1l-9 1l-13 4l-25 -5l-13 4h-7l-23 1l-19 -1l-13 -5l-15 3
l-15 13l8 17l-5 15l-1 6l1 13l15 21l12 -2l26 -4h9l16 -1l9 1l14 3l23 1l15 3l20 -3l12 -5l10 7l22 -4l15 -2l18 7l3 -4l25 1l12 -5l21 6l10 -5h11l7 -24z" />
    <glyph glyph-name="gcommaaccent" unicode="&#x123;" horiz-adv-x="587" 
d="M224 83l19 -7l18 -4h2l39 -4l13 7l13 2l21 11l1 5l18 2l7 12l21 14l5 15l10 21l10 16l9 14l-7 21l4 27l2 19l-11 15l4 9l-4 12l-5 18l-9 15l-7 8l-18 13l-9 2l-22 21l-23 2l-4 1l-27 2l-19 9l-27 -6l-7 -2l-11 -12l-14 -3l-21 -11l1 -13l-34 -19l-1 -26l-19 -18l5 -14
l-4 -18l-4 -35l11 -7l5 -16l-8 -24l17 -12l5 -16l9 -11l12 -13l6 -9zM415 -187l-20 -9l-11 -1l-19 -7l-21 -6l-5 1l-15 2h-15l-35 -8l-14 5l-16 2h-16l-10 2l-23 3l-8 5l-29 9l-18 4l-4 15l-19 7l-20 4l-1 8l-9 31l20 20l3 15l32 6l13 -14l1 -4l12 -4l15 -15l30 -6l16 -8
l12 1l15 -2l6 -3l30 -1l18 3l23 1l15 7l12 7l8 -1l20 10l7 8l14 7l14 16l3 6l7 18l-3 16l2 11v31l5 9l9 15l-9 15l-1 16l8 13l-8 1l-10 -6l-14 -11l-9 -10l-8 -16l-20 -9l-11 -10l-16 -1v-5l-17 -9l-24 -6l-5 2l-17 2l-29 -8l-13 2l-9 2l-22 8l-20 5l-7 4l-11 9h-19l-10 15
h-5l-18 16l-13 9l-11 13v11l-15 8l-3 28l-16 19l-8 11l1 18l-6 16l-4 13l12 18l-7 27l4 10l5 17l-6 13l13 18l-1 20l2 8l5 16l15 14l6 9l8 19l4 8l11 9l9 9l22 13l22 10l9 12l14 7h21l15 7l4 -1l17 -3l35 -1h24l23 -2l5 -4l17 -6l19 -5l26 -33l7 -7l25 4l-10 17l7 14l25 20
l25 -4l17 2l17 -20v-7l-5 -15l1 -18l8 -19l-5 -7l3 -20v-9l-8 -22l10 -10l-4 -13l-5 -14l6 -14l2 -15l1 -15l-10 -17l6 -14l3 -16l-10 -13l2 -17l4 -19l-6 -16l13 -14l-12 -7l-2 -17l8 -14l-5 -14l3 -15l1 -20l-6 -11l10 -30v-14l-13 -14l3 -20l-5 -17l-5 -12l1 -18l-11 -6
l-11 -19l3 -7l-12 -10l-24 -3l-14 -8z" />
    <glyph glyph-name="Hcircumflex" unicode="&#x124;" horiz-adv-x="738" 
d="M627 1l-13 -6l-16 4l-18 -4h-14l-19 21l-2 11l8 19l-6 17l-4 7l3 15l-1 17l3 19l-4 9l-1 20v17l1 15l3 14l-3 15l4 8l3 16l2 17l-10 14l6 16l-4 14l-14 16l-13 -1l-22 3l-3 -7l-25 8l-8 -4l-10 -2l-15 7h-19l-20 -9l-12 2l-22 5l-7 -1l-18 -2h-33l-16 -1l-1 -2l-22 7
l-11 -6l-14 6l-19 -8l-16 5l-13 -19l4 -9v-21l-10 -15l11 -6l-12 -15l11 -23l-1 -9l-9 -13l5 -16l7 -17l-10 -12l6 -17l-9 -19l-1 -12l12 -11l-12 -19l9 -10l-9 -18v-18l-4 -11l-15 -3l-26 -3l-14 7l-15 -2l-20 12v13l8 14l-4 18l5 11l-1 15l-6 23l11 9l-11 19l1 12l2 13
l-6 18l4 16l10 16l-11 9l7 19v10l-7 18l-3 16l6 16l8 17l-8 12l3 17l-4 12l-1 18l7 8l-3 19l-7 12l10 16l3 17l-6 14l-3 13l1 13l5 23l-8 13l11 13l-4 18l-6 10l-4 18l11 10l-11 18l13 18l-8 13l-2 11l1 22l24 10l16 2l15 -1l17 -4l8 7l18 -21l-6 -9l9 -20l4 -14l-9 -10
l-5 -16l5 -19l5 -14l-10 -20l3 -11l9 -11l-1 -24l-5 -13l7 -18l-10 -8l2 -16l-3 -14l7 -18l13 -15l16 -5l17 4l11 3l9 -3l14 -4l24 4l5 3l18 -3l25 2l9 3l18 -4l18 -1l5 -1l12 1l20 -2l18 5l11 -2l14 2l11 -1l22 -1l18 -3l18 -1l4 18l6 14l3 16l2 12l-6 15l-7 22l2 8l-1 18
l5 17l5 11l-3 23l2 8l-9 24l6 7l-2 19l-2 18l2 8l-4 22l23 8l12 9l19 -1l12 1l15 -1l19 -23l-1 -13l-1 -10l1 -19l-5 -17l-1 -9l1 -12l4 -20l-5 -12l5 -14l9 -20l-14 -17l11 -11l-11 -15l14 -14l-3 -15l-9 -11l4 -21l1 -15l-3 -9l6 -15l-3 -15l-4 -22l4 -9l2 -20l-8 -16
l4 -9l5 -13l-6 -19l3 -16l4 -19l-8 -7l11 -20l-11 -17l11 -15l-2 -10l-11 -18l3 -14l-2 -14l4 -10v-19l-4 -14l12 -17l-13 -10l5 -21zM385 916l12 -9l7 -9l2 -14l16 -9l11 -9l8 -10l14 -1l20 -22l9 -9l25 -6l1 -11l3 -29l-23 -18l-20 -3l-6 9l-8 5l-12 7l-14 8l-9 11l-22 9
l-7 13l-11 11l-20 -3l-19 -13l-16 -7l-5 -4l-15 -8l-10 -16l-15 -5l-1 -10l-17 -8l-28 6v9l-9 12l-3 20l12 14l5 3l13 10l16 16l7 3l8 7l23 12l3 15l14 10l8 3l19 15l13 8z" />
    <glyph glyph-name="hcircumflex" unicode="&#x125;" horiz-adv-x="558" 
d="M146 1l-2 3l-26 -3l-9 -4l-18 -2l-12 17l-6 19l8 9l-7 17l4 19l-6 15l3 13l3 19l6 16l-12 10l10 20l-11 10l1 17v11l9 22l-6 8v19l10 9l-1 22l-8 13l-3 15l5 13l6 14l-7 13l2 17l-4 20l2 8l6 16v15l-7 23l6 8l3 20l-14 8l7 24l-5 6l6 17v21l-2 12l-4 11l10 22l-1 12
l-3 11l-4 23l5 7l-3 22l-1 8l16 23l10 -9l14 8l27 -8l10 4l15 -18l-4 -10l4 -12l-6 -16l10 -18l-3 -11l6 -17l-9 -19l6 -10l4 -15l-11 -20l2 -9v-14l-4 -21l5 -6l2 -17l5 -18l-2 -15l-7 -13l-3 -17l6 -17l2 -3l17 11l15 16l6 7l8 9l24 6l7 6l17 7l11 7l16 1h3l43 2l5 -5
l15 3l23 -12h12l14 -9l2 -2l24 -13l9 -9l-1 -9l19 -16l-3 -8l7 -12l13 -18l8 -13l2 -18l2 -13l-1 -16l1 -9l-7 -34l3 -13l3 -17l-2 -12l-2 -18l2 -13l4 -18l5 -6l-13 -20l12 -18v-8l-3 -17l-3 -11l6 -17l-1 -16l-9 -13l10 -20l-22 -13l-20 2l-16 -3l-7 5l-15 -5l-22 15l7 21
l-7 15l-1 14l7 11l-7 21l9 13l5 17l-1 5l1 16l-1 16l-11 16l1 12v34l8 11l-6 31l-2 15l-9 17l-3 12l2 15l-12 19l-5 5l-22 15l-8 4l-10 9l-25 -2l-29 -1l-16 1l-14 -6l-6 -9l-12 -12l-22 -4l1 -11l-23 -17v-10l-17 -30l-1 -8l10 -15l3 -15l-3 -21l-5 -10l5 -18l1 -11
l-12 -14l12 -18l-3 -15l-3 -9l3 -19v-30l-9 -10v-13l3 -16l6 -13zM291 923l5 -8l6 -9l15 -9l8 -8l10 -15l13 -9l23 -6l1 -9l10 -15l12 -6l17 -11l12 -5l-8 -29l-3 -7l-5 -11l-26 -5l-12 13l-15 2l-12 12l-5 12l-21 6l-10 8l-4 10l-24 5l-23 2l-12 -10v-11l-11 -3l-17 -7
l-9 -10l-8 -9l-17 -14l-15 -2h-23l1 16l-20 8l10 19l3 7l9 12l16 16l6 5l10 9l17 6l16 16l11 10l15 10l-3 1l24 15l3 8h30z" />
    <glyph glyph-name="Imacron" unicode="&#x12a;" horiz-adv-x="287" 
d="M168 -4l-12 -1l-11 6h-21l-15 -6l-13 18l3 16v12l-8 17l1 11l5 23l-5 9l4 15l1 19l6 17l-9 16l-4 8l6 21l1 12l5 18l-11 15l1 10l6 11l-9 18l6 18l4 13l-5 12l3 18l-6 17l3 12l-4 15l12 18l-9 10l9 16l-2 19v14l-1 14l-10 12l12 17l-11 19l1 9l11 21l-12 14l13 11l-9 11
l6 18l-8 15l11 16l-10 10l2 20l23 16h4l25 -1l17 1l11 -4l19 -15l-4 -10l-5 -16l3 -17v-9l6 -15l-5 -16l4 -18l-5 -18l10 -14l-7 -10l-7 -14l8 -23l-1 -13l3 -17l1 -12l-3 -15l-1 -13l-3 -18l10 -10l-10 -16l8 -14l-1 -20v-15l-7 -12l7 -19l-10 -9l10 -15l1 -20l-5 -7l5 -18
l2 -17l-14 -17v-8l13 -20l-12 -13l13 -19l-6 -15l2 -10l-4 -20l-2 -8l3 -22l-3 -12l10 -11l-9 -19zM35 857l16 8l14 -6l8 2l18 -4l10 2l23 -1l11 4l15 -5l9 7l28 -5l5 -1l22 2l13 4h8l15 -7l16 -9l1 -19l7 -13l-3 -13l-16 -15l-21 3l-14 3l-4 -9l-26 4l-10 2l-16 -1l-17 -5
l-7 8l-12 -5l-28 6l-10 -8l-16 -1l-13 8l-21 -8l-9 2l-14 15l7 19l-3 10l-7 12z" />
    <glyph glyph-name="imacron" unicode="&#x12b;" horiz-adv-x="247" 
d="M98 446h43l15 -1l19 -15l-7 -16l8 -12l-9 -9v-22l-5 -8l3 -22l8 -12l2 -18l-8 -16l2 -16v-10l-3 -19l6 -12l1 -9l-9 -20l7 -17l2 -12l-2 -20l-9 -10l9 -20l2 -11l-9 -18l3 -13l9 -17l-1 -9l-4 -17l5 -18l-13 -9l-10 -23l-14 6l-22 1l-11 -6l-20 8l-9 10l-4 16l10 12
l-8 15l10 21l-11 12l10 16l1 9l-5 21l2 13l-4 14l-2 21v13l-4 13l11 16l-3 11l-6 19l8 8l2 17l-8 20l2 9l-5 20l7 14l1 15l-3 16l5 10l-5 17l7 15l-7 20zM15 623l10 -2l20 9l15 -9l13 8h35l15 -1h12l12 -7l9 6l23 -4l29 -2l7 2l23 6l16 -21l-4 -15l6 -13l1 -11l-28 -16
l-5 -2l-12 4l-24 -4l-19 2l-11 1l-14 -3l-15 3l-10 -1h-14l-12 5l-18 1l-22 -1l-12 -2l-17 -5l-13 6l-21 7l4 16l7 21l-2 8z" />
    <glyph glyph-name="Ibreve" unicode="&#x12c;" horiz-adv-x="287" 
d="M172 -1l-17 5h-15l-13 -1l-14 -3l-12 16l-10 11l2 19l6 9l-8 17l1 18v33l6 6l-6 16l-3 18l3 18l-1 16l2 15l-1 7l9 14l-2 16l3 20v15l-10 11l5 20l4 10l-2 18l-1 14l4 13l-7 21l-6 13l8 12l1 20l-6 8l11 20l-9 17l-2 9l8 20l2 15l-9 12l8 11l-8 13l10 20l-12 18l6 13
l-6 14l11 13l-8 12l-2 16l21 15l7 1l17 3l16 1l29 -7l9 -14l-1 -9l3 -15l-1 -18l-8 -15l2 -13l-1 -13l8 -21l2 -15l-11 -13v-10l1 -20l4 -15l-4 -11v-18l12 -16l-2 -12l-2 -20l-5 -10l5 -13l-7 -14l6 -22v-8l3 -18l-5 -11v-18l7 -13l-13 -22l8 -10l-8 -17l6 -17l-2 -13l2 -9
l5 -17l-8 -20l10 -8l-7 -20l-5 -16l5 -12l5 -16l-5 -15l1 -9l7 -16l-6 -14l-1 -17zM89 888l-7 -18l5 -17l3 -11l21 -21l17 -4h33l9 1l7 13l11 12l4 11l3 19l6 21l14 -1l13 5l23 -1h3l25 -6l-5 -26l-9 -20l7 -7l-9 -14l-5 -13l-13 -15l-13 -14l-9 -4l-4 -7l-26 -12l-5 -5
l-10 -6l-15 4l-31 -1l-22 4h-16l-2 4l-22 4l-15 14l-9 11l-12 6l-4 11l-11 20l-5 14l-3 12l1 15l-3 18l15 15l10 2l20 -8l13 7z" />
    <glyph glyph-name="ibreve" unicode="&#x12d;" horiz-adv-x="247" 
d="M93 448l11 1l25 -1l10 -3l10 -1l25 -11l-3 -10l-2 -18l-3 -19l-1 -16l9 -7l-2 -15l-6 -17l5 -17l-1 -19l-3 -7v-23l1 -16l-6 -8l11 -15l2 -17l-9 -18l8 -14l-5 -16l5 -8l2 -19l-1 -16l-1 -18l-12 -14l5 -16l-3 -6l8 -16l-2 -16l1 -18l-14 -18l-16 7l-11 -3l-21 -2l-14 4
l-20 11v14l-4 15l9 15l1 18l-3 19l-3 6l1 18l8 18l-12 11l5 17l3 12l-4 21l6 15l2 8l-4 14l5 15l-12 20l-1 10l2 15l10 23l-3 9l-5 16l8 13l-12 20l-1 12l9 16l-1 18l-1 17zM70 653l-7 -18l5 -17l3 -11l21 -21l17 -4h33l9 1l7 13l11 12l4 11l3 19l6 21l14 -1l13 5l23 -1h3
l25 -6l-5 -26l-9 -20l7 -7l-9 -14l-5 -13l-13 -15l-13 -14l-9 -4l-4 -7l-26 -12l-5 -5l-10 -6l-15 4l-31 -1l-22 4h-16l-2 4l-22 4l-15 14l-9 11l-12 6l-4 11l-11 20l-5 14l-3 12l1 15l-3 18l15 15l10 2l20 -8l13 7z" />
    <glyph glyph-name="Iogonek" unicode="&#x12e;" horiz-adv-x="287" 
d="M189 -194l-23 -8l-44 -3l-15 2l-21 5l-6 6l-14 13l-8 7l-5 10l-12 13l-1 11l1 31l-4 19l11 8l5 21l7 8l14 14l6 9l6 8l12 8l9 15l-11 15l-5 8l-1 19l10 10l1 16l-11 20l-1 13l4 15l7 15l-8 18l4 12l1 11l-6 14l2 21l-4 8l9 18l-2 14l2 14l-1 18l-7 17l6 14l2 18l-5 14
l8 11l-7 11l-5 19l9 11l4 16l-2 14l-10 24l2 12l4 12l4 19l2 8l-1 14l2 22l-2 11l-8 17l-3 17l2 10l2 16l2 14l-7 19l14 10v21l15 8l11 -1l9 9h22l9 -8l18 -7l-1 -15l-1 -16l12 -16l-12 -36l2 -9v-16l3 -15l8 -19l-13 -8v-30l2 -16l7 -14l-5 -18l-2 -11l1 -20l-4 -15l7 -17
l4 -8l-10 -14l11 -22l-1 -14l-2 -15l1 -8l1 -23l-1 -12l-1 -18l-4 -8l-4 -21l11 -17l-9 -6l-3 -20l10 -9l-8 -18v-13l3 -14l7 -15l-12 -15l13 -18l-13 -19l9 -24l-4 -20l-13 -25l-10 -7l-16 -2l-10 -18l-10 -5l4 -20l-9 -6l-11 -16l4 -25l10 -18l7 -8l25 2l30 -9l-7 -16
l7 -12z" />
    <glyph glyph-name="iogonek" unicode="&#x12f;" horiz-adv-x="247" 
d="M167 -200l-26 -2l-9 -3l-29 4l-13 2l-19 2l-17 1l-11 13l-5 15l-10 6l1 19l-7 11l-9 31l7 7l4 15l9 19l13 13l-2 5l17 14l2 11l21 6l-8 15l-1 6l6 21l-8 12l6 17l3 16l-1 11l-9 16l7 15l1 18l-2 13l3 15l-9 14l1 21l-1 11l12 12l-9 13l-2 17l11 20l1 8l-11 15l8 15
l-11 16l12 13l-11 23l6 12l-6 14l-1 19l11 13l-6 17l12 14l22 -5l6 4l17 -2l20 3l9 -16l10 -17l-2 -16l-1 -18l7 -8l-7 -20l-3 -13l6 -14l-9 -20l8 -8l-6 -22l4 -6l-5 -15l5 -18l-5 -19l6 -10l5 -12l-9 -16l7 -22l2 -16l-12 -15l6 -8l2 -20l2 -14l-8 -10l3 -15l5 -21l-9 -17
l2 -9l-12 -26l-6 -11l-22 -5l1 -13l-15 -6l-5 -16l-10 -11l-7 -16l8 -24l4 -19l10 -10l30 -2l28 -9l-5 -10l15 -17zM181 579l-12 -17l-4 -8l-16 -14l-5 -8l-36 6l-9 4l-29 17l-9 18l6 29l6 15l12 16l15 7l8 5l36 -1l16 -1l-2 -14l14 -10l9 -11v-33z" />
    <glyph glyph-name="dotlessi" unicode="&#x131;" horiz-adv-x="247" 
d="M93 448l11 1l25 -1l10 -3l10 -1l25 -11l-3 -10l-2 -18l-3 -19l-1 -16l9 -7l-2 -15l-6 -17l5 -17l-1 -19l-3 -7v-23l1 -16l-6 -8l11 -15l2 -17l-9 -18l8 -14l-5 -16l5 -8l2 -19l-1 -16l-1 -18l-12 -14l5 -16l-3 -6l8 -16l-2 -16l1 -18l-14 -18l-16 7l-11 -3l-21 -2l-14 4
l-20 11v14l-4 15l9 15l1 18l-3 19l-3 6l1 18l8 18l-12 11l5 17l3 12l-4 21l6 15l2 8l-4 14l5 15l-12 20l-1 10l2 15l10 23l-3 9l-5 16l8 13l-12 20l-1 12l9 16l-1 18l-1 17z" />
    <glyph glyph-name="IJ" unicode="&#x132;" horiz-adv-x="594" 
d="M170 308h-12l-8 5l-19 -2l-24 -3l-12 15l2 23l-1 10l6 19l-5 10l-2 20l6 13l-3 14l3 14l-4 18l1 13l-4 18l5 11l-10 10v22l8 10l1 18l2 17l-6 11v19l1 8l4 16l-3 17l-5 15l16 11l22 7l16 -5l17 2l14 1l10 -14l6 -16l1 -14l-4 -16l1 -14l5 -12l-3 -17l-5 -21l4 -9l-6 -14
l10 -14l-9 -19l10 -16l-8 -11l2 -13l7 -21l-4 -12v-14l-2 -18l5 -13l-11 -17l7 -17l-3 -16v-9zM510 674l4 -15l-3 -18l2 -19l1 -10l4 -15l-2 -18l-10 -15l8 -19l-7 -14l6 -12l1 -12l-1 -16l-4 -18l5 -19l-3 -8l5 -24l-7 -13l8 -10l-11 -14l7 -15l-1 -15l-8 -18l5 -20l-1 -9
l5 -13l-4 -20l-4 -14l4 -13l7 -23l-1 -7l-9 -38l8 -13l-8 -11l-6 -13l9 -21l-15 -14l6 -11l-13 -18l-1 -13l-8 -10l-20 -8v-17l-16 -5l-13 -8l-21 -5l-13 -11l-8 -3l-14 -4l-16 -5l-9 1l-20 -2l-32 3l-9 -2l-26 8l-3 1l-20 5l-16 1l-10 7l-21 7l-2 15h-26l-2 12l-22 14l3 19
l12 10l8 10l12 12l8 17l25 -1l9 -15l7 -12l16 -5l17 -4l17 -12l6 2l15 -2l37 -7l10 6l20 5l4 9l20 8l12 12l8 11v17l-2 11l4 16l5 21l6 29l4 13l-4 15l-7 14l2 20l2 17l4 12l-10 11l9 16l-1 20l-4 11l-1 21l7 13l-4 16l5 12l2 15l-11 10l9 19l2 16l-9 12l7 19l-10 13l10 14
l-9 20l10 12l2 18v24l-8 20l1 16l-2 18l23 8h8l14 6l13 -7l18 5z" />
    <glyph glyph-name="ij" unicode="&#x133;" horiz-adv-x="498" 
d="M86 450l21 -6l12 7l13 1l18 -8l12 -6l8 -20l-2 -14l3 -18l3 -15l1 -15l-9 -13l8 -14l-2 -11l-5 -15l4 -20l-7 -11l2 -15l8 -17l-12 -19l4 -12l7 -17l3 -13l-14 -18l7 -9l-1 -21l6 -13l-4 -10l4 -21l1 -14l-6 -12v-12l2 -20l1 -17l-26 -17l-9 6l-20 -1h-12l-17 2l-8 10
l4 22l-10 9l11 20l-7 16l-6 11l8 19l-7 14l9 15l-4 16l-3 13l-4 13l4 11l-3 22l5 14v14l-5 9l11 22l-12 15l6 15l-5 10l13 12l-2 19l-11 19l1 14v12l2 12l6 15v21zM346 451l15 -3l6 2l19 3l19 -9l22 -15l-14 -13l3 -16l-3 -13l9 -17l-1 -11l5 -16l-9 -17l8 -15l-2 -10
l-3 -16l7 -10l-9 -15l5 -15l-2 -15l5 -19l-12 -15l2 -11l7 -15l-5 -21l-4 -15l6 -14v-11l-4 -19l5 -8l-8 -22l12 -8l-9 -19l4 -15l1 -13l3 -11l-2 -24l-3 -27l-7 -17l4 -15l2 -14l-5 -10l-13 -14l-10 -14v-16l-18 -15l-4 -6l-18 -6l-5 -13l-25 -7l-8 2l-22 -6l-16 1l-30 1
h-10l-12 2h-14l-17 9l-17 4l-12 10l-7 8l-1 19l5 18l5 7l8 20l31 2l17 -12l14 1l6 -8l31 -3l21 5l9 10l14 15l8 10l-1 12l-4 13l11 15l4 27l-9 17l4 13l-2 22l8 9l-1 22l-9 13l9 11l-3 13l5 17v20l-11 16l6 16l3 14l-6 14l6 16l-8 13l-2 19l11 10l-1 13l-4 20l-1 16l-2 13
l-5 13l8 16l-4 11l-1 16l2 16l2 17l3 15l-10 18zM184 574l-17 -7l-8 -15l-5 -9l-20 -5l-34 -6l-3 7l-19 8l-8 21l-5 12l-6 33l19 12l4 6l18 13l12 6l33 -3l13 -6l6 -1l3 -14l13 -21zM435 576l-5 -16l-19 -12l-14 -4l-9 -11l-29 1l-15 5l-18 17l-2 3l-11 17l1 36l4 16l13 4
l11 9l17 11l31 -5l21 2l1 -13l15 -14l10 -10z" />
    <glyph glyph-name="Jcircumflex" unicode="&#x134;" horiz-adv-x="476" 
d="M388 668l4 -15l6 -12l-4 -19l-2 -18l5 -15l-3 -10v-19l1 -12l4 -13l-8 -19l-5 -16l8 -13l6 -15l-8 -12l-1 -17l6 -20l-11 -8l7 -19l2 -11l-9 -18v-17l12 -15l-9 -18l-2 -8l5 -22l5 -12l-2 -13l-8 -16l9 -14l-1 -13l-1 -37l-9 -8l3 -17l-8 -16l10 -20l-8 -9l-4 -19l-16 -9
l5 -14l-16 -17l-4 -8l-6 -6l-13 -17l-25 -9l-3 -4l-20 -9l-4 1l-28 -3l-4 -2l-34 -6l-31 3l-9 2l-23 -3l-17 5l-12 4l-15 6l-11 4l-13 11l-20 8v11l-17 7l-10 16l-3 16l2 16l17 8l6 6l9 12l25 -2l5 -9l15 -4l30 -20l11 -4l21 -4l3 -6l39 7l17 -4l4 4l23 13l13 7v12l9 13
l7 13l14 21l-4 8l6 23l-3 25l2 11l-1 17l5 20l-5 18l1 6l-4 22l-1 9l5 19v10l-6 22l6 13l-9 13l1 20l-1 11l10 15l-10 17l2 10l-1 19l11 19l-9 12l10 12l-11 16l2 19l6 9l-2 20l3 13l-5 17l-6 18l1 8l2 20l17 12l18 7l20 -4l7 2l15 2zM347 921l19 -12l15 -10l2 -8l14 -11
l6 -15l16 -2l7 -15l15 -10l11 -7l12 -11l9 -6l9 -13l1 -19l-7 -16l-4 -8l-29 1l-12 10l-3 1l-20 14l-9 3l-16 8l-9 11l-7 12l-19 5l-12 -2l-14 -7l-14 -2l-15 -10l-12 -7l-15 -9l-13 -9l-1 -13l-11 -5l-23 -1l-10 11l-17 10l12 27l12 5l9 9l3 11l19 6l6 16l17 7l1 8l18 16
l11 1l8 9l13 15l16 7z" />
    <glyph glyph-name="jcircumflex" unicode="&#x135;" horiz-adv-x="248" 
d="M90 452l19 -2l21 -5l11 7l17 -2l14 -15l4 -13l1 -16l-2 -14l-1 -17l-4 -15l-7 -11l8 -20l4 -11l-5 -14l1 -23l-5 -14l-3 -11l9 -17l3 -14v-17l1 -11l-1 -11l-11 -15l5 -21l-3 -15l10 -17l-1 -12l-9 -13l10 -17l-12 -16l10 -8l-3 -17l-5 -14l5 -21v-9l3 -13l-4 -36l1 -14
l-6 -16l-3 -12l-4 -21l-4 -8l-6 -10l-6 -20l-16 -8l-8 -10l-23 -12l-6 -3l-19 -12h-10l-13 -6l-15 -2l-30 5l-21 -1l-12 6l-11 7l-11 3l-14 6l-19 6l-17 8l7 24l7 7l10 15l7 18l18 3l19 -9l6 -6l23 -5l23 1l12 3l17 11l18 5l-1 16l4 10l6 18l2 16l9 24l-9 14l5 20l-2 15
l7 11l-1 22v12l-6 15l3 16l-5 12l-2 19l10 12l-6 19l-4 7l9 17v19l-1 18l-8 11l-2 16l12 14l-11 12l6 19l-3 10l-4 23l12 7l1 19l-12 11l12 20l-3 13l-11 13l4 17zM130 684l7 -16l9 -6l22 -10l3 -6l8 -14l24 -5v-10l16 -6l12 -15l9 -4l14 -17l15 -5l-8 -27l-11 -6l-13 -14
l-15 -7l-8 10l-21 12l1 13l-22 4l-5 6l-15 11l-16 10l-12 10l-12 -3l-17 -11l-15 -7l-5 -5l-10 -15l-15 -6l-17 -3l-12 -16l-16 -1l-21 1v11l-19 9l8 18l8 11l6 8l17 12l19 9l11 14l8 4l8 12l9 10l19 10l4 6l12 9l18 17z" />
    <glyph glyph-name="Kcommaaccent" unicode="&#x136;" horiz-adv-x="644" 
d="M356 -53l17 -12l6 -5l8 -12l6 -14l6 -30l-4 -13l-18 -11l-9 -33l-3 -12l-15 -15l-1 -11l-6 -17l-13 -14l-15 -6l-11 7l-21 1l-6 13l3 19l17 9l-2 14l3 16l3 7l-4 20l-6 17l-2 13l-5 29l1 10l12 13l17 10l15 6zM168 -2l-15 3l-13 -5l-19 7h-3l-18 7l-11 23l2 16l6 8l-6 20
l3 10l-3 19l5 15l-1 14l-1 10l1 21l-2 17l6 12l-8 9l3 15l-2 20l11 10l-10 22l-2 15l9 12v15l2 11l-12 21l10 11l-7 13l-4 19l9 17l5 10l-1 18l-10 13l-3 15l10 19l-2 6l-3 19l2 13v18l-3 15l8 12l2 15l-5 16l-2 16l6 17l-10 8l5 23l4 16l15 9l18 1l2 -1l26 1l18 -1l4 -17
l13 -11l-3 -20l-4 -14l-2 -13l-3 -16l12 -11l-7 -18l1 -12l-4 -12l10 -22l-10 -11l12 -18l-6 -12l1 -17l-2 -12l-3 -22l4 -10l16 -4l6 13l9 9l17 10l11 13l9 6l1 14l11 12l24 11l9 6l13 8l6 12l7 7l17 15l8 11l6 14l21 11l-2 6l20 12l16 12l-3 8l15 14l6 9l17 8l10 11l20 12
l15 6l19 6l6 -1l26 -3l7 4l18 2l12 -3l2 -8l-7 -19l-17 -1l-2 -20l-13 -9l-12 -6l-17 -8l-3 -9l-11 -18l-3 -12l-11 -5l-14 -9l-8 -17l-13 -4l-11 -13l-24 -21l-15 -7l-4 -14l-17 -5l-13 -12l1 -16l-10 -12l-21 -5l-11 -10l2 -15l-12 -10l-22 -5l-9 -11l2 -18l-9 -17l5 -5
l22 -14l6 -15l12 -3l3 -15l12 -9l7 -13l15 -6l5 -12l18 -16l7 -13l17 -5l9 -16v-11l20 -5l3 -9l22 -11l10 -11l-2 -16l13 -12l20 -7l11 -11l10 -13v-5l6 -12l15 -12l13 -5l5 -12l14 -13l18 -10l5 -12l4 -11l7 -8l-19 -6l-23 7l-11 -2l-9 -5l-22 4l-22 2l-17 8l-16 15l-15 11
l1 6l-11 10l-14 15l-11 9l-9 11l-15 3l-14 15l-8 10l-15 9l1 9l-18 10l-10 18l-7 8l-4 11l-21 8l-13 16l-12 5v10l-18 16l-11 3l-2 13l-15 8l-6 13l-18 16l-3 7l-13 -1l-10 -20l4 -16l8 -10l2 -20l-1 -10l-2 -16l-8 -18v-18l9 -16l-7 -16l-3 -10l1 -18l1 -17l6 -13l-9 -15
l10 -15l-7 -16l-4 -14z" />
    <glyph glyph-name="kcommaaccent" unicode="&#x137;" horiz-adv-x="520" 
d="M282 -57l13 -4l16 -16l3 -7l4 -17l11 -26l-6 -18l-7 -13l-20 -24l-3 -16l-16 -13l5 -9l-8 -13l-19 -19l-12 -5l-12 3l-11 3l-5 18l1 11l-1 12l7 17l1 8l8 11l-2 24l-10 10l-2 15l-5 35l11 6l-3 13l18 10l9 9zM156 -4l-19 2l-8 1l-22 4l-21 -4l-4 11l-9 15l1 17l1 22
l-4 10l4 14l8 18l-6 16l-5 13l11 12l-2 16l3 13l-7 15l5 23l-10 7l-1 21l2 12l4 19l-4 11v11l2 17l-1 20l6 9l2 18l-1 13l-2 21v16l-8 15l1 6l2 21l-3 18l3 8l11 19l-13 12l13 17l-2 18l-5 8l-7 18l7 16l-5 11l3 14l2 19l4 19l3 13l-13 18l10 10l12 17l12 -3l14 1l17 2
l18 -3l8 -12l1 -19l11 -10l-12 -13l10 -22l-10 -16l6 -10l-2 -14l8 -18l-3 -15l1 -10l-8 -14l3 -22l1 -13l-2 -16l4 -12l-7 -17l7 -19l-1 -12l-4 -9l3 -24l-3 -14l7 -14l-3 -14l3 -17l-4 -6l-1 -22l-1 -10l8 -6l11 12l16 8l17 7l10 15l3 5l17 7l7 11l17 17l2 8l8 8l22 7v10
l21 12l3 5l11 16l23 10l21 7h13l21 -2l15 1l3 2l15 1l3 -12l3 -8l-21 -10l-6 -15l-19 -11l-11 -10l-12 -1l-12 -13l-8 -13l-7 -13l-10 -7l-17 -13l-8 -9l-17 -11l-6 -5l-9 -15l-18 -9l-2 -15l20 -12l6 -11l6 -14l10 -11l16 -10l4 -11l6 -13l9 -11l12 -15l18 -4v-15l17 -13
l12 -12l5 -10l11 -6l13 -14l7 -9l10 -16l7 -13l4 -11l21 -11l-2 -12l4 -7l-18 -4l-28 4h-25l-8 5l-28 9l-1 14l-22 6v13l-8 13l-19 7l-7 16l-17 7l-8 14l-8 17l-12 2l-9 20l-6 12l-7 12l-20 10l-7 5l-10 15l-13 8l-12 1l-23 -4l-7 -25l9 -13l-13 -17l11 -20l-2 -13l-8 -15
l7 -9l4 -17l-6 -19l5 -7l-4 -18v-14z" />
    <glyph glyph-name="kgreenlandic" unicode="&#x138;" horiz-adv-x="520" 
d="M166 170l-4 -15v-9l8 -11l3 -23l-6 -6l-2 -19l7 -11l-1 -16l2 -15l-10 -12l6 -19l-12 -15l-14 3l-16 -6l-25 1l-7 -1l-23 23l1 10l1 15l-2 12l7 21l-6 9l11 17l-10 17l6 12l2 22l-11 6l13 20l-8 15l7 18l-3 7l-3 14l5 22l-8 9l-3 20l8 17l2 7l-7 21l11 13l-14 20l12 15
l-5 7l1 23l-7 9l13 20l9 14l21 -7l10 5l7 -3l22 1l13 -15l2 -13l-5 -13l7 -17v-14l-4 -17l1 -16l2 -14l6 -12l-2 -11l-9 -16l22 -14l24 -4l21 7l11 -7l16 11l13 8l8 2l14 13l22 10l6 8l-1 21l15 20l8 16l11 15l3 13l14 11l-5 16l28 15l11 -6l17 4l23 -3l12 1l3 -15l-4 -8
l-6 -14l-3 -16l-8 -13l-4 -13l-15 -25l-3 -11l-13 -12l-1 -19l-12 -12l-3 -5l-8 -20l-17 -11l-2 -9l-9 -17l12 -15l3 -12l7 -9l21 -16l8 -14l-3 -9l5 -15l15 -16l1 -8l9 -18l18 -4l9 -18l1 -8l5 -19l11 -11l16 -11l7 -16l-6 -10l-25 4l-4 -4l-25 3l-15 -1l-8 4l-22 10l-8 8
l-21 17l-4 16l-8 8l-5 17l-4 14l-21 10l4 16l-9 13l-19 12l-3 14v15l-19 14l-16 10l-17 -11l-12 3l-47 -2z" />
    <glyph glyph-name="Lacute" unicode="&#x139;" horiz-adv-x="514" 
d="M210 87l17 -5l5 -3l23 7l10 -1l17 -5l9 3l25 -4l9 1l12 5l10 -1l16 1l21 -2l15 -1l18 1l9 -1l16 -2l11 6l12 -4l21 -16l-4 -9v-13l5 -15l-6 -17l-14 -11l-15 -5l-5 1l-31 5l-17 -4l-21 -3l-11 4l-23 4l-10 -4l-8 2l-23 2l-16 -4l-13 5l-13 -8l-15 8l-21 -3l-15 1l-4 -2
l-22 -5l-11 2l-18 4l-7 -6l-23 7l-14 -6l-10 21l-4 11l6 16l-14 18l11 12l-10 16l12 14l-1 11l-4 20l-5 9l2 24l-1 10l-2 18l3 10l-3 16v12l7 22l3 7l-8 18l-2 19l1 9l-2 14l9 15l-9 14l9 24l2 15l2 12l-2 15l2 10l-12 20l10 18l-2 10l-6 11l5 22l-5 15l9 7l-11 21l6 18l2 7
v23l-7 15l3 6l-1 17l7 21l-3 11l19 10l8 6l16 -6l20 1l15 5l11 -19l-2 -8l8 -20l-8 -12l3 -16l-4 -14l3 -22v-10l1 -15l2 -20l4 -14l-1 -10l1 -20l3 -15l-5 -11l1 -11l-1 -18l5 -14l-8 -14l-2 -21l10 -14l1 -16l-10 -15l5 -12v-13l1 -15l-4 -19l-5 -17l7 -14l5 -14l1 -14
l-1 -13l-4 -17l-7 -19l6 -10l-5 -13l1 -18l-2 -19l10 -10zM102 766l-8 10l-9 15v17l21 10l9 7l14 12l4 5l18 14l11 10l12 12l13 7l15 4l6 8l13 15l8 13l19 -4l10 -13l9 -18l15 -7l7 -19l-4 -19l-23 -7l-8 -9l-12 -7l-17 -1l-13 -8l-7 -12l-21 -6l-3 -6l-21 -9l-11 -6l-15 -9
l-19 -10z" />
    <glyph glyph-name="lacute" unicode="&#x13a;" horiz-adv-x="247" 
d="M88 707l24 2l14 -8l10 3l17 2l14 -16l6 -13l2 -21l-11 -11l-2 -13l13 -15l-13 -15l6 -16l-4 -13l-2 -15l10 -22l-7 -12l6 -14l2 -11l2 -15l-9 -21l9 -16v-8l-10 -15l-1 -16l3 -21l4 -10l-2 -20l4 -15l-3 -16l4 -12l-3 -11l-5 -21l5 -12l-1 -12l-3 -19l9 -11l-9 -16l7 -19
l-4 -17l-2 -13l-1 -16l4 -17v-7l3 -21l-3 -14l-2 -15l-4 -16l1 -11l7 -16l-1 -20l-14 -8l-17 -4l-25 1l-2 -2l-20 -2l-17 19l-1 15l-4 13l4 17l9 19l-9 9l-4 19l7 15l-3 13l-4 14l9 21l3 14l-9 13l3 9l-5 22l6 9l5 17l-8 16l8 17l-7 12l-2 13l-1 16l3 13l7 22l-2 16l-5 15
v13l-2 10l1 14l8 23l-10 16l3 13l4 8l-2 16l4 14l-4 18l3 16l1 14l2 17l-12 18l12 15l-12 10l6 18l-8 13l10 17l-3 15zM54 769l-8 10l-9 15v17l21 10l9 7l14 12l4 5l18 14l11 10l12 12l13 7l15 4l6 8l13 15l8 13l19 -4l10 -13l9 -18l15 -7l7 -19l-4 -19l-23 -7l-8 -9l-12 -7
l-17 -1l-13 -8l-7 -12l-21 -6l-3 -6l-21 -9l-11 -6l-15 -9l-19 -10z" />
    <glyph glyph-name="Lcommaaccent" unicode="&#x13b;" horiz-adv-x="514" 
d="M304 -56l7 -4l13 -9l12 -17l1 -10l-6 -32l1 -11l-11 -19l-6 -19l-9 -19v-13l-8 -15l-18 -12l-11 -13l-9 -5h-19l-12 2l-7 22l8 5l3 20l9 11l2 13l8 16l-13 13l-5 14l-7 18l-3 24l15 13l8 12l12 6l4 9h41zM211 79l7 4l20 3l6 -7l32 4l20 4l14 -2l10 -2l29 5l12 -7h19l36 5
l12 -3l9 -4h22l11 4l14 -13l8 -14l-7 -13l-2 -20l9 -6l-16 -13l-25 -3h-5l-23 -3l-20 4l-18 -2l-25 3l-8 -2l-10 1h-23l-20 -6l-12 6l-15 2l-14 -2l-19 -4l-8 -2l-15 2l-13 -1l-10 -2l-29 2l-1 -1l-26 2l-16 3l-15 -1l-10 12l-4 21l-1 13l6 18l-6 7l-1 20l1 14l2 14l-4 15
l14 19l-11 9l-2 14v13l13 21l-13 16l11 9l1 19l-3 11l-3 18l-6 19l-1 6l12 24l2 12l-14 16l4 7l6 17l1 14l-5 22l3 8l4 14l-2 20l-3 15l-5 12l11 18v10l-11 18v18l7 15l-8 15v14l4 10l2 20l4 8l-12 20l2 16l36 17l16 -8l21 4l7 -2l17 -13l6 -15l3 -11l-13 -14l14 -15l-1 -19
l-6 -11l5 -17l-6 -18l8 -12l-11 -15l10 -15l-6 -21l-6 -16l10 -9l3 -18v-12l-6 -20l4 -12l-6 -10v-22l-1 -10l4 -15v-23l-7 -6l4 -22l1 -15l2 -14l3 -9l-7 -21l2 -18l3 -13l-8 -12l9 -16v-12l-10 -20l3 -15l8 -9l1 -14z" />
    <glyph glyph-name="lcommaaccent" unicode="&#x13c;" horiz-adv-x="247" 
d="M139 -59l9 -5l10 -5l16 -19l10 -13l-2 -24l-15 -15l8 -16l-15 -21l-11 -14l-10 -19l-10 -14l-8 -10l-9 -11l-14 -16l-19 8l-10 5l-3 10l9 17l-3 8l12 16l9 11l1 13l-9 26l-9 8l-9 17l-4 29l5 11l8 10l17 11l19 8zM90 706l22 2l17 -2l11 3l8 -6l23 -15l-3 -15l-1 -17
l6 -16l-6 -7l-2 -23v-8l10 -17l-1 -20l2 -9l-1 -20l-8 -14l5 -13l-8 -16l12 -9v-18l-11 -20l1 -15l1 -14l-2 -13l11 -14l-7 -15l-4 -17l11 -18l-1 -6l-2 -18l-6 -17l7 -15l2 -10l-2 -23l1 -10l-9 -13l10 -14l-2 -24l-9 -8l5 -15l-1 -21l6 -11l-1 -18l-4 -14l1 -14l1 -15
l-2 -19l2 -9l-7 -13l6 -14l-14 -23l-19 3l-22 3l-11 2l-11 -3l-20 10l5 21l-1 16l6 15l-1 8l-1 18l-8 20l5 15l6 6l-8 19l3 14v16l-3 12l-2 17l9 19l-2 12l-11 18v13l1 11l-1 16l8 19l-2 14l-6 18l2 8l-2 18l13 12l-2 20l-11 18v14l4 15l5 16l3 7l-3 16l-5 18l5 13l-1 20
l-4 12l4 19l6 10l-6 20l-8 13l6 15l-2 16l-2 12l7 14l2 16z" />
    <glyph glyph-name="Lcaron" unicode="&#x13d;" horiz-adv-x="514" 
d="M365 667l-4 -11l4 -14l-5 -17l4 -13l-11 -22l6 -12l-8 -17l3 -13v-14l-5 -15l-21 -19l-16 -3l-20 7l-13 7l6 16l3 23l-6 12l5 17l-1 16l-3 10l-7 16v14l9 20l2 16l13 10l16 2h19l14 5zM207 86l12 -4l25 -2l25 6l8 -3l20 2l15 3l5 -5h15l19 3h16l9 -7l26 5l11 -4l13 8
l13 -2l14 -7l15 2l24 -14l-5 -16l6 -11l-6 -11l-3 -14l-17 -18l-7 3l-26 3l-8 -7l-22 6h-15l-10 -7l-19 6l-11 -5h-7l-14 2l-25 5l-5 -4l-27 3l-11 -2l-20 -4l-16 2l-4 -3l-13 6l-38 -3l-11 5l-15 -5l-13 5l-21 -6l-9 13l-4 18l-7 19l14 15l-5 12l2 15l1 18l-12 9l4 22l3 6
l5 16l-5 21l-7 17l8 12l-8 9v19l12 17l-4 11l-5 12l6 21l-8 12l2 20l3 14l-6 9l11 13l-9 20l7 11l2 23l-6 15l5 7l-8 20l9 9l-11 19v32l3 14l7 17l-5 8l-1 18l-3 11l2 18l2 14l7 17l-3 10l-3 16l17 17l20 -1l14 4l20 -5l11 8l21 -24l-2 -8l-12 -16l11 -13l-11 -23l13 -12
l-10 -15l8 -10v-19l-3 -11l1 -14l-4 -18v-17l-4 -19l-1 -13l8 -17l-8 -9l3 -14l8 -18l-1 -18l-6 -11l6 -18l-4 -11l4 -22l-8 -8l7 -22l5 -8l-6 -13l2 -16l-1 -14l1 -17l-4 -19l8 -13l-2 -13l-6 -13l8 -15l-2 -22l-7 -17l8 -11z" />
    <glyph glyph-name="lcaron" unicode="&#x13e;" horiz-adv-x="295" 
d="M313 692v-23l2 -6l-9 -18l2 -21l-2 -13l1 -10l-8 -20l12 -13l-4 -17l1 -15l-28 -16l-8 -4l-26 2l-15 13l9 25l-9 14l1 7l-2 21l12 14l-6 14l-6 18l1 17l5 13l-8 18l22 8l23 1l5 5l26 -2zM94 701l16 8l18 -2l15 1l11 -4l17 -10v-20l-9 -10l12 -24l-10 -14l11 -9l-1 -15
l2 -22l-7 -13l-1 -13l6 -17l-7 -13l2 -14l-4 -19l5 -8l4 -14v-19l-5 -18l-2 -16l-4 -7l-1 -19l8 -12l-6 -15l7 -14l-2 -16l5 -18l-8 -11l6 -17l-7 -13l6 -21l-9 -16l6 -9l6 -20l-12 -18l7 -15l-5 -13l-1 -13l11 -18l-10 -9l-2 -18l13 -13l-9 -18l10 -13l-14 -15l6 -12
l-2 -17l-14 -16l-18 4l-10 -4l-16 3l-11 -2l-14 18l-8 7l8 17l-4 16l-3 13l7 16l-9 14l4 16l-3 21l4 12l-6 17l4 13l4 14l4 10l-5 21l5 9l-7 16l-2 17l-1 12l3 23l7 8l-6 18l1 20v12l-2 18v13l1 15v17l-7 15l11 10l-12 16l1 14l13 18l-7 17l7 12l-8 15l-1 12l-5 14l7 15v18
l-4 15l-2 16l2 18l7 8l4 16l-5 15z" />
    </font>
</defs>
</svg>
