<?xml version="1.0" standalone="no"?>
<!DOCTYPE svg PUBLIC "-//W3C//DTD SVG 1.1//EN" "http://www.w3.org/Graphics/SVG/1.1/DTD/svg11.dtd" >
<svg xmlns="http://www.w3.org/2000/svg" xmlns:xlink="http://www.w3.org/1999/xlink" version="1.1">
<metadata>
Created by FontForge 20170731 at Thu Mar 15 21:07:33 2018
 By Aleksey,,,
Copyright (c) 2018 by Fontastica. All rights reserved.
</metadata>
<defs>
<font id="Access-Bold" horiz-adv-x="500" >
  <font-face 
    font-family="Access"
    font-weight="700"
    font-stretch="normal"
    units-per-em="1000"
    panose-1="0 0 0 0 0 0 0 0 0 0"
    ascent="800"
    descent="-200"
    x-height="449"
    cap-height="685"
    bbox="-319 -264 1253 954"
    underline-thickness="50"
    underline-position="-205"
    unicode-range="U+000D-FB02"
  />
<missing-glyph horiz-adv-x="682" 
d="M518 620h-354v-555h354v555zM95 0v685h492v-685h-492z" />
    <glyph glyph-name=".notdef" horiz-adv-x="682" 
d="M518 620h-354v-555h354v555zM95 0v685h492v-685h-492z" />
    <glyph glyph-name="uni0000" horiz-adv-x="0" 
 />
    <glyph glyph-name="uni0000" horiz-adv-x="0" 
 />
    <glyph glyph-name="uni000D" unicode="&#xd;" horiz-adv-x="0" 
 />
    <glyph glyph-name="space" unicode=" " horiz-adv-x="220" 
 />
    <glyph glyph-name="exclam" unicode="!" horiz-adv-x="313" 
d="M96 58q0 31 17 49.5t43 18.5q27 0 44 -18.5t17 -49.5q0 -28 -17.5 -48t-43.5 -20q-25 0 -42.5 20t-17.5 48zM200 183h-88l-6 502h101z" />
    <glyph glyph-name="quotedbl" unicode="&#x22;" horiz-adv-x="350" 
d="M298 455h-73l-7 230h87zM125 455h-73l-7 230h87z" />
    <glyph glyph-name="numbersign" unicode="#" horiz-adv-x="759" 
d="M331 416l-46 -148h142l46 148h-142zM577 416l-46 -148h136v-93h-165l-55 -175h-104l55 175h-142l-54 -175h-104l54 175h-112v93h141l46 148h-136v93h165l55 176h104l-55 -176h142l54 176h104l-54 -176h113v-93h-142z" />
    <glyph glyph-name="dollar" unicode="$" horiz-adv-x="566" 
d="M340 273v-179q34 10 53.5 35.5t19.5 57.5q0 52 -73 86zM178 508q0 -49 62 -82v163q-62 -20 -62 -81zM522 189q0 -107 -92 -165q-40 -26 -90 -33v-94h-100v95q-120 23 -204 115l64 79q68 -73 140 -91v215q-91 34 -130 78q-40 46 -40 118q0 75 50 127q46 48 120 60v102h100
v-102q86 -17 166 -95l-65 -78q-56 51 -101 67v-199q182 -48 182 -199z" />
    <glyph glyph-name="percent" unicode="%" horiz-adv-x="872" 
d="M578 167q0 -39 24 -64.5t60 -25.5t60 25.5t24 64.5q0 40 -23.5 65t-60.5 25q-36 0 -60 -25.5t-24 -64.5zM662 -10q-105 0 -154 87q-24 41 -24 90q0 105 88 155q38 23 90 23q49 0 90.5 -23t64.5 -64q23 -40 23 -91q0 -50 -23 -91t-63 -63q-41 -23 -92 -23zM126 516
q0 -40 23.5 -64.5t60.5 -24.5q36 0 60 25t24 64q0 41 -24 66t-60 25q-37 0 -60.5 -25.5t-23.5 -65.5zM265 0h-107l449 685h107zM210 339q-49 0 -90.5 23t-64.5 64q-24 40 -24 90t23.5 91t64.5 65q38 23 91 23q49 0 90.5 -23.5t64.5 -64.5q22 -40 22 -91q0 -50 -23 -91
t-63 -63q-41 -23 -91 -23z" />
    <glyph glyph-name="ampersand" unicode="&#x26;" horiz-adv-x="633" 
d="M407 306h-112q-57 0 -93 -30.5t-36 -77.5t32.5 -77.5t84.5 -30.5q57 0 90.5 35.5t33.5 98.5v82zM516 306v-85q0 -140 -111 -202q-53 -29 -122 -29q-63 0 -115 26.5t-82 73.5q-29 47 -29 105q0 109 107 162q-88 52 -88 146q0 54 27 98t74 70q44 24 105 24q120 0 216 -120
l-67 -67q-74 87 -145 87q-45 0 -73 -26.5t-28 -68.5t29 -69t74 -27h318v-98h-90z" />
    <glyph glyph-name="quotesingle" unicode="'" horiz-adv-x="177" 
d="M125 455h-73l-7 230h87z" />
    <glyph glyph-name="parenleft" unicode="(" horiz-adv-x="417" 
d="M136 -13q-70 124 -70 272t70 272q70 126 204 210l51 -87q-102 -67 -160 -173q-55 -103 -55 -222t55 -222q55 -102 160 -173l-51 -87q-134 84 -204 210z" />
    <glyph glyph-name="parenright" unicode=")" horiz-adv-x="417" 
d="M77 -223l-53 87q105 71 160 173q56 107 56 222q0 117 -56 222t-160 173l53 87q133 -85 203 -211q70 -124 70 -271q0 -148 -70 -272q-71 -126 -203 -210z" />
    <glyph glyph-name="asterisk" unicode="*" horiz-adv-x="479" 
d="M310 580l97 -122l-80 -57l-87 131l-87 -132l-80 57l97 122l-150 40l30 93l147 -54l-7 142h97l-6 -141l147 55l31 -93z" />
    <glyph glyph-name="plus" unicode="+" 
d="M301 290v-162h-103v162h-160v94h160v162h103v-162h160v-94h-160z" />
    <glyph glyph-name="comma" unicode="," horiz-adv-x="261" 
d="M181 -10l-41 -133h-73l29 135q-29 18 -29 56q0 28 19 48t44 20q26 0 44.5 -20t18.5 -49q0 -18 -12 -57z" />
    <glyph glyph-name="hyphen" unicode="-" horiz-adv-x="360" 
d="M50 246v86h260v-86h-260z" />
    <glyph glyph-name="period" unicode="." horiz-adv-x="261" 
d="M67 53q0 26 19 44.5t44 18.5q26 0 44.5 -18.5t18.5 -44.5t-18.5 -44.5t-44.5 -18.5t-44.5 18.5t-18.5 44.5z" />
    <glyph glyph-name="slash" unicode="/" horiz-adv-x="445" 
d="M135 0h-107l282 685h107z" />
    <glyph glyph-name="zero" unicode="0" horiz-adv-x="617" 
d="M191 475q-18 -57 -18 -133q0 -157 66 -220q30 -29 69 -29q82 0 118 116q17 59 17 133q0 116 -37 182.5t-98 66.5q-82 0 -117 -116zM308 -10q-72 0 -128.5 44.5t-88.5 126.5q-30 78 -30 181t30.5 183t86.5 125q55 45 130 45q73 0 129.5 -44.5t87.5 -125.5q30 -79 30 -183
q0 -213 -117 -307q-56 -45 -130 -45z" />
    <glyph glyph-name="one" unicode="1" horiz-adv-x="357" 
d="M151 0v576l-118 -84v111l116 82h107v-685h-105z" />
    <glyph glyph-name="two" unicode="2" horiz-adv-x="523" 
d="M44 0v78l236 283q65 78 65 139q0 41 -26.5 67.5t-68.5 26.5q-72 0 -144 -89l-70 70q96 120 217 120q57 0 103.5 -24.5t71.5 -68.5q26 -45 26 -98q0 -51 -22 -98.5t-72 -106.5l-171 -202h286v-97h-431z" />
    <glyph glyph-name="three" unicode="3" horiz-adv-x="537" 
d="M258 -10q-137 0 -235 113l64 76q84 -87 171 -87q50 0 82 30t32 76q0 47 -36 77.5t-93 30.5h-97v98h96q44 0 72.5 27t28.5 69t-27 68t-72 26q-69 0 -143 -87l-69 68q96 120 215 120q57 0 104.5 -24.5t74.5 -68.5q26 -44 26 -99q0 -90 -83 -143q53 -24 82.5 -67.5
t29.5 -97.5q0 -58 -29 -105.5t-81 -73.5q-54 -26 -113 -26z" />
    <glyph glyph-name="four" unicode="4" horiz-adv-x="578" 
d="M343 521l-189 -265h189v265zM447 157v-157h-104v157h-315v78l321 450h98v-429h96v-99h-96z" />
    <glyph glyph-name="five" unicode="5" horiz-adv-x="545" 
d="M269 -10q-136 0 -233 112l65 77q81 -88 168 -88q53 0 86 35q35 38 35 91q0 55 -35 90.5t-89 35.5q-64 0 -114 -40l-80 45l30 337h344v-98h-254l-15 -163q46 18 95 18q65 0 117 -28.5t81 -80.5t29 -116t-29.5 -116t-82.5 -82q-53 -29 -118 -29z" />
    <glyph glyph-name="six" unicode="6" horiz-adv-x="563" 
d="M281 353q-55 0 -91 -38q-36 -37 -36 -95t36 -95q37 -37 91 -37q53 0 90 37q36 37 36 95t-36 95q-36 38 -90 38zM281 -10q-65 0 -118 30.5t-84 84.5q-31 55 -31 118q0 108 103 258l140 204h120l-167 -240q17 3 37 3q65 0 119.5 -29.5t85.5 -81.5q30 -49 30 -117
q0 -135 -114 -200q-54 -30 -121 -30z" />
    <glyph glyph-name="seven" unicode="7" horiz-adv-x="481" 
d="M210 0h-115l239 587h-314v98h435v-78z" />
    <glyph glyph-name="eight" unicode="8" horiz-adv-x="590" 
d="M168 199q0 -47 36 -78q38 -32 91 -32q52 0 90 32q36 30 36 78t-35.5 80t-90.5 32t-91 -32t-36 -80zM191 500q0 -42 29 -69.5t75 -27.5t75 27.5t29 69.5q0 40 -29.5 67.5t-74.5 27.5t-74.5 -27.5t-29.5 -67.5zM295 -10q-65 0 -119 27t-86 73q-31 45 -31 105
q0 52 26.5 95.5t73.5 70.5q-77 52 -77 142q0 52 28 96t78 71q47 25 107 25q59 0 107.5 -24.5t77.5 -69.5q28 -43 28 -98q0 -90 -77 -142q47 -28 73.5 -71.5t26.5 -94.5q0 -57 -31 -103.5t-86 -74.5q-54 -27 -119 -27z" />
    <glyph glyph-name="nine" unicode="9" horiz-adv-x="563" 
d="M281 596q-53 0 -89 -38t-36 -94q0 -58 35 -96q34 -37 90 -37q54 0 91 37q37 38 37 96q0 56 -37 94q-36 38 -91 38zM412 203l-140 -203h-120l167 239q-18 -3 -38 -3q-66 0 -119 29.5t-84 82.5q-31 52 -31 116t30.5 117.5t84.5 84.5q53 29 119 29t119.5 -30t84.5 -85
q30 -53 30 -119q0 -108 -103 -258z" />
    <glyph glyph-name="colon" unicode=":" horiz-adv-x="261" 
d="M67 53q0 26 19 44.5t44 18.5q26 0 44.5 -18.5t18.5 -44.5t-18.5 -44.5t-44.5 -18.5t-44.5 18.5t-18.5 44.5zM67 401q0 26 19 44.5t44 18.5q26 0 44.5 -18.5t18.5 -44.5t-18.5 -44.5t-44.5 -18.5t-44.5 18.5t-18.5 44.5z" />
    <glyph glyph-name="semicolon" unicode=";" horiz-adv-x="261" 
d="M181 -10l-41 -133h-73l29 135q-29 18 -29 56q0 28 19 48t44 20q26 0 44.5 -20t18.5 -49q0 -18 -12 -57zM67 401q0 26 19 44.5t44 18.5q26 0 44.5 -18.5t18.5 -44.5t-18.5 -44.5t-44.5 -18.5t-44.5 18.5t-18.5 44.5z" />
    <glyph glyph-name="less" unicode="&#x3c;" 
d="M415 108l-382 186v86l382 188l41 -93l-284 -139l284 -135z" />
    <glyph glyph-name="equal" unicode="=" 
d="M38 207v90h422v-90h-422zM38 376v91h422v-91h-422z" />
    <glyph glyph-name="greater" unicode="&#x3e;" 
d="M84 108l-41 93l284 135l-284 139l41 93l382 -188v-86z" />
    <glyph glyph-name="question" unicode="?" horiz-adv-x="489" 
d="M165 58q0 28 19.5 48t47.5 20t48 -20t20 -48t-20 -48t-48 -20t-47.5 20t-19.5 48zM283 297v-113h-102v187l47 5q49 5 78.5 36.5t29.5 77.5q0 48 -30.5 78t-80.5 30q-75 0 -136 -78l-67 66q81 109 206 109q59 0 108 -26t77 -72q27 -46 27 -104q0 -77 -46 -129
q-44 -52 -111 -67z" />
    <glyph glyph-name="at" unicode="@" horiz-adv-x="871" 
d="M323 185q0 -49 28.5 -80.5t72.5 -31.5q43 0 73 32q30 31 30 80q0 48 -30 81t-73 33q-45 0 -73 -31t-28 -83zM657 -15q-77 0 -108 58q-52 -58 -127 -58q-53 0 -97.5 26.5t-71.5 72.5q-26 47 -26 101q0 57 25.5 103.5t71.5 73.5q44 27 98 27q65 0 112 -43l5 34h73v-245
q0 -71 49 -71q75 0 75 151q0 82 -37.5 147.5t-105.5 102.5q-67 37 -152 37t-155.5 -40t-110.5 -111q-39 -71 -39 -158q0 -86 40.5 -156.5t111.5 -110.5q71 -41 159 -41q95 0 182 43l32 -78q-61 -29 -107 -38q-43 -9 -107 -9q-114 0 -205 50t-144 140q-52 88 -52 200
q0 110 51.5 199.5t142.5 140.5q90 51 201 51q106 0 194 -47.5t139 -132.5q50 -85 50 -189q0 -66 -21 -119t-59 -81q-39 -30 -87 -30z" />
    <glyph glyph-name="A" unicode="A" horiz-adv-x="687" 
d="M342 537l-107 -267h214zM557 0l-68 169h-295l-67 -169h-113l279 685h102l278 -685h-116z" />
    <glyph glyph-name="B" unicode="B" horiz-adv-x="613" 
d="M304 304h-100v-205h100q69 0 106 27t37 75t-37.5 75.5t-105.5 27.5zM299 586h-95v-183h95q56 0 87.5 24.5t31.5 67.5q0 42 -31.5 66.5t-87.5 24.5zM299 0h-203v685h198q109 0 171 -48.5t62 -135.5q0 -92 -84 -142q113 -55 113 -163q0 -59 -32 -103.5t-90 -68.5t-135 -24z
" />
    <glyph glyph-name="C" unicode="C" horiz-adv-x="671" 
d="M96 163q-45 81 -45 179t44 179t122 128q76 46 174 46q139 0 247 -111l-70 -76q-83 83 -177 83q-63 0 -114.5 -32t-81.5 -89t-30 -128q0 -70 29 -126t82 -89t115 -33q101 0 184 93l73 -78q-116 -119 -257 -119q-95 0 -173 46t-122 127z" />
    <glyph glyph-name="D" unicode="D" horiz-adv-x="703" 
d="M275 582h-68v-480h68q123 0 193 64t70 176q0 113 -69.5 176.5t-193.5 63.5zM270 0h-174v685h174q239 0 336 -160q46 -76 46 -183q0 -104 -46.5 -181.5t-132.5 -118.5q-87 -42 -203 -42z" />
    <glyph glyph-name="E" unicode="E" horiz-adv-x="566" 
d="M96 0v685h415v-101h-305v-181h283v-101h-283v-201h305v-101h-415z" />
    <glyph glyph-name="F" unicode="F" horiz-adv-x="545" 
d="M206 584v-200h276v-101h-276v-283h-110v685h408v-101h-298z" />
    <glyph glyph-name="G" unicode="G" horiz-adv-x="752" 
d="M392 -10q-96 0 -174 46t-122 127q-45 81 -45 179t44.5 178.5t122.5 128.5q77 46 174 46q90 0 156 -26t125 -85l-72 -76q-45 45 -93 64t-116 19q-64 0 -116 -32t-81 -89t-29 -128q0 -70 29 -126.5t81 -88.5q52 -33 116 -33q107 0 172 87q28 40 36 80h-218v101h327
q5 -12 5 -22v-20q0 -90 -42 -166t-116 -120t-164 -44z" />
    <glyph glyph-name="H" unicode="H" horiz-adv-x="738" 
d="M531 0v303h-324v-303h-111v685h111v-281h324v281h111v-685h-111z" />
    <glyph glyph-name="I" unicode="I" horiz-adv-x="287" 
d="M86 0v685h110v-685h-110z" />
    <glyph glyph-name="J" unicode="J" horiz-adv-x="476" 
d="M15 78l68 76q57 -61 113 -61q42 0 65 29t23 83v480h109v-481q0 -103 -51 -158.5t-146 -55.5q-100 0 -181 88z" />
    <glyph glyph-name="K" unicode="K" horiz-adv-x="644" 
d="M492 0l-283 284l-2 -284h-111v685h111l2 -264l269 264h138l-323 -324l345 -361h-146z" />
    <glyph glyph-name="L" unicode="L" horiz-adv-x="514" 
d="M96 0v685h109v-584h282v-101h-391z" />
    <glyph glyph-name="M" unicode="M" horiz-adv-x="939" 
d="M769 0l-73 480l-171 -480h-110l-171 482l-74 -482h-108l107 685h108l194 -547l193 547h106l107 -685h-108z" />
    <glyph glyph-name="N" unicode="N" horiz-adv-x="728" 
d="M529 0l-329 496v-496h-104v685h103l329 -496v496h104v-685h-103z" />
    <glyph glyph-name="O" unicode="O" horiz-adv-x="784" 
d="M392 591q-64 0 -115.5 -32t-80.5 -89q-30 -57 -30 -128q0 -70 29 -126t82 -89t115 -33q64 0 115.5 32t81.5 89q29 55 29 127q0 71 -29 128t-81 89q-50 32 -116 32zM392 -10q-96 0 -174 46t-122 127q-45 81 -45 179t44.5 178.5t122.5 128.5q77 46 174 46q96 0 174.5 -46
t122.5 -127q44 -82 44 -180t-44 -178.5t-123 -127.5q-77 -46 -174 -46z" />
    <glyph glyph-name="P" unicode="P" horiz-adv-x="585" 
d="M295 584h-91v-231h91q68 0 102.5 30t34.5 85t-35.5 85.5t-101.5 30.5zM292 252h-88v-252h-108v685h196q117 0 184 -57.5t67 -159.5q0 -100 -68 -158t-183 -58z" />
    <glyph glyph-name="Q" unicode="Q" horiz-adv-x="784" 
d="M392 591q-63 0 -114.5 -32.5t-81.5 -89.5t-30 -128q0 -70 29 -126.5t82 -89.5q53 -32 115 -32q54 0 97 22l-105 124l78 67l107 -125q49 67 49 160q0 72 -28.5 128.5t-81.5 89.5q-53 32 -116 32zM659 -85l-99 116q-76 -43 -168 -43q-95 0 -173 46t-123 128q-45 80 -45 179
q0 98 44.5 179t122.5 129q77 46 174 46q96 0 174.5 -46t122.5 -128t44 -180q0 -145 -92 -246l96 -113z" />
    <glyph glyph-name="R" unicode="R" horiz-adv-x="610" 
d="M313 584h-108v-206h108q65 0 99.5 27t34.5 76t-34.5 76t-99.5 27zM483 0l-148 278l-130 -1v-277h-109v685h213q161 0 221 -95q29 -45 29 -106q0 -63 -32 -111.5t-89 -72.5l166 -300h-121z" />
    <glyph glyph-name="S" unicode="S" horiz-adv-x="566" 
d="M297 -10q-150 0 -261 118l64 79q90 -97 197 -97q51 0 83.5 27.5t32.5 69.5q0 35 -25 57q-27 24 -109 52q-150 50 -190 122q-19 34 -19 87q0 55 28 99t78 68q51 23 111 23q120 0 219 -99l-65 -77q-81 75 -153 75q-51 0 -80.5 -23.5t-29.5 -63.5q0 -34 28 -59
q29 -26 131 -60q97 -32 141 -79t44 -119q0 -55 -29.5 -102t-81.5 -72q-52 -26 -114 -26z" />
    <glyph glyph-name="T" unicode="T" horiz-adv-x="553" 
d="M332 584v-584h-111v584h-201v101h513v-101h-201z" />
    <glyph glyph-name="U" unicode="U" horiz-adv-x="680" 
d="M340 -10q-160 0 -226 131q-32 62 -32 147v417h111v-415q0 -84 39 -130.5t108 -46.5t108 46.5t39 130.5v415h111v-417q0 -170 -121 -244q-58 -34 -137 -34z" />
    <glyph glyph-name="V" unicode="V" horiz-adv-x="640" 
d="M371 0h-102l-254 685h116l191 -533l191 533h112z" />
    <glyph glyph-name="W" unicode="W" horiz-adv-x="978" 
d="M703 0h-100l-114 410l-118 -410h-104l-252 685h117l188 -525l136 525h69l132 -520l197 520h109z" />
    <glyph glyph-name="X" unicode="X" horiz-adv-x="645" 
d="M500 0l-181 265l-181 -265h-123l242 355l-225 330h130l164 -241l164 241h123l-225 -331l242 -354h-130z" />
    <glyph glyph-name="Y" unicode="Y" horiz-adv-x="601" 
d="M356 292v-292h-111v294l-238 391h125l172 -285l171 285h119z" />
    <glyph glyph-name="Z" unicode="Z" horiz-adv-x="570" 
d="M41 0v81l341 503h-329v101h465v-82l-340 -503h350v-100h-487z" />
    <glyph glyph-name="bracketleft" unicode="[" horiz-adv-x="401" 
d="M100 -214v945h269v-102h-163v-741h163v-102h-269z" />
    <glyph glyph-name="backslash" unicode="\" horiz-adv-x="445" 
d="M310 0l-282 685h107l282 -685h-107z" />
    <glyph glyph-name="bracketright" unicode="]" horiz-adv-x="401" 
d="M31 -214v102h164v741h-164v102h270v-945h-270z" />
    <glyph glyph-name="asciicircum" unicode="^" 
d="M359 307l-110 244l-109 -244l-92 39l157 339h88l158 -339z" />
    <glyph glyph-name="underscore" unicode="_" horiz-adv-x="623" 
d="M16 -159v76h590v-76h-590z" />
    <glyph glyph-name="grave" unicode="`" 
d="M322 511l-183 106l53 82l169 -128z" />
    <glyph glyph-name="a" unicode="a" horiz-adv-x="584" 
d="M279 362q-74 0 -110 -67q-17 -32 -17 -71q0 -81 63 -119q29 -18 64 -18q74 0 110 67q17 31 17 70q0 83 -62 120q-28 18 -65 18zM402 0v46q-56 -56 -137 -56q-127 0 -190 115q-29 53 -29 119q0 65 28.5 119.5t78.5 85.5q50 30 112 30q85 0 140 -60l9 50h92v-449h-104z" />
    <glyph glyph-name="b" unicode="b" horiz-adv-x="584" 
d="M305 367q-74 0 -110 -67q-17 -31 -17 -73q0 -82 63 -121q29 -18 64 -18q36 0 65 18t45 50q17 32 17 71q0 85 -62 122q-28 18 -65 18zM319 -10q-84 0 -140 61l-9 -51h-92v705h106v-294q55 55 135 55q62 0 112 -30.5t79 -85.5q28 -52 28 -123q0 -66 -28.5 -120t-78.5 -85
q-53 -32 -112 -32z" />
    <glyph glyph-name="c" unicode="c" horiz-adv-x="481" 
d="M77 105q-31 55 -31 119q0 66 30 120t84 85q51 30 118 30q94 0 173 -72l-69 -72q-53 47 -104 47q-73 0 -109 -67q-17 -32 -17 -71q0 -81 62 -119q29 -18 64 -18q59 0 113 55l69 -71q-78 -81 -182 -81q-66 0 -118.5 30.5t-82.5 84.5z" />
    <glyph glyph-name="d" unicode="d" horiz-adv-x="584" 
d="M279 367q-76 0 -110 -67q-17 -33 -17 -73q0 -83 63 -121q29 -18 64 -18q74 0 110 68q17 31 17 71q0 85 -62 122q-28 18 -65 18zM414 0l-9 51q-56 -61 -140 -61q-62 0 -111 31t-79 86q-29 54 -29 120t28.5 121t78.5 87q49 31 112 31q80 0 135 -55v294h106v-705h-92z" />
    <glyph glyph-name="e" unicode="e" horiz-adv-x="530" 
d="M157 273h226q-13 41 -44 66t-70 25q-38 0 -68.5 -25t-43.5 -66zM489 179h-333q13 -42 46.5 -68t75.5 -26q76 0 132 51l65 -72q-83 -74 -196 -74q-64 0 -117.5 31t-85.5 85q-31 54 -31 118q0 65 29.5 118t81.5 86q50 31 113 31q62 0 113 -31t81 -85t30 -119q0 -17 -4 -45z
" />
    <glyph glyph-name="f" unicode="f" horiz-adv-x="364" 
d="M95 528q0 187 146 187q58 0 129 -57l-52 -79q-26 23 -38 30t-27 7q-27 0 -38.5 -17.5t-11.5 -58.5v-84h147v-96h-135v-360h-105v360h-92v91l81 5q-4 36 -4 72z" />
    <glyph glyph-name="g" unicode="g" horiz-adv-x="587" 
d="M285 361q-74 0 -110 -68q-17 -32 -17 -72q0 -83 63 -121q29 -18 64 -18q74 0 110 68q17 31 17 71q0 84 -62 122q-30 18 -65 18zM287 -210q-68 0 -113 16q-46 16 -99 63l56 81q46 -40 77 -52q31 -11 76 -11q72 0 105.5 26t33.5 81v64q-58 -74 -152 -74q-61 0 -110.5 30.5
t-79.5 86.5q-29 53 -29 120q0 66 28.5 121t78.5 86q49 31 112 31q85 0 140 -60l9 50h92v-455q0 -74 -18 -110.5t-74 -65.5q-55 -28 -133 -28z" />
    <glyph glyph-name="h" unicode="h" horiz-adv-x="558" 
d="M383 0v255q0 53 -24 82t-66 29q-64 0 -109 -74v-292h-106v705h106v-299q55 60 131 60q81 0 127 -54t46 -147v-265h-105z" />
    <glyph glyph-name="i" unicode="i" horiz-adv-x="247" 
d="M71 0v455h106v-455h-106zM64 586q0 28 17.5 48t41.5 20q25 0 42.5 -20t17.5 -48t-17.5 -48t-42.5 -20q-24 0 -41.5 20t-17.5 48z" />
    <glyph glyph-name="j" unicode="j" horiz-adv-x="251" 
d="M-109 -155l55 78q41 -32 67 -32t41 21.5t15 61.5v480h105v-488q0 -80 -42 -128t-113 -48q-65 0 -128 55zM56 586q0 28 19 48t46 20q28 0 47 -20t19 -48q0 -29 -19 -49t-47 -20q-27 0 -46 20t-19 49z" />
    <glyph glyph-name="k" unicode="k" horiz-adv-x="520" 
d="M387 0l-177 210l-26 -21v-189h-106v705h106v-409l177 161l128 -1l-203 -187l227 -269h-126z" />
    <glyph glyph-name="l" unicode="l" horiz-adv-x="247" 
d="M71 0v705h106v-705h-106z" />
    <glyph glyph-name="m" unicode="m" horiz-adv-x="859" 
d="M681 0v251q0 54 -22.5 82t-64.5 28q-61 0 -107 -82v-279h-107v251q0 54 -22.5 82t-64.5 28q-63 0 -107 -73v-288h-108v449h94l10 -53q57 63 133 63q99 0 147 -79q30 37 71 58t84 21q81 0 126.5 -52.5t45.5 -144.5v-262h-108z" />
    <glyph glyph-name="n" unicode="n" horiz-adv-x="559" 
d="M383 0v251q0 52 -23.5 80.5t-65.5 28.5q-66 0 -110 -72v-288h-106v449h92l10 -54q58 64 135 64q82 0 128 -52.5t46 -144.5v-262h-106z" />
    <glyph glyph-name="o" unicode="o" horiz-adv-x="558" 
d="M279 362q-73 0 -109 -67q-18 -31 -18 -71q0 -81 63 -119q29 -18 64 -18q74 0 110 67q17 32 17 70q0 83 -62 120q-28 18 -65 18zM279 -10q-66 0 -118.5 30.5t-83.5 84.5q-31 55 -31 119q0 66 30 120t84 85q53 30 119 30t119 -30t84 -84q30 -54 30 -121q0 -66 -30 -119
t-84 -84q-55 -31 -119 -31z" />
    <glyph glyph-name="p" unicode="p" horiz-adv-x="584" 
d="M305 361q-75 0 -110 -68q-17 -34 -17 -71q0 -83 63 -122q29 -18 64 -18q73 0 110 69q17 32 17 71q0 83 -62 121q-30 18 -65 18zM319 -16q-80 0 -135 55v-239h-106v649h92l9 -50q55 60 140 60q62 0 112 -30.5t79 -85.5q28 -52 28 -121q0 -67 -28.5 -121t-78.5 -85
q-53 -32 -112 -32z" />
    <glyph glyph-name="q" unicode="q" horiz-adv-x="584" 
d="M279 361q-74 0 -110 -68q-17 -32 -17 -71q0 -83 63 -122q29 -18 64 -18q74 0 110 69q17 32 17 71q0 83 -62 121q-30 18 -65 18zM400 -200v239q-55 -55 -135 -55q-62 0 -111 31t-79 86q-29 54 -29 121t28.5 121t78.5 85q49 31 112 31q85 0 140 -60l9 50h92v-649h-106z" />
    <glyph glyph-name="r" unicode="r" horiz-adv-x="358" 
d="M287 348q-64 0 -106 -60v-288h-103v449h103v-50q47 47 122 47l8 1h3q5 0 13 -5l-1 -103q-22 9 -39 9z" />
    <glyph glyph-name="s" unicode="s" horiz-adv-x="423" 
d="M31 63l56 78q62 -61 126 -61q32 0 51 13.5t19 34.5q0 17 -14 28q-20 12 -67 26q-78 23 -112 57t-34 90q0 59 44 94.5t114 35.5q87 0 158 -59l-55 -77q-50 47 -104 47q-57 0 -57 -40q0 -18 17 -29q15 -12 74 -29q136 -40 136 -142q0 -63 -47 -101.5t-123 -38.5
q-97 0 -182 73z" />
    <glyph glyph-name="t" unicode="t" horiz-adv-x="416" 
d="M116 453l11 124h90v-124h147v-96h-147v-198q0 -33 15 -51.5t40 -18.5q31 0 69 38l55 -76q-60 -61 -134 -61q-70 0 -110.5 45t-40.5 123v199h-89v91z" />
    <glyph glyph-name="u" unicode="u" horiz-adv-x="551" 
d="M366 0l1 45q-55 -55 -128 -55q-80 0 -124.5 50.5t-44.5 139.5v269h106v-259q0 -49 22 -75t63 -26q63 0 105 68v292h107v-449h-107z" />
    <glyph glyph-name="v" unicode="v" horiz-adv-x="487" 
d="M294 0h-101l-182 449h113l122 -314l122 314h108z" />
    <glyph glyph-name="w" unicode="w" horiz-adv-x="761" 
d="M563 0h-105l-77 272l-78 -272h-106l-193 449h112l138 -326l91 326h70l97 -320l137 320h108z" />
    <glyph glyph-name="x" unicode="x" horiz-adv-x="480" 
d="M344 0l-109 151l-109 -151h-117l168 232l-158 217h127l98 -135l98 135h118l-157 -216l168 -233h-127z" />
    <glyph glyph-name="y" unicode="y" horiz-adv-x="552" 
d="M263 -210q-64 0 -109 15t-91 53l52 82q42 -33 67 -44t56 -10q60 3 87 10q25 5 36.5 29.5t12.5 80.5q0 29 -1 38q-46 -60 -138 -60q-80 0 -124.5 51t-44.5 141v273h106v-262q0 -103 85 -103q62 0 105 69v296h107v-506q0 -21 -22.5 -63t-61.5 -62q-55 -28 -122 -28z" />
    <glyph glyph-name="z" unicode="z" horiz-adv-x="448" 
d="M37 0v76l225 278h-216v95h355v-73l-227 -281h236v-95h-373z" />
    <glyph glyph-name="braceleft" unicode="{" horiz-adv-x="468" 
d="M184 15v34q0 79 -24.5 114.5t-79.5 40.5l-47 4v100l47 5q55 6 79.5 41.5t24.5 112.5v36q0 230 189 230h63v-102h-58q-45 0 -65 -31t-20 -100v-43q0 -69 -26 -121t-74 -77q100 -55 100 -200v-41q0 -69 20 -99.5t65 -30.5h58v-102h-63q-189 0 -189 229z" />
    <glyph glyph-name="bar" unicode="|" horiz-adv-x="294" 
d="M100 -200v885h94v-885h-94z" />
    <glyph glyph-name="braceright" unicode="}" horiz-adv-x="468" 
d="M283 49v-34q0 -229 -188 -229h-64v102h59q43 0 63.5 31t20.5 99v41q0 70 26 122t75 78q-49 25 -75 76.5t-26 121.5v43q0 69 -20.5 100t-63.5 31h-59v102h64q188 0 188 -230v-36q0 -77 25 -113t79 -41l48 -5v-100l-48 -4q-55 -5 -79.5 -41t-24.5 -114z" />
    <glyph glyph-name="asciitilde" unicode="~" 
d="M236 322l-45 14q-9 3 -22 3q-21 0 -34.5 -10t-27.5 -37l-79 35q38 97 133 97q37 0 103 -22q18 -6 45 -12q18 -4 22 -4q21 0 34.5 10t27.5 37l79 -35q-38 -97 -133 -97q-33 0 -103 21z" />
    <glyph glyph-name="uni00A0" unicode="&#xa0;" horiz-adv-x="220" 
 />
    <glyph glyph-name="exclamdown" unicode="&#xa1;" horiz-adv-x="313" 
d="M106 -228l6 500h88l7 -500h-101zM96 398q0 28 17.5 48t42.5 20t43 -20t18 -48q0 -30 -17 -49.5t-44 -19.5t-43.5 19.5t-16.5 49.5z" />
    <glyph glyph-name="cent" unicode="&#xa2;" horiz-adv-x="480" 
d="M152 224q0 -43 19.5 -76.5t52.5 -49.5v253q-33 -15 -52.5 -49.5t-19.5 -77.5zM323 -9v-94h-99v96q-77 17 -126 77q-52 64 -52 154t52 154q50 62 126 78v103h99v-101q70 -13 127 -70l-68 -71q-33 28 -59 39v-263q33 11 68 48l69 -72q-62 -65 -137 -78z" />
    <glyph glyph-name="sterling" unicode="&#xa3;" horiz-adv-x="563" 
d="M41 0v92l32 2q48 3 70 29t22 78q0 45 -12 87h-112v101h84q-9 43 -9 90q0 60 28 109.5t77 78.5q48 28 108 28q121 0 196 -96l-74 -70q-29 36 -55.5 50.5t-62.5 14.5q-47 0 -77.5 -33.5t-30.5 -86.5q0 -35 10 -85h201v-101h-175q10 -47 10 -90q0 -60 -22 -97h275v-101h-483
z" />
    <glyph glyph-name="yen" unicode="&#xa5;" horiz-adv-x="636" 
d="M430 407h131v-99h-188v-60h188v-99h-188v-149h-111v149h-184v99h184v60h-184v99h128l-182 278h124l173 -261l171 261h119z" />
    <glyph glyph-name="brokenbar" unicode="&#xa6;" horiz-adv-x="294" 
d="M100 -200v368h94v-368h-94zM100 316v369h94v-369h-94z" />
    <glyph glyph-name="section" unicode="&#xa7;" horiz-adv-x="465" 
d="M229 366l-16 5q-13 4 -22 8q-23 -6 -37.5 -27.5t-14.5 -49.5q0 -62 97 -84l22 -5l15 -6q24 6 38 26.5t14 49.5q0 28 -22.5 47.5t-73.5 35.5zM395 48q0 -92 -82 -136q-39 -21 -86 -21q-87 0 -159 61l53 75q55 -44 101 -44q32 0 51.5 18t19.5 46q0 60 -109 88
q-141 36 -141 159q0 85 69 132q-42 44 -42 111q0 45 21.5 82t60.5 56q42 20 85 20q87 0 159 -61l-53 -76q-51 45 -101 45q-33 0 -51.5 -17.5t-18.5 -47.5q0 -60 109 -88q141 -36 141 -159q0 -40 -19 -75t-52 -57q44 -44 44 -111z" />
    <glyph glyph-name="dieresis" unicode="&#xa8;" 
d="M274 598q0 22 18 38t42 16t42.5 -16t18.5 -38t-18.5 -38t-42.5 -16t-42 16t-18 38zM104 598q0 22 18.5 38t42.5 16t42 -16t18 -38t-18 -38t-42 -16t-42.5 16t-18.5 38z" />
    <glyph glyph-name="copyright" unicode="&#xa9;" horiz-adv-x="788" 
d="M233 242q-26 47 -26 100q0 117 96 174q43 25 98 25q78 0 144 -66l-56 -58q-42 42 -88 42q-45 0 -75 -33t-30 -84q0 -50 30 -83q32 -33 75 -33q47 0 94 48l54 -60q-68 -69 -148 -69q-112 0 -168 97zM394 621q-76 0 -137.5 -35.5t-97.5 -100.5q-35 -65 -35 -143t35 -141.5
t98 -100.5t137 -37q76 0 137.5 36t96.5 101q35 62 35 142t-34.5 143.5t-96.5 99.5q-63 36 -138 36zM394 -10q-96 0 -175.5 46t-126.5 127q-46 79 -46 179q0 99 45 179.5t126 127.5q79 46 177 46q96 0 176 -46t126 -127q45 -81 45 -180q0 -98 -46 -179t-125 -127t-176 -46z
" />
    <glyph glyph-name="ordfeminine" unicode="&#xaa;" horiz-adv-x="409" 
d="M36 255v75h336v-75h-336zM123 529q0 -36 21 -59.5t53 -23.5t53.5 24t21.5 59q0 36 -21 59t-54 23q-32 0 -53 -22.5t-21 -59.5zM279 371l-5 27q-37 -34 -89 -34q-42 0 -78 22t-56 60t-20 83q0 99 75 145q36 21 79 21q52 0 89 -34l5 26h77v-316h-77z" />
    <glyph glyph-name="guillemotleft" unicode="&#xab;" horiz-adv-x="631" 
d="M511 -5l-224 219v21l224 220l70 -69l-165 -161l165 -162zM261 -5l-225 219v21l225 220l69 -69l-165 -161l165 -162z" />
    <glyph glyph-name="logicalnot" unicode="&#xac;" 
d="M363 108v177h-330v91h433v-268h-103z" />
    <glyph glyph-name="uni00AD" unicode="&#xad;" horiz-adv-x="0" 
 />
    <glyph glyph-name="registered" unicode="&#xae;" horiz-adv-x="788" 
d="M393 452h-43v-82h43q21 0 33 11t12 29q0 19 -12 30.5t-33 11.5zM457 165l-70 133h-37v-133h-79v362h119q58 0 94 -31.5t36 -83.5q0 -65 -56 -95l85 -152h-92zM394 622q-75 0 -137 -36t-98 -101q-35 -65 -35 -143t35.5 -142t97.5 -101q63 -37 137 -37q75 0 137 36.5
t97 101.5q35 62 35 142t-34.5 144t-96.5 100q-63 36 -138 36zM394 -10q-96 0 -175.5 46t-126.5 127q-46 79 -46 179q0 99 45 179.5t126 127.5q79 46 177 46q96 0 176 -46t126 -127q45 -81 45 -180t-44.5 -179t-125.5 -127q-79 -46 -177 -46z" />
    <glyph glyph-name="overscore" unicode="&#xaf;" 
d="M123 555v71h253v-71h-253z" />
    <glyph glyph-name="degree" unicode="&#xb0;" horiz-adv-x="394" 
d="M120 526q0 -36 22.5 -60t55.5 -24q32 0 54 24t22 60q0 37 -21.5 60.5t-54.5 23.5t-55.5 -24t-22.5 -60zM198 359q-99 0 -146 82q-22 37 -22 85q0 98 83 147q38 22 85 22q99 0 145 -82q21 -39 21 -87q0 -99 -81 -145q-40 -22 -85 -22z" />
    <glyph glyph-name="plusminus" unicode="&#xb1;" 
d="M38 0v78h424v-78h-424zM301 290v-162h-103v162h-160v94h160v162h103v-162h160v-94h-160z" />
    <glyph glyph-name="uni00B2" unicode="&#xb2;" horiz-adv-x="308" 
d="M35 441v61l113 133q26 31 26 54q0 13 -8.5 21t-22.5 8q-25 0 -63 -42l-52 54q48 67 120 67q48 0 79.5 -29.5t31.5 -75.5q0 -47 -45 -98l-68 -78h121v-75h-232z" />
    <glyph glyph-name="uni00B3" unicode="&#xb3;" horiz-adv-x="312" 
d="M23 493l45 63q46 -40 82 -40q18 0 28.5 9.5t10.5 24.5q0 16 -13 26t-34 10h-39v71h37q16 0 25.5 8.5t9.5 22.5q0 13 -9 21t-25 8q-29 0 -64 -39l-50 52q52 67 118 67q48 0 80.5 -28.5t32.5 -73.5q0 -41 -32 -70q47 -29 47 -80q0 -48 -35 -78.5t-88 -30.5q-71 0 -127 57z
" />
    <glyph glyph-name="acute" unicode="&#xb4;" 
d="M180 511l-40 60l169 128l53 -82z" />
    <glyph glyph-name="uni00B5" unicode="&#xb5;" horiz-adv-x="559" 
d="M389 -6l-9 51q-56 -61 -132 -61q-36 0 -64 12v-196h-106v649h106v-262q0 -103 85 -103q62 0 106 69v296h106v-455h-92z" />
    <glyph glyph-name="paragraph" unicode="&#xb6;" horiz-adv-x="757" 
d="M603 584v-684h-103v684h-117v-684h-103v364q-142 5 -203 100q-32 50 -32 109q0 98 67 155q66 57 178 57h449v-101h-136z" />
    <glyph glyph-name="middot" unicode="&#xb7;" horiz-adv-x="310" 
d="M94 318q0 25 18 42.5t43 17.5t43 -17.5t18 -42.5t-18 -43t-43 -18t-43 18t-18 43z" />
    <glyph glyph-name="cedilla" unicode="&#xb8;" 
d="M149 -191l22 67q34 -19 59 -19q24 0 24 18q0 19 -33 19l-38 37l27 87h74l-20 -60q76 -13 76 -85q0 -39 -28.5 -63t-72.5 -24q-42 0 -90 23z" />
    <glyph glyph-name="uni00B9" unicode="&#xb9;" horiz-adv-x="246" 
d="M91 441v261l-63 -53v86l68 57h75v-351h-80z" />
    <glyph glyph-name="ordmasculine" unicode="&#xba;" horiz-adv-x="391" 
d="M32 255v75h327v-75h-327zM121 529q0 -36 21.5 -59.5t53.5 -23.5t53 23.5t21 59.5q0 37 -21 59.5t-53 22.5t-53.5 -23t-21.5 -59zM196 364q-99 0 -143 80q-21 39 -21 85q0 99 81 145q37 21 83 21q99 0 142 -80q21 -39 21 -86q0 -45 -21.5 -83.5t-58.5 -60.5
q-37 -21 -83 -21z" />
    <glyph glyph-name="guillemotright" unicode="&#xbb;" horiz-adv-x="631" 
d="M369 -5l-69 68l165 160l-165 163l69 69l225 -220v-21zM119 -5l-70 68l166 160l-166 163l70 69l224 -220v-21z" />
    <glyph glyph-name="onequarter" unicode="&#xbc;" horiz-adv-x="726" 
d="M581 232l-59 -83h59v83zM658 72v-72h-77v72h-150v62l155 217h72v-202h47v-77h-47zM180 0h-100l429 685h99zM91 334v261l-63 -53v86l68 57h75v-351h-80z" />
    <glyph glyph-name="onehalf" unicode="&#xbd;" horiz-adv-x="724" 
d="M451 0v61l113 133q26 31 26 54q0 13 -8.5 21t-22.5 8q-25 0 -63 -42l-52 54q48 67 120 67q48 0 79.5 -29.5t31.5 -75.5q0 -47 -45 -98l-68 -78h121v-75h-232zM167 0h-100l429 685h99zM91 334v261l-63 -53v86l68 57h75v-351h-80z" />
    <glyph glyph-name="threequarters" unicode="&#xbe;" horiz-adv-x="792" 
d="M647 232l-59 -83h59v83zM724 72v-72h-77v72h-150v62l155 217h72v-202h47v-77h-47zM244 0h-100l429 685h99zM23 386l45 63q46 -40 82 -40q18 0 28.5 9.5t10.5 24.5q0 16 -13 26t-34 10h-39v71h37q16 0 25.5 8.5t9.5 22.5q0 13 -9 21t-25 8q-29 0 -64 -39l-50 52
q52 67 118 67q48 0 80.5 -28.5t32.5 -73.5q0 -41 -32 -70q47 -29 47 -80q0 -48 -35 -78.5t-88 -30.5q-71 0 -127 57z" />
    <glyph glyph-name="questiondown" unicode="&#xbf;" horiz-adv-x="489" 
d="M76 -140q-28 46 -28 104q0 74 45 127q43 52 112 67v114h102v-187l-47 -6q-49 -6 -78.5 -36.5t-29.5 -76.5q0 -47 31 -77.5t80 -30.5q74 0 136 79l68 -67q-83 -108 -207 -108q-59 0 -107.5 26t-76.5 72zM189 398q0 28 19.5 48t47.5 20t48 -20t20 -48t-20 -48.5t-48 -20.5
t-47.5 20.5t-19.5 48.5z" />
    <glyph glyph-name="Aring" unicode="&#xc5;" horiz-adv-x="687" 
d="M342 537l-107 -267h214zM557 0l-68 169h-295l-67 -169h-113l279 685h102l278 -685h-116zM308 840q0 -16 11 -26.5t26 -10.5t25.5 10.5t10.5 26.5t-10.5 26.5t-25.5 10.5t-26 -10.5t-11 -26.5zM345 736q-45 0 -76.5 30.5t-31.5 73.5t31.5 73.5t76.5 30.5q44 0 75 -31
q32 -30 32 -73q0 -44 -32 -74q-31 -30 -75 -30z" />
    <glyph glyph-name="AE" unicode="&#xc6;" horiz-adv-x="884" 
d="M344 537l-108 -267h216zM560 0l-68 169h-297l-67 -169h-114l280 685h535v-101h-390l74 -181h293v-101h-252l82 -201h193v-101h-269z" />
    <glyph glyph-name="Eth" unicode="&#xd0;" horiz-adv-x="726" 
d="M296 582h-68v-188h167v-102h-167v-190h68q124 0 194 64t70 176q0 113 -69.5 176.5t-194.5 63.5zM291 0h-175v292h-100v102h100v291h175q240 0 338 -160q46 -76 46 -183q0 -104 -46.5 -181.5t-133.5 -118.5q-87 -42 -204 -42z" />
    <glyph glyph-name="multiply" unicode="&#xd7;" 
d="M318 335l139 -139l-68 -68l-139 139l-140 -139l-68 68l139 139l-140 140l69 68l140 -139l139 139l69 -68z" />
    <glyph glyph-name="Thorn" unicode="&#xde;" horiz-adv-x="588" 
d="M295 457h-91v-231h91q66 0 101.5 30t35.5 85q0 56 -35.5 86t-101.5 30zM292 125h-88v-125h-108v685h108v-127h88q118 0 184.5 -57t66.5 -160q0 -65 -30.5 -114.5t-88.5 -75.5q-56 -26 -132 -26z" />
    <glyph glyph-name="germandbls" unicode="&#xdf;" horiz-adv-x="640" 
d="M79 552q0 47 25.5 85t71.5 58q44 20 101 20q90 0 145.5 -49t55.5 -130q0 -75 -44 -125q77 -18 119.5 -71.5t42.5 -134.5q0 -59 -27 -108.5t-73 -77.5q-50 -29 -106 -29q-79 0 -152 55l48 82q53 -41 95 -41q48 0 77 33t29 87q0 60 -41 95t-115 38l-22 70q66 52 66 115
q0 42 -26 68t-69 26q-42 0 -67.5 -23t-25.5 -59q0 -31 22 -83l10 -24v-429h-107v360h-92v91l82 4q-23 60 -23 97z" />
    <glyph glyph-name="aring" unicode="&#xe5;" horiz-adv-x="584" 
d="M279 362q-74 0 -110 -67q-17 -32 -17 -71q0 -81 63 -119q29 -18 64 -18q74 0 110 67q17 31 17 70q0 83 -62 120q-28 18 -65 18zM402 0v46q-56 -56 -137 -56q-127 0 -190 115q-29 53 -29 119q0 65 28.5 119.5t78.5 85.5q50 30 112 30q85 0 140 -60l9 50h92v-449h-104z
M243 605q0 -16 11 -26.5t26 -10.5t25.5 10.5t10.5 26.5t-10.5 26.5t-25.5 10.5t-26 -10.5t-11 -26.5zM280 501q-45 0 -76.5 30.5t-31.5 73.5t31.5 73.5t76.5 30.5q44 0 75 -31q32 -30 32 -73q0 -44 -32 -74q-31 -30 -75 -30z" />
    <glyph glyph-name="ae" unicode="&#xe6;" horiz-adv-x="911" 
d="M283 362q-75 0 -111 -67q-18 -35 -18 -71q0 -81 64 -119q28 -18 65 -18q77 0 113 67q17 32 17 70t-17 70t-47 50q-31 18 -66 18zM531 273h231q-13 41 -43 66t-68 25q-41 0 -74 -25t-46 -66zM869 180h-339q14 -42 49.5 -68.5t80.5 -26.5q62 0 120 53l66 -72
q-86 -76 -185 -76q-94 0 -156 62l-7 -52h-79l-7 51q-58 -61 -142 -61q-63 0 -114 30.5t-81 84.5q-29 53 -29 119t28.5 120t80.5 85q51 30 115 30q84 0 142 -61l7 51h79l7 -51q61 61 146 61q61 0 113 -31t81 -85t29 -119q0 -22 -5 -44z" />
    <glyph glyph-name="eth" unicode="&#xf0;" horiz-adv-x="559" 
d="M279 368q-73 0 -109 -68q-18 -32 -18 -73q0 -83 63 -121q29 -18 64 -18q34 0 64 18t47 50t17 70q0 62 -37 102t-91 40zM279 -10q-65 0 -118 31t-84 86t-31 120q0 67 29 121.5t80 86.5q51 31 114 31q73 0 126 -46q-25 69 -70 114l-51 -58l-61 54l46 53q-38 24 -107 43
l25 81q77 -18 141 -56l60 68l61 -55l-55 -63q129 -123 129 -336q0 -171 -110 -241q-54 -34 -124 -34z" />
    <glyph glyph-name="divide" unicode="&#xf7;" 
d="M180 156q0 28 20.5 48.5t49.5 20.5t49 -20.5t20 -48.5t-20 -48.5t-49 -20.5t-49.5 20.5t-20.5 48.5zM38 290v94h424v-94h-424zM180 518q0 28 20.5 48.5t49.5 20.5t49 -20.5t20 -48.5t-20 -48.5t-49 -20.5t-49.5 20.5t-20.5 48.5z" />
    <glyph glyph-name="thorn" unicode="&#xfe;" horiz-adv-x="584" 
d="M304 365q-72 0 -109 -69q-17 -32 -17 -71q0 -83 63 -122q29 -18 63 -18q75 0 111 68q17 32 17 72q0 59 -37 100q-37 40 -91 40zM319 -14q-80 0 -135 55v-241h-106v905h106v-296q55 55 135 55q62 0 112 -30.5t79 -85.5q28 -52 28 -123q0 -67 -28.5 -121.5t-78.5 -85.5
q-53 -32 -112 -32z" />
    <glyph glyph-name="ydieresis" unicode="&#xff;" horiz-adv-x="552" 
d="M263 -210q-64 0 -109 15t-91 53l52 82q42 -33 67 -44t56 -10q60 3 87 10q25 5 36.5 29.5t12.5 80.5q0 29 -1 38q-46 -60 -138 -60q-80 0 -124.5 51t-44.5 141v273h106v-262q0 -103 85 -103q62 0 105 69v296h107v-506q0 -21 -22.5 -63t-61.5 -62q-55 -28 -122 -28z
M295 598q0 22 18 38t42 16t42.5 -16t18.5 -38t-18.5 -38t-42.5 -16t-42 16t-18 38zM125 598q0 22 18.5 38t42.5 16t42 -16t18 -38t-18 -38t-42 -16t-42.5 16t-18.5 38z" />
    <glyph glyph-name="Aogonek" unicode="&#x104;" horiz-adv-x="687" 
d="M342 536l-107 -269h214zM556 -2l-67 168h-295l-67 -170h-113l279 689h102l276 -684q-76 -43 -76 -94q0 -29 25 -29q12 0 34 9l26 -73q-44 -18 -75 -18q-46 0 -74.5 25.5t-28.5 68.5q0 59 54 108z" />
    <glyph glyph-name="aogonek" unicode="&#x105;" horiz-adv-x="584" 
d="M279 361q-73 0 -109 -68q-18 -31 -18 -72q0 -83 63 -121q29 -18 64 -18q75 0 111 68q17 32 17 71q0 83 -63 122q-30 18 -65 18zM342 -111q0 70 69 120l-6 36q-56 -61 -139 -61q-62 0 -111.5 31t-79.5 86q-29 54 -29 120q0 67 28.5 121.5t78.5 85.5q49 31 113 31
q84 0 139 -60l9 50h92v-451q-73 -43 -73 -92q0 -28 25 -28q14 0 34 9l26 -73q-44 -18 -74 -18q-46 0 -74 25t-28 68z" />
    <glyph glyph-name="Cacute" unicode="&#x106;" horiz-adv-x="671" 
d="M96 163q-45 81 -45 179t44 179t122 128q76 46 174 46q139 0 247 -111l-70 -76q-83 83 -177 83q-63 0 -114.5 -32t-81.5 -89t-30 -128q0 -70 29 -126t82 -89t115 -33q101 0 184 93l73 -78q-116 -119 -257 -119q-95 0 -173 46t-122 127zM311 746l-40 60l169 128l53 -82z
" />
    <glyph glyph-name="cacute" unicode="&#x107;" horiz-adv-x="481" 
d="M77 105q-31 55 -31 119q0 66 30 120t84 85q51 30 118 30q94 0 173 -72l-69 -72q-53 47 -104 47q-73 0 -109 -67q-17 -32 -17 -71q0 -81 62 -119q29 -18 64 -18q59 0 113 55l69 -71q-78 -81 -182 -81q-66 0 -118.5 30.5t-82.5 84.5zM187 511l-40 60l169 128l53 -82z" />
    <glyph glyph-name="Ccircumflex" unicode="&#x108;" horiz-adv-x="671" 
d="M96 163q-45 81 -45 179t44 179t122 128q76 46 174 46q139 0 247 -111l-70 -76q-83 83 -177 83q-63 0 -114.5 -32t-81.5 -89t-30 -128q0 -70 29 -126t82 -89t115 -33q101 0 184 93l73 -78q-116 -119 -257 -119q-95 0 -173 46t-122 127zM492 744l-113 80l-112 -80l-48 56
l161 130l160 -130z" />
    <glyph glyph-name="ccircumflex" unicode="&#x109;" horiz-adv-x="481" 
d="M77 105q-31 55 -31 119q0 66 30 120t84 85q51 30 118 30q94 0 173 -72l-69 -72q-53 47 -104 47q-73 0 -109 -67q-17 -32 -17 -71q0 -81 62 -119q29 -18 64 -18q59 0 113 55l69 -71q-78 -81 -182 -81q-66 0 -118.5 30.5t-82.5 84.5zM381 509l-113 80l-112 -80l-48 56
l161 130l160 -130z" />
    <glyph glyph-name="Dcaron" unicode="&#x10e;" horiz-adv-x="703" 
d="M275 582h-68v-480h68q123 0 193 64t70 176q0 113 -69.5 176.5t-193.5 63.5zM270 0h-174v685h174q239 0 336 -160q46 -76 46 -183q0 -104 -46.5 -181.5t-132.5 -118.5q-87 -42 -203 -42zM320 744l-161 130l48 56l113 -80l112 80l48 -56z" />
    <glyph glyph-name="dcaron" unicode="&#x10f;" horiz-adv-x="639" 
d="M279 367q-76 0 -110 -67q-17 -33 -17 -73q0 -83 63 -121q29 -18 64 -18q74 0 110 68q17 31 17 71q0 85 -62 122q-28 18 -65 18zM639 521h-68v184h81zM414 0l-9 51q-56 -61 -140 -61q-62 0 -111 31t-79 86q-29 54 -29 120t28.5 121t78.5 87q49 31 112 31q80 0 135 -55v294
h106v-705h-92z" />
    <glyph glyph-name="Ebreve" unicode="&#x114;" horiz-adv-x="566" 
d="M96 0v685h415v-101h-305v-181h283v-101h-283v-201h305v-101h-415zM173 872v26h85v-18q0 -26 12.5 -40t33.5 -14q45 0 45 53v19h85v-27q0 -53 -37 -87t-93 -34q-57 0 -94 34t-37 88z" />
    <glyph glyph-name="ebreve" unicode="&#x115;" horiz-adv-x="530" 
d="M157 273h226q-13 41 -44 66t-70 25q-38 0 -68.5 -25t-43.5 -66zM489 179h-333q13 -42 46.5 -68t75.5 -26q76 0 132 51l65 -72q-83 -74 -196 -74q-64 0 -117.5 31t-85.5 85q-31 54 -31 118q0 65 29.5 118t81.5 86q50 31 113 31q62 0 113 -31t81 -85t30 -119q0 -17 -4 -45z
M139 637v26h85v-18q0 -26 12.5 -40t33.5 -14q45 0 45 53v19h85v-27q0 -53 -37 -87t-93 -34q-57 0 -94 34t-37 88z" />
    <glyph glyph-name="Edotaccent" unicode="&#x116;" horiz-adv-x="566" 
d="M96 0v685h415v-101h-305v-181h283v-101h-283v-201h305v-101h-415zM243 835q0 24 18.5 42.5t42.5 18.5t42 -18.5t18 -42.5q0 -25 -17.5 -43t-42.5 -18t-43 18t-18 43z" />
    <glyph glyph-name="edotaccent" unicode="&#x117;" horiz-adv-x="530" 
d="M157 273h226q-13 41 -44 66t-70 25q-38 0 -68.5 -25t-43.5 -66zM489 179h-333q13 -42 46.5 -68t75.5 -26q76 0 132 51l65 -72q-83 -74 -196 -74q-64 0 -117.5 31t-85.5 85q-31 54 -31 118q0 65 29.5 118t81.5 86q50 31 113 31q62 0 113 -31t81 -85t30 -119q0 -17 -4 -45z
M202 600q0 24 18.5 42.5t42.5 18.5t42 -18.5t18 -42.5q0 -25 -17.5 -43t-42.5 -18t-43 18t-18 43z" />
    <glyph glyph-name="Eogonek" unicode="&#x118;" horiz-adv-x="566" 
d="M411 -93q0 -29 25 -29q10 0 33 9l25 -73q-42 -18 -73 -18q-45 0 -73 25.5t-28 68.5q0 56 51 106h-275v689h415v-102h-305v-182h283v-101h-283v-203h305v-101h-35q-65 -41 -65 -89z" />
    <glyph glyph-name="eogonek" unicode="&#x119;" horiz-adv-x="530" 
d="M157 271h226q-13 41 -44 66.5t-70 25.5q-38 0 -68.5 -25.5t-43.5 -66.5zM489 176h-333q14 -43 47.5 -69.5t74.5 -26.5q66 0 123 54l64 -73l-34 -32q-77 -72 -77 -123q0 -28 25 -28q17 0 44 16l27 -72q-38 -26 -85 -26q-46 0 -74 25t-28 68q0 49 38 96q-5 -1 -22 -1
q-63 0 -117 31.5t-86 86.5q-31 54 -31 119t29.5 119.5t81.5 86.5q50 32 113 32q62 0 113 -31.5t81 -86.5q30 -54 30 -120q0 -17 -4 -45z" />
    <glyph glyph-name="Ecaron" unicode="&#x11a;" horiz-adv-x="566" 
d="M96 0v685h415v-101h-305v-181h283v-101h-283v-201h305v-101h-415zM304 744l-161 130l48 56l113 -80l112 80l48 -56z" />
    <glyph glyph-name="ecaron" unicode="&#x11b;" horiz-adv-x="530" 
d="M157 273h226q-13 41 -44 66t-70 25q-38 0 -68.5 -25t-43.5 -66zM489 179h-333q13 -42 46.5 -68t75.5 -26q76 0 132 51l65 -72q-83 -74 -196 -74q-64 0 -117.5 31t-85.5 85q-31 54 -31 118q0 65 29.5 118t81.5 86q50 31 113 31q62 0 113 -31t81 -85t30 -119q0 -17 -4 -45z
M270 509l-161 130l48 56l113 -80l112 80l48 -56z" />
    <glyph glyph-name="Gcircumflex" unicode="&#x11c;" horiz-adv-x="752" 
d="M392 -10q-96 0 -174 46t-122 127q-45 81 -45 179t44.5 178.5t122.5 128.5q77 46 174 46q90 0 156 -26t125 -85l-72 -76q-45 45 -93 64t-116 19q-64 0 -116 -32t-81 -89t-29 -128q0 -70 29 -126.5t81 -88.5q52 -33 116 -33q107 0 172 87q28 40 36 80h-218v101h327
q5 -12 5 -22v-20q0 -90 -42 -166t-116 -120t-164 -44zM494 744l-113 80l-112 -80l-48 56l161 130l160 -130z" />
    <glyph glyph-name="gcircumflex" unicode="&#x11d;" horiz-adv-x="587" 
d="M285 361q-74 0 -110 -68q-17 -32 -17 -72q0 -83 63 -121q29 -18 64 -18q74 0 110 68q17 31 17 71q0 84 -62 122q-30 18 -65 18zM287 -210q-68 0 -113 16q-46 16 -99 63l56 81q46 -40 77 -52q31 -11 76 -11q72 0 105.5 26t33.5 81v64q-58 -74 -152 -74q-61 0 -110.5 30.5
t-79.5 86.5q-29 53 -29 120q0 66 28.5 121t78.5 86q49 31 112 31q85 0 140 -60l9 50h92v-455q0 -74 -18 -110.5t-74 -65.5q-55 -28 -133 -28zM389 509l-113 80l-112 -80l-48 56l161 130l160 -130z" />
    <glyph glyph-name="Gcommaaccent" unicode="&#x122;" horiz-adv-x="752" 
d="M428 -169l-48 -95l-60 19l33 85q-23 18 -23 48q0 24 16.5 41t40.5 17t40.5 -18.5t16.5 -44.5q0 -20 -16 -52zM392 -10q-96 0 -174 46t-122 127q-45 81 -45 179t44.5 178.5t122.5 128.5q77 46 174 46q90 0 156 -26t125 -85l-72 -76q-45 45 -93 64t-116 19q-64 0 -116 -32
t-81 -89t-29 -128q0 -70 29 -126.5t81 -88.5q52 -33 116 -33q107 0 172 87q28 40 36 80h-218v101h327q5 -12 5 -22v-20q0 -90 -42 -166t-116 -120t-164 -44z" />
    <glyph glyph-name="gcommaaccent" unicode="&#x123;" horiz-adv-x="587" 
d="M285 361q-74 0 -110 -68q-17 -32 -17 -72q0 -83 63 -121q29 -18 64 -18q74 0 110 68q17 31 17 71q0 84 -62 122q-30 18 -65 18zM287 -210q-68 0 -113 16q-46 16 -99 63l56 81q46 -40 77 -52q31 -11 76 -11q72 0 105.5 26t33.5 81v64q-58 -74 -152 -74q-61 0 -110.5 30.5
t-79.5 86.5q-29 53 -29 120q0 66 28.5 121t78.5 86q49 31 112 31q85 0 140 -60l9 50h92v-455q0 -74 -18 -110.5t-74 -65.5q-55 -28 -133 -28z" />
    <glyph glyph-name="Hcircumflex" unicode="&#x124;" horiz-adv-x="738" 
d="M531 0v303h-324v-303h-111v685h111v-281h324v281h111v-685h-111zM481 744l-113 80l-112 -80l-48 56l161 130l160 -130z" />
    <glyph glyph-name="hcircumflex" unicode="&#x125;" horiz-adv-x="558" 
d="M383 0v255q0 53 -24 82t-66 29q-64 0 -109 -74v-292h-106v705h106v-299q55 60 131 60q81 0 127 -54t46 -147v-265h-105zM387 750l-113 80l-112 -80l-48 56l161 130l160 -130z" />
    <glyph glyph-name="Imacron" unicode="&#x12a;" horiz-adv-x="287" 
d="M96 0v685h95v-685h-95zM17 790v71h253v-71h-253z" />
    <glyph glyph-name="imacron" unicode="&#x12b;" horiz-adv-x="247" 
d="M78 0v449h91v-449h-91zM-2 555v71h253v-71h-253z" />
    <glyph glyph-name="Ibreve" unicode="&#x12c;" horiz-adv-x="287" 
d="M86 0v685h110v-685h-110zM13 872v26h85v-18q0 -26 12.5 -40t33.5 -14q45 0 45 53v19h85v-27q0 -53 -37 -87t-93 -34q-57 0 -94 34t-37 88z" />
    <glyph glyph-name="ibreve" unicode="&#x12d;" horiz-adv-x="247" 
d="M78 0v449h91v-449h-91zM-6 637v26h85v-18q0 -26 12.5 -40t33.5 -14q45 0 45 53v19h85v-27q0 -53 -37 -87t-93 -34q-57 0 -94 34t-37 88z" />
    <glyph glyph-name="Iogonek" unicode="&#x12e;" horiz-adv-x="287" 
d="M90 -2v687h102v-685q-68 -44 -68 -93q0 -29 24 -29q10 0 30 9l24 -73q-39 -18 -68 -18q-42 0 -68 25.5t-26 68.5q0 63 50 108z" />
    <glyph glyph-name="iogonek" unicode="&#x12f;" horiz-adv-x="247" 
d="M72 2v452h99v-454q-68 -44 -68 -94q0 -28 23 -28q10 0 31 9l24 -73q-39 -18 -68 -18q-43 0 -69 25.5t-26 68.5q0 61 54 112zM59 586q0 28 18.5 48t43.5 20t43.5 -20t18.5 -48t-18 -48.5t-44 -20.5t-44 20.5t-18 48.5z" />
    <glyph glyph-name="dotlessi" unicode="&#x131;" horiz-adv-x="247" 
d="M78 0v449h91v-449h-91z" />
    <glyph glyph-name="IJ" unicode="&#x132;" horiz-adv-x="594" 
d="M131 78l69 76q57 -61 114 -61q42 0 64.5 29t22.5 83v480h110v-481q0 -103 -51 -158.5t-146 -55.5q-102 0 -183 88zM96 303v382h110v-382h-110z" />
    <glyph glyph-name="ij" unicode="&#x133;" horiz-adv-x="498" 
d="M138 -155l55 78q41 -32 67 -32t41 21.5t15 61.5v480h105v-488q0 -80 -42 -128t-113 -48q-65 0 -128 55zM76 0v455h95v-455h-95zM303 586q0 28 19 48t46 20q28 0 47 -20t19 -48q0 -29 -19 -49t-47 -20q-27 0 -46 20t-19 49zM64 586q0 28 17.5 48t41.5 20q25 0 42.5 -20
t17.5 -48t-17.5 -48t-42.5 -20q-24 0 -41.5 20t-17.5 48z" />
    <glyph glyph-name="Jcircumflex" unicode="&#x134;" horiz-adv-x="476" 
d="M15 78l68 76q57 -61 113 -61q42 0 65 29t23 83v480h109v-481q0 -103 -51 -158.5t-146 -55.5q-100 0 -181 88zM455 744l-113 80l-112 -80l-48 56l161 130l160 -130z" />
    <glyph glyph-name="jcircumflex" unicode="&#x135;" horiz-adv-x="248" 
d="M-112 -155l55 77q41 -32 67 -32q25 0 40 22t15 60v477h105v-484q0 -81 -41.5 -128t-113.5 -47q-70 0 -127 55zM230 509l-113 80l-112 -80l-48 56l161 130l160 -130z" />
    <glyph glyph-name="Kcommaaccent" unicode="&#x136;" horiz-adv-x="644" 
d="M379 -169l-48 -95l-60 19l33 85q-23 18 -23 48q0 24 16.5 41t40.5 17t40.5 -18.5t16.5 -44.5q0 -20 -16 -52zM492 0l-283 284l-2 -284h-111v685h111l2 -264l269 264h138l-323 -324l345 -361h-146z" />
    <glyph glyph-name="kcommaaccent" unicode="&#x137;" horiz-adv-x="520" 
d="M308 -169l-48 -95l-60 19l33 85q-23 18 -23 48q0 24 16.5 41t40.5 17t40.5 -18.5t16.5 -44.5q0 -20 -16 -52zM387 0l-177 210l-26 -21v-189h-106v705h106v-409l177 161l128 -1l-203 -187l227 -269h-126z" />
    <glyph glyph-name="kgreenlandic" unicode="&#x138;" horiz-adv-x="520" 
d="M386 0l-118 186q-23 -5 -65 -5h-19v-181h-106v449h106v-169h19q49 0 75 15.5t45 57.5l45 96h112l-49 -103q-36 -76 -72 -112l151 -234h-124z" />
    <glyph glyph-name="Lacute" unicode="&#x139;" horiz-adv-x="514" 
d="M96 0v685h109v-584h282v-101h-391zM113 746l-40 60l169 128l53 -82z" />
    <glyph glyph-name="lacute" unicode="&#x13a;" horiz-adv-x="247" 
d="M71 0v705h106v-705h-106zM65 749l-40 60l169 128l53 -82z" />
    <glyph glyph-name="Lcommaaccent" unicode="&#x13b;" horiz-adv-x="514" 
d="M323 -169l-48 -95l-60 19l33 85q-23 18 -23 48q0 24 16.5 41t40.5 17t40.5 -18.5t16.5 -44.5q0 -20 -16 -52zM96 0v685h109v-584h282v-101h-391z" />
    <glyph glyph-name="lcommaaccent" unicode="&#x13c;" horiz-adv-x="247" 
d="M164 -169l-48 -95l-60 19l33 85q-23 18 -23 48q0 24 16.5 41t40.5 17t40.5 -18.5t16.5 -44.5q0 -20 -16 -52zM78 0v705h91v-705h-91z" />
    <glyph glyph-name="Lcaron" unicode="&#x13d;" horiz-adv-x="514" 
d="M351 501h-68v184h81zM96 0v685h109v-584h282v-101h-391z" />
    <glyph glyph-name="lcaron" unicode="&#x13e;" horiz-adv-x="295" 
d="M303 521h-68v184h81zM78 0v705h91v-705h-91z" />
    <glyph glyph-name="Ldot" unicode="&#x13f;" horiz-adv-x="514" 
d="M334 355q0 25 18 42.5t43 17.5t43 -17.5t18 -42.5t-18 -43t-43 -18t-43 18t-18 43zM96 0v685h109v-584h282v-101h-391z" />
    <glyph glyph-name="ldot" unicode="&#x140;" horiz-adv-x="311" 
d="M219 328q0 25 18 42.5t43 17.5t43 -17.5t18 -42.5t-18 -43t-43 -18t-43 18t-18 43zM78 0v705h91v-705h-91z" />
    <glyph glyph-name="Lslash" unicode="&#x141;" horiz-adv-x="538" 
d="M116 0v268l-73 -30l-38 91l111 46v310h110v-264l133 55l39 -91l-172 -71v-213h285v-101h-395z" />
    <glyph glyph-name="lslash" unicode="&#x142;" horiz-adv-x="308" 
d="M205 333v-333h-105v281l-65 -32l-41 86l106 53v317h105v-264l67 34l42 -87z" />
    <glyph glyph-name="Nacute" unicode="&#x143;" horiz-adv-x="728" 
d="M529 0l-329 496v-496h-104v685h103l329 -496v496h104v-685h-103zM306 746l-40 60l169 128l53 -82z" />
    <glyph glyph-name="nacute" unicode="&#x144;" horiz-adv-x="559" 
d="M383 0v251q0 52 -23.5 80.5t-65.5 28.5q-66 0 -110 -72v-288h-106v449h92l10 -54q58 64 135 64q82 0 128 -52.5t46 -144.5v-262h-106zM222 511l-40 60l169 128l53 -82z" />
    <glyph glyph-name="Ncommaaccent" unicode="&#x145;" horiz-adv-x="728" 
d="M403 -169l-48 -95l-60 19l33 85q-23 18 -23 48q0 24 16.5 41t40.5 17t40.5 -18.5t16.5 -44.5q0 -20 -16 -52zM529 0l-329 496v-496h-104v685h103l329 -496v496h104v-685h-103z" />
    <glyph glyph-name="ncommaaccent" unicode="&#x146;" horiz-adv-x="559" 
d="M319 -169l-48 -95l-60 19l33 85q-23 18 -23 48q0 24 16.5 41t40.5 17t40.5 -18.5t16.5 -44.5q0 -20 -16 -52zM383 0v251q0 52 -23.5 80.5t-65.5 28.5q-66 0 -110 -72v-288h-106v449h92l10 -54q58 64 135 64q82 0 128 -52.5t46 -144.5v-262h-106z" />
    <glyph glyph-name="Ncaron" unicode="&#x147;" horiz-adv-x="728" 
d="M529 0l-329 496v-496h-104v685h103l329 -496v496h104v-685h-103zM364 744l-161 130l48 56l113 -80l112 80l48 -56z" />
    <glyph glyph-name="ncaron" unicode="&#x148;" horiz-adv-x="559" 
d="M383 0v251q0 52 -23.5 80.5t-65.5 28.5q-66 0 -110 -72v-288h-106v449h92l10 -54q58 64 135 64q82 0 128 -52.5t46 -144.5v-262h-106zM284 509l-161 130l48 56l113 -80l112 80l48 -56z" />
    <glyph glyph-name="napostrophe" unicode="&#x149;" horiz-adv-x="593" 
d="M383 0v251q0 52 -23.5 80.5t-65.5 28.5q-66 0 -110 -72v-288h-106v449h92l10 -54q58 64 135 64q82 0 128 -52.5t46 -144.5v-262h-106zM50 455h-74l42 230h108z" />
    <glyph glyph-name="Obreve" unicode="&#x14e;" horiz-adv-x="784" 
d="M392 591q-64 0 -115.5 -32t-80.5 -89q-30 -57 -30 -128q0 -70 29 -126t82 -89t115 -33q64 0 115.5 32t81.5 89q29 55 29 127q0 71 -29 128t-81 89q-50 32 -116 32zM392 -10q-96 0 -174 46t-122 127q-45 81 -45 179t44.5 178.5t122.5 128.5q77 46 174 46q96 0 174.5 -46
t122.5 -127q44 -82 44 -180t-44 -178.5t-123 -127.5q-77 -46 -174 -46zM261 872v26h85v-18q0 -26 12.5 -40t33.5 -14q45 0 45 53v19h85v-27q0 -53 -37 -87t-93 -34q-57 0 -94 34t-37 88z" />
    <glyph glyph-name="obreve" unicode="&#x14f;" horiz-adv-x="558" 
d="M279 362q-73 0 -109 -67q-18 -31 -18 -71q0 -81 63 -119q29 -18 64 -18q74 0 110 67q17 32 17 70q0 83 -62 120q-28 18 -65 18zM279 -10q-66 0 -118.5 30.5t-83.5 84.5q-31 55 -31 119q0 66 30 120t84 85q53 30 119 30t119 -30t84 -84q30 -54 30 -121q0 -66 -30 -119
t-84 -84q-55 -31 -119 -31zM147 637v26h85v-18q0 -26 12.5 -40t33.5 -14q45 0 45 53v19h85v-27q0 -53 -37 -87t-93 -34q-57 0 -94 34t-37 88z" />
    <glyph glyph-name="Ohungarumlaut" unicode="&#x150;" horiz-adv-x="784" 
d="M392 591q-64 0 -115.5 -32t-80.5 -89q-30 -57 -30 -128q0 -70 29 -126t82 -89t115 -33q64 0 115.5 32t81.5 89q29 55 29 127q0 71 -29 128t-81 89q-50 32 -116 32zM392 -10q-96 0 -174 46t-122 127q-45 81 -45 179t44.5 178.5t122.5 128.5q77 46 174 46q96 0 174.5 -46
t122.5 -127q44 -82 44 -180t-44 -178.5t-123 -127.5q-77 -46 -174 -46zM474 745l-60 40l109 169l81 -52zM314 745l-60 40l109 169l80 -52z" />
    <glyph glyph-name="ohungarumlaut" unicode="&#x151;" horiz-adv-x="558" 
d="M279 362q-73 0 -109 -67q-18 -31 -18 -71q0 -81 63 -119q29 -18 64 -18q74 0 110 67q17 32 17 70q0 83 -62 120q-28 18 -65 18zM279 -10q-66 0 -118.5 30.5t-83.5 84.5q-31 55 -31 119q0 66 30 120t84 85q53 30 119 30t119 -30t84 -84q30 -54 30 -121q0 -66 -30 -119
t-84 -84q-55 -31 -119 -31zM364 510l-60 40l109 169l81 -52zM204 510l-60 40l109 169l80 -52z" />
    <glyph glyph-name="Racute" unicode="&#x154;" horiz-adv-x="610" 
d="M313 584h-108v-206h108q65 0 99.5 27t34.5 76t-34.5 76t-99.5 27zM483 0l-148 278l-130 -1v-277h-109v685h213q161 0 221 -95q29 -45 29 -106q0 -63 -32 -111.5t-89 -72.5l166 -300h-121zM245 746l-40 60l169 128l53 -82z" />
    <glyph glyph-name="racute" unicode="&#x155;" horiz-adv-x="358" 
d="M287 348q-64 0 -106 -60v-288h-103v449h103v-50q47 47 122 47l8 1h3q5 0 13 -5l-1 -103q-22 9 -39 9zM153 511l-40 60l169 128l53 -82z" />
    <glyph glyph-name="Rcommaaccent" unicode="&#x156;" horiz-adv-x="610" 
d="M356 -169l-48 -95l-60 19l33 85q-23 18 -23 48q0 24 16.5 41t40.5 17t40.5 -18.5t16.5 -44.5q0 -20 -16 -52zM313 584h-108v-206h108q65 0 99.5 27t34.5 76t-34.5 76t-99.5 27zM483 0l-148 278l-130 -1v-277h-109v685h213q161 0 221 -95q29 -45 29 -106q0 -63 -32 -111.5
t-89 -72.5l166 -300h-121z" />
    <glyph glyph-name="rcommaaccent" unicode="&#x157;" horiz-adv-x="358" 
d="M162 -169l-48 -95l-60 19l33 85q-23 18 -23 48q0 24 16.5 41t40.5 17t40.5 -18.5t16.5 -44.5q0 -20 -16 -52zM287 348q-64 0 -106 -60v-288h-103v449h103v-50q47 47 122 47l8 1h3q5 0 13 -5l-1 -103q-22 9 -39 9z" />
    <glyph glyph-name="Rcaron" unicode="&#x158;" horiz-adv-x="610" 
d="M313 584h-108v-206h108q65 0 99.5 27t34.5 76t-34.5 76t-99.5 27zM483 0l-148 278l-130 -1v-277h-109v685h213q161 0 221 -95q29 -45 29 -106q0 -63 -32 -111.5t-89 -72.5l166 -300h-121zM291 744l-161 130l48 56l113 -80l112 80l48 -56z" />
    <glyph glyph-name="rcaron" unicode="&#x159;" horiz-adv-x="358" 
d="M287 348q-64 0 -106 -60v-288h-103v449h103v-50q47 47 122 47l8 1h3q5 0 13 -5l-1 -103q-22 9 -39 9zM193 509l-161 130l48 56l113 -80l112 80l48 -56z" />
    <glyph glyph-name="Sacute" unicode="&#x15a;" horiz-adv-x="566" 
d="M297 -10q-150 0 -261 118l64 79q90 -97 197 -97q51 0 83.5 27.5t32.5 69.5q0 35 -25 57q-27 24 -109 52q-150 50 -190 122q-19 34 -19 87q0 55 28 99t78 68q51 23 111 23q120 0 219 -99l-65 -77q-81 75 -153 75q-51 0 -80.5 -23.5t-29.5 -63.5q0 -34 28 -59
q29 -26 131 -60q97 -32 141 -79t44 -119q0 -55 -29.5 -102t-81.5 -72q-52 -26 -114 -26zM219 746l-40 60l169 128l53 -82z" />
    <glyph glyph-name="sacute" unicode="&#x15b;" horiz-adv-x="423" 
d="M31 63l56 78q62 -61 126 -61q32 0 51 13.5t19 34.5q0 17 -14 28q-20 12 -67 26q-78 23 -112 57t-34 90q0 59 44 94.5t114 35.5q87 0 158 -59l-55 -77q-50 47 -104 47q-57 0 -57 -40q0 -18 17 -29q15 -12 74 -29q136 -40 136 -142q0 -63 -47 -101.5t-123 -38.5
q-97 0 -182 73zM147 511l-40 60l169 128l53 -82z" />
    <glyph glyph-name="Scircumflex" unicode="&#x15c;" horiz-adv-x="566" 
d="M297 -10q-150 0 -261 118l64 79q90 -97 197 -97q51 0 83.5 27.5t32.5 69.5q0 35 -25 57q-27 24 -109 52q-150 50 -190 122q-19 34 -19 87q0 55 28 99t78 68q51 23 111 23q120 0 219 -99l-65 -77q-81 75 -153 75q-51 0 -80.5 -23.5t-29.5 -63.5q0 -34 28 -59
q29 -26 131 -60q97 -32 141 -79t44 -119q0 -55 -29.5 -102t-81.5 -72q-52 -26 -114 -26zM390 744l-113 80l-112 -80l-48 56l161 130l160 -130z" />
    <glyph glyph-name="scircumflex" unicode="&#x15d;" horiz-adv-x="423" 
d="M31 63l56 78q62 -61 126 -61q32 0 51 13.5t19 34.5q0 17 -14 28q-20 12 -67 26q-78 23 -112 57t-34 90q0 59 44 94.5t114 35.5q87 0 158 -59l-55 -77q-50 47 -104 47q-57 0 -57 -40q0 -18 17 -29q15 -12 74 -29q136 -40 136 -142q0 -63 -47 -101.5t-123 -38.5
q-97 0 -182 73zM329 509l-113 80l-112 -80l-48 56l161 130l160 -130z" />
    <glyph glyph-name="uni0162" unicode="&#x162;" horiz-adv-x="553" 
d="M316 -169l-48 -95l-60 19l33 85q-23 18 -23 48q0 24 16.5 41t40.5 17t40.5 -18.5t16.5 -44.5q0 -20 -16 -52zM332 584v-584h-111v584h-201v101h513v-101h-201z" />
    <glyph glyph-name="uni0163" unicode="&#x163;" horiz-adv-x="416" 
d="M256 -169l-48 -95l-60 19l33 85q-23 18 -23 48q0 24 16.5 41t40.5 17t40.5 -18.5t16.5 -44.5q0 -20 -16 -52zM116 453l11 124h90v-124h147v-96h-147v-198q0 -33 15 -51.5t40 -18.5q31 0 69 38l55 -76q-60 -61 -134 -61q-70 0 -110.5 45t-40.5 123v199h-89v91z" />
    <glyph glyph-name="Tcaron" unicode="&#x164;" horiz-adv-x="553" 
d="M332 584v-584h-111v584h-201v101h513v-101h-201zM274 744l-161 130l48 56l113 -80l112 80l48 -56z" />
    <glyph glyph-name="tcaron" unicode="&#x165;" horiz-adv-x="416" 
d="M116 453l11 124h90v-124h147v-96h-147v-198q0 -33 15 -51.5t40 -18.5q31 0 69 38l55 -76q-60 -61 -134 -61q-70 0 -110.5 45t-40.5 123v199h-89v91zM332 507h-68v184h81z" />
    <glyph glyph-name="Tbar" unicode="&#x166;" horiz-adv-x="553" 
d="M332 584v-179h119v-101h-119v-304h-111v304h-119v101h119v179h-201v101h513v-101h-201z" />
    <glyph glyph-name="tbar" unicode="&#x167;" horiz-adv-x="416" 
d="M116 453l11 124h90v-124h147v-93h-147v-71h147v-93h-147v-37q0 -33 15 -51.5t40 -18.5q31 0 69 38l55 -76q-60 -61 -134 -61q-70 0 -110.5 45t-40.5 123v38h-89v93h89v71h-89v88z" />
    <glyph glyph-name="Ubreve" unicode="&#x16c;" horiz-adv-x="680" 
d="M340 -10q-160 0 -226 131q-32 62 -32 147v417h111v-415q0 -84 39 -130.5t108 -46.5t108 46.5t39 130.5v415h111v-417q0 -170 -121 -244q-58 -34 -137 -34zM208 872v26h85v-18q0 -26 12.5 -40t33.5 -14q45 0 45 53v19h85v-27q0 -53 -37 -87t-93 -34q-57 0 -94 34t-37 88z
" />
    <glyph glyph-name="ubreve" unicode="&#x16d;" horiz-adv-x="551" 
d="M366 0l1 45q-55 -55 -128 -55q-80 0 -124.5 50.5t-44.5 139.5v269h106v-259q0 -49 22 -75t63 -26q63 0 105 68v292h107v-449h-107zM144 637v26h85v-18q0 -26 12.5 -40t33.5 -14q45 0 45 53v19h85v-27q0 -53 -37 -87t-93 -34q-57 0 -94 34t-37 88z" />
    <glyph glyph-name="Uring" unicode="&#x16e;" horiz-adv-x="680" 
d="M340 -10q-160 0 -226 131q-32 62 -32 147v417h111v-415q0 -84 39 -130.5t108 -46.5t108 46.5t39 130.5v415h111v-417q0 -170 -121 -244q-58 -34 -137 -34zM302 840q0 -16 11 -26.5t26 -10.5t25.5 10.5t10.5 26.5t-10.5 26.5t-25.5 10.5t-26 -10.5t-11 -26.5zM339 736
q-45 0 -76.5 30.5t-31.5 73.5t31.5 73.5t76.5 30.5q44 0 75 -31q32 -30 32 -73q0 -44 -32 -74t-75 -30z" />
    <glyph glyph-name="uring" unicode="&#x16f;" horiz-adv-x="551" 
d="M366 0l1 45q-55 -55 -128 -55q-80 0 -124.5 50.5t-44.5 139.5v269h106v-259q0 -49 22 -75t63 -26q63 0 105 68v292h107v-449h-107zM238 605q0 -16 11 -26.5t26 -10.5t25.5 10.5t10.5 26.5t-10.5 26.5t-25.5 10.5t-26 -10.5t-11 -26.5zM275 501q-45 0 -76.5 30.5
t-31.5 73.5t31.5 73.5t76.5 30.5q44 0 75 -31q32 -30 32 -73q0 -44 -32 -74t-75 -30z" />
    <glyph glyph-name="Uogonek" unicode="&#x172;" horiz-adv-x="680" 
d="M404 -93q0 -29 25 -29q11 0 33 9l26 -73q-44 -18 -74 -18q-46 0 -74 25.5t-28 68.5q0 50 42 97l-13 -1q-5 -1 -20 -1q-68 0 -122 35t-85 97q-32 66 -32 148v420h111v-418q0 -84 39 -131t108 -47t108 47t39 131v418h111v-420q0 -149 -93 -225q-101 -84 -101 -133z" />
    <glyph glyph-name="uogonek" unicode="&#x173;" horiz-adv-x="551" 
d="M310 -111q0 70 69 120l-7 35q-55 -60 -133 -60q-80 0 -124.5 51t-44.5 141v273h106v-262q0 -103 85 -103q62 0 106 69v296h106v-451q-72 -42 -72 -92q0 -28 25 -28q14 0 33 9l26 -73q-43 -18 -74 -18q-46 0 -73.5 25t-27.5 68z" />
    <glyph glyph-name="Ycircumflex" unicode="&#x176;" horiz-adv-x="601" 
d="M356 292v-292h-111v294l-238 391h125l172 -285l171 285h119zM410 744l-113 80l-112 -80l-48 56l161 130l160 -130z" />
    <glyph glyph-name="ycircumflex" unicode="&#x177;" horiz-adv-x="552" 
d="M263 -210q-64 0 -109 15t-91 53l52 82q42 -33 67 -44t56 -10q60 3 87 10q25 5 36.5 29.5t12.5 80.5q0 29 -1 38q-46 -60 -138 -60q-80 0 -124.5 51t-44.5 141v273h106v-262q0 -103 85 -103q62 0 105 69v296h107v-506q0 -21 -22.5 -63t-61.5 -62q-55 -28 -122 -28z
M383 509l-113 80l-112 -80l-48 56l161 130l160 -130z" />
    <glyph glyph-name="Ydieresis" unicode="&#x178;" horiz-adv-x="601" 
d="M356 292v-292h-111v294l-238 391h125l172 -285l171 285h119zM324 833q0 22 18 38t42 16t42.5 -16t18.5 -38t-18.5 -38t-42.5 -16t-42 16t-18 38zM154 833q0 22 18.5 38t42.5 16t42 -16t18 -38t-18 -38t-42 -16t-42.5 16t-18.5 38z" />
    <glyph glyph-name="Zacute" unicode="&#x179;" horiz-adv-x="570" 
d="M41 0v81l341 503h-329v101h465v-82l-340 -503h350v-100h-487zM235 746l-40 60l169 128l53 -82z" />
    <glyph glyph-name="zacute" unicode="&#x17a;" horiz-adv-x="448" 
d="M37 0v76l225 278h-216v95h355v-73l-227 -281h236v-95h-373zM174 511l-40 60l169 128l53 -82z" />
    <glyph glyph-name="Zcaron" unicode="&#x17d;" horiz-adv-x="570" 
d="M41 0v81l341 503h-329v101h465v-82l-340 -503h350v-100h-487zM285 744l-161 130l48 56l113 -80l112 80l48 -56z" />
    <glyph glyph-name="zcaron" unicode="&#x17e;" horiz-adv-x="448" 
d="M37 0v76l225 278h-216v95h355v-73l-227 -281h236v-95h-373zM224 509l-161 130l48 56l113 -80l112 80l48 -56z" />
    <glyph glyph-name="uni0191" unicode="&#x191;" horiz-adv-x="519" 
d="M201 583v-201h258v-102h-258v-314q0 -80 -44.5 -128t-119.5 -48q-70 0 -131 55l58 78q40 -32 68 -32q27 0 43 22t16 61v711h387v-102h-277z" />
    <glyph glyph-name="uni0192" unicode="&#x192;" horiz-adv-x="364" 
d="M73 553q0 73 46 117.5t121 44.5t146 -58l-53 -79q-43 37 -81 37q-33 0 -52.5 -20.5t-19.5 -55.5q0 -33 21 -84h149v-97h-137v-389q0 -82 -44 -130.5t-120 -48.5q-71 0 -132 58l58 76q43 -35 72 -35q27 0 43.5 23t16.5 64v382h-93v91l82 5q-23 60 -23 99z" />
    <glyph glyph-name="uni0218" unicode="&#x218;" horiz-adv-x="566" 
d="M326 -169l-48 -95l-60 19l33 85q-23 18 -23 48q0 24 16.5 41t40.5 17t40.5 -18.5t16.5 -44.5q0 -20 -16 -52zM297 -10q-150 0 -261 118l64 79q90 -97 197 -97q51 0 83.5 27.5t32.5 69.5q0 35 -25 57q-27 24 -109 52q-150 50 -190 122q-19 34 -19 87q0 55 28 99t78 68
q51 23 111 23q120 0 219 -99l-65 -77q-81 75 -153 75q-51 0 -80.5 -23.5t-29.5 -63.5q0 -34 28 -59q29 -26 131 -60q97 -32 141 -79t44 -119q0 -55 -29.5 -102t-81.5 -72q-52 -26 -114 -26z" />
    <glyph glyph-name="uni0219" unicode="&#x219;" horiz-adv-x="423" 
d="M250 -169l-48 -95l-60 19l33 85q-23 18 -23 48q0 24 16.5 41t40.5 17t40.5 -18.5t16.5 -44.5q0 -20 -16 -52zM31 63l56 78q62 -61 126 -61q32 0 51 13.5t19 34.5q0 17 -14 28q-20 12 -67 26q-78 23 -112 57t-34 90q0 59 44 94.5t114 35.5q87 0 158 -59l-55 -77
q-50 47 -104 47q-57 0 -57 -40q0 -18 17 -29q15 -12 74 -29q136 -40 136 -142q0 -63 -47 -101.5t-123 -38.5q-97 0 -182 73z" />
    <glyph glyph-name="uni021A" unicode="&#x21a;" horiz-adv-x="553" 
d="M316 -169l-48 -95l-60 19l33 85q-23 18 -23 48q0 24 16.5 41t40.5 17t40.5 -18.5t16.5 -44.5q0 -20 -16 -52zM332 584v-584h-111v584h-201v101h513v-101h-201z" />
    <glyph glyph-name="uni021B" unicode="&#x21b;" horiz-adv-x="416" 
d="M256 -169l-48 -95l-60 19l33 85q-23 18 -23 48q0 24 16.5 41t40.5 17t40.5 -18.5t16.5 -44.5q0 -20 -16 -52zM116 453l11 124h90v-124h147v-96h-147v-198q0 -33 15 -51.5t40 -18.5q31 0 69 38l55 -76q-60 -61 -134 -61q-70 0 -110.5 45t-40.5 123v199h-89v91z" />
    <glyph glyph-name="uni0237" unicode="&#x237;" horiz-adv-x="248" 
d="M-112 -155l55 77q41 -32 67 -32q25 0 40 22t15 60v477h105v-484q0 -81 -41.5 -128t-113.5 -47q-70 0 -127 55z" />
    <glyph glyph-name="circumflex" unicode="&#x2c6;" 
d="M362 509l-113 80l-112 -80l-48 56l161 130l160 -130z" />
    <glyph glyph-name="caron" unicode="&#x2c7;" 
d="M250 509l-161 130l48 56l113 -80l112 80l48 -56z" />
    <glyph glyph-name="breve" unicode="&#x2d8;" 
d="M119 637v26h85v-18q0 -26 12.5 -40t33.5 -14q45 0 45 53v19h85v-27q0 -53 -37 -87t-93 -34q-57 0 -94 34t-37 88z" />
    <glyph glyph-name="dotaccent" unicode="&#x2d9;" 
d="M189 600q0 24 18.5 42.5t42.5 18.5t42 -18.5t18 -42.5q0 -25 -17.5 -43t-42.5 -18t-43 18t-18 43z" />
    <glyph glyph-name="ring" unicode="&#x2da;" 
d="M213 605q0 -16 11 -26.5t26 -10.5t25.5 10.5t10.5 26.5t-10.5 26.5t-25.5 10.5t-26 -10.5t-11 -26.5zM250 501q-45 0 -76.5 30.5t-31.5 73.5t31.5 73.5t76.5 30.5q44 0 75 -31q32 -30 32 -73q0 -44 -32 -74q-31 -30 -75 -30z" />
    <glyph glyph-name="ogonek" unicode="&#x2db;" 
d="M160 -116q0 76 86 128l82 -16q-84 -50 -84 -97q0 -26 24 -26q14 0 30 9l24 -69q-42 -17 -68 -17q-42 0 -68 23.5t-26 64.5z" />
    <glyph glyph-name="tilde" unicode="&#x2dc;" 
d="M235 562l-24 12q-10 2 -11 2q-10 0 -17.5 -8t-18.5 -31l-72 30q39 88 103 88q13 0 30 -6q7 -2 19.5 -8t16.5 -8l25 -11q6 -2 12 -2q9 0 16.5 8.5t18.5 34.5l72 -29q-39 -93 -102 -93q-25 0 -68 21z" />
    <glyph glyph-name="hungarumlaut" unicode="&#x2dd;" 
d="M299 510l-60 40l109 169l81 -52zM139 510l-60 40l109 169l80 -52z" />
    <glyph glyph-name="uni1E9E" unicode="&#x1e9e;" horiz-adv-x="689" 
d="M426 -10q-107 0 -200 73l58 84q73 -54 136 -54q51 0 83.5 34.5t32.5 91.5q0 136 -169 136l-37 72l125 149q-57 21 -118 21q-72 0 -110 -47t-38 -139v-411h-107v413q0 133 67.5 207.5t188.5 74.5q85 0 197 -41l40 -84l-113 -133q88 -16 136.5 -73t48.5 -147
q0 -66 -27.5 -117.5t-79.5 -80.5q-51 -29 -114 -29z" />
    <glyph glyph-name="uni200E" unicode="&#x200e;" horiz-adv-x="0" 
 />
    <glyph glyph-name="uni200F" unicode="&#x200f;" horiz-adv-x="0" 
 />
    <glyph glyph-name="endash" unicode="&#x2013;" 
d="M40 246v83h420v-83h-420z" />
    <glyph glyph-name="emdash" unicode="&#x2014;" horiz-adv-x="1000" 
d="M40 246v83h920v-83h-920z" />
    <glyph glyph-name="quoteleft" unicode="&#x2018;" horiz-adv-x="207" 
d="M131 455h-107l76 230h74z" />
    <glyph glyph-name="quoteright" unicode="&#x2019;" horiz-adv-x="207" 
d="M107 455h-74l42 230h108z" />
    <glyph glyph-name="quotesinglbase" unicode="&#x201a;" horiz-adv-x="207" 
d="M98 -140h-74l43 229h107z" />
    <glyph glyph-name="quotedblleft" unicode="&#x201c;" horiz-adv-x="386" 
d="M309 455h-107l76 230h74zM131 455h-107l76 230h74z" />
    <glyph glyph-name="quotedblright" unicode="&#x201d;" horiz-adv-x="386" 
d="M285 455h-74l42 230h108zM107 455h-74l42 230h108z" />
    <glyph glyph-name="quotedblbase" unicode="&#x201e;" horiz-adv-x="386" 
d="M276 -140h-74l43 229h107zM98 -140h-74l43 229h107z" />
    <glyph glyph-name="dagger" unicode="&#x2020;" horiz-adv-x="554" 
d="M331 452v-552h-108v552h-176v102h176v198h108v-198h176v-102h-176z" />
    <glyph glyph-name="daggerdbl" unicode="&#x2021;" horiz-adv-x="554" 
d="M331 97v-197h-108v197h-176v102h176v253h-176v102h176v198h108v-198h176v-102h-176v-253h176v-102h-176z" />
    <glyph glyph-name="bullet" unicode="&#x2022;" horiz-adv-x="298" 
d="M55 307q0 39 27.5 66.5t66.5 27.5t66.5 -27.5t27.5 -66.5t-27.5 -67t-66.5 -28t-66.5 28t-27.5 67z" />
    <glyph glyph-name="ellipsis" unicode="&#x2026;" horiz-adv-x="792" 
d="M598 53q0 26 19 44.5t44 18.5q26 0 44.5 -18.5t18.5 -44.5t-18.5 -44.5t-44.5 -18.5t-44.5 18.5t-18.5 44.5zM332 53q0 26 19 44.5t44 18.5q26 0 44.5 -18.5t18.5 -44.5t-18.5 -44.5t-44.5 -18.5t-44.5 18.5t-18.5 44.5zM67 53q0 26 19 44.5t44 18.5q26 0 44.5 -18.5
t18.5 -44.5t-18.5 -44.5t-44.5 -18.5t-44.5 18.5t-18.5 44.5z" />
    <glyph glyph-name="perthousand" unicode="&#x2030;" horiz-adv-x="1285" 
d="M988 167q0 -39 24.5 -64.5t61.5 -25.5q36 0 60.5 25.5t24.5 64.5q0 40 -24 65t-61 25t-61.5 -25.5t-24.5 -64.5zM583 167q0 -39 24.5 -64.5t60.5 -25.5t60 25.5t24 64.5q0 40 -23.5 65t-60.5 25t-61 -25t-24 -65zM1074 -10q-105 0 -156 87q-24 41 -24 90q0 105 88 155
q40 23 92 23q49 0 90.5 -23t65.5 -64q23 -40 23 -91q0 -50 -23 -91t-64 -63q-41 -23 -92 -23zM668 -10q-106 0 -157 87q-23 40 -23 90q0 105 88 155q38 23 92 23q49 0 90.5 -23t65.5 -64q23 -40 23 -91q0 -50 -23 -91t-64 -63q-41 -23 -92 -23zM126 516q0 -39 24 -64t61 -25
t61 25t24 64q0 41 -24 66t-61 25t-61 -25.5t-24 -65.5zM267 0h-108l453 685h107zM211 339q-49 0 -90.5 23t-65.5 64q-24 40 -24 90t23.5 91t64.5 65q40 23 92 23q51 0 92.5 -23.5t63.5 -64.5q23 -41 23 -91t-23 -91t-64 -63q-41 -23 -92 -23z" />
    <glyph glyph-name="guilsinglleft" unicode="&#x2039;" horiz-adv-x="371" 
d="M254 -5l-218 219v21l218 220l67 -69l-160 -161l160 -162z" />
    <glyph glyph-name="guilsinglright" unicode="&#x203a;" horiz-adv-x="371" 
d="M116 -5l-67 68l161 160l-161 163l67 69l218 -220v-21z" />
    <glyph glyph-name="fraction" unicode="&#x2044;" horiz-adv-x="170" 
d="M-79 0h-100l429 685h99z" />
    <glyph glyph-name="uni2070" unicode="&#x2070;" horiz-adv-x="362" 
d="M126 616q0 -47 15 -73t40 -26q24 0 39 26t15 73t-15 73.5t-39 26.5q-25 0 -40 -26.5t-15 -73.5zM39 616q0 80 39 130q39 51 103 51t103 -51q39 -50 39 -130q0 -81 -38.5 -130.5t-103.5 -49.5t-103.5 49.5t-38.5 130.5z" />
    <glyph glyph-name="uni2074" unicode="&#x2074;" horiz-adv-x="309" 
d="M165 673l-59 -83h59v83zM242 513v-72h-77v72h-150v62l155 217h72v-202h47v-77h-47z" />
    <glyph glyph-name="uni2075" unicode="&#x2075;" horiz-adv-x="309" 
d="M24 493l45 62q43 -39 80 -39q19 0 30 10.5t11 29.5q0 18 -11.5 29t-32.5 11q-22 0 -47 -15l-57 37l16 174h188v-77h-121l-4 -44q14 3 31 3q53 0 87.5 -33t34.5 -85q0 -53 -35.5 -86.5t-89.5 -33.5q-71 0 -125 57z" />
    <glyph glyph-name="uni2076" unicode="&#x2076;" horiz-adv-x="301" 
d="M107 557q0 -20 12.5 -32.5t32.5 -12.5t32.5 12.5t12.5 32.5q0 21 -13 34.5t-32 13.5q-20 0 -32.5 -13t-12.5 -35zM280 557q0 -53 -36 -87t-92 -34q-53 0 -91 35q-37 34 -37 88q0 59 55 139l64 94h94l-81 -116q53 -1 88.5 -34.5t35.5 -84.5z" />
    <glyph glyph-name="uni2077" unicode="&#x2077;" horiz-adv-x="280" 
d="M139 441h-91l113 274h-144v77h238v-61z" />
    <glyph glyph-name="uni2078" unicode="&#x2078;" horiz-adv-x="329" 
d="M117 548q0 -18 12.5 -28.5t34.5 -10.5q21 0 34.5 11.5t13.5 27.5t-13.5 27.5t-34.5 11.5t-34 -11.5t-13 -27.5zM127 691q0 -34 37 -34q38 0 38 34q0 13 -10.5 22t-27.5 9t-27 -9t-10 -22zM34 545q0 49 44 79q-34 28 -34 69q0 45 34.5 74.5t85.5 29.5t86 -29.5t35 -74.5
q0 -41 -34 -69q44 -30 44 -79q0 -48 -37 -78.5t-94 -30.5q-55 0 -92.5 30.5t-37.5 78.5z" />
    <glyph glyph-name="uni2079" unicode="&#x2079;" horiz-adv-x="301" 
d="M107 676q0 -21 13 -34.5t32 -13.5q20 0 32.5 13t12.5 35q0 20 -12 32t-33 12q-20 0 -32.5 -12.5t-12.5 -31.5zM24 676q0 52 37 86.5t91 34.5t91 -36q37 -34 37 -88q0 -61 -55 -139l-65 -93h-93l81 115q-54 1 -89 34.5t-35 85.5z" />
    <glyph glyph-name="uni2080" unicode="&#x2080;" horiz-adv-x="362" 
d="M126 67q0 -47 15 -73t40 -26q24 0 39 26t15 73t-15 73.5t-39 26.5q-25 0 -40 -26.5t-15 -73.5zM39 67q0 81 39 130q39 51 103 51t103 -51q39 -49 39 -130t-38.5 -130.5t-103.5 -49.5t-103.5 49.5t-38.5 130.5z" />
    <glyph glyph-name="uni2081" unicode="&#x2081;" horiz-adv-x="246" 
d="M91 -108v261l-63 -53v86l68 57h75v-351h-80z" />
    <glyph glyph-name="uni2082" unicode="&#x2082;" horiz-adv-x="308" 
d="M35 -108v61l113 133q26 31 26 54q0 13 -8.5 21t-22.5 8q-25 0 -63 -42l-52 54q48 67 120 67q48 0 79.5 -29.5t31.5 -75.5q0 -47 -45 -98l-68 -78h121v-75h-232z" />
    <glyph glyph-name="uni2083" unicode="&#x2083;" horiz-adv-x="312" 
d="M23 -56l45 63q46 -40 82 -40q18 0 28.5 9.5t10.5 24.5q0 16 -13 26t-34 10h-39v71h37q16 0 25.5 8.5t9.5 22.5q0 13 -9 21t-25 8q-29 0 -64 -39l-50 52q52 67 118 67q48 0 80.5 -28.5t32.5 -73.5q0 -41 -32 -70q47 -29 47 -80q0 -48 -35 -78.5t-88 -30.5q-71 0 -127 57z
" />
    <glyph glyph-name="uni2084" unicode="&#x2084;" horiz-adv-x="309" 
d="M165 124l-59 -83h59v83zM242 -36v-72h-77v72h-150v62l155 217h72v-202h47v-77h-47z" />
    <glyph glyph-name="uni2085" unicode="&#x2085;" horiz-adv-x="309" 
d="M24 -56l45 62q43 -39 80 -39q19 0 30 10.5t11 29.5q0 18 -11.5 29t-32.5 11q-22 0 -47 -15l-57 37l16 174h188v-77h-121l-4 -44q13 3 31 3q53 0 87.5 -33t34.5 -85q0 -53 -35.5 -86.5t-89.5 -33.5q-71 0 -125 57z" />
    <glyph glyph-name="uni2086" unicode="&#x2086;" horiz-adv-x="301" 
d="M107 8q0 -20 12.5 -32.5t32.5 -12.5t32.5 12.5t12.5 32.5q0 21 -13 34.5t-32 13.5q-20 0 -32.5 -13t-12.5 -35zM280 8q0 -53 -36 -87t-92 -34q-53 0 -91 35q-37 34 -37 88q0 59 55 139l64 94h94l-81 -116q53 -1 88.5 -34.5t35.5 -84.5z" />
    <glyph glyph-name="uni2087" unicode="&#x2087;" horiz-adv-x="280" 
d="M139 -108h-91l113 274h-144v77h238v-61z" />
    <glyph glyph-name="uni2088" unicode="&#x2088;" horiz-adv-x="329" 
d="M117 -1q0 -18 12.5 -28.5t34.5 -10.5q21 0 34.5 11.5t13.5 27.5t-13.5 27.5t-34.5 11.5t-34 -11.5t-13 -27.5zM127 142q0 -34 37 -34q38 0 38 34q0 13 -10.5 22t-27.5 9t-27 -9t-10 -22zM34 -4q0 49 44 79q-34 28 -34 69q0 45 34.5 74.5t85.5 29.5t86 -29.5t35 -74.5
q0 -41 -34 -69q44 -30 44 -79q0 -48 -37 -78.5t-94 -30.5q-55 0 -92.5 30.5t-37.5 78.5z" />
    <glyph glyph-name="uni2089" unicode="&#x2089;" horiz-adv-x="301" 
d="M107 127q0 -21 13 -34.5t32 -13.5q20 0 32.5 13t12.5 35q0 20 -12 32t-33 12q-20 0 -32.5 -12.5t-12.5 -31.5zM24 127q0 52 37 86.5t91 34.5t91 -36q37 -34 37 -88q0 -61 -55 -139l-65 -93h-93l81 115q-54 1 -89 34.5t-35 85.5z" />
    <glyph glyph-name="colonmonetary" unicode="&#x20a1;" horiz-adv-x="671" 
d="M212 185l48 365q-95 -74 -95 -208q0 -92 47 -157zM391 593l-22 -2l-64 -482q24 -10 54 -14l65 495l-18 2h-2q-1 0 -4.5 0.5t-8.5 0.5zM383 697h8q25 0 47 -3l14 101h102l-17 -132q49 -24 101 -77l-70 -77q-22 23 -46 41l-59 -446q56 20 112 82l73 -78q-96 -96 -200 -115
l-12 -93h-103l12 91q-25 3 -55 12l-13 -103h-103l20 150q-68 49 -105.5 125t-37.5 167q0 166 110 267q48 45 116 69l16 117h103z" />
    <glyph glyph-name="Euro" unicode="&#x20ac;" horiz-adv-x="759" 
d="M279 52q-85 60 -120 161h-108v99h87l-1 30l1 30h-87v99h108q35 101 119 161q88 63 199 63q141 0 249 -111l-70 -76q-83 83 -179 83q-63 0 -114.5 -32t-80.5 -88h308l-29 -99h-308l-1 -12q-1 -2 -1 -18t1 -18l1 -12h290l-29 -99h-232q29 -56 80.5 -87.5t114.5 -31.5
q100 0 186 93l73 -78q-116 -119 -259 -119q-109 0 -198 62z" />
    <glyph glyph-name="uni20B4" unicode="&#x20b4;" horiz-adv-x="634" 
d="M591 377h-112q-41 -36 -105 -60h217v-99h-387q-6 -15 -6 -34q0 -41 31 -67.5t81 -26.5q106 0 196 84l64 -78q-110 -106 -260 -106q-63 0 -113.5 24.5t-78.5 68.5q-29 47 -29 99q0 20 3 36h-49v99h113q46 35 121 60h-234v99h378q3 14 3 31q0 37 -30 62t-75 25
q-79 0 -153 -63l-65 76q97 88 218 88q130 0 187 -90q28 -43 28 -97l-2 -32h59v-99z" />
    <glyph glyph-name="uni20B5" unicode="&#x20b5;" horiz-adv-x="671" 
d="M213 500q-48 -66 -48 -158q0 -90 48 -157q46 -63 113 -83v481q-66 -19 -113 -83zM428 -10v-93h-102v97q-80 15 -142 63t-97 122q-36 75 -36 163q0 87 36 163t100 125q60 46 139 61v104h102v-100q113 -12 210 -109l-70 -77q-68 68 -140 80v-493q78 14 147 90l73 -78
q-100 -105 -220 -118z" />
    <glyph glyph-name="uni20B9" unicode="&#x20b9;" horiz-adv-x="575" 
d="M191 269l230 -269h-141l-237 281v83h117q81 0 106 62h-223v99h223q-25 61 -106 61h-117v99h492v-99h-182q22 -28 29 -61h153v-99h-153q-13 -68 -63 -108.5t-128 -48.5z" />
    <glyph glyph-name="uni2113" unicode="&#x2113;" horiz-adv-x="381" 
d="M77 164v521h105v-511q0 -39 15.5 -61.5t41.5 -22.5q28 0 65 34l57 -80q-60 -54 -131 -54q-73 0 -113 46t-40 128z" />
    <glyph glyph-name="uni2116" unicode="&#x2116;" horiz-adv-x="1119" 
d="M760 255v75h327v-75h-327zM849 529q0 -36 21.5 -59.5t53.5 -23.5t53 23.5t21 59.5q0 37 -21 59.5t-53 22.5t-53.5 -23t-21.5 -59zM529 0l-329 496v-496h-104v685h103l329 -496v496h104v-685h-103zM924 364q-99 0 -143 80q-21 39 -21 85q0 99 81 145q37 21 83 21
q99 0 142 -80q21 -39 21 -86q0 -45 -21.5 -83.5t-58.5 -60.5q-37 -21 -83 -21z" />
    <glyph glyph-name="trademark" unicode="&#x2122;" horiz-adv-x="703" 
d="M592 381l-24 163l-62 -163h-66l-63 164l-24 -164h-79l52 304h72l76 -200l75 200h72l51 -304h-80zM183 613v-232h-81v232h-84v72h249v-72h-84z" />
    <glyph glyph-name="uni2126" unicode="&#x2126;" horiz-adv-x="797" 
d="M632 97h103v-97h-264v89q72 28 113 97q41 68 41 155q0 71 -29 128t-81 89q-51 33 -116 33q-63 0 -114.5 -32.5t-82.5 -89.5q-30 -57 -30 -128q0 -88 40 -155q41 -69 113 -97v-89h-264v97h103q-50 44 -78 110t-28 142q0 96 44.5 175.5t123.5 125.5q78 45 173 45
q94 0 173 -45.5t123 -124.5t44 -176q0 -75 -28 -141.5t-79 -110.5z" />
    <glyph glyph-name="estimated" unicode="&#x212e;" horiz-adv-x="722" 
d="M183 443v-146h356v149q0 8 -5 13q-74 77 -172 77q-106 0 -174 -80q-5 -3 -5 -13zM667 263h-484v-147q0 -8 4 -12q73 -79 175 -79q111 0 186 92h68q-103 -127 -255 -127q-83 0 -153 38t-112 106q-41 67 -41 145q0 80 40.5 147.5t112.5 107.5q70 39 153 39t153.5 -39
t111.5 -107t41 -148v-16z" />
    <glyph glyph-name="uni2150" unicode="&#x2150;" horiz-adv-x="696" 
d="M555 0h-91l113 274h-144v77h238v-61zM157 0h-100l429 685h99zM91 334v261l-63 -53v86l68 57h75v-351h-80z" />
    <glyph glyph-name="uni2151" unicode="&#x2151;" horiz-adv-x="717" 
d="M523 235q0 -21 13 -34.5t32 -13.5q20 0 32.5 13t12.5 35q0 20 -12 32t-33 12q-20 0 -32.5 -12.5t-12.5 -31.5zM440 235q0 52 37 86.5t91 34.5t91 -36q37 -34 37 -88q0 -61 -55 -139l-65 -93h-93l81 115q-54 1 -89 34.5t-35 85.5zM168 0h-100l429 685h99zM91 334v261
l-63 -53v86l68 57h75v-351h-80z" />
    <glyph glyph-name="uni2153" unicode="&#x2153;" horiz-adv-x="728" 
d="M439 52l45 63q46 -40 82 -40q18 0 28.5 9.5t10.5 24.5q0 16 -13 26t-34 10h-39v71h37q16 0 25.5 8.5t9.5 22.5q0 13 -9 21t-25 8q-29 0 -64 -39l-50 52q52 67 118 67q48 0 80.5 -28.5t32.5 -73.5q0 -41 -32 -70q47 -29 47 -80q0 -48 -35 -78.5t-88 -30.5q-71 0 -127 57z
M167 0h-100l429 685h99zM91 334v261l-63 -53v86l68 57h75v-351h-80z" />
    <glyph glyph-name="uni2154" unicode="&#x2154;" horiz-adv-x="790" 
d="M501 52l45 63q46 -40 82 -40q18 0 28.5 9.5t10.5 24.5q0 16 -13 26t-34 10h-39v71h37q16 0 25.5 8.5t9.5 22.5q0 13 -9 21t-25 8q-29 0 -64 -39l-50 52q52 67 118 67q48 0 80.5 -28.5t32.5 -73.5q0 -41 -32 -70q47 -29 47 -80q0 -48 -35 -78.5t-88 -30.5q-71 0 -127 57z
M237 0h-100l429 685h99zM35 334v61l113 133q26 31 26 54q0 13 -8.5 21t-22.5 8q-25 0 -63 -42l-52 54q48 67 120 67q48 0 79.5 -29.5t31.5 -75.5q0 -47 -45 -98l-68 -78h121v-75h-232z" />
    <glyph glyph-name="uni2155" unicode="&#x2155;" horiz-adv-x="725" 
d="M440 52l45 62q43 -39 80 -39q19 0 30 10.5t11 29.5q0 18 -11.5 29t-32.5 11q-22 0 -47 -15l-57 37l16 174h188v-77h-121l-4 -44q13 3 31 3q53 0 87.5 -33t34.5 -85q0 -53 -35.5 -86.5t-89.5 -33.5q-71 0 -125 57zM167 0h-100l429 685h99zM91 334v261l-63 -53v86l68 57h75
v-351h-80z" />
    <glyph glyph-name="uni2156" unicode="&#x2156;" horiz-adv-x="787" 
d="M502 52l45 62q43 -39 80 -39q19 0 30 10.5t11 29.5q0 18 -11.5 29t-32.5 11q-22 0 -47 -15l-57 37l16 174h188v-77h-121l-4 -44q13 3 31 3q53 0 87.5 -33t34.5 -85q0 -53 -35.5 -86.5t-89.5 -33.5q-71 0 -125 57zM237 0h-100l429 685h99zM35 334v61l113 133q26 31 26 54
q0 13 -8.5 21t-22.5 8q-25 0 -63 -42l-52 54q48 67 120 67q48 0 79.5 -29.5t31.5 -75.5q0 -47 -45 -98l-68 -78h121v-75h-232z" />
    <glyph glyph-name="uni2157" unicode="&#x2157;" horiz-adv-x="792" 
d="M506 52l45 62q43 -39 80 -39q19 0 30 10.5t11 29.5q0 18 -11.5 29t-32.5 11q-22 0 -47 -15l-57 37l16 174h188v-77h-121l-4 -44q13 3 31 3q53 0 87.5 -33t34.5 -85q0 -53 -35.5 -86.5t-89.5 -33.5q-71 0 -125 57zM233 0h-100l429 685h99zM23 386l45 63q46 -40 82 -40
q18 0 28.5 9.5t10.5 24.5q0 16 -13 26t-34 10h-39v71h37q16 0 25.5 8.5t9.5 22.5q0 13 -9 21t-25 8q-29 0 -64 -39l-50 52q52 67 118 67q48 0 80.5 -28.5t32.5 -73.5q0 -41 -32 -70q47 -29 47 -80q0 -48 -35 -78.5t-88 -30.5q-71 0 -127 57z" />
    <glyph glyph-name="uni2158" unicode="&#x2158;" horiz-adv-x="789" 
d="M504 52l45 62q43 -39 80 -39q19 0 30 10.5t11 29.5q0 18 -11.5 29t-32.5 11q-22 0 -47 -15l-57 37l16 174h188v-77h-121l-4 -44q13 3 31 3q53 0 87.5 -33t34.5 -85q0 -53 -35.5 -86.5t-89.5 -33.5q-71 0 -125 57zM165 566l-59 -83h59v83zM230 0h-100l429 685h99zM242 406
v-72h-77v72h-150v62l155 217h72v-202h47v-77h-47z" />
    <glyph glyph-name="uni2159" unicode="&#x2159;" horiz-adv-x="717" 
d="M523 116q0 -20 12.5 -32.5t32.5 -12.5t32.5 12.5t12.5 32.5q0 21 -13 34.5t-32 13.5q-20 0 -32.5 -13t-12.5 -35zM696 116q0 -53 -36 -87t-92 -34q-53 0 -91 35q-37 34 -37 88q0 59 55 139l64 94h94l-81 -116q53 -1 88.5 -34.5t35.5 -84.5zM178 0h-100l429 685h99z
M91 334v261l-63 -53v86l68 57h75v-351h-80z" />
    <glyph glyph-name="uni215A" unicode="&#x215a;" horiz-adv-x="781" 
d="M586 116q0 -20 12.5 -32.5t32.5 -12.5t32.5 12.5t12.5 32.5q0 21 -13 34.5t-32 13.5q-20 0 -32.5 -13t-12.5 -35zM759 116q0 -53 -36 -87t-92 -34q-53 0 -91 35q-37 34 -37 88q0 59 55 139l64 94h94l-81 -116q53 -1 88.5 -34.5t35.5 -84.5zM241 0h-100l429 685h99z
M24 386l45 62q43 -39 80 -39q19 0 30 10.5t11 29.5q0 18 -11.5 29t-32.5 11q-22 0 -47 -15l-57 37l16 174h188v-77h-121l-4 -44q14 3 31 3q53 0 87.5 -33t34.5 -85q0 -53 -35.5 -86.5t-89.5 -33.5q-71 0 -125 57z" />
    <glyph glyph-name="oneeighth" unicode="&#x215b;" horiz-adv-x="746" 
d="M533 107q0 -18 12.5 -28.5t34.5 -10.5q21 0 34.5 11.5t13.5 27.5t-13.5 27.5t-34.5 11.5t-34 -11.5t-13 -27.5zM543 250q0 -34 37 -34q38 0 38 34q0 13 -10.5 22t-27.5 9t-27 -9t-10 -22zM450 104q0 49 44 79q-34 28 -34 69q0 45 34.5 74.5t85.5 29.5t86 -29.5t35 -74.5
q0 -41 -34 -69q44 -30 44 -79q0 -48 -37 -78.5t-94 -30.5q-55 0 -92.5 30.5t-37.5 78.5zM170 0h-100l429 685h99zM91 334v261l-63 -53v86l68 57h75v-351h-80z" />
    <glyph glyph-name="threeeighths" unicode="&#x215c;" horiz-adv-x="812" 
d="M599 107q0 -18 12.5 -28.5t34.5 -10.5q21 0 34.5 11.5t13.5 27.5t-13.5 27.5t-34.5 11.5t-34 -11.5t-13 -27.5zM609 250q0 -34 37 -34q38 0 38 34q0 13 -10.5 22t-27.5 9t-27 -9t-10 -22zM516 104q0 49 44 79q-34 28 -34 69q0 45 34.5 74.5t85.5 29.5t86 -29.5t35 -74.5
q0 -41 -34 -69q44 -30 44 -79q0 -48 -37 -78.5t-94 -30.5q-55 0 -92.5 30.5t-37.5 78.5zM233 0h-100l429 685h99zM23 386l45 63q46 -40 82 -40q18 0 28.5 9.5t10.5 24.5q0 16 -13 26t-34 10h-39v71h37q16 0 25.5 8.5t9.5 22.5q0 13 -9 21t-25 8q-29 0 -64 -39l-50 52
q52 67 118 67q48 0 80.5 -28.5t32.5 -73.5q0 -41 -32 -70q47 -29 47 -80q0 -48 -35 -78.5t-88 -30.5q-71 0 -127 57z" />
    <glyph glyph-name="fiveeighths" unicode="&#x215d;" horiz-adv-x="809" 
d="M596 107q0 -18 12.5 -28.5t34.5 -10.5q21 0 34.5 11.5t13.5 27.5t-13.5 27.5t-34.5 11.5t-34 -11.5t-13 -27.5zM606 250q0 -34 37 -34q38 0 38 34q0 13 -10.5 22t-27.5 9t-27 -9t-10 -22zM513 104q0 49 44 79q-34 28 -34 69q0 45 34.5 74.5t85.5 29.5t86 -29.5t35 -74.5
q0 -41 -34 -69q44 -30 44 -79q0 -48 -37 -78.5t-94 -30.5q-55 0 -92.5 30.5t-37.5 78.5zM234 0h-100l429 685h99zM24 386l45 62q43 -39 80 -39q19 0 30 10.5t11 29.5q0 18 -11.5 29t-32.5 11q-22 0 -47 -15l-57 37l16 174h188v-77h-121l-4 -44q14 3 31 3q53 0 87.5 -33
t34.5 -85q0 -53 -35.5 -86.5t-89.5 -33.5q-71 0 -125 57z" />
    <glyph glyph-name="seveneighths" unicode="&#x215e;" horiz-adv-x="780" 
d="M567 107q0 -18 12.5 -28.5t34.5 -10.5q21 0 34.5 11.5t13.5 27.5t-13.5 27.5t-34.5 11.5t-34 -11.5t-13 -27.5zM577 250q0 -34 37 -34q38 0 38 34q0 13 -10.5 22t-27.5 9t-27 -9t-10 -22zM484 104q0 49 44 79q-34 28 -34 69q0 45 34.5 74.5t85.5 29.5t86 -29.5t35 -74.5
q0 -41 -34 -69q44 -30 44 -79q0 -48 -37 -78.5t-94 -30.5q-55 0 -92.5 30.5t-37.5 78.5zM191 0h-100l429 685h99zM139 334h-91l113 274h-144v77h238v-61z" />
    <glyph glyph-name="partialdiff" unicode="&#x2202;" horiz-adv-x="566" 
d="M169 288q-19 -40 -19 -79q0 -53 30 -86.5t75 -33.5q59 0 99 55t54 157q-46 61 -122 61q-80 0 -117 -74zM358 573q-22 22 -58 22q-55 0 -118 -56l-64 71q89 85 189 85q129 0 185 -137q25 -62 25 -154q0 -257 -123 -362q-61 -52 -143 -52q-60 0 -107.5 27t-73.5 76
q-26 48 -26 111q0 72 30.5 131t85.5 92q56 33 123 33q75 0 131 -42q-2 104 -56 155z" />
    <glyph glyph-name="uni2206" unicode="&#x2206;" horiz-adv-x="662" 
d="M329 545l-180 -446h360zM33 0v85l247 600h103l245 -600v-85h-595z" />
    <glyph glyph-name="product" unicode="&#x220f;" horiz-adv-x="731" 
d="M594 584v-584h-110v584h-237v-584h-110v584h-111v101h679v-101h-111z" />
    <glyph glyph-name="summation" unicode="&#x2211;" horiz-adv-x="562" 
d="M26 -133v83l278 339l-268 313v83h481v-102h-326l219 -254v-72l-237 -288h363v-102h-510z" />
    <glyph glyph-name="minus" unicode="&#x2212;" 
d="M38 298v78h424v-78h-424z" />
    <glyph glyph-name="uni2215" unicode="&#x2215;" horiz-adv-x="170" 
d="M-79 0h-100l429 685h99z" />
    <glyph glyph-name="radical" unicode="&#x221a;" horiz-adv-x="541" 
d="M284 0h-89l-170 372l93 41l119 -269l184 548l95 -30z" />
    <glyph glyph-name="infinity" unicode="&#x221e;" horiz-adv-x="635" 
d="M363 299q21 -41 40.5 -57t46.5 -16q28 0 47 19.5t19 47.5q0 31 -18.5 49t-50.5 18q-41 0 -84 -61zM119 292q0 -28 18 -47t45 -19q23 0 43 15t47 53q-35 66 -86 66q-28 0 -47.5 -20t-19.5 -48zM312 222q-59 -80 -138 -80q-40 0 -74 19.5t-54 53.5t-20 77t20.5 78.5
t57.5 54.5q36 19 80 19q88 0 138 -74q57 74 130 74q67 0 112 -43q45 -44 45 -108q0 -65 -45 -109q-44 -42 -112 -42q-85 0 -140 80z" />
    <glyph glyph-name="integral" unicode="&#x222b;" horiz-adv-x="478" 
d="M350 594q-27 0 -42.5 -21.5t-15.5 -60.5v-547q0 -80 -42.5 -127.5t-115.5 -47.5q-69 0 -132 55l57 77q35 -31 68 -31q27 0 42.5 21.5t15.5 60.5v547q0 80 43 127.5t116 47.5q69 0 133 -56l-59 -76q-35 31 -68 31z" />
    <glyph glyph-name="approxequal" unicode="&#x2248;" 
d="M236 233l-45 14q-9 3 -22 3q-21 0 -34.5 -10t-27.5 -37l-79 35q38 97 133 97q37 0 103 -22q18 -6 45 -12q18 -4 22 -4q21 0 34.5 10t27.5 37l79 -35q-38 -97 -133 -97q-33 0 -103 21zM236 411l-45 14q-9 3 -22 3q-21 0 -34.5 -10t-27.5 -37l-79 35q38 97 133 97
q37 0 103 -22q18 -6 45 -12q18 -4 22 -4q21 0 34.5 10t27.5 37l79 -35q-38 -97 -133 -97q-33 0 -103 21z" />
    <glyph glyph-name="notequal" unicode="&#x2260;" 
d="M245 202l-52 -121l-88 37l35 84h-102v94h142l35 81h-177v95h216l52 123l89 -37l-36 -86h103v-95h-144l-34 -81h178v-94h-217z" />
    <glyph glyph-name="lessequal" unicode="&#x2264;" 
d="M33 0v95h433v-95h-433zM420 125l-387 176v88l387 177l35 -93l-280 -129l280 -125z" />
    <glyph glyph-name="greaterequal" unicode="&#x2265;" 
d="M33 0v95h433v-95h-433zM79 125l-35 94l280 125l-280 129l35 93l387 -177v-88z" />
    <glyph glyph-name="lozenge" unicode="&#x25ca;" horiz-adv-x="529" 
d="M263 569l-127 -227l127 -227l127 227zM308 0h-88l-194 334v16l194 335h88l194 -335v-16z" />
    <glyph glyph-name="uniF6C3" unicode="&#xf6c3;" horiz-adv-x="0" 
d="M-211 -169l-48 -95l-60 19l33 85q-23 18 -23 48q0 24 16.5 41t40.5 17t40.5 -18.5t16.5 -44.5q0 -20 -16 -52z" />
    <glyph glyph-name="fi" unicode="&#xfb01;" horiz-adv-x="566" 
d="M369 568q0 28 19.5 48t46.5 20q28 0 47.5 -20t19.5 -48t-19.5 -48t-47.5 -20q-27 0 -46.5 20t-19.5 48zM205 456h284v-456h-107v360h-164v-360h-107v360h-93v91l82 4q-22 54 -22 99q0 73 46 117t121 44q74 0 146 -57l-53 -79q-43 37 -82 37q-32 0 -52 -21t-20 -55
q0 -28 21 -84z" />
    <glyph glyph-name="fl" unicode="&#xfb02;" horiz-adv-x="566" 
d="M382 0v578q-61 38 -116 38q-37 0 -59 -21.5t-22 -58.5q0 -34 21 -80h112v-96h-100v-360h-107v360h-91v91l80 4q-22 60 -22 96q0 75 48.5 119.5t127.5 44.5q76 0 143 -37l6 27h85v-705h-106z" />
    <glyph glyph-name="kgreenlandic.case" horiz-adv-x="733" 
d="M697 455h-107l76 230h74zM492 0l-283 284l-2 -284h-111v685h111l2 -264l269 264h138l-323 -324l345 -361h-146z" />
    <glyph glyph-name="napostrophe.case" horiz-adv-x="796" 
d="M528 685h104v-685h-103l-329 496v-496h-104v628l-57 -173h-74l42 230h192l329 -496v496z" />
    <glyph glyph-name="i.dot" horiz-adv-x="247" 
d="M76 0v455h95v-455h-95zM64 586q0 28 17.5 48t41.5 20q25 0 42.5 -20t17.5 -48t-17.5 -48t-42.5 -20q-24 0 -41.5 20t-17.5 48z" />
    <glyph glyph-name="caron.alt" 
d="M351 501h-68v184h81z" />
    <glyph glyph-name="revcommaaccent" 
 />
    <glyph glyph-name="breve_cyr" horiz-adv-x="335" 
d="M56 547q-45 36 -45 91v28h89v-26q0 -55 67 -55t67 54v27h89v-30q0 -56 -43.5 -90t-112.5 -34q-68 0 -111 35z" />
    <glyph glyph-name="shinwithshinDot" horiz-adv-x="737" 
 />
    <glyph glyph-name="shinwithsinDot" horiz-adv-x="737" 
 />
    <glyph glyph-name="shinwithdageshandshinDot" horiz-adv-x="737" 
 />
    <glyph glyph-name="shinwithdageshandsinDot" horiz-adv-x="737" 
 />
    <glyph glyph-name="alefwithpatah" horiz-adv-x="545" 
 />
    <glyph glyph-name="alefwithqamats" horiz-adv-x="545" 
 />
    <glyph glyph-name="alefwithmapiq" horiz-adv-x="545" 
 />
    <glyph glyph-name="betwithdagesh" horiz-adv-x="548" 
 />
    <glyph glyph-name="gimelwithdagesh" horiz-adv-x="430" 
 />
    <glyph glyph-name="daletwithdagesh" horiz-adv-x="493" 
 />
    <glyph glyph-name="hewithmapiq" horiz-adv-x="618" 
 />
    <glyph glyph-name="vavwithdagesh" horiz-adv-x="280" 
 />
    <glyph glyph-name="zayinwithdagesh" horiz-adv-x="339" 
 />
    <glyph glyph-name="tetwithdagesh" horiz-adv-x="601" 
 />
    <glyph glyph-name="yodwithdagesh" horiz-adv-x="238" 
 />
    <glyph glyph-name="yodwithhiriq" horiz-adv-x="238" 
 />
    <glyph glyph-name="finalkafwithdagesh" horiz-adv-x="481" 
 />
    <glyph glyph-name="kafwithdagesh" horiz-adv-x="503" 
 />
    <glyph glyph-name="lamedwithdagesh" horiz-adv-x="491" 
 />
    <glyph glyph-name="memwithdagesh" horiz-adv-x="634" 
 />
    <glyph glyph-name="nunwithdagesh" horiz-adv-x="399" 
 />
    <glyph glyph-name="samekhwithdagesh" horiz-adv-x="597" 
 />
    <glyph glyph-name="finalpewithdagesh" horiz-adv-x="578" 
 />
    <glyph glyph-name="pewithdagesh" horiz-adv-x="569" 
 />
    <glyph glyph-name="tsadiwithdagesh" horiz-adv-x="527" 
 />
    <glyph glyph-name="qofwithdagesh" horiz-adv-x="580" 
 />
    <glyph glyph-name="reshwithdagesh" horiz-adv-x="481" 
 />
    <glyph glyph-name="shinwithdagesh" horiz-adv-x="737" 
 />
    <glyph glyph-name="tavwithdagesh" horiz-adv-x="686" 
 />
    <glyph glyph-name="vavwithholam" horiz-adv-x="280" 
 />
    <glyph glyph-name="geresh" horiz-adv-x="200" 
 />
    <glyph glyph-name="gershayim" horiz-adv-x="379" 
 />
    <glyph glyph-name="maqaf" horiz-adv-x="450" 
 />
    <glyph glyph-name="hatafSegol" horiz-adv-x="0" 
 />
    <glyph glyph-name="hatafPatah" horiz-adv-x="0" 
 />
    <glyph glyph-name="hatafQamats" horiz-adv-x="0" 
 />
    <glyph glyph-name="holamHaser" horiz-adv-x="0" 
 />
    <glyph glyph-name="shinDot" horiz-adv-x="0" 
 />
    <glyph glyph-name="sinDot" horiz-adv-x="0" 
 />
    <glyph glyph-name="qamatsQatan" horiz-adv-x="0" 
 />
    <glyph glyph-name="dotlessFeh.medi" horiz-adv-x="506" 
 />
    <glyph glyph-name="dotlessFeh.init" horiz-adv-x="494" 
 />
    <glyph glyph-name="tashdid_fathehTanvin.cmps" horiz-adv-x="0" 
 />
    <glyph glyph-name="wasleh" horiz-adv-x="0" 
 />
    <glyph glyph-name="wavyHamzehAbove" horiz-adv-x="0" 
 />
    <glyph glyph-name="hamzehAbove_fatheh.cmps" horiz-adv-x="0" 
 />
    <glyph glyph-name="hamzehAbove_sukun.cmps" horiz-adv-x="0" 
 />
    <glyph glyph-name="hamzehAbove_tashdid.cmps" horiz-adv-x="0" 
 />
    <glyph glyph-name="hamzehAbove_zameh.cmps" horiz-adv-x="0" 
 />
    <glyph glyph-name="hamzehAbove_zamehTanvin.cmps" horiz-adv-x="0" 
 />
    <glyph glyph-name="hamzehBelow_kasreh.cmps" horiz-adv-x="0" 
 />
    <glyph glyph-name="hamzehBelow_kasrehTanvin.cmps" horiz-adv-x="0" 
 />
    <glyph glyph-name="ovalComp" horiz-adv-x="0" 
 />
    <glyph glyph-name="threeDotSmall" horiz-adv-x="855" 
d="M799 18h-756v88h756v-88zM354 199q0 -18 14 -31t33 -13q20 0 34.5 12.5t14.5 31.5q0 18 -14.5 31t-34.5 13q-19 0 -33 -13t-14 -31zM363 445h-218v-86h182v-84h-182v-122h-99v376h317v-84zM794 409h-91q0 17 -20 32.5t-46 15.5q-24 0 -43.5 -11t-19.5 -26q0 -21 11 -33
t47 -20l32 -7q37 -8 55.5 -13.5t40 -15.5t30.5 -26t10 -39q1 -51 -44 -82t-117 -31q-82 0 -125 41t-43 94l87 -1q0 -6 3 -14.5t11 -19.5t26 -19t43 -8q29 0 47.5 10.5t18.5 23.5q0 28 -71 43q-69 15 -112 39q-44 24 -44 76q0 50 45 81.5t114 31.5q71 0 113 -37t42 -85z
M801 578h-756v88h756v-88z" />
    <glyph glyph-name="zero.tlf" horiz-adv-x="586" 
d="M164 342q0 -154 64 -220q29 -29 65 -29q37 0 66.5 30t45.5 86q16 54 16 133q0 116 -35 182.5t-93 66.5t-93.5 -66.5t-35.5 -182.5zM293 -10q-72 0 -127.5 44.5t-84.5 125.5q-29 78 -29 182q0 103 29.5 183t84.5 125t127 45t127.5 -44.5t84.5 -125.5q29 -78 29 -183
q0 -100 -30 -180t-84 -126q-55 -46 -127 -46z" />
    <glyph glyph-name="one.tlf" horiz-adv-x="586" 
d="M89 0v100h163v477l-151 -85l-4 107l157 86h108v-585h150v-100h-423z" />
    <glyph glyph-name="two.tlf" horiz-adv-x="586" 
d="M82 0v78l236 283q65 78 65 139q0 41 -26.5 67.5t-68.5 26.5q-72 0 -144 -89l-70 70q96 120 217 120q57 0 103.5 -24.5t71.5 -68.5q26 -45 26 -98q0 -51 -22 -98.5t-72 -106.5l-171 -202h286v-97h-431z" />
    <glyph glyph-name="three.tlf" horiz-adv-x="586" 
d="M286 -10q-137 0 -235 113l64 76q84 -87 171 -87q50 0 82 30t32 76q0 47 -36 77.5t-93 30.5h-97v98h96q44 0 72.5 27t28.5 69t-27 68t-72 26q-69 0 -143 -87l-69 68q96 120 215 120q57 0 104.5 -24.5t74.5 -68.5q26 -44 26 -99q0 -90 -83 -143q53 -24 82.5 -67.5
t29.5 -97.5q0 -58 -29 -105.5t-81 -73.5q-54 -26 -113 -26z" />
    <glyph glyph-name="four.tlf" horiz-adv-x="586" 
d="M347 521l-189 -265h189v265zM451 157v-157h-104v157h-315v78l321 450h98v-429h96v-99h-96z" />
    <glyph glyph-name="five.tlf" horiz-adv-x="586" 
d="M288 -10q-136 0 -233 112l65 77q81 -88 168 -88q53 0 86 35q35 38 35 91q0 55 -35 90.5t-89 35.5q-64 0 -114 -40l-80 45l30 337h344v-98h-254l-15 -163q47 18 95 18q65 0 117 -28.5t81 -80.5t29 -116t-29.5 -116t-82.5 -82q-53 -29 -118 -29z" />
    <glyph glyph-name="six.tlf" horiz-adv-x="586" 
d="M291 353q-55 0 -91 -38q-36 -37 -36 -95t36 -95q37 -37 91 -37q53 0 90 37q36 37 36 95t-36 95q-36 38 -90 38zM291 -10q-65 0 -118 30.5t-84 84.5q-31 55 -31 118q0 108 103 258l140 204h120l-167 -240q16 3 37 3q65 0 119.5 -29.5t85.5 -81.5q30 -49 30 -117
q0 -135 -114 -200q-54 -30 -121 -30z" />
    <glyph glyph-name="seven.tlf" horiz-adv-x="586" 
d="M269 0h-116l239 587h-333v98h455v-78z" />
    <glyph glyph-name="eight.tlf" horiz-adv-x="586" 
d="M166 199q0 -47 36 -78q38 -32 91 -32q52 0 90 32q36 30 36 78t-35.5 80t-90.5 32t-91 -32t-36 -80zM189 500q0 -42 29 -69.5t75 -27.5t75 27.5t29 69.5q0 40 -29.5 67.5t-74.5 27.5t-74.5 -27.5t-29.5 -67.5zM293 -10q-65 0 -119 27t-86 73q-31 45 -31 105
q0 52 26.5 95.5t73.5 70.5q-77 52 -77 142q0 52 28 96t78 71q47 25 107 25q59 0 107.5 -24.5t77.5 -69.5q28 -43 28 -98q0 -90 -77 -142q47 -28 73.5 -71.5t26.5 -94.5q0 -57 -31 -103.5t-86 -74.5q-54 -27 -119 -27z" />
    <glyph glyph-name="nine.tlf" horiz-adv-x="586" 
d="M293 596q-53 0 -89 -38t-36 -94q0 -58 35 -96q34 -37 90 -37q54 0 91 37q37 38 37 96q0 56 -37 94q-36 38 -91 38zM424 203l-140 -203h-120l167 239q-18 -3 -38 -3q-66 0 -119 29.5t-84 82.5q-31 52 -31 116t30.5 117.5t84.5 84.5q53 29 119 29t119.5 -30t84.5 -85
q30 -53 30 -119q0 -108 -103 -258z" />
    <glyph glyph-name="zero.posf" horiz-adv-x="600" 
d="M300 403q-84 0 -125 -76q-19 -36 -19 -81q0 -92 71 -136q33 -21 73 -21t73 20.5t52 56.5q18 36 18 80q0 94 -69 137q-32 20 -74 20zM300 -10q-72 0 -129.5 33t-89.5 92q-33 58 -33 131q0 72 32.5 131t90.5 93q57 33 129 33q71 0 128.5 -33t90.5 -92q33 -58 33 -132
q0 -72 -32.5 -130.5t-89.5 -91.5q-58 -34 -130 -34z" />
    <glyph glyph-name="one.posf" horiz-adv-x="457" 
d="M53 0v95h136v294l-130 -81l2 104l132 81h103v-398h122v-95h-365z" />
    <glyph glyph-name="two.posf" horiz-adv-x="482" 
d="M48 0v75l164 129q54 42 73.5 70t19.5 62q0 30 -22 49.5t-58 19.5q-60 0 -115 -69l-76 65q80 102 197 102q82 0 132.5 -43t50.5 -114q0 -56 -30 -102t-102 -101l-66 -50h229v-93h-397z" />
    <glyph glyph-name="three.posf" horiz-adv-x="498" 
d="M234 -166q-128 0 -217 107l67 73q70 -80 147 -80q51 0 83.5 32t32.5 82q0 51 -34.5 81.5t-93.5 30.5h-44l-46 65l157 171h-242v97h382v-75l-156 -164q77 -10 128 -61q57 -57 57 -145q0 -60 -28 -109t-79 -77q-49 -28 -114 -28z" />
    <glyph glyph-name="four.posf" horiz-adv-x="548" 
d="M322 340l-177 -239h177v239zM422 8v-164h-100v164h-301v74l309 411h92v-392h96v-93h-96z" />
    <glyph glyph-name="five.posf" horiz-adv-x="507" 
d="M244 -166q-127 0 -219 110l65 75q41 -47 76.5 -66t77.5 -19q50 0 82 34.5t32 89.5q0 54 -33 88t-84 34q-54 0 -101 -37l-79 43l30 307h326v-97h-240l-14 -137q42 17 85 17q62 0 112 -28t78 -78q28 -49 28 -113q0 -63 -28.5 -114t-79.5 -80t-114 -29z" />
    <glyph glyph-name="six.posf" horiz-adv-x="559" 
d="M280 358q-56 0 -92 -39q-36 -37 -36 -97q0 -58 36 -97t92 -39q77 0 110 67q17 32 17 69q0 59 -37 97q-36 39 -90 39zM280 -10q-65 0 -118.5 31t-84.5 85q-31 53 -31 120q0 112 104 254l136 186h121l-160 -218q18 3 33 3q64 0 118.5 -29.5t85.5 -81.5q30 -51 30 -118
q0 -66 -30 -118.5t-84 -83.5q-54 -30 -120 -30z" />
    <glyph glyph-name="seven.posf" horiz-adv-x="452" 
d="M185 -156h-113l237 552h-289v97h407v-78z" />
    <glyph glyph-name="eight.posf" horiz-adv-x="561" 
d="M160 194q0 -46 34 -77t86 -31t86 31t34 77q0 47 -34 78t-86 31t-86 -31t-34 -78zM180 488q0 -40 28.5 -66.5t71.5 -26.5t71.5 26.5t28.5 66.5t-27.5 66t-72.5 26t-72.5 -26t-27.5 -66zM280 -10q-62 0 -114.5 26.5t-83.5 71.5q-31 47 -31 102q0 106 95 163q-72 56 -72 138
q0 52 27 94t75 67q47 24 104 24t104 -24t75 -67q27 -42 27 -94q0 -82 -72 -138q95 -57 95 -163q0 -55 -30 -101t-84 -73q-52 -26 -115 -26z" />
    <glyph glyph-name="nine.posf" horiz-adv-x="560" 
d="M281 402q-55 0 -91 -39q-36 -37 -36 -97q0 -79 63 -117q29 -18 64 -18q56 0 92 38t36 97t-37 97q-36 39 -91 39zM411 9l-114 -165h-122l141 197q-15 -3 -35 -3q-66 0 -119 29.5t-84 82.5q-31 52 -31 116q0 66 30 119t84 84q53 30 120 30q66 0 119.5 -30.5t84.5 -85.5
q30 -53 30 -120q0 -104 -104 -254z" />
    <glyph glyph-name="zero.numerator" horiz-adv-x="362" 
d="M126 509q0 -47 15 -73t40 -26q24 0 39 26t15 73t-15 73.5t-39 26.5q-25 0 -40 -26.5t-15 -73.5zM39 509q0 81 39 130q39 51 103 51t103 -51q39 -49 39 -130t-38.5 -130.5t-103.5 -49.5t-103.5 49.5t-38.5 130.5z" />
    <glyph glyph-name="one.numerator" horiz-adv-x="246" 
d="M91 334v261l-63 -53v86l68 57h75v-351h-80z" />
    <glyph glyph-name="two.numerator" horiz-adv-x="308" 
d="M35 334v61l113 133q26 31 26 54q0 13 -8.5 21t-22.5 8q-25 0 -63 -42l-52 54q48 67 120 67q48 0 79.5 -29.5t31.5 -75.5q0 -47 -45 -98l-68 -78h121v-75h-232z" />
    <glyph glyph-name="three.numerator" horiz-adv-x="312" 
d="M23 386l45 63q46 -40 82 -40q18 0 28.5 9.5t10.5 24.5q0 16 -13 26t-34 10h-39v71h37q16 0 25.5 8.5t9.5 22.5q0 13 -9 21t-25 8q-29 0 -64 -39l-50 52q52 67 118 67q48 0 80.5 -28.5t32.5 -73.5q0 -41 -32 -70q47 -29 47 -80q0 -48 -35 -78.5t-88 -30.5q-71 0 -127 57z
" />
    <glyph glyph-name="four.numerator" horiz-adv-x="309" 
d="M165 566l-59 -83h59v83zM242 406v-72h-77v72h-150v62l155 217h72v-202h47v-77h-47z" />
    <glyph glyph-name="five.numerator" horiz-adv-x="309" 
d="M24 386l45 62q43 -39 80 -39q19 0 30 10.5t11 29.5q0 18 -11.5 29t-32.5 11q-22 0 -47 -15l-57 37l16 174h188v-77h-121l-4 -44q14 3 31 3q53 0 87.5 -33t34.5 -85q0 -53 -35.5 -86.5t-89.5 -33.5q-71 0 -125 57z" />
    <glyph glyph-name="six.numerator" horiz-adv-x="301" 
d="M107 450q0 -20 12.5 -32.5t32.5 -12.5t32.5 12.5t12.5 32.5q0 21 -13 34.5t-32 13.5q-20 0 -32.5 -13t-12.5 -35zM280 450q0 -53 -36 -87t-92 -34q-53 0 -91 35q-37 34 -37 88q0 59 55 139l64 94h94l-81 -116q53 -1 88.5 -34.5t35.5 -84.5z" />
    <glyph glyph-name="seven.numerator" horiz-adv-x="280" 
d="M139 334h-91l113 274h-144v77h238v-61z" />
    <glyph glyph-name="eight.numerator" horiz-adv-x="329" 
d="M117 441q0 -18 12.5 -28.5t34.5 -10.5q21 0 34.5 11.5t13.5 27.5t-13.5 27.5t-34.5 11.5t-34 -11.5t-13 -27.5zM127 584q0 -34 37 -34q38 0 38 34q0 13 -10.5 22t-27.5 9t-27 -9t-10 -22zM34 438q0 49 44 79q-34 28 -34 69q0 45 34.5 74.5t85.5 29.5t86 -29.5t35 -74.5
q0 -41 -34 -69q44 -30 44 -79q0 -48 -37 -78.5t-94 -30.5q-55 0 -92.5 30.5t-37.5 78.5z" />
    <glyph glyph-name="nine.numerator" horiz-adv-x="301" 
d="M107 569q0 -21 13 -34.5t32 -13.5q20 0 32.5 13t12.5 35q0 20 -12 32t-33 12q-20 0 -32.5 -12.5t-12.5 -31.5zM24 569q0 52 37 86.5t91 34.5t91 -36q37 -34 37 -88q0 -61 -55 -139l-65 -93h-93l81 115q-54 1 -89 34.5t-35 85.5z" />
    <glyph glyph-name="zero.denominator" horiz-adv-x="362" 
d="M126 175q0 -47 15 -73t40 -26q24 0 39 26t15 73t-15 73.5t-39 26.5q-25 0 -40 -26.5t-15 -73.5zM39 175q0 80 39 130q39 51 103 51t103 -51q39 -50 39 -130q0 -81 -38.5 -130.5t-103.5 -49.5t-103.5 49.5t-38.5 130.5z" />
    <glyph glyph-name="one.denominator" horiz-adv-x="246" 
d="M91 0v261l-63 -53v86l68 57h75v-351h-80z" />
    <glyph glyph-name="two.denominator" horiz-adv-x="308" 
d="M35 0v61l113 133q26 31 26 54q0 13 -8.5 21t-22.5 8q-25 0 -63 -42l-52 54q48 67 120 67q48 0 79.5 -29.5t31.5 -75.5q0 -47 -45 -98l-68 -78h121v-75h-232z" />
    <glyph glyph-name="three.denominator" horiz-adv-x="312" 
d="M23 52l45 63q46 -40 82 -40q18 0 28.5 9.5t10.5 24.5q0 16 -13 26t-34 10h-39v71h37q16 0 25.5 8.5t9.5 22.5q0 13 -9 21t-25 8q-29 0 -64 -39l-50 52q52 67 118 67q48 0 80.5 -28.5t32.5 -73.5q0 -41 -32 -70q47 -29 47 -80q0 -48 -35 -78.5t-88 -30.5q-71 0 -127 57z
" />
    <glyph glyph-name="four.denominator" horiz-adv-x="309" 
d="M165 232l-59 -83h59v83zM242 72v-72h-77v72h-150v62l155 217h72v-202h47v-77h-47z" />
    <glyph glyph-name="five.denominator" horiz-adv-x="309" 
d="M24 52l45 62q43 -39 80 -39q19 0 30 10.5t11 29.5q0 18 -11.5 29t-32.5 11q-22 0 -47 -15l-57 37l16 174h188v-77h-121l-4 -44q13 3 31 3q53 0 87.5 -33t34.5 -85q0 -53 -35.5 -86.5t-89.5 -33.5q-71 0 -125 57z" />
    <glyph glyph-name="six.denominator" horiz-adv-x="301" 
d="M107 116q0 -20 12.5 -32.5t32.5 -12.5t32.5 12.5t12.5 32.5q0 21 -13 34.5t-32 13.5q-20 0 -32.5 -13t-12.5 -35zM280 116q0 -53 -36 -87t-92 -34q-53 0 -91 35q-37 34 -37 88q0 59 55 139l64 94h94l-81 -116q53 -1 88.5 -34.5t35.5 -84.5z" />
    <glyph glyph-name="seven.denominator" horiz-adv-x="280" 
d="M139 0h-91l113 274h-144v77h238v-61z" />
    <glyph glyph-name="eight.denominator" horiz-adv-x="329" 
d="M117 107q0 -18 12.5 -28.5t34.5 -10.5q21 0 34.5 11.5t13.5 27.5t-13.5 27.5t-34.5 11.5t-34 -11.5t-13 -27.5zM127 250q0 -34 37 -34q38 0 38 34q0 13 -10.5 22t-27.5 9t-27 -9t-10 -22zM34 104q0 49 44 79q-34 28 -34 69q0 45 34.5 74.5t85.5 29.5t86 -29.5t35 -74.5
q0 -41 -34 -69q44 -30 44 -79q0 -48 -37 -78.5t-94 -30.5q-55 0 -92.5 30.5t-37.5 78.5z" />
    <glyph glyph-name="nine.denominator" horiz-adv-x="301" 
d="M107 235q0 -21 13 -34.5t32 -13.5q20 0 32.5 13t12.5 35q0 20 -12 32t-33 12q-20 0 -32.5 -12.5t-12.5 -31.5zM24 235q0 52 37 86.5t91 34.5t91 -36q37 -34 37 -88q0 -61 -55 -139l-65 -93h-93l81 115q-54 1 -89 34.5t-35 85.5z" />
    <glyph glyph-name="two_fraction_seven" horiz-adv-x="758" 
d="M617 0h-91l113 274h-144v77h238v-61zM221 0h-100l429 685h99zM35 334v61l113 133q26 31 26 54q0 13 -8.5 21t-22.5 8q-25 0 -63 -42l-52 54q48 67 120 67q48 0 79.5 -29.5t31.5 -75.5q0 -47 -45 -98l-68 -78h121v-75h-232z" />
    <glyph glyph-name="two_fraction_nine" horiz-adv-x="779" 
d="M585 235q0 -21 13 -34.5t32 -13.5q20 0 32.5 13t12.5 35q0 20 -12 32t-33 12q-20 0 -32.5 -12.5t-12.5 -31.5zM502 235q0 52 37 86.5t91 34.5t91 -36q37 -34 37 -88q0 -61 -55 -139l-65 -93h-93l81 115q-54 1 -89 34.5t-35 85.5zM232 0h-100l429 685h99zM35 334v61
l113 133q26 31 26 54q0 13 -8.5 21t-22.5 8q-25 0 -63 -42l-52 54q48 67 120 67q48 0 79.5 -29.5t31.5 -75.5q0 -47 -45 -98l-68 -78h121v-75h-232z" />
    <glyph glyph-name="three_fraction_seven" horiz-adv-x="762" 
d="M621 0h-91l113 274h-144v77h238v-61zM222 0h-100l429 685h99zM23 386l45 63q46 -40 82 -40q18 0 28.5 9.5t10.5 24.5q0 16 -13 26t-34 10h-39v71h37q16 0 25.5 8.5t9.5 22.5q0 13 -9 21t-25 8q-29 0 -64 -39l-50 52q52 67 118 67q48 0 80.5 -28.5t32.5 -73.5
q0 -41 -32 -70q47 -29 47 -80q0 -48 -35 -78.5t-88 -30.5q-71 0 -127 57z" />
    <glyph glyph-name="four_fraction_seven" horiz-adv-x="760" 
d="M619 0h-91l113 274h-144v77h238v-61zM165 566l-59 -83h59v83zM222 0h-100l429 685h99zM242 406v-72h-77v72h-150v62l155 217h72v-202h47v-77h-47z" />
    <glyph glyph-name="four_fraction_nine" horiz-adv-x="781" 
d="M587 235q0 -21 13 -34.5t32 -13.5q20 0 32.5 13t12.5 35q0 20 -12 32t-33 12q-20 0 -32.5 -12.5t-12.5 -31.5zM504 235q0 52 37 86.5t91 34.5t91 -36q37 -34 37 -88q0 -61 -55 -139l-65 -93h-93l81 115q-54 1 -89 34.5t-35 85.5zM165 566l-59 -83h59v83zM232 0h-100
l429 685h99zM242 406v-72h-77v72h-150v62l155 217h72v-202h47v-77h-47z" />
    <glyph glyph-name="five_fraction_seven" horiz-adv-x="760" 
d="M618 0h-91l113 274h-144v77h238v-61zM220 0h-100l429 685h99zM24 386l45 62q43 -39 80 -39q19 0 30 10.5t11 29.5q0 18 -11.5 29t-32.5 11q-22 0 -47 -15l-57 37l16 174h188v-77h-121l-4 -44q14 3 31 3q53 0 87.5 -33t34.5 -85q0 -53 -35.5 -86.5t-89.5 -33.5
q-71 0 -125 57z" />
    <glyph glyph-name="five_fraction_nine" horiz-adv-x="781" 
d="M586 235q0 -21 13 -34.5t32 -13.5q20 0 32.5 13t12.5 35q0 20 -12 32t-33 12q-20 0 -32.5 -12.5t-12.5 -31.5zM503 235q0 52 37 86.5t91 34.5q53 0 91 -36q37 -34 37 -88q0 -61 -55 -139l-65 -93h-93l81 115q-54 1 -89 34.5t-35 85.5zM230 0h-100l429 685h99zM24 386
l45 62q43 -39 80 -39q19 0 30 10.5t11 29.5q0 18 -11.5 29t-32.5 11q-22 0 -47 -15l-57 37l16 174h188v-77h-121l-4 -44q14 3 31 3q53 0 87.5 -33t34.5 -85q0 -53 -35.5 -86.5t-89.5 -33.5q-71 0 -125 57z" />
    <glyph glyph-name="six_fraction_seven" horiz-adv-x="751" 
d="M610 0h-91l113 274h-144v77h238v-61zM107 450q0 -20 12.5 -32.5t32.5 -12.5t32.5 12.5t12.5 32.5q0 21 -13 34.5t-32 13.5q-20 0 -32.5 -13t-12.5 -35zM212 0h-100l429 685h99zM280 450q0 -53 -36 -87t-92 -34q-53 0 -91 35q-37 34 -37 88q0 59 55 139l64 94h94l-81 -116
q53 -1 88.5 -34.5t35.5 -84.5z" />
    <glyph glyph-name="seven_fraction_nine" horiz-adv-x="751" 
d="M557 235q0 -21 13 -34.5t32 -13.5q20 0 32.5 13t12.5 35q0 20 -12 32t-33 12q-20 0 -32.5 -12.5t-12.5 -31.5zM474 235q0 52 37 86.5t91 34.5t91 -36q37 -34 37 -88q0 -61 -55 -139l-65 -93h-93l81 115q-54 1 -89 34.5t-35 85.5zM191 0h-100l429 685h99zM139 334h-91
l113 274h-144v77h238v-61z" />
    <glyph glyph-name="eight_fraction_nine" horiz-adv-x="801" 
d="M607 235q0 -21 13 -34.5t32 -13.5q20 0 32.5 13t12.5 35q0 20 -12 32t-33 12q-20 0 -32.5 -12.5t-12.5 -31.5zM524 235q0 52 37 86.5t91 34.5t91 -36q37 -34 37 -88q0 -61 -55 -139l-65 -93h-93l81 115q-54 1 -89 34.5t-35 85.5zM117 441q0 -18 12.5 -28.5t34.5 -10.5
q21 0 34.5 11.5t13.5 27.5t-13.5 27.5t-34.5 11.5t-34 -11.5t-13 -27.5zM127 584q0 -34 37 -34q38 0 38 34q0 13 -10.5 22t-27.5 9t-27 -9t-10 -22zM250 0h-100l429 685h99zM34 438q0 49 44 79q-34 28 -34 69q0 45 34.5 74.5t85.5 29.5t86 -29.5t35 -74.5q0 -41 -34 -69
q44 -30 44 -79q0 -48 -37 -78.5t-94 -30.5q-55 0 -92.5 30.5t-37.5 78.5z" />
    <glyph glyph-name="at.case" horiz-adv-x="871" 
d="M323 325q0 -49 28.5 -80.5t72.5 -31.5q43 0 73 32q30 31 30 80q0 48 -30 81t-73 33q-45 0 -73 -31t-28 -83zM657 125q-77 0 -108 58q-52 -58 -127 -58q-53 0 -97.5 26.5t-71.5 72.5q-26 47 -26 101q0 57 25.5 103.5t71.5 73.5q44 27 98 27q65 0 112 -43l5 34h73v-245
q0 -71 49 -71q75 0 75 151q0 82 -37.5 147.5t-105.5 102.5q-67 37 -152 37t-155.5 -40t-110.5 -111q-39 -70 -39 -158q0 -86 40.5 -156.5t111.5 -110.5q71 -41 159 -41q95 0 182 43l32 -78q-61 -29 -107 -38q-44 -9 -107 -9q-114 0 -205 50t-144 140q-52 88 -52 200
q0 110 51.5 199.5t142.5 140.5q90 51 201 51q106 0 194 -47.5t139 -132.5q50 -85 50 -189q0 -66 -21 -119t-59 -81q-39 -30 -87 -30z" />
    <glyph glyph-name="questiondown.case" horiz-adv-x="489" 
d="M76 88q-28 46 -28 104q0 74 45 127q43 52 112 67v114h102v-187l-47 -6q-49 -6 -78.5 -36.5t-29.5 -76.5q0 -47 31 -77.5t80 -30.5q74 0 136 79l68 -67q-83 -108 -207 -108q-59 0 -107.5 26t-76.5 72zM189 626q0 28 19.5 48t47.5 20t48 -20t20 -48t-20 -48.5t-48 -20.5
t-47.5 20.5t-19.5 48.5z" />
    <glyph glyph-name="exclamdown.case" horiz-adv-x="313" 
d="M106 0l6 500h88l7 -500h-101zM96 626q0 28 17.5 48t42.5 20t43 -20t18 -48q0 -30 -17 -49.5t-44 -19.5t-43.5 19.5t-16.5 49.5z" />
    <glyph glyph-name="parenleft.case" horiz-adv-x="430" 
d="M136 70q-70 124 -70 272t70 272q70 126 204 210l51 -87q-102 -67 -160 -173q-55 -103 -55 -222t55 -222q55 -102 160 -173l-51 -87q-134 84 -204 210z" />
    <glyph glyph-name="parenright.case" horiz-adv-x="430" 
d="M77 -140l-53 87q105 71 160 173q56 107 56 222q0 117 -56 222t-160 173l53 87q133 -85 203 -211q70 -124 70 -271q0 -148 -70 -272q-71 -126 -203 -210z" />
    <glyph glyph-name="braceleft.case" horiz-adv-x="456" 
d="M184 98v34q0 79 -24.5 114.5t-79.5 40.5l-47 4v100l47 5q55 6 79.5 41.5t24.5 112.5v36q0 230 189 230h63v-102h-58q-45 0 -65 -31t-20 -100v-43q0 -69 -26 -121t-74 -77q100 -55 100 -200v-41q0 -69 20 -99.5t65 -30.5h58v-102h-63q-189 0 -189 229z" />
    <glyph glyph-name="braceright.case" horiz-adv-x="456" 
d="M282 132v-34q0 -229 -188 -229h-64v102h59q43 0 63.5 31t20.5 99v41q0 70 26 122t75 78q-49 25 -75 76.5t-26 121.5v43q0 69 -20.5 100t-63.5 31h-59v102h64q188 0 188 -230v-36q0 -77 25 -113t79 -41l48 -5v-100l-48 -4q-55 -5 -79.5 -41t-24.5 -114z" />
    <glyph glyph-name="bracketleft.case" horiz-adv-x="406" 
d="M100 -132v945h269v-102h-163v-741h163v-102h-269z" />
    <glyph glyph-name="bracketright.case" horiz-adv-x="406" 
d="M30 -132v102h164v741h-164v102h270v-945h-270z" />
    <glyph glyph-name="hyphen.case" horiz-adv-x="360" 
d="M50 311v86h260v-86h-260z" />
    <glyph glyph-name="endash.case" 
d="M40 311v83h420v-83h-420z" />
    <glyph glyph-name="emdash.case" horiz-adv-x="1000" 
d="M40 311v83h920v-83h-920z" />
    <glyph glyph-name="brokenbar.case" horiz-adv-x="294" 
d="M100 -100v368h94v-368h-94zM100 416v369h94v-369h-94z" />
    <glyph glyph-name="bar.case" horiz-adv-x="294" 
d="M100 -100v885h94v-885h-94z" />
    <glyph glyph-name="guillemotleft.case" horiz-adv-x="631" 
d="M511 95l-224 219v21l224 220l70 -69l-165 -161l165 -162zM261 95l-225 219v21l225 220l69 -69l-165 -161l165 -162z" />
    <glyph glyph-name="guillemotright.case" horiz-adv-x="631" 
d="M369 95l-69 68l165 160l-165 163l69 69l225 -220v-21zM119 95l-70 68l166 160l-166 163l70 69l224 -220v-21z" />
    <glyph glyph-name="guilsinglleft.case" horiz-adv-x="371" 
d="M254 95l-218 219v21l218 220l67 -69l-160 -161l160 -162z" />
    <glyph glyph-name="guilsinglright.case" horiz-adv-x="371" 
d="M116 95l-67 68l161 160l-161 163l67 69l218 -220v-21z" />
    </font>
</defs>
</svg>
