<?xml version="1.0" standalone="no"?>
<!DOCTYPE svg PUBLIC "-//W3C//DTD SVG 1.1//EN" "http://www.w3.org/Graphics/SVG/1.1/DTD/svg11.dtd" >
<svg xmlns="http://www.w3.org/2000/svg" xmlns:xlink="http://www.w3.org/1999/xlink" version="1.1">
<metadata>
Created by FontForge 20170731 at Thu Mar 15 21:00:03 2018
 By Aleksey,,,
Copyright (c) 2018 by Fontastica. All rights reserved.
</metadata>
<defs>
<font id="Access-ExtraBold" horiz-adv-x="500" >
  <font-face 
    font-family="Access ExtBd"
    font-weight="800"
    font-stretch="normal"
    units-per-em="1000"
    panose-1="0 0 0 0 0 0 0 0 0 0"
    ascent="800"
    descent="-200"
    x-height="449"
    cap-height="685"
    bbox="-321 -265 1253 956"
    underline-thickness="50"
    underline-position="-205"
    unicode-range="U+000D-FB02"
  />
<missing-glyph horiz-adv-x="682" 
d="M505 607h-328v-529h328v529zM95 0v685h492v-685h-492z" />
    <glyph glyph-name=".notdef" horiz-adv-x="682" 
d="M505 607h-328v-529h328v529zM95 0v685h492v-685h-492z" />
    <glyph glyph-name="uni0000" horiz-adv-x="0" 
 />
    <glyph glyph-name="uni0000" horiz-adv-x="0" 
 />
    <glyph glyph-name="uni000D" unicode="&#xd;" horiz-adv-x="0" 
 />
    <glyph glyph-name="space" unicode=" " horiz-adv-x="220" 
 />
    <glyph glyph-name="exclam" unicode="!" horiz-adv-x="313" 
d="M96 64q0 32 17 53t43 21q27 0 44 -21t17 -53q0 -30 -17.5 -52t-43.5 -22q-25 0 -42.5 22t-17.5 52zM202 179h-91l-6 506h103z" />
    <glyph glyph-name="quotedbl" unicode="&#x22;" horiz-adv-x="350" 
d="M299 455h-75l-6 230h87zM126 455h-75l-6 230h87z" />
    <glyph glyph-name="numbersign" unicode="#" horiz-adv-x="759" 
d="M337 407l-40 -130h124l40 130h-124zM578 407l-40 -130h130v-106h-163l-54 -171h-117l54 171h-124l-53 -171h-117l53 171h-107v106h140l40 130h-130v106h164l53 172h117l-53 -172h123l53 172h117l-53 -172h108v-106h-141z" />
    <glyph glyph-name="dollar" unicode="$" horiz-adv-x="566" 
d="M345 262v-153q27 10 41.5 31.5t14.5 48.5q0 44 -56 73zM189 506q0 -42 45 -69v137q-45 -20 -45 -68zM345 -9v-94h-111v95q-115 23 -201 119l72 88q69 -73 129 -90v196q-89 38 -125 78q-40 43 -40 121q0 77 50 129q46 48 115 60v102h111v-102q83 -18 164 -99l-72 -88
q-55 52 -92 67v-180q177 -51 177 -201q0 -112 -93 -169q-37 -24 -84 -32z" />
    <glyph glyph-name="percent" unicode="%" horiz-adv-x="872" 
d="M583 171q0 -36 21.5 -59t53.5 -23t53.5 23t21.5 59t-21 58.5t-54 22.5t-54 -22.5t-21 -58.5zM658 -10q-51 0 -92.5 23t-65.5 65q-24 44 -24 93q0 50 23.5 91.5t65.5 66.5q40 23 93 23q51 0 93 -23t66 -65q23 -39 23 -93q0 -51 -23 -93t-65 -65q-43 -23 -94 -23zM139 512
q0 -35 21 -57.5t54 -22.5q32 0 53.5 22.5t21.5 57.5q0 37 -21 60t-54 23t-54 -23t-21 -60zM272 0h-122l450 685h122zM214 332q-50 0 -92 23.5t-67 64.5q-24 42 -24 92q0 51 24 93t66 67q40 23 93 23q51 0 93 -23.5t65 -66.5q23 -41 23 -93q0 -51 -23 -92.5t-65 -64.5
q-41 -23 -93 -23z" />
    <glyph glyph-name="ampersand" unicode="&#x26;" horiz-adv-x="633" 
d="M398 299h-102q-53 0 -85.5 -27.5t-32.5 -70.5t29.5 -70.5t76.5 -27.5q54 0 84 32.5t30 91.5v72zM519 299v-75q0 -142 -112 -204q-54 -30 -123 -30q-63 0 -115 26.5t-82 74.5t-30 107q0 103 97 160q-78 53 -78 142q0 55 27 99.5t75 70.5q46 25 105 25q122 0 221 -126
l-76 -76q-74 89 -141 89q-41 0 -65.5 -23.5t-24.5 -62.5q0 -37 25.5 -61.5t66.5 -24.5h317v-111h-87z" />
    <glyph glyph-name="quotesingle" unicode="'" horiz-adv-x="177" 
d="M126 455h-75l-6 230h87z" />
    <glyph glyph-name="parenleft" unicode="(" horiz-adv-x="417" 
d="M186 259q0 -117 52 -216q53 -100 156 -170l-56 -99q-137 88 -204 213q-68 125 -68 272t68 272q67 125 204 213l56 -99q-102 -68 -156 -171q-52 -100 -52 -215z" />
    <glyph glyph-name="parenright" unicode=")" horiz-adv-x="417" 
d="M79 -226l-57 99q103 70 155 170q53 101 53 216q0 112 -53 215q-53 102 -155 171l57 99q132 -85 203 -214q68 -125 68 -271q0 -148 -68 -272q-71 -126 -203 -213z" />
    <glyph glyph-name="asterisk" unicode="*" horiz-adv-x="479" 
d="M320 577l91 -115l-88 -64l-83 124l-83 -125l-89 64l92 114l-142 39l34 104l139 -52l-7 134h109l-6 -133l139 53l35 -105z" />
    <glyph glyph-name="plus" unicode="+" 
d="M306 285v-157h-113v157h-155v104h155v157h113v-157h155v-104h-155z" />
    <glyph glyph-name="comma" unicode="," horiz-adv-x="261" 
d="M182 -13l-38 -130h-78l26 132q-25 19 -25 56q0 29 18.5 50t44.5 21q27 0 45 -21t18 -51q0 -21 -11 -57z" />
    <glyph glyph-name="hyphen" unicode="-" horiz-adv-x="360" 
d="M50 246v86h260v-86h-260z" />
    <glyph glyph-name="period" unicode="." horiz-adv-x="261" 
d="M67 53q0 26 19 44.5t44 18.5q26 0 44.5 -18.5t18.5 -44.5t-18.5 -44.5t-44.5 -18.5t-44.5 18.5t-18.5 44.5z" />
    <glyph glyph-name="slash" unicode="/" horiz-adv-x="445" 
d="M143 0h-118l277 685h118z" />
    <glyph glyph-name="zero" unicode="0" horiz-adv-x="617" 
d="M202 470q-17 -56 -17 -128q0 -149 61 -210q26 -26 62 -26t63.5 27.5t43.5 80.5q16 51 16 128q0 111 -34 173.5t-89 62.5q-74 0 -106 -108zM308 -10q-74 0 -130 45t-87 127q-30 78 -30 180t30 181.5t86 125.5q57 46 131 46t130.5 -45t86.5 -126q30 -79 30 -182
q0 -212 -116 -306q-57 -46 -131 -46z" />
    <glyph glyph-name="one" unicode="1" horiz-adv-x="357" 
d="M144 0v556l-111 -81v126l113 84h110v-685h-112z" />
    <glyph glyph-name="two" unicode="2" horiz-adv-x="523" 
d="M44 0v87l230 279q61 74 61 130q0 38 -23.5 61.5t-61.5 23.5q-66 0 -139 -91l-78 79q98 126 220 126q57 0 103 -25t72 -70q27 -45 27 -100q0 -51 -21.5 -98.5t-71.5 -106.5l-155 -185h268v-110h-431z" />
    <glyph glyph-name="three" unicode="3" horiz-adv-x="537" 
d="M258 -10q-135 0 -237 118l71 86q83 -89 166 -89q45 0 74 27t29 69q0 43 -32 70.5t-85 27.5h-102v111h100q40 0 65.5 24.5t25.5 61.5q0 38 -24 61.5t-64 23.5q-65 0 -138 -88l-78 76q98 126 218 126q57 0 104.5 -25t75.5 -70q26 -44 26 -100q0 -86 -73 -140
q48 -25 74.5 -67.5t26.5 -94.5q0 -59 -29 -107t-81 -74q-53 -27 -113 -27z" />
    <glyph glyph-name="four" unicode="4" horiz-adv-x="578" 
d="M334 494l-162 -229h162v229zM449 154v-154h-115v154h-306v86l316 445h105v-420h94v-111h-94z" />
    <glyph glyph-name="five" unicode="5" horiz-adv-x="545" 
d="M269 -10q-135 0 -235 117l72 86q82 -89 163 -89q49 0 78 32q32 35 32 84q0 51 -31.5 83t-81.5 32q-59 0 -110 -40l-86 49l31 341h347v-111h-247l-12 -141q37 14 83 14q66 0 117.5 -28.5t80.5 -81.5t29 -117q0 -65 -29.5 -117.5t-83.5 -82.5q-52 -30 -117 -30z" />
    <glyph glyph-name="six" unicode="6" horiz-adv-x="563" 
d="M281 345q-50 0 -83 -35q-32 -35 -32 -87q0 -56 32 -88q33 -34 83 -34q49 0 82 34q33 33 33 88q0 54 -33 87q-33 35 -82 35zM281 -10q-65 0 -118 30.5t-84 85.5t-31 120q0 107 101 256l138 203h134l-161 -233q5 1 21 1q66 0 120 -29.5t85 -82.5q30 -51 30 -118
q0 -66 -30 -118.5t-84 -83.5q-55 -31 -121 -31z" />
    <glyph glyph-name="seven" unicode="7" horiz-adv-x="481" 
d="M216 0h-127l231 574h-300v111h435v-85z" />
    <glyph glyph-name="eight" unicode="8" horiz-adv-x="590" 
d="M180 202q0 -42 32 -71q35 -29 83 -29q47 0 82 29q33 29 33 71q0 44 -32 73t-83 29q-50 0 -82.5 -29.5t-32.5 -72.5zM202 496q0 -37 26 -62t67 -25t67 25t26 62q0 36 -26.5 61t-66.5 25t-66.5 -25t-26.5 -61zM295 -10q-65 0 -118.5 27t-85.5 75q-32 47 -32 106
q0 104 91 163q-69 56 -69 139q0 53 29 97.5t78 71.5q50 26 107 26q58 0 107 -25.5t78 -69.5q29 -45 29 -100q0 -83 -69 -139q91 -62 91 -163q0 -58 -31 -105.5t-86 -75.5q-54 -27 -119 -27z" />
    <glyph glyph-name="nine" unicode="9" horiz-adv-x="563" 
d="M281 583q-48 0 -81 -35t-33 -87q0 -53 32 -88q31 -34 82 -34q49 0 83 34q33 33 33 88q0 54 -33 87q-33 35 -83 35zM414 202l-138 -202h-134l161 232q-5 -1 -22 -1q-65 0 -118.5 30t-84.5 83t-31 117q0 65 30.5 119t84.5 85q54 30 119 30t119 -30.5t85 -85.5
q30 -54 30 -121q0 -108 -101 -256z" />
    <glyph glyph-name="colon" unicode=":" horiz-adv-x="261" 
d="M67 53q0 26 19 44.5t44 18.5q26 0 44.5 -18.5t18.5 -44.5t-18.5 -44.5t-44.5 -18.5t-44.5 18.5t-18.5 44.5zM67 401q0 26 19 44.5t44 18.5q26 0 44.5 -18.5t18.5 -44.5t-18.5 -44.5t-44.5 -18.5t-44.5 18.5t-18.5 44.5z" />
    <glyph glyph-name="semicolon" unicode=";" horiz-adv-x="261" 
d="M182 -13l-38 -130h-78l26 132q-25 19 -25 56q0 29 18.5 50t44.5 21q27 0 45 -21t18 -51q0 -21 -11 -57zM67 401q0 26 19 44.5t44 18.5q26 0 44.5 -18.5t18.5 -44.5t-18.5 -44.5t-44.5 -18.5t-44.5 18.5t-18.5 44.5z" />
    <glyph glyph-name="less" unicode="&#x3c;" 
d="M413 105l-380 186v93l379 187l46 -104l-267 -131l267 -127z" />
    <glyph glyph-name="equal" unicode="=" 
d="M38 207v99h422v-99h-422zM38 367v100h422v-100h-422z" />
    <glyph glyph-name="greater" unicode="&#x3e;" 
d="M86 105l-45 104l267 127l-267 131l46 104l379 -187v-93z" />
    <glyph glyph-name="question" unicode="?" horiz-adv-x="489" 
d="M160 64q0 31 21 52.5t51 21.5t51.5 -21.5t21.5 -52.5q0 -30 -21.5 -52t-51.5 -22t-51 21.5t-21 52.5zM288 292v-113h-112v198l52 6q43 5 70 33.5t27 70.5q0 44 -27 71t-72 27q-72 0 -132 -80l-75 75q85 115 209 115q59 0 108 -26.5t77 -73.5q27 -47 27 -105
q0 -79 -46 -131q-43 -51 -106 -67z" />
    <glyph glyph-name="at" unicode="@" horiz-adv-x="871" 
d="M332 185q0 -45 26 -73.5t66 -28.5t66 29q28 29 28 73q0 45 -27.5 75t-66.5 30q-40 0 -66 -29t-26 -76zM653 -18q-75 0 -107 51q-51 -51 -123 -51q-56 0 -101.5 26.5t-71.5 73.5t-26 103q0 120 98 180q47 28 101 28q57 0 104 -36l3 27h86v-248q0 -34 10 -48t31 -14
q66 0 66 141q0 78 -35.5 140.5t-100.5 98.5q-65 35 -146 35q-82 0 -149 -38t-105 -106t-38 -152q0 -83 38 -150t107 -106q70 -39 152 -39q89 0 183 45l37 -90q-67 -32 -113 -41q-44 -9 -107 -9q-112 0 -203.5 50t-144.5 140q-52 88 -52 200q0 110 51.5 199.5t142.5 140.5
q90 51 201 51q107 0 194.5 -47.5t138.5 -132.5q50 -85 50 -189q0 -141 -81 -203q-41 -30 -90 -30z" />
    <glyph glyph-name="A" unicode="A" horiz-adv-x="687" 
d="M342 513l-94 -234h188zM547 0l-66 165h-278l-66 -165h-126l278 685h110l277 -685h-129z" />
    <glyph glyph-name="B" unicode="B" horiz-adv-x="613" 
d="M305 298h-90v-186h90q64 0 97.5 24t33.5 68t-33.5 69t-97.5 25zM300 573h-85v-164h85q51 0 79.5 22.5t28.5 59.5t-28.5 59.5t-79.5 22.5zM300 0h-204v685h199q108 0 170.5 -49.5t62.5 -137.5t-74 -139q102 -55 102 -160q0 -60 -32.5 -105.5t-90.5 -69.5q-57 -24 -133 -24
z" />
    <glyph glyph-name="C" unicode="C" horiz-adv-x="671" 
d="M96 163q-45 81 -45 179t44 179t122 128q77 46 173 46q138 0 251 -116l-78 -85q-84 84 -173 84q-123 0 -185 -114q-28 -52 -28 -122q0 -66 27.5 -120t76.5 -85q46 -30 109 -30q96 0 180 94l80 -87q-120 -124 -260 -124q-93 0 -171 46t-123 127z" />
    <glyph glyph-name="D" unicode="D" horiz-adv-x="703" 
d="M277 570h-58v-455h58q117 0 183 60.5t66 166.5q0 108 -65 168t-184 60zM272 0h-176v685h176q237 0 334 -160q46 -76 46 -183q0 -104 -46 -181t-133 -119q-89 -42 -201 -42z" />
    <glyph glyph-name="E" unicode="E" horiz-adv-x="566" 
d="M96 0v685h415v-114h-295v-162h274v-113h-274v-182h295v-114h-415z" />
    <glyph glyph-name="F" unicode="F" horiz-adv-x="545" 
d="M216 571v-181h267v-113h-267v-277h-120v685h408v-114h-288z" />
    <glyph glyph-name="G" unicode="G" horiz-adv-x="752" 
d="M392 -10q-95 0 -173 46t-123 127t-45 179t44.5 178.5t122.5 128.5q77 46 174 46q90 0 156.5 -27t128.5 -89l-81 -85q-46 46 -92 65t-112 19q-60 0 -108.5 -30t-77.5 -84q-28 -52 -28 -122q0 -66 27.5 -119.5t77.5 -85.5q48 -30 109 -30q102 0 163 81q22 30 31 68h-211
v113h332q7 -14 7 -29v-20q0 -90 -42 -165.5t-116 -120.5q-74 -44 -164 -44z" />
    <glyph glyph-name="H" unicode="H" horiz-adv-x="738" 
d="M519 0v297h-300v-297h-123v685h123v-275h300v275h123v-685h-123z" />
    <glyph glyph-name="I" unicode="I" horiz-adv-x="287" 
d="M84 0v685h120v-685h-120z" />
    <glyph glyph-name="J" unicode="J" horiz-adv-x="476" 
d="M12 84l76 85q58 -63 109 -63q77 0 77 102v477h119v-478q0 -104 -51 -160.5t-145 -56.5q-100 0 -185 94z" />
    <glyph glyph-name="K" unicode="K" horiz-adv-x="644" 
d="M486 0l-265 268l-3 -268h-122v685h122l3 -248l251 248h155l-322 -324l343 -361h-162z" />
    <glyph glyph-name="L" unicode="L" horiz-adv-x="514" 
d="M96 0v685h120v-571h271v-114h-391z" />
    <glyph glyph-name="M" unicode="M" horiz-adv-x="939" 
d="M757 0l-68 447l-160 -447h-118l-160 449l-69 -449h-121l107 685h118l185 -521l184 521h116l107 -685h-121z" />
    <glyph glyph-name="N" unicode="N" horiz-adv-x="728" 
d="M520 0l-308 469v-469h-116v685h112l308 -469v469h116v-685h-112z" />
    <glyph glyph-name="O" unicode="O" horiz-adv-x="784" 
d="M392 578q-60 0 -108.5 -30t-77.5 -84q-28 -52 -28 -122q0 -66 27.5 -119.5t77.5 -85.5q48 -30 109 -30q60 0 109 30t78 84q27 50 27 121q0 68 -27.5 122t-76.5 85q-47 29 -110 29zM392 -10q-95 0 -173 46t-123 127t-45 179t44.5 179t122.5 128q76 46 174 46
q96 0 174.5 -46t122.5 -128q44 -80 44 -179q0 -98 -44.5 -178.5t-122.5 -127.5q-76 -46 -174 -46z" />
    <glyph glyph-name="P" unicode="P" horiz-adv-x="585" 
d="M296 571h-81v-211h81q125 0 125 106q0 50 -32 77.5t-93 27.5zM293 246h-78v-246h-119v685h197q117 0 183.5 -58t66.5 -161q0 -102 -68 -161t-182 -59z" />
    <glyph glyph-name="Q" unicode="Q" horiz-adv-x="784" 
d="M392 578q-60 0 -108.5 -30.5t-77.5 -84.5q-28 -52 -28 -123q0 -66 27.5 -119.5t77.5 -85.5q50 -31 109 -31q41 0 84 17l-102 120l87 76l103 -122q42 61 42 145q0 68 -27.5 122.5t-76.5 85.5q-48 30 -110 30zM653 -88l-98 115q-73 -40 -163 -40q-95 0 -173 46t-123 128
q-45 81 -45 179q0 99 44.5 180.5t122.5 128.5q76 46 174 46q96 0 174.5 -46t122.5 -128t44 -181q0 -142 -87 -241l94 -111z" />
    <glyph glyph-name="R" unicode="R" horiz-adv-x="610" 
d="M314 571h-98v-186h98q123 0 123 93q0 44 -31.5 68.5t-91.5 24.5zM474 0l-143 272l-115 -1v-271h-120v685h214q160 0 221 -96q29 -46 29 -108t-30.5 -110t-84.5 -73l164 -298h-135z" />
    <glyph glyph-name="S" unicode="S" horiz-adv-x="566" 
d="M297 -10q-150 0 -264 123l72 88q88 -98 192 -98q47 0 75.5 24.5t28.5 63.5q0 31 -21 50q-27 24 -103 49q-151 51 -189 123q-19 37 -19 89q0 55 28.5 100t78.5 69q48 24 111 24q118 0 222 -103l-72 -88q-81 77 -150 77q-47 0 -72.5 -20.5t-25.5 -56.5q0 -32 24 -53
q32 -27 124 -57q96 -32 140.5 -79.5t44.5 -121.5q0 -56 -30 -103t-82 -73q-51 -27 -113 -27z" />
    <glyph glyph-name="T" unicode="T" horiz-adv-x="553" 
d="M338 571v-571h-123v571h-195v114h513v-114h-195z" />
    <glyph glyph-name="U" unicode="U" horiz-adv-x="680" 
d="M340 -10q-159 0 -226 132q-32 66 -32 147v416h122v-414q0 -80 36 -122.5t100 -42.5t100 42.5t36 122.5v414h122v-416q0 -83 -31.5 -146.5t-89.5 -97.5q-59 -35 -137 -35z" />
    <glyph glyph-name="V" unicode="V" horiz-adv-x="640" 
d="M375 0h-110l-253 685h129l181 -507l181 507h125z" />
    <glyph glyph-name="W" unicode="W" horiz-adv-x="978" 
d="M705 0h-109l-107 382l-111 -382h-113l-253 685h130l180 -496l129 496h79l126 -492l188 492h123z" />
    <glyph glyph-name="X" unicode="X" horiz-adv-x="645" 
d="M492 0l-173 253l-172 -253h-138l241 354l-225 331h144l157 -230l156 230h138l-225 -332l241 -353h-144z" />
    <glyph glyph-name="Y" unicode="Y" horiz-adv-x="601" 
d="M362 291v-291h-123v293l-237 392h138l164 -272l163 272h132z" />
    <glyph glyph-name="Z" unicode="Z" horiz-adv-x="570" 
d="M41 0v89l324 482h-312v114h466v-90l-324 -482h333v-113h-487z" />
    <glyph glyph-name="bracketleft" unicode="[" horiz-adv-x="401" 
d="M100 -214v945h269v-115h-154v-715h154v-115h-269z" />
    <glyph glyph-name="backslash" unicode="\" horiz-adv-x="445" 
d="M302 0l-277 685h118l277 -685h-118z" />
    <glyph glyph-name="bracketright" unicode="]" horiz-adv-x="401" 
d="M31 -214v115h155v715h-155v115h270v-945h-270z" />
    <glyph glyph-name="asciicircum" unicode="^" 
d="M352 305l-103 226l-102 -226l-102 43l157 337h94l158 -337z" />
    <glyph glyph-name="underscore" unicode="_" horiz-adv-x="623" 
d="M16 -159v76h590v-76h-590z" />
    <glyph glyph-name="grave" unicode="`" 
d="M319 508l-182 106l57 88l170 -127z" />
    <glyph glyph-name="a" unicode="a" horiz-adv-x="584" 
d="M279 351q-69 0 -100 -61q-15 -30 -15 -66q0 -74 57 -109q29 -17 58 -17q67 0 100 61q16 30 16 65t-15.5 64.5t-41.5 45.5q-29 17 -59 17zM390 -1v36q-52 -45 -124 -45q-127 0 -191 116q-29 53 -29 118q0 66 28 120t79 85q51 30 113 30q74 0 130 -50l7 41h103v-451h-116z
" />
    <glyph glyph-name="b" unicode="b" horiz-adv-x="584" 
d="M305 360q-65 0 -100 -63q-16 -30 -16 -67q0 -74 58 -113q26 -16 58 -16q69 0 101 62q14 28 14 67q0 79 -56 113q-29 17 -59 17zM318 -10q-76 0 -130 51l-7 -41h-103v705h118v-278q53 44 122 44q62 0 112.5 -31t79.5 -87q28 -52 28 -123q0 -67 -28.5 -121.5t-78.5 -86.5
q-51 -32 -113 -32z" />
    <glyph glyph-name="c" unicode="c" horiz-adv-x="481" 
d="M77 105q-31 55 -31 119q0 66 29.5 120t83.5 85q52 30 118 30q94 0 177 -77l-76 -80q-54 49 -101 49q-68 0 -99 -61q-15 -28 -15 -66q0 -75 56 -109q26 -17 58 -17q53 0 110 57l76 -80q-85 -85 -186 -85q-65 0 -117.5 30.5t-82.5 84.5z" />
    <glyph glyph-name="d" unicode="d" horiz-adv-x="584" 
d="M279 360q-68 0 -100 -63q-15 -29 -15 -67q0 -77 57 -113q26 -16 58 -16q65 0 100 63q16 30 16 66t-15.5 66.5t-41.5 46.5q-29 17 -59 17zM403 0l-7 41q-54 -51 -130 -51q-128 0 -191 118q-29 56 -29 122q0 67 28 123t79 87q49 31 113 31q69 0 122 -44v278h118v-705h-103z
" />
    <glyph glyph-name="e" unicode="e" horiz-adv-x="530" 
d="M171 279h198q-13 33 -40 53t-60 20q-32 0 -58.5 -19.5t-39.5 -53.5zM488 173h-318q14 -35 43 -55.5t64 -20.5q74 0 129 52l72 -80q-85 -79 -200 -79q-63 0 -116.5 31t-85.5 85q-31 54 -31 118q0 65 29.5 118t81.5 86q50 31 113 31q62 0 113 -31t81 -85t30 -119
q0 -9 -5 -51z" />
    <glyph glyph-name="f" unicode="f" horiz-adv-x="364" 
d="M250 603q-22 0 -31 -14.5t-9 -52.5v-74h141v-109h-130v-353h-115v353h-88v103l77 4q-4 48 -4 65q0 190 148 190q61 0 134 -62l-59 -90q-29 26 -40.5 33t-23.5 7z" />
    <glyph glyph-name="g" unicode="g" horiz-adv-x="587" 
d="M285 348q-68 0 -100 -62q-15 -28 -15 -67q0 -76 57 -112q25 -16 58 -16q67 0 100 62q16 28 16 66q0 76 -57 113q-25 16 -59 16zM287 -210q-67 0 -112 16q-43 15 -104 67l63 92q51 -45 78 -55q29 -10 72 -10q68 0 97.5 23t29.5 74v43q-55 -60 -139 -60q-128 0 -191 118
q-29 56 -29 121q0 67 28 122.5t79 86.5t113 31q76 0 130 -51l7 42h103v-453q0 -75 -18 -112.5t-75 -66.5q-55 -28 -132 -28z" />
    <glyph glyph-name="h" unicode="h" horiz-adv-x="558" 
d="M372 0v257q0 48 -21 74.5t-58 26.5q-55 0 -98 -67v-291h-117v705h117v-282q54 48 119 48q81 0 127.5 -55t46.5 -149v-267h-116z" />
    <glyph glyph-name="i" unicode="i" horiz-adv-x="247" 
d="M62 0v460h110v-460h-110zM48 579q0 31 20.5 53t48.5 22q29 0 49.5 -22t20.5 -53q0 -30 -20.5 -52t-49.5 -22q-28 0 -48.5 22t-20.5 52z" />
    <glyph glyph-name="j" unicode="j" horiz-adv-x="251" 
d="M-112 -149l61 88q44 -35 65 -35q46 0 46 74v479h115v-487q0 -81 -42.5 -130.5t-113.5 -49.5q-67 0 -131 61zM48 579q0 31 20.5 53t48.5 22q29 0 49.5 -22t20.5 -53q0 -30 -20.5 -52t-49.5 -22q-28 0 -48.5 22t-20.5 52z" />
    <glyph glyph-name="k" unicode="k" horiz-adv-x="520" 
d="M380 0l-168 203l-17 -14v-189h-117v705h117v-391l161 148l145 -1l-205 -190l226 -271h-142z" />
    <glyph glyph-name="l" unicode="l" horiz-adv-x="247" 
d="M60 0v705h118v-705h-118z" />
    <glyph glyph-name="m" unicode="m" horiz-adv-x="859" 
d="M669 0v250q0 49 -20.5 74.5t-57.5 25.5q-56 0 -97 -74v-276h-121v250q0 100 -77 100q-56 0 -98 -66v-284h-120v450h105l9 -44q58 53 126 53q97 0 144 -72q64 72 151 72q83 0 129.5 -52.5t46.5 -145.5v-261h-120z" />
    <glyph glyph-name="n" unicode="n" horiz-adv-x="559" 
d="M372 0v250q0 48 -21 73.5t-58 25.5q-56 0 -98 -65v-284h-117v450h102l8 -45q54 54 126 54q83 0 129 -52.5t46 -145.5v-261h-117z" />
    <glyph glyph-name="o" unicode="o" horiz-adv-x="558" 
d="M279 351q-67 0 -100 -61q-15 -30 -15 -66q0 -74 57 -109q29 -17 58 -17q70 0 101 61q14 28 14 65q0 76 -56 110q-29 17 -59 17zM279 -10q-66 0 -118.5 30.5t-83.5 84.5q-31 55 -31 119q0 66 30 120t84 85q54 30 119 30t118.5 -30t84.5 -84q30 -54 30 -121
q0 -65 -30.5 -118.5t-83.5 -84.5q-55 -31 -119 -31z" />
    <glyph glyph-name="p" unicode="p" horiz-adv-x="584" 
d="M305 348q-67 0 -100 -62q-16 -28 -16 -66q0 -74 58 -113q26 -16 58 -16q69 0 101 63q14 28 14 66q0 78 -56 112q-25 16 -59 16zM318 -20q-69 0 -122 44v-224h-118v650h103l7 -42q54 51 130 51q62 0 112.5 -30.5t79.5 -86.5q28 -52 28 -122q0 -67 -28.5 -121.5
t-78.5 -86.5q-51 -32 -113 -32z" />
    <glyph glyph-name="q" unicode="q" horiz-adv-x="584" 
d="M279 348q-68 0 -100 -62q-15 -28 -15 -66q0 -80 57 -113q26 -16 58 -16q65 0 100 63q16 30 16 66q0 75 -57 112q-25 16 -59 16zM388 -200v224q-53 -44 -122 -44q-128 0 -191 118q-29 56 -29 122q0 67 28 122t79 86t113 31q76 0 130 -51l7 42h103v-650h-118z" />
    <glyph glyph-name="r" unicode="r" horiz-adv-x="358" 
d="M282 336q-56 0 -93 -52v-284h-111v449h111v-39q43 36 108 36l6 1h4q6 0 20 -8l-1 -115q-26 12 -44 12z" />
    <glyph glyph-name="s" unicode="s" horiz-adv-x="423" 
d="M28 67l63 87q65 -62 122 -62q59 0 59 39q0 14 -10 21q-16 12 -62 25q-76 23 -110.5 57.5t-34.5 90.5q0 59 45 97q44 37 113 37q86 0 162 -63l-61 -87q-55 49 -101 49q-48 0 -48 -31q0 -11 13 -23q21 -13 69 -27q136 -40 136 -144q0 -65 -47 -104t-123 -39q-96 0 -185 77z
" />
    <glyph glyph-name="t" unicode="t" horiz-adv-x="416" 
d="M108 161v187h-86v103l91 5l11 121h99v-121h142v-108h-142v-186q0 -29 12.5 -45t33.5 -16q28 0 68 41l61 -86q-63 -66 -138 -66q-71 0 -111.5 46t-40.5 125z" />
    <glyph glyph-name="u" unicode="u" horiz-adv-x="551" 
d="M355 -1l1 34q-52 -43 -116 -43q-80 0 -125 51t-45 140v268h116v-258q0 -44 19.5 -67.5t55.5 -23.5q54 0 95 61v288h117v-450h-118z" />
    <glyph glyph-name="v" unicode="v" horiz-adv-x="487" 
d="M297 0h-107l-182 449h125l113 -291l113 291h120z" />
    <glyph glyph-name="w" unicode="w" horiz-adv-x="761" 
d="M564 0h-113l-70 244l-71 -244h-114l-196 449h126l129 -301l85 301h79l92 -296l128 296h122z" />
    <glyph glyph-name="x" unicode="x" horiz-adv-x="480" 
d="M337 0l-102 141l-101 -141h-132l168 231l-158 218h141l91 -126l91 126h132l-157 -217l168 -232h-141z" />
    <glyph glyph-name="y" unicode="y" horiz-adv-x="552" 
d="M263 -210q-63 0 -107.5 15.5t-94.5 56.5l58 93q41 -33 64 -44.5t48 -11.5q37 0 70 4q24 3 36 12q26 18 26 93v19q-47 -47 -127 -47t-125 52t-45 143v274h116v-264q0 -45 19.5 -69t55.5 -24q54 0 95 62v295h117v-502q0 -23 -23 -65.5t-62 -63.5q-55 -28 -121 -28z" />
    <glyph glyph-name="z" unicode="z" horiz-adv-x="448" 
d="M37 0v84l208 259h-199v106h355v-81l-210 -262h219v-106h-373z" />
    <glyph glyph-name="braceleft" unicode="{" horiz-adv-x="468" 
d="M179 19v34q0 75 -22 108t-72 37l-52 4v112l52 5q49 5 71.5 38.5t22.5 105.5v36q0 234 189 234h68v-115h-63q-39 0 -57 -28t-18 -94v-42q0 -137 -89 -195q89 -58 89 -197v-40q0 -66 17.5 -93.5t57.5 -27.5h63v-115h-68q-189 0 -189 233z" />
    <glyph glyph-name="bar" unicode="|" horiz-adv-x="294" 
d="M100 -200v885h94v-885h-94z" />
    <glyph glyph-name="braceright" unicode="}" horiz-adv-x="468" 
d="M288 53v-34q0 -233 -188 -233h-69v115h64q38 0 56 28t18 93v40q0 66 23.5 117.5t66.5 79.5q-90 58 -90 195v42q0 65 -18 93.5t-56 28.5h-64v115h69q188 0 188 -234v-36q0 -72 22.5 -105.5t72.5 -38.5l52 -5v-112l-53 -4q-49 -4 -71.5 -37.5t-22.5 -107.5z" />
    <glyph glyph-name="asciitilde" unicode="~" 
d="M235 320l-44 12q-18 2 -20 2q-18 0 -29.5 -9t-26.5 -35l-90 37q44 98 139 98q38 0 102 -20q26 -8 42 -11q10 -3 21 -3q18 0 29.5 9t26.5 35l90 -37q-44 -98 -139 -98q-26 0 -101 20z" />
    <glyph glyph-name="uni00A0" unicode="&#xa0;" horiz-adv-x="220" 
 />
    <glyph glyph-name="exclamdown" unicode="&#xa1;" horiz-adv-x="313" 
d="M105 -228l6 504h91l6 -504h-103zM96 392q0 30 17.5 52t42.5 22t43 -22t18 -52q0 -32 -17 -53.5t-44 -21.5t-43.5 21t-16.5 54z" />
    <glyph glyph-name="cent" unicode="&#xa2;" horiz-adv-x="480" 
d="M163 224q0 -78 55 -111v223q-55 -35 -55 -112zM328 -10v-93h-110v95q-73 18 -120 77q-52 64 -52 155q0 89 51 155q48 60 121 78v102h110v-100q62 -13 126 -74l-76 -80q-30 27 -50 37v-235q28 15 59 46l76 -81q-61 -65 -135 -82z" />
    <glyph glyph-name="sterling" unicode="&#xa3;" horiz-adv-x="563" 
d="M331 581q-42 0 -69.5 -30.5t-27.5 -78.5q0 -29 8 -77h196v-113h-167q8 -51 8 -81q0 -51 -17 -87h262v-114h-483v104l38 3q44 4 63 26.5t19 70.5q0 44 -10 78h-110v113h80q-7 35 -7 81q0 62 28 112t77 79q48 28 109 28q120 0 199 -102l-82 -78q-30 38 -55 52t-59 14z" />
    <glyph glyph-name="yen" unicode="&#xa5;" horiz-adv-x="636" 
d="M440 413h123v-112h-184v-44h184v-112h-184v-145h-123v145h-179v112h179v44h-179v112h119l-179 272h139l165 -250l163 250h133z" />
    <glyph glyph-name="brokenbar" unicode="&#xa6;" horiz-adv-x="294" 
d="M100 -200v376h94v-376h-94zM100 308v377h94v-377h-94z" />
    <glyph glyph-name="section" unicode="&#xa7;" horiz-adv-x="465" 
d="M228 358l-16 4l-20 7q-18 -5 -30 -24t-12 -43q0 -50 88 -75l21 -6l13 -5q19 6 30.5 24t11.5 43q0 54 -86 75zM396 53q0 -46 -21.5 -83t-60.5 -58q-40 -21 -87 -21q-85 0 -162 66l59 85q56 -46 98 -46q29 0 45 15.5t16 40.5q0 53 -99 79q-141 36 -141 163q0 82 63 131
q-37 40 -37 107q0 46 22 84.5t61 58.5q38 20 85 20q85 0 162 -66l-59 -87q-52 48 -98 48q-60 0 -60 -57q0 -53 99 -79q141 -36 141 -163q0 -80 -64 -131q38 -44 38 -107z" />
    <glyph glyph-name="dieresis" unicode="&#xa8;" 
d="M266 598q0 22 19 38t45 16t45.5 -16t19.5 -38t-19.5 -38t-45.5 -16t-45 16t-19 38zM104 598q0 22 19.5 38t45.5 16t45 -16t19 -38t-19 -38t-45 -16t-45.5 16t-19.5 38z" />
    <glyph glyph-name="copyright" unicode="&#xa9;" horiz-adv-x="788" 
d="M230 240q-26 47 -26 102q0 57 25.5 103t71.5 73q45 27 100 27q77 0 151 -72l-64 -69q-45 45 -87 45t-69 -30t-27 -77q0 -48 28 -76q29 -30 68 -30q46 0 92 50l63 -69q-75 -76 -155 -76q-55 0 -100 26t-71 73zM394 608q-72 0 -130.5 -34t-92.5 -95t-34 -137
q0 -75 33.5 -135.5t93.5 -95.5q59 -35 130 -35q73 0 131 34t92 96q33 62 33 136q0 76 -33 137t-92 95q-58 34 -131 34zM394 -10q-96 0 -175.5 46t-126.5 127q-46 79 -46 179q0 98 45 179t126 128q79 46 177 46q96 0 176 -46t126 -127q45 -81 45 -180q0 -98 -46 -179
t-125 -127t-176 -46z" />
    <glyph glyph-name="ordfeminine" unicode="&#xaa;" horiz-adv-x="409" 
d="M36 255v87h336v-87h-336zM133 527q0 -32 18.5 -52t45.5 -20t46 20.5t19 51.5q0 32 -18.5 52t-46.5 20t-46 -20t-18 -52zM270 367l-4 20q-38 -27 -80 -27q-43 0 -79 22.5t-56 60.5q-20 39 -20 84q0 98 76 146q36 22 79 22q46 0 80 -27l4 20h87v-321h-87z" />
    <glyph glyph-name="guillemotleft" unicode="&#xab;" horiz-adv-x="631" 
d="M506 -8l-226 220v25l226 221l78 -77l-160 -156l160 -157zM262 -8l-226 220v25l226 221l78 -77l-160 -156l160 -157z" />
    <glyph glyph-name="logicalnot" unicode="&#xac;" 
d="M352 108v167h-319v101h433v-268h-114z" />
    <glyph glyph-name="uni00AD" unicode="&#xad;" horiz-adv-x="0" 
 />
    <glyph glyph-name="registered" unicode="&#xae;" horiz-adv-x="788" 
d="M393 442h-35v-65h35q36 0 36 32q0 33 -36 33zM451 161l-68 131h-25v-131h-92v369h124q60 0 97.5 -32.5t37.5 -86.5q0 -66 -53 -96l86 -154h-107zM394 609q-73 0 -131 -34t-92 -96t-34 -137t33.5 -136t93.5 -96q59 -35 130 -35q72 0 130.5 34.5t92.5 96.5q33 62 33 136
q0 76 -33 137.5t-92 95.5q-58 34 -131 34zM394 -10q-96 0 -175.5 46t-126.5 127q-46 79 -46 179q0 98 45 179t126 128q79 46 177 46q96 0 176 -46t126 -127q45 -81 45 -180q0 -98 -45 -178.5t-125 -127.5q-79 -46 -177 -46z" />
    <glyph glyph-name="overscore" unicode="&#xaf;" 
d="M123 555v71h253v-71h-253z" />
    <glyph glyph-name="degree" unicode="&#xb0;" horiz-adv-x="394" 
d="M130 526q0 -32 19.5 -52.5t48.5 -20.5q28 0 47 20.5t19 52.5t-19 52.5t-47 20.5q-29 0 -48.5 -20.5t-19.5 -52.5zM198 359q-100 0 -146 82q-22 40 -22 85q0 98 83 147q38 22 85 22t85.5 -21.5t59.5 -60.5q21 -38 21 -87q0 -99 -81 -145q-40 -22 -85 -22z" />
    <glyph glyph-name="plusminus" unicode="&#xb1;" 
d="M38 0v78h424v-78h-424zM306 285v-157h-113v157h-155v104h155v157h113v-157h155v-104h-155z" />
    <glyph glyph-name="uni00B2" unicode="&#xb2;" horiz-adv-x="308" 
d="M34 441v69l108 129q23 28 23 47q0 21 -21 21q-23 0 -59 -44l-59 62q52 72 122 72q48 0 79.5 -30t31.5 -78t-44 -99l-53 -63h105v-86h-233z" />
    <glyph glyph-name="uni00B3" unicode="&#xb3;" horiz-adv-x="312" 
d="M21 497l50 72q46 -42 79 -42q29 0 29 25q0 28 -37 28h-44v82h42q26 0 26 23q0 21 -25 21q-24 0 -60 -41l-57 60q55 72 121 72q49 0 81.5 -29.5t32.5 -75.5q0 -40 -26 -66q40 -28 40 -78t-34.5 -81t-88.5 -31q-71 0 -129 61z" />
    <glyph glyph-name="acute" unicode="&#xb4;" 
d="M183 509l-46 66l170 127l57 -88z" />
    <glyph glyph-name="uni00B5" unicode="&#xb5;" horiz-adv-x="559" 
d="M379 -10l-7 42q-55 -52 -123 -52q-28 0 -55 9v-189h-116v649h116v-263q0 -45 20 -69.5t56 -24.5q52 0 95 63v294h116v-459h-102z" />
    <glyph glyph-name="paragraph" unicode="&#xb6;" horiz-adv-x="757" 
d="M606 571v-671h-116v671h-99v-671h-116v357q-136 6 -198 101q-32 50 -32 112q0 100 68 157q69 58 179 58h447v-114h-133z" />
    <glyph glyph-name="middot" unicode="&#xb7;" horiz-adv-x="310" 
d="M94 318q0 25 18 42.5t43 17.5t43 -17.5t18 -42.5t-18 -43t-43 -18t-43 18t-18 43z" />
    <glyph glyph-name="cedilla" unicode="&#xb8;" 
d="M147 -189l25 76q38 -20 59 -20q15 0 15 10t-27 10l-39 40l28 91h82l-18 -58q31 -8 49.5 -30.5t18.5 -54.5q0 -39 -29 -64t-72 -25q-42 0 -92 25z" />
    <glyph glyph-name="uni00B9" unicode="&#xb9;" horiz-adv-x="246" 
d="M85 441v242l-57 -51v102l66 58h77v-351h-86z" />
    <glyph glyph-name="ordmasculine" unicode="&#xba;" horiz-adv-x="391" 
d="M32 255v87h327v-87h-327zM131 527q0 -32 18.5 -52t46.5 -20q27 0 45.5 20t18.5 52q0 33 -18 52.5t-46 19.5t-46.5 -20t-18.5 -52zM196 360q-46 0 -84 22t-59 60q-21 39 -21 85q0 100 81 146q37 22 83 22q45 0 82.5 -21t59.5 -60q21 -39 21 -87q0 -46 -21.5 -84.5
t-58.5 -60.5t-83 -22z" />
    <glyph glyph-name="guillemotright" unicode="&#xbb;" horiz-adv-x="631" 
d="M368 -8l-78 76l161 155l-161 158l78 77l226 -221v-25zM124 -8l-78 76l161 155l-161 158l78 77l226 -221v-25z" />
    <glyph glyph-name="onequarter" unicode="&#xbc;" horiz-adv-x="726" 
d="M573 207l-35 -50h35v50zM661 69v-69h-88v69h-142v69l150 213h80v-194h44v-88h-44zM189 0h-115l426 685h114zM85 334v242l-57 -51v102l66 58h77v-351h-86z" />
    <glyph glyph-name="onehalf" unicode="&#xbd;" horiz-adv-x="724" 
d="M450 0v69l108 129q23 28 23 47q0 21 -21 21q-23 0 -59 -44l-59 62q52 72 122 72q48 0 79.5 -30t31.5 -78t-44 -99l-53 -63h105v-86h-233zM176 0h-115l426 685h114zM85 334v242l-57 -51v102l66 58h77v-351h-86z" />
    <glyph glyph-name="threequarters" unicode="&#xbe;" horiz-adv-x="792" 
d="M639 207l-35 -50h35v50zM727 69v-69h-88v69h-142v69l150 213h80v-194h44v-88h-44zM253 0h-115l426 685h114zM21 390l50 72q46 -42 79 -42q29 0 29 25q0 28 -37 28h-44v82h42q26 0 26 23q0 21 -25 21q-24 0 -60 -41l-57 60q55 72 121 72q49 0 81.5 -29.5t32.5 -75.5
q0 -40 -26 -66q40 -28 40 -78t-34.5 -81t-88.5 -31q-71 0 -129 61z" />
    <glyph glyph-name="questiondown" unicode="&#xbf;" horiz-adv-x="489" 
d="M76 -139q-28 47 -28 106q0 75 45 129q41 51 107 67v113h112v-197l-51 -6q-45 -5 -71.5 -33.5t-26.5 -70.5q0 -43 28 -70.5t72 -27.5q69 0 131 81l76 -76q-88 -114 -210 -114q-59 0 -107.5 26t-76.5 73zM184 392q0 31 21 52.5t51 21.5t51.5 -21.5t21.5 -52.5t-21.5 -53
t-51.5 -22t-51 22.5t-21 52.5z" />
    <glyph glyph-name="Aring" unicode="&#xc5;" horiz-adv-x="687" 
d="M342 513l-94 -234h188zM547 0l-66 165h-278l-66 -165h-126l278 685h110l277 -685h-129zM318 840q0 -12 8 -20t19 -8t18.5 8t7.5 20t-7.5 20t-18.5 8t-19 -8t-8 -20zM345 736q-44 0 -76 30q-32 32 -32 74q0 43 32 73q31 31 76 31q44 0 75 -31q32 -32 32 -73q0 -44 -32 -74
q-31 -30 -75 -30z" />
    <glyph glyph-name="AE" unicode="&#xc6;" horiz-adv-x="884" 
d="M345 514l-94 -235h189zM552 0l-67 165h-280l-67 -165h-127l281 685h537v-114h-380l67 -162h290v-113h-244l75 -182h192v-114h-277z" />
    <glyph glyph-name="Eth" unicode="&#xd0;" horiz-adv-x="726" 
d="M297 570h-59v-170h163v-114h-163v-171h59q119 0 185 60.5t66 166.5q0 108 -66 168t-185 60zM292 0h-178v286h-98v114h98v285h178q239 0 337 -160q46 -76 46 -183q0 -104 -46.5 -181.5t-133.5 -118.5q-87 -42 -203 -42z" />
    <glyph glyph-name="multiply" unicode="&#xd7;" 
d="M326 335l134 -134l-76 -76l-134 134l-135 -134l-76 76l134 134l-135 135l77 76l135 -134l134 134l77 -76z" />
    <glyph glyph-name="Thorn" unicode="&#xde;" horiz-adv-x="588" 
d="M296 447h-81v-211h81q61 0 93 27.5t32 77.5q0 106 -125 106zM293 123h-78v-123h-119v685h119v-125h78q117 0 183.5 -57.5t66.5 -161.5q0 -136 -119 -192q-57 -26 -131 -26z" />
    <glyph glyph-name="germandbls" unicode="&#xdf;" horiz-adv-x="640" 
d="M388 -10q-79 0 -158 59l54 93q59 -43 96 -43q42 0 68.5 30t26.5 80q0 55 -39 87.5t-111 35.5l-24 79q65 50 65 110q0 38 -23.5 61t-61.5 23t-60.5 -20t-22.5 -53q0 -34 20 -78l11 -25v-429h-120v352h-89v104l77 4q-20 52 -20 87q0 49 26 87.5t73 59.5q48 21 102 21
q91 0 147 -50t56 -133q0 -69 -37 -118q72 -20 112 -74t40 -132q0 -60 -27 -110t-74 -79q-48 -29 -107 -29z" />
    <glyph glyph-name="aring" unicode="&#xe5;" horiz-adv-x="584" 
d="M279 351q-69 0 -100 -61q-15 -30 -15 -66q0 -74 57 -109q29 -17 58 -17q67 0 100 61q16 30 16 65t-15.5 64.5t-41.5 45.5q-29 17 -59 17zM390 -1v36q-52 -45 -124 -45q-127 0 -191 116q-29 53 -29 118q0 66 28 120t79 85q51 30 113 30q74 0 130 -50l7 41h103v-451h-116z
M253 605q0 -12 8 -20t19 -8t18.5 8t7.5 20t-7.5 20t-18.5 8t-19 -8t-8 -20zM280 501q-44 0 -76 30q-32 32 -32 74q0 43 32 73q31 31 76 31q44 0 75 -31q32 -32 32 -73q0 -44 -32 -74q-31 -30 -75 -30z" />
    <glyph glyph-name="ae" unicode="&#xe6;" horiz-adv-x="911" 
d="M286 351q-70 0 -103 -61q-16 -31 -16 -66q0 -75 59 -109q29 -17 60 -17q71 0 104 61q17 29 17 65q0 35 -16 64.5t-43 45.5q-29 17 -62 17zM541 279h205q-13 34 -39.5 53.5t-58.5 19.5q-35 0 -64 -19.5t-43 -53.5zM867 174h-327q14 -35 46 -56t71 -21q55 0 118 54l74 -80
q-90 -81 -191 -81q-87 0 -148 52l-6 -43h-90l-6 42q-57 -51 -135 -51q-64 0 -115.5 30.5t-81.5 85.5q-30 52 -30 118q0 65 29.5 119.5t81.5 85.5q51 30 116 30q78 0 135 -51l6 42h90l5 -43q61 52 139 52q62 0 114 -31t82 -86q30 -54 30 -118q0 -26 -7 -50z" />
    <glyph glyph-name="eth" unicode="&#xf0;" horiz-adv-x="559" 
d="M395 229q0 58 -33 94q-33 37 -83 37q-67 0 -100 -63q-15 -29 -15 -67q0 -76 57 -112q26 -17 58 -17q68 0 101 63q15 29 15 65zM324 519l-42 -48q49 -3 93 -31q-21 46 -51 79zM513 267q0 -173 -110 -243q-54 -34 -124 -34q-65 0 -118 31.5t-84 86.5q-31 56 -31 122
q0 67 29 123t80 87q51 30 111 31l-61 55l44 51q-30 18 -102 38l28 94q81 -20 141 -55l58 68l71 -63l-55 -63q123 -123 123 -329z" />
    <glyph glyph-name="divide" unicode="&#xf7;" 
d="M175 161q0 30 22 52.5t53 22.5q30 0 52 -22.5t22 -52.5t-21.5 -52t-52.5 -22q-30 0 -52.5 22.5t-22.5 51.5zM38 284v106h424v-106h-424zM175 513q0 30 22.5 52t52.5 22q31 0 52.5 -22t21.5 -52t-22 -52.5t-52 -22.5q-31 0 -53 22.5t-22 52.5z" />
    <glyph glyph-name="thorn" unicode="&#xfe;" horiz-adv-x="584" 
d="M304 355q-68 0 -99 -63q-16 -31 -16 -67q0 -75 58 -113q26 -17 57 -17q68 0 101 63q15 30 15 67q0 57 -33 93q-33 37 -83 37zM318 -17q-71 0 -122 45v-228h-118v905h118v-282q51 45 122 45q62 0 112.5 -31t79.5 -87q28 -55 28 -125q0 -67 -28.5 -123t-78.5 -87
q-51 -32 -113 -32z" />
    <glyph glyph-name="ydieresis" unicode="&#xff;" horiz-adv-x="552" 
d="M263 -210q-63 0 -107.5 15.5t-94.5 56.5l58 93q41 -33 64 -44.5t48 -11.5q37 0 70 4q24 3 36 12q26 18 26 93v19q-47 -47 -127 -47t-125 52t-45 143v274h116v-264q0 -45 19.5 -69t55.5 -24q54 0 95 62v295h117v-502q0 -23 -23 -65.5t-62 -63.5q-55 -28 -121 -28zM287 598
q0 22 19 38t45 16t45.5 -16t19.5 -38t-19.5 -38t-45.5 -16t-45 16t-19 38zM125 598q0 22 19.5 38t45.5 16t45 -16t19 -38t-19 -38t-45 -16t-45.5 16t-19.5 38z" />
    <glyph glyph-name="Aogonek" unicode="&#x104;" horiz-adv-x="687" 
d="M342 512l-94 -238h188zM492 -104q0 57 51 108l-62 156h-278l-66 -168h-126l278 693h110l274 -683q-77 -45 -77 -90q0 -20 18 -20q10 0 37 11l30 -86q-52 -21 -82 -21q-48 0 -77.5 27t-29.5 73z" />
    <glyph glyph-name="aogonek" unicode="&#x105;" horiz-adv-x="584" 
d="M279 348q-67 0 -100 -62q-15 -28 -15 -67q0 -76 57 -112q26 -16 58 -16q68 0 101 62q16 29 16 66q0 75 -58 113q-25 16 -59 16zM333 -106q0 71 67 121l-3 16q-55 -51 -131 -51q-62 0 -111.5 31.5t-79.5 86.5q-29 54 -29 121t28 122.5t79 86.5t113 31q76 0 131 -51l7 42
h103v-453q-71 -41 -71 -86q0 -21 17 -21q9 0 37 12l29 -85q-47 -21 -80 -21q-48 0 -77 26.5t-29 71.5z" />
    <glyph glyph-name="Cacute" unicode="&#x106;" horiz-adv-x="671" 
d="M96 163q-45 81 -45 179t44 179t122 128q77 46 173 46q138 0 251 -116l-78 -85q-84 84 -173 84q-123 0 -185 -114q-28 -52 -28 -122q0 -66 27.5 -120t76.5 -85q46 -30 109 -30q96 0 180 94l80 -87q-120 -124 -260 -124q-93 0 -171 46t-123 127zM314 744l-46 66l170 127
l57 -88z" />
    <glyph glyph-name="cacute" unicode="&#x107;" horiz-adv-x="481" 
d="M77 105q-31 55 -31 119q0 66 29.5 120t83.5 85q52 30 118 30q94 0 177 -77l-76 -80q-54 49 -101 49q-68 0 -99 -61q-15 -28 -15 -66q0 -75 56 -109q26 -17 58 -17q53 0 110 57l76 -80q-85 -85 -186 -85q-65 0 -117.5 30.5t-82.5 84.5zM190 509l-46 66l170 127l57 -88z
" />
    <glyph glyph-name="Ccircumflex" unicode="&#x108;" horiz-adv-x="671" 
d="M96 163q-45 81 -45 179t44 179t122 128q77 46 173 46q138 0 251 -116l-78 -85q-84 84 -173 84q-123 0 -185 -114q-28 -52 -28 -122q0 -66 27.5 -120t76.5 -85q46 -30 109 -30q96 0 180 94l80 -87q-120 -124 -260 -124q-93 0 -171 46t-123 127zM488 741l-109 75l-108 -75
l-55 63l164 128l163 -128z" />
    <glyph glyph-name="ccircumflex" unicode="&#x109;" horiz-adv-x="481" 
d="M77 105q-31 55 -31 119q0 66 29.5 120t83.5 85q52 30 118 30q94 0 177 -77l-76 -80q-54 49 -101 49q-68 0 -99 -61q-15 -28 -15 -66q0 -75 56 -109q26 -17 58 -17q53 0 110 57l76 -80q-85 -85 -186 -85q-65 0 -117.5 30.5t-82.5 84.5zM377 506l-109 75l-108 -75l-55 63
l164 128l163 -128z" />
    <glyph glyph-name="Dcaron" unicode="&#x10e;" horiz-adv-x="703" 
d="M277 570h-58v-455h58q117 0 183 60.5t66 166.5q0 108 -65 168t-184 60zM272 0h-176v685h176q237 0 334 -160q46 -76 46 -183q0 -104 -46 -181t-133 -119q-89 -42 -201 -42zM320 742l-164 128l55 63l109 -75l108 75l55 -63z" />
    <glyph glyph-name="dcaron" unicode="&#x10f;" horiz-adv-x="639" 
d="M279 360q-68 0 -100 -63q-15 -29 -15 -67q0 -77 57 -113q26 -16 58 -16q65 0 100 63q16 30 16 66t-15.5 66.5t-41.5 46.5q-29 17 -59 17zM641 521h-70v184h81zM403 0l-7 41q-54 -51 -130 -51q-128 0 -191 118q-29 56 -29 122q0 67 28 123t79 87q49 31 113 31
q69 0 122 -44v278h118v-705h-103z" />
    <glyph glyph-name="Ebreve" unicode="&#x114;" horiz-adv-x="566" 
d="M96 0v685h415v-114h-295v-162h274v-113h-274v-182h295v-114h-415zM173 867v31h95v-23q0 -43 36 -43q35 0 35 42v24h95v-32q0 -51 -37 -83.5t-93 -32.5q-57 0 -94 32.5t-37 84.5z" />
    <glyph glyph-name="ebreve" unicode="&#x115;" horiz-adv-x="530" 
d="M171 279h198q-13 33 -40 53t-60 20q-32 0 -58.5 -19.5t-39.5 -53.5zM488 173h-318q14 -35 43 -55.5t64 -20.5q74 0 129 52l72 -80q-85 -79 -200 -79q-63 0 -116.5 31t-85.5 85q-31 54 -31 118q0 65 29.5 118t81.5 86q50 31 113 31q62 0 113 -31t81 -85t30 -119
q0 -9 -5 -51zM139 632v31h95v-23q0 -43 36 -43q35 0 35 42v24h95v-32q0 -51 -37 -83.5t-93 -32.5q-57 0 -94 32.5t-37 84.5z" />
    <glyph glyph-name="Edotaccent" unicode="&#x116;" horiz-adv-x="566" 
d="M96 0v685h415v-114h-295v-162h274v-113h-274v-182h295v-114h-415zM243 835q0 24 18.5 42.5t42.5 18.5t42 -18.5t18 -42.5q0 -25 -17.5 -43t-42.5 -18t-43 18t-18 43z" />
    <glyph glyph-name="edotaccent" unicode="&#x117;" horiz-adv-x="530" 
d="M171 279h198q-13 33 -40 53t-60 20q-32 0 -58.5 -19.5t-39.5 -53.5zM488 173h-318q14 -35 43 -55.5t64 -20.5q74 0 129 52l72 -80q-85 -79 -200 -79q-63 0 -116.5 31t-85.5 85q-31 54 -31 118q0 65 29.5 118t81.5 86q50 31 113 31q62 0 113 -31t81 -85t30 -119
q0 -9 -5 -51zM202 600q0 24 18.5 42.5t42.5 18.5t42 -18.5t18 -42.5q0 -25 -17.5 -43t-42.5 -18t-43 18t-18 43z" />
    <glyph glyph-name="Eogonek" unicode="&#x118;" horiz-adv-x="566" 
d="M414 -88q0 -20 17 -20q9 0 36 11l30 -86q-49 -21 -80 -21q-47 0 -76 27t-29 73q0 50 39 96h-255v693h415v-115h-295v-164h274v-115h-274v-184h295v-115h-39q-58 -38 -58 -80z" />
    <glyph glyph-name="eogonek" unicode="&#x119;" horiz-adv-x="530" 
d="M171 275h198q-13 34 -40.5 54.5t-59.5 20.5t-58.5 -20.5t-39.5 -54.5zM488 167h-318q14 -35 43.5 -56.5t63.5 -21.5q64 0 120 56l72 -83q-60 -56 -85 -88t-25 -63q0 -21 17 -21q15 0 46 20l31 -84q-42 -30 -91 -30q-48 0 -77 26.5t-29 71.5t29 86h-7q-63 0 -116.5 32
t-85.5 87q-31 54 -31 120q0 65 29.5 120t81.5 88q50 32 113 32q62 0 113 -31.5t81 -87.5t30 -121q0 -9 -5 -52z" />
    <glyph glyph-name="Ecaron" unicode="&#x11a;" horiz-adv-x="566" 
d="M96 0v685h415v-114h-295v-162h274v-113h-274v-182h295v-114h-415zM304 742l-164 128l55 63l109 -75l108 75l55 -63z" />
    <glyph glyph-name="ecaron" unicode="&#x11b;" horiz-adv-x="530" 
d="M171 279h198q-13 33 -40 53t-60 20q-32 0 -58.5 -19.5t-39.5 -53.5zM488 173h-318q14 -35 43 -55.5t64 -20.5q74 0 129 52l72 -80q-85 -79 -200 -79q-63 0 -116.5 31t-85.5 85q-31 54 -31 118q0 65 29.5 118t81.5 86q50 31 113 31q62 0 113 -31t81 -85t30 -119
q0 -9 -5 -51zM270 507l-164 128l55 63l109 -75l108 75l55 -63z" />
    <glyph glyph-name="Gcircumflex" unicode="&#x11c;" horiz-adv-x="752" 
d="M392 -10q-95 0 -173 46t-123 127t-45 179t44.5 178.5t122.5 128.5q77 46 174 46q90 0 156.5 -27t128.5 -89l-81 -85q-46 46 -92 65t-112 19q-60 0 -108.5 -30t-77.5 -84q-28 -52 -28 -122q0 -66 27.5 -119.5t77.5 -85.5q48 -30 109 -30q102 0 163 81q22 30 31 68h-211
v113h332q7 -14 7 -29v-20q0 -90 -42 -165.5t-116 -120.5q-74 -44 -164 -44zM490 741l-109 75l-108 -75l-55 63l164 128l163 -128z" />
    <glyph glyph-name="gcircumflex" unicode="&#x11d;" horiz-adv-x="587" 
d="M285 348q-68 0 -100 -62q-15 -28 -15 -67q0 -76 57 -112q25 -16 58 -16q67 0 100 62q16 28 16 66q0 76 -57 113q-25 16 -59 16zM287 -210q-67 0 -112 16q-43 15 -104 67l63 92q51 -45 78 -55q29 -10 72 -10q68 0 97.5 23t29.5 74v43q-55 -60 -139 -60q-128 0 -191 118
q-29 56 -29 121q0 67 28 122.5t79 86.5t113 31q76 0 130 -51l7 42h103v-453q0 -75 -18 -112.5t-75 -66.5q-55 -28 -132 -28zM385 506l-109 75l-108 -75l-55 63l164 128l163 -128z" />
    <glyph glyph-name="Gcommaaccent" unicode="&#x122;" horiz-adv-x="752" 
d="M429 -171l-46 -94l-65 21l31 82q-20 18 -20 47q0 25 16.5 43t40.5 18t41 -19.5t17 -46.5q0 -19 -15 -51zM392 -10q-95 0 -173 46t-123 127t-45 179t44.5 178.5t122.5 128.5q77 46 174 46q90 0 156.5 -27t128.5 -89l-81 -85q-46 46 -92 65t-112 19q-60 0 -108.5 -30
t-77.5 -84q-28 -52 -28 -122q0 -66 27.5 -119.5t77.5 -85.5q48 -30 109 -30q102 0 163 81q22 30 31 68h-211v113h332q7 -14 7 -29v-20q0 -90 -42 -165.5t-116 -120.5q-74 -44 -164 -44z" />
    <glyph glyph-name="gcommaaccent" unicode="&#x123;" horiz-adv-x="587" 
d="M285 348q-68 0 -100 -62q-15 -28 -15 -67q0 -76 57 -112q25 -16 58 -16q67 0 100 62q16 28 16 66q0 76 -57 113q-25 16 -59 16zM287 -210q-67 0 -112 16q-43 15 -104 67l63 92q51 -45 78 -55q29 -10 72 -10q68 0 97.5 23t29.5 74v43q-55 -60 -139 -60q-128 0 -191 118
q-29 56 -29 121q0 67 28 122.5t79 86.5t113 31q76 0 130 -51l7 42h103v-453q0 -75 -18 -112.5t-75 -66.5q-55 -28 -132 -28z" />
    <glyph glyph-name="Hcircumflex" unicode="&#x124;" horiz-adv-x="738" 
d="M519 0v297h-300v-297h-123v685h123v-275h300v275h123v-685h-123zM477 741l-109 75l-108 -75l-55 63l164 128l163 -128z" />
    <glyph glyph-name="hcircumflex" unicode="&#x125;" horiz-adv-x="558" 
d="M372 0v257q0 48 -21 74.5t-58 26.5q-55 0 -98 -67v-291h-117v705h117v-282q54 48 119 48q81 0 127.5 -55t46.5 -149v-267h-116zM383 747l-109 75l-108 -75l-55 63l164 128l163 -128z" />
    <glyph glyph-name="Imacron" unicode="&#x12a;" horiz-adv-x="287" 
d="M96 0v685h95v-685h-95zM17 790v71h253v-71h-253z" />
    <glyph glyph-name="imacron" unicode="&#x12b;" horiz-adv-x="247" 
d="M78 0v449h91v-449h-91zM-2 555v71h253v-71h-253z" />
    <glyph glyph-name="Ibreve" unicode="&#x12c;" horiz-adv-x="287" 
d="M84 0v685h120v-685h-120zM13 867v31h95v-23q0 -43 36 -43q35 0 35 42v24h95v-32q0 -51 -37 -83.5t-93 -32.5q-57 0 -94 32.5t-37 84.5z" />
    <glyph glyph-name="ibreve" unicode="&#x12d;" horiz-adv-x="247" 
d="M78 0v449h91v-449h-91zM-6 632v31h95v-23q0 -43 36 -43q35 0 35 42v24h95v-32q0 -51 -37 -83.5t-93 -32.5q-57 0 -94 32.5t-37 84.5z" />
    <glyph glyph-name="Iogonek" unicode="&#x12e;" horiz-adv-x="287" 
d="M40 -104q0 60 46 109v680h107v-685q-62 -44 -62 -88q0 -20 14 -20q10 0 33 12l26 -87q-45 -21 -71 -21q-42 0 -67.5 27t-25.5 73z" />
    <glyph glyph-name="iogonek" unicode="&#x12f;" horiz-adv-x="247" 
d="M18 -104q0 62 49 113v448h105v-458q-63 -41 -63 -87q0 -21 15 -21q7 0 32 13l27 -87q-45 -21 -71 -21q-42 0 -68 27.5t-26 72.5zM56 579q0 31 18.5 53t44.5 22q27 0 45.5 -22t18.5 -53q0 -30 -18.5 -52t-45.5 -22q-26 0 -44.5 22t-18.5 52z" />
    <glyph glyph-name="dotlessi" unicode="&#x131;" horiz-adv-x="247" 
d="M78 0v449h91v-449h-91z" />
    <glyph glyph-name="IJ" unicode="&#x132;" horiz-adv-x="594" 
d="M127 84l77 85q58 -63 109 -63q37 0 57.5 26t20.5 76v477h120v-478q0 -104 -51.5 -160.5t-146.5 -56.5q-101 0 -186 94zM96 296v389h120v-389h-120z" />
    <glyph glyph-name="ij" unicode="&#x133;" horiz-adv-x="498" 
d="M135 -149l61 88q44 -35 65 -35q46 0 46 74v479h115v-487q0 -81 -42.5 -130.5t-113.5 -49.5q-67 0 -131 61zM75 0v460h97v-460h-97zM295 579q0 31 20.5 53t48.5 22q29 0 49.5 -22t20.5 -53q0 -30 -20.5 -52t-49.5 -22q-28 0 -48.5 22t-20.5 52zM64 580q0 30 17 52t42 22
t42.5 -22t17.5 -52t-17.5 -51.5t-42.5 -21.5q-24 0 -41.5 21.5t-17.5 51.5z" />
    <glyph glyph-name="Jcircumflex" unicode="&#x134;" horiz-adv-x="476" 
d="M12 84l76 85q58 -63 109 -63q77 0 77 102v477h119v-478q0 -104 -51 -160.5t-145 -56.5q-100 0 -185 94zM451 741l-109 75l-108 -75l-55 63l164 128l163 -128z" />
    <glyph glyph-name="jcircumflex" unicode="&#x135;" horiz-adv-x="248" 
d="M-115 -150l61 87q44 -35 64 -35q21 0 34 19t13 55v473h113v-481q0 -81 -41.5 -129.5t-112.5 -48.5q-67 0 -131 60zM226 506l-109 75l-108 -75l-55 63l164 128l163 -128z" />
    <glyph glyph-name="Kcommaaccent" unicode="&#x136;" horiz-adv-x="644" 
d="M380 -171l-46 -94l-65 21l31 82q-20 18 -20 47q0 25 16.5 43t40.5 18t41 -19.5t17 -46.5q0 -19 -15 -51zM486 0l-265 268l-3 -268h-122v685h122l3 -248l251 248h155l-322 -324l343 -361h-162z" />
    <glyph glyph-name="kcommaaccent" unicode="&#x137;" horiz-adv-x="520" 
d="M309 -171l-46 -94l-65 21l31 82q-20 18 -20 47q0 25 16.5 43t40.5 18t41 -19.5t17 -46.5q0 -19 -15 -51zM380 0l-168 203l-17 -14v-189h-117v705h117v-391l161 148l145 -1l-205 -190l226 -271h-142z" />
    <glyph glyph-name="kgreenlandic" unicode="&#x138;" horiz-adv-x="520" 
d="M379 0l-113 179q-20 -4 -60 -4h-11v-175h-117v449h117v-164h11q45 0 68.5 14t41.5 53l45 97h124l-52 -110q-35 -72 -67 -106l150 -233h-137z" />
    <glyph glyph-name="Lacute" unicode="&#x139;" horiz-adv-x="514" 
d="M96 0v685h120v-571h271v-114h-391zM116 744l-46 66l170 127l57 -88z" />
    <glyph glyph-name="lacute" unicode="&#x13a;" horiz-adv-x="247" 
d="M60 0v705h118v-705h-118zM68 747l-46 66l170 127l57 -88z" />
    <glyph glyph-name="Lcommaaccent" unicode="&#x13b;" horiz-adv-x="514" 
d="M324 -171l-46 -94l-65 21l31 82q-20 18 -20 47q0 25 16.5 43t40.5 18t41 -19.5t17 -46.5q0 -19 -15 -51zM96 0v685h120v-571h271v-114h-391z" />
    <glyph glyph-name="lcommaaccent" unicode="&#x13c;" horiz-adv-x="247" 
d="M165 -171l-46 -94l-65 21l31 82q-20 18 -20 47q0 25 16.5 43t40.5 18t41 -19.5t17 -46.5q0 -19 -15 -51zM78 0v705h91v-705h-91z" />
    <glyph glyph-name="Lcaron" unicode="&#x13d;" horiz-adv-x="514" 
d="M353 501h-70v184h81zM96 0v685h120v-571h271v-114h-391z" />
    <glyph glyph-name="lcaron" unicode="&#x13e;" horiz-adv-x="295" 
d="M305 521h-70v184h81zM78 0v705h91v-705h-91z" />
    <glyph glyph-name="Ldot" unicode="&#x13f;" horiz-adv-x="514" 
d="M334 355q0 25 18 42.5t43 17.5t43 -17.5t18 -42.5t-18 -43t-43 -18t-43 18t-18 43zM96 0v685h120v-571h271v-114h-391z" />
    <glyph glyph-name="ldot" unicode="&#x140;" horiz-adv-x="311" 
d="M219 328q0 25 18 42.5t43 17.5t43 -17.5t18 -42.5t-18 -43t-43 -18t-43 18t-18 43zM78 0v705h91v-705h-91z" />
    <glyph glyph-name="Lslash" unicode="&#x141;" horiz-adv-x="538" 
d="M113 0v259l-67 -28l-43 102l110 46v306h122v-255l125 53l43 -103l-168 -70v-196h276v-114h-398z" />
    <glyph glyph-name="lslash" unicode="&#x142;" horiz-adv-x="308" 
d="M210 329v-329h-114v271l-59 -30l-46 98l105 53v313h114v-254l60 31l47 -98z" />
    <glyph glyph-name="Nacute" unicode="&#x143;" horiz-adv-x="728" 
d="M520 0l-308 469v-469h-116v685h112l308 -469v469h116v-685h-112zM309 744l-46 66l170 127l57 -88z" />
    <glyph glyph-name="nacute" unicode="&#x144;" horiz-adv-x="559" 
d="M372 0v250q0 48 -21 73.5t-58 25.5q-56 0 -98 -65v-284h-117v450h102l8 -45q54 54 126 54q83 0 129 -52.5t46 -145.5v-261h-117zM225 509l-46 66l170 127l57 -88z" />
    <glyph glyph-name="Ncommaaccent" unicode="&#x145;" horiz-adv-x="728" 
d="M404 -171l-46 -94l-65 21l31 82q-20 18 -20 47q0 25 16.5 43t40.5 18t41 -19.5t17 -46.5q0 -19 -15 -51zM520 0l-308 469v-469h-116v685h112l308 -469v469h116v-685h-112z" />
    <glyph glyph-name="ncommaaccent" unicode="&#x146;" horiz-adv-x="559" 
d="M320 -171l-46 -94l-65 21l31 82q-20 18 -20 47q0 25 16.5 43t40.5 18t41 -19.5t17 -46.5q0 -19 -15 -51zM372 0v250q0 48 -21 73.5t-58 25.5q-56 0 -98 -65v-284h-117v450h102l8 -45q54 54 126 54q83 0 129 -52.5t46 -145.5v-261h-117z" />
    <glyph glyph-name="Ncaron" unicode="&#x147;" horiz-adv-x="728" 
d="M520 0l-308 469v-469h-116v685h112l308 -469v469h116v-685h-112zM364 742l-164 128l55 63l109 -75l108 75l55 -63z" />
    <glyph glyph-name="ncaron" unicode="&#x148;" horiz-adv-x="559" 
d="M372 0v250q0 48 -21 73.5t-58 25.5q-56 0 -98 -65v-284h-117v450h102l8 -45q54 54 126 54q83 0 129 -52.5t46 -145.5v-261h-117zM284 507l-164 128l55 63l109 -75l108 75l55 -63z" />
    <glyph glyph-name="napostrophe" unicode="&#x149;" horiz-adv-x="593" 
d="M372 0v250q0 48 -21 73.5t-58 25.5q-56 0 -98 -65v-284h-117v450h102l8 -45q54 54 126 54q83 0 129 -52.5t46 -145.5v-261h-117zM55 455h-80l40 230h113z" />
    <glyph glyph-name="Obreve" unicode="&#x14e;" horiz-adv-x="784" 
d="M392 578q-60 0 -108.5 -30t-77.5 -84q-28 -52 -28 -122q0 -66 27.5 -119.5t77.5 -85.5q48 -30 109 -30q60 0 109 30t78 84q27 50 27 121q0 68 -27.5 122t-76.5 85q-47 29 -110 29zM392 -10q-95 0 -173 46t-123 127t-45 179t44.5 179t122.5 128q76 46 174 46
q96 0 174.5 -46t122.5 -128q44 -80 44 -179q0 -98 -44.5 -178.5t-122.5 -127.5q-76 -46 -174 -46zM261 867v31h95v-23q0 -43 36 -43q35 0 35 42v24h95v-32q0 -51 -37 -83.5t-93 -32.5q-57 0 -94 32.5t-37 84.5z" />
    <glyph glyph-name="obreve" unicode="&#x14f;" horiz-adv-x="558" 
d="M279 351q-67 0 -100 -61q-15 -30 -15 -66q0 -74 57 -109q29 -17 58 -17q70 0 101 61q14 28 14 65q0 76 -56 110q-29 17 -59 17zM279 -10q-66 0 -118.5 30.5t-83.5 84.5q-31 55 -31 119q0 66 30 120t84 85q54 30 119 30t118.5 -30t84.5 -84q30 -54 30 -121
q0 -65 -30.5 -118.5t-83.5 -84.5q-55 -31 -119 -31zM147 632v31h95v-23q0 -43 36 -43q35 0 35 42v24h95v-32q0 -51 -37 -83.5t-93 -32.5q-57 0 -94 32.5t-37 84.5z" />
    <glyph glyph-name="Ohungarumlaut" unicode="&#x150;" horiz-adv-x="784" 
d="M392 578q-60 0 -108.5 -30t-77.5 -84q-28 -52 -28 -122q0 -66 27.5 -119.5t77.5 -85.5q48 -30 109 -30q60 0 109 30t78 84q27 50 27 121q0 68 -27.5 122t-76.5 85q-47 29 -110 29zM392 -10q-95 0 -173 46t-123 127t-45 179t44.5 179t122.5 128q76 46 174 46
q96 0 174.5 -46t122.5 -128q44 -80 44 -179q0 -98 -44.5 -178.5t-122.5 -127.5q-76 -46 -174 -46zM474 742l-69 45l112 169l91 -56zM320 742l-69 45l112 169l90 -56z" />
    <glyph glyph-name="ohungarumlaut" unicode="&#x151;" horiz-adv-x="558" 
d="M279 351q-67 0 -100 -61q-15 -30 -15 -66q0 -74 57 -109q29 -17 58 -17q70 0 101 61q14 28 14 65q0 76 -56 110q-29 17 -59 17zM279 -10q-66 0 -118.5 30.5t-83.5 84.5q-31 55 -31 119q0 66 30 120t84 85q54 30 119 30t118.5 -30t84.5 -84q30 -54 30 -121
q0 -65 -30.5 -118.5t-83.5 -84.5q-55 -31 -119 -31zM364 507l-69 45l112 169l91 -56zM210 507l-69 45l112 169l90 -56z" />
    <glyph glyph-name="Racute" unicode="&#x154;" horiz-adv-x="610" 
d="M314 571h-98v-186h98q123 0 123 93q0 44 -31.5 68.5t-91.5 24.5zM474 0l-143 272l-115 -1v-271h-120v685h214q160 0 221 -96q29 -46 29 -108t-30.5 -110t-84.5 -73l164 -298h-135zM248 744l-46 66l170 127l57 -88z" />
    <glyph glyph-name="racute" unicode="&#x155;" horiz-adv-x="358" 
d="M282 336q-56 0 -93 -52v-284h-111v449h111v-39q43 36 108 36l6 1h4q6 0 20 -8l-1 -115q-26 12 -44 12zM156 509l-46 66l170 127l57 -88z" />
    <glyph glyph-name="Rcommaaccent" unicode="&#x156;" horiz-adv-x="610" 
d="M357 -171l-46 -94l-65 21l31 82q-20 18 -20 47q0 25 16.5 43t40.5 18t41 -19.5t17 -46.5q0 -19 -15 -51zM314 571h-98v-186h98q123 0 123 93q0 44 -31.5 68.5t-91.5 24.5zM474 0l-143 272l-115 -1v-271h-120v685h214q160 0 221 -96q29 -46 29 -108t-30.5 -110t-84.5 -73
l164 -298h-135z" />
    <glyph glyph-name="rcommaaccent" unicode="&#x157;" horiz-adv-x="358" 
d="M163 -171l-46 -94l-65 21l31 82q-20 18 -20 47q0 25 16.5 43t40.5 18t41 -19.5t17 -46.5q0 -19 -15 -51zM282 336q-56 0 -93 -52v-284h-111v449h111v-39q43 36 108 36l6 1h4q6 0 20 -8l-1 -115q-26 12 -44 12z" />
    <glyph glyph-name="Rcaron" unicode="&#x158;" horiz-adv-x="610" 
d="M314 571h-98v-186h98q123 0 123 93q0 44 -31.5 68.5t-91.5 24.5zM474 0l-143 272l-115 -1v-271h-120v685h214q160 0 221 -96q29 -46 29 -108t-30.5 -110t-84.5 -73l164 -298h-135zM291 742l-164 128l55 63l109 -75l108 75l55 -63z" />
    <glyph glyph-name="rcaron" unicode="&#x159;" horiz-adv-x="358" 
d="M282 336q-56 0 -93 -52v-284h-111v449h111v-39q43 36 108 36l6 1h4q6 0 20 -8l-1 -115q-26 12 -44 12zM193 507l-164 128l55 63l109 -75l108 75l55 -63z" />
    <glyph glyph-name="Sacute" unicode="&#x15a;" horiz-adv-x="566" 
d="M297 -10q-150 0 -264 123l72 88q88 -98 192 -98q47 0 75.5 24.5t28.5 63.5q0 31 -21 50q-27 24 -103 49q-151 51 -189 123q-19 37 -19 89q0 55 28.5 100t78.5 69q48 24 111 24q118 0 222 -103l-72 -88q-81 77 -150 77q-47 0 -72.5 -20.5t-25.5 -56.5q0 -32 24 -53
q32 -27 124 -57q96 -32 140.5 -79.5t44.5 -121.5q0 -56 -30 -103t-82 -73q-51 -27 -113 -27zM222 744l-46 66l170 127l57 -88z" />
    <glyph glyph-name="sacute" unicode="&#x15b;" horiz-adv-x="423" 
d="M28 67l63 87q65 -62 122 -62q59 0 59 39q0 14 -10 21q-16 12 -62 25q-76 23 -110.5 57.5t-34.5 90.5q0 59 45 97q44 37 113 37q86 0 162 -63l-61 -87q-55 49 -101 49q-48 0 -48 -31q0 -11 13 -23q21 -13 69 -27q136 -40 136 -144q0 -65 -47 -104t-123 -39q-96 0 -185 77z
M150 509l-46 66l170 127l57 -88z" />
    <glyph glyph-name="Scircumflex" unicode="&#x15c;" horiz-adv-x="566" 
d="M297 -10q-150 0 -264 123l72 88q88 -98 192 -98q47 0 75.5 24.5t28.5 63.5q0 31 -21 50q-27 24 -103 49q-151 51 -189 123q-19 37 -19 89q0 55 28.5 100t78.5 69q48 24 111 24q118 0 222 -103l-72 -88q-81 77 -150 77q-47 0 -72.5 -20.5t-25.5 -56.5q0 -32 24 -53
q32 -27 124 -57q96 -32 140.5 -79.5t44.5 -121.5q0 -56 -30 -103t-82 -73q-51 -27 -113 -27zM386 741l-109 75l-108 -75l-55 63l164 128l163 -128z" />
    <glyph glyph-name="scircumflex" unicode="&#x15d;" horiz-adv-x="423" 
d="M28 67l63 87q65 -62 122 -62q59 0 59 39q0 14 -10 21q-16 12 -62 25q-76 23 -110.5 57.5t-34.5 90.5q0 59 45 97q44 37 113 37q86 0 162 -63l-61 -87q-55 49 -101 49q-48 0 -48 -31q0 -11 13 -23q21 -13 69 -27q136 -40 136 -144q0 -65 -47 -104t-123 -39q-96 0 -185 77z
M325 506l-109 75l-108 -75l-55 63l164 128l163 -128z" />
    <glyph glyph-name="uni0162" unicode="&#x162;" horiz-adv-x="553" 
d="M317 -171l-46 -94l-65 21l31 82q-20 18 -20 47q0 25 16.5 43t40.5 18t41 -19.5t17 -46.5q0 -19 -15 -51zM338 571v-571h-123v571h-195v114h513v-114h-195z" />
    <glyph glyph-name="uni0163" unicode="&#x163;" horiz-adv-x="416" 
d="M257 -171l-46 -94l-65 21l31 82q-20 18 -20 47q0 25 16.5 43t40.5 18t41 -19.5t17 -46.5q0 -19 -15 -51zM108 161v187h-86v103l91 5l11 121h99v-121h142v-108h-142v-186q0 -29 12.5 -45t33.5 -16q28 0 68 41l61 -86q-63 -66 -138 -66q-71 0 -111.5 46t-40.5 125z" />
    <glyph glyph-name="Tcaron" unicode="&#x164;" horiz-adv-x="553" 
d="M338 571v-571h-123v571h-195v114h513v-114h-195zM274 742l-164 128l55 63l109 -75l108 75l55 -63z" />
    <glyph glyph-name="tcaron" unicode="&#x165;" horiz-adv-x="416" 
d="M108 161v187h-86v103l91 5l11 121h99v-121h142v-108h-142v-186q0 -29 12.5 -45t33.5 -16q28 0 68 41l61 -86q-63 -66 -138 -66q-71 0 -111.5 46t-40.5 125zM334 507h-70v184h81z" />
    <glyph glyph-name="Tbar" unicode="&#x166;" horiz-adv-x="553" 
d="M338 571v-160h116v-113h-116v-298h-123v298h-116v113h116v160h-195v114h513v-114h-195z" />
    <glyph glyph-name="tbar" unicode="&#x167;" horiz-adv-x="416" 
d="M108 161v30h-86v105h86v55h-86v100l91 5l11 121h99v-121h142v-105h-142v-55h142v-105h-142v-29q0 -29 12.5 -45t33.5 -16q28 0 68 41l61 -86q-63 -66 -138 -66q-71 0 -111.5 46t-40.5 125z" />
    <glyph glyph-name="Ubreve" unicode="&#x16c;" horiz-adv-x="680" 
d="M340 -10q-159 0 -226 132q-32 66 -32 147v416h122v-414q0 -80 36 -122.5t100 -42.5t100 42.5t36 122.5v414h122v-416q0 -83 -31.5 -146.5t-89.5 -97.5q-59 -35 -137 -35zM208 867v31h95v-23q0 -43 36 -43q35 0 35 42v24h95v-32q0 -51 -37 -83.5t-93 -32.5q-57 0 -94 32.5
t-37 84.5z" />
    <glyph glyph-name="ubreve" unicode="&#x16d;" horiz-adv-x="551" 
d="M355 -1l1 34q-52 -43 -116 -43q-80 0 -125 51t-45 140v268h116v-258q0 -44 19.5 -67.5t55.5 -23.5q54 0 95 61v288h117v-450h-118zM144 632v31h95v-23q0 -43 36 -43q35 0 35 42v24h95v-32q0 -51 -37 -83.5t-93 -32.5q-57 0 -94 32.5t-37 84.5z" />
    <glyph glyph-name="Uring" unicode="&#x16e;" horiz-adv-x="680" 
d="M340 -10q-159 0 -226 132q-32 66 -32 147v416h122v-414q0 -80 36 -122.5t100 -42.5t100 42.5t36 122.5v414h122v-416q0 -83 -31.5 -146.5t-89.5 -97.5q-59 -35 -137 -35zM312 840q0 -12 8 -20t19 -8t18.5 8t7.5 20t-7.5 20t-18.5 8t-19 -8t-8 -20zM339 736q-45 0 -76 30
q-32 32 -32 74q0 43 32 73q31 31 76 31q44 0 75 -31q32 -32 32 -73q0 -44 -32 -74t-75 -30z" />
    <glyph glyph-name="uring" unicode="&#x16f;" horiz-adv-x="551" 
d="M355 -1l1 34q-52 -43 -116 -43q-80 0 -125 51t-45 140v268h116v-258q0 -44 19.5 -67.5t55.5 -23.5q54 0 95 61v288h117v-450h-118zM248 605q0 -12 8 -20t19 -8t18.5 8t7.5 20t-7.5 20t-18.5 8t-19 -8t-8 -20zM275 501q-45 0 -76 30q-32 32 -32 74q0 43 32 73q31 31 76 31
q44 0 75 -31q32 -32 32 -73q0 -44 -32 -74t-75 -30z" />
    <glyph glyph-name="Uogonek" unicode="&#x172;" horiz-adv-x="680" 
d="M114 116q-32 66 -32 149v420h122v-418q0 -81 35.5 -124.5t100.5 -43.5t100.5 43.5t35.5 124.5v418h122v-420q0 -149 -93 -228q-96 -79 -96 -125q0 -20 17 -20q10 0 37 11l30 -86q-51 -21 -81 -21q-48 0 -77 27t-29 73t31 86q-73 -4 -131 32t-92 102z" />
    <glyph glyph-name="uogonek" unicode="&#x173;" horiz-adv-x="551" 
d="M302 -106q0 70 65 121l-3 16q-51 -51 -124 -51q-80 0 -125 52.5t-45 142.5v274h117v-263q0 -46 19.5 -70t54.5 -24q54 0 95 62v295h118v-452q-70 -43 -70 -86q0 -21 17 -21q7 0 36 12l29 -85q-46 -21 -79 -21q-47 0 -76 26.5t-29 71.5z" />
    <glyph glyph-name="Ycircumflex" unicode="&#x176;" horiz-adv-x="601" 
d="M362 291v-291h-123v293l-237 392h138l164 -272l163 272h132zM406 741l-109 75l-108 -75l-55 63l164 128l163 -128z" />
    <glyph glyph-name="ycircumflex" unicode="&#x177;" horiz-adv-x="552" 
d="M263 -210q-63 0 -107.5 15.5t-94.5 56.5l58 93q41 -33 64 -44.5t48 -11.5q37 0 70 4q24 3 36 12q26 18 26 93v19q-47 -47 -127 -47t-125 52t-45 143v274h116v-264q0 -45 19.5 -69t55.5 -24q54 0 95 62v295h117v-502q0 -23 -23 -65.5t-62 -63.5q-55 -28 -121 -28zM379 506
l-109 75l-108 -75l-55 63l164 128l163 -128z" />
    <glyph glyph-name="Ydieresis" unicode="&#x178;" horiz-adv-x="601" 
d="M362 291v-291h-123v293l-237 392h138l164 -272l163 272h132zM316 833q0 22 19 38t45 16t45.5 -16t19.5 -38t-19.5 -38t-45.5 -16t-45 16t-19 38zM154 833q0 22 19.5 38t45.5 16t45 -16t19 -38t-19 -38t-45 -16t-45.5 16t-19.5 38z" />
    <glyph glyph-name="Zacute" unicode="&#x179;" horiz-adv-x="570" 
d="M41 0v89l324 482h-312v114h466v-90l-324 -482h333v-113h-487zM238 744l-46 66l170 127l57 -88z" />
    <glyph glyph-name="zacute" unicode="&#x17a;" horiz-adv-x="448" 
d="M37 0v84l208 259h-199v106h355v-81l-210 -262h219v-106h-373zM177 509l-46 66l170 127l57 -88z" />
    <glyph glyph-name="Zcaron" unicode="&#x17d;" horiz-adv-x="570" 
d="M41 0v89l324 482h-312v114h466v-90l-324 -482h333v-113h-487zM285 742l-164 128l55 63l109 -75l108 75l55 -63z" />
    <glyph glyph-name="zcaron" unicode="&#x17e;" horiz-adv-x="448" 
d="M37 0v84l208 259h-199v106h355v-81l-210 -262h219v-106h-373zM224 507l-164 128l55 63l109 -75l108 75l55 -63z" />
    <glyph glyph-name="uni0191" unicode="&#x191;" horiz-adv-x="519" 
d="M208 570v-183h251v-115h-251v-301q0 -82 -45.5 -131.5t-121.5 -49.5q-71 0 -138 61l66 88q41 -35 67 -35q23 0 36.5 19t13.5 55v707h392v-115h-270z" />
    <glyph glyph-name="uni0192" unicode="&#x192;" horiz-adv-x="364" 
d="M249 602q-29 0 -46 -18.5t-17 -49.5q0 -27 18 -75h148v-110h-133v-375q0 -84 -45 -134t-121 -50q-71 0 -139 63l65 87q44 -38 71 -38q23 0 37 20t14 58v369h-90v104l76 4q-18 51 -18 92q0 74 46.5 120t121.5 46q74 0 152 -63l-60 -90q-44 40 -80 40z" />
    <glyph glyph-name="uni0218" unicode="&#x218;" horiz-adv-x="566" 
d="M327 -171l-46 -94l-65 21l31 82q-20 18 -20 47q0 25 16.5 43t40.5 18t41 -19.5t17 -46.5q0 -19 -15 -51zM297 -10q-150 0 -264 123l72 88q88 -98 192 -98q47 0 75.5 24.5t28.5 63.5q0 31 -21 50q-27 24 -103 49q-151 51 -189 123q-19 37 -19 89q0 55 28.5 100t78.5 69
q48 24 111 24q118 0 222 -103l-72 -88q-81 77 -150 77q-47 0 -72.5 -20.5t-25.5 -56.5q0 -32 24 -53q32 -27 124 -57q96 -32 140.5 -79.5t44.5 -121.5q0 -56 -30 -103t-82 -73q-51 -27 -113 -27z" />
    <glyph glyph-name="uni0219" unicode="&#x219;" horiz-adv-x="423" 
d="M251 -171l-46 -94l-65 21l31 82q-20 18 -20 47q0 25 16.5 43t40.5 18t41 -19.5t17 -46.5q0 -19 -15 -51zM28 67l63 87q65 -62 122 -62q59 0 59 39q0 14 -10 21q-16 12 -62 25q-76 23 -110.5 57.5t-34.5 90.5q0 59 45 97q44 37 113 37q86 0 162 -63l-61 -87
q-55 49 -101 49q-48 0 -48 -31q0 -11 13 -23q21 -13 69 -27q136 -40 136 -144q0 -65 -47 -104t-123 -39q-96 0 -185 77z" />
    <glyph glyph-name="uni021A" unicode="&#x21a;" horiz-adv-x="553" 
d="M317 -171l-46 -94l-65 21l31 82q-20 18 -20 47q0 25 16.5 43t40.5 18t41 -19.5t17 -46.5q0 -19 -15 -51zM338 571v-571h-123v571h-195v114h513v-114h-195z" />
    <glyph glyph-name="uni021B" unicode="&#x21b;" horiz-adv-x="416" 
d="M257 -171l-46 -94l-65 21l31 82q-20 18 -20 47q0 25 16.5 43t40.5 18t41 -19.5t17 -46.5q0 -19 -15 -51zM108 161v187h-86v103l91 5l11 121h99v-121h142v-108h-142v-186q0 -29 12.5 -45t33.5 -16q28 0 68 41l61 -86q-63 -66 -138 -66q-71 0 -111.5 46t-40.5 125z" />
    <glyph glyph-name="uni0237" unicode="&#x237;" horiz-adv-x="248" 
d="M-115 -150l61 87q44 -35 64 -35q21 0 34 19t13 55v473h113v-481q0 -81 -41.5 -129.5t-112.5 -48.5q-67 0 -131 60z" />
    <glyph glyph-name="circumflex" unicode="&#x2c6;" 
d="M358 506l-109 75l-108 -75l-55 63l164 128l163 -128z" />
    <glyph glyph-name="caron" unicode="&#x2c7;" 
d="M250 507l-164 128l55 63l109 -75l108 75l55 -63z" />
    <glyph glyph-name="breve" unicode="&#x2d8;" 
d="M119 632v31h95v-23q0 -43 36 -43q35 0 35 42v24h95v-32q0 -51 -37 -83.5t-93 -32.5q-57 0 -94 32.5t-37 84.5z" />
    <glyph glyph-name="dotaccent" unicode="&#x2d9;" 
d="M189 600q0 24 18.5 42.5t42.5 18.5t42 -18.5t18 -42.5q0 -25 -17.5 -43t-42.5 -18t-43 18t-18 43z" />
    <glyph glyph-name="ring" unicode="&#x2da;" 
d="M223 605q0 -12 8 -20t19 -8t18.5 8t7.5 20t-7.5 20t-18.5 8t-19 -8t-8 -20zM250 501q-44 0 -76 30q-32 32 -32 74q0 43 32 73q31 31 76 31q44 0 75 -31q32 -32 32 -73q0 -44 -32 -74q-31 -30 -75 -30z" />
    <glyph glyph-name="ogonek" unicode="&#x2db;" 
d="M266 -118q8 0 32 11l27 -78q-44 -19 -72 -19q-42 0 -67.5 24t-25.5 65q0 77 85 128l95 -19q-89 -54 -89 -94q0 -18 15 -18z" />
    <glyph glyph-name="tilde" unicode="&#x2dc;" 
d="M233 560l-22 11q-3 1 -9 1q-7 0 -13.5 -7t-17.5 -30l-81 32q42 89 107 89q16 0 31 -6q12 -5 35 -14l24 -10q2 0 4 -0.5t3 -1.5h2q7 0 12.5 7.5t16.5 33.5l82 -31q-42 -94 -106 -94q-27 0 -68 20z" />
    <glyph glyph-name="hungarumlaut" unicode="&#x2dd;" 
d="M299 507l-69 45l112 169l91 -56zM145 507l-69 45l112 169l90 -56z" />
    <glyph glyph-name="uni1E9E" unicode="&#x1e9e;" horiz-adv-x="689" 
d="M424 -10q-107 0 -204 77l65 94q75 -55 134 -55q48 0 76.5 31t28.5 84q0 126 -162 126l-40 79l118 142q-48 16 -102 16q-137 0 -137 -174v-410h-119v412q0 133 67.5 208t189.5 75q90 0 197 -42l43 -89l-106 -124q83 -18 128.5 -75.5t45.5 -145.5q0 -136 -108 -199
q-51 -30 -115 -30z" />
    <glyph glyph-name="uni200E" unicode="&#x200e;" horiz-adv-x="0" 
 />
    <glyph glyph-name="uni200F" unicode="&#x200f;" horiz-adv-x="0" 
 />
    <glyph glyph-name="endash" unicode="&#x2013;" 
d="M40 246v83h420v-83h-420z" />
    <glyph glyph-name="emdash" unicode="&#x2014;" horiz-adv-x="1000" 
d="M40 246v83h920v-83h-920z" />
    <glyph glyph-name="quoteleft" unicode="&#x2018;" horiz-adv-x="207" 
d="M134 455h-112l73 230h80z" />
    <glyph glyph-name="quoteright" unicode="&#x2019;" horiz-adv-x="207" 
d="M112 455h-80l40 230h113z" />
    <glyph glyph-name="quotesinglbase" unicode="&#x201a;" horiz-adv-x="207" 
d="M103 -140h-80l41 229h112z" />
    <glyph glyph-name="quotedblleft" unicode="&#x201c;" horiz-adv-x="386" 
d="M312 455h-112l73 230h80zM134 455h-112l73 230h80z" />
    <glyph glyph-name="quotedblright" unicode="&#x201d;" horiz-adv-x="386" 
d="M290 455h-80l40 230h113zM112 455h-80l40 230h113z" />
    <glyph glyph-name="quotedblbase" unicode="&#x201e;" horiz-adv-x="386" 
d="M281 -140h-80l41 229h112zM103 -140h-80l41 229h112z" />
    <glyph glyph-name="dagger" unicode="&#x2020;" horiz-adv-x="554" 
d="M336 442v-542h-118v542h-171v115h171v195h118v-195h171v-115h-171z" />
    <glyph glyph-name="daggerdbl" unicode="&#x2021;" horiz-adv-x="554" 
d="M336 94v-194h-118v194h-171v115h171v233h-171v115h171v195h118v-195h171v-115h-171v-233h171v-115h-171z" />
    <glyph glyph-name="bullet" unicode="&#x2022;" horiz-adv-x="298" 
d="M55 307q0 39 27.5 66.5t66.5 27.5t66.5 -27.5t27.5 -66.5t-27.5 -67t-66.5 -28t-66.5 28t-27.5 67z" />
    <glyph glyph-name="ellipsis" unicode="&#x2026;" horiz-adv-x="792" 
d="M598 53q0 26 19 44.5t44 18.5q26 0 44.5 -18.5t18.5 -44.5t-18.5 -44.5t-44.5 -18.5t-44.5 18.5t-18.5 44.5zM332 53q0 26 19 44.5t44 18.5q26 0 44.5 -18.5t18.5 -44.5t-18.5 -44.5t-44.5 -18.5t-44.5 18.5t-18.5 44.5zM67 53q0 26 19 44.5t44 18.5q26 0 44.5 -18.5
t18.5 -44.5t-18.5 -44.5t-44.5 -18.5t-44.5 18.5t-18.5 44.5z" />
    <glyph glyph-name="perthousand" unicode="&#x2030;" horiz-adv-x="1285" 
d="M992 171q0 -36 22 -59t55 -23t54.5 23t21.5 59t-21.5 58.5t-54.5 22.5t-55 -22.5t-22 -58.5zM591 171q0 -36 21.5 -59t54.5 -23t54.5 23t21.5 59t-21.5 58.5t-54.5 22.5t-54.5 -22.5t-21.5 -58.5zM1069 -10q-109 0 -161 88q-25 44 -25 93q0 50 24.5 91.5t66.5 66.5
q41 23 95 23q51 0 93 -23.5t67 -64.5q24 -40 24 -93q0 -51 -23.5 -93.5t-65.5 -64.5q-42 -23 -95 -23zM667 -10q-108 0 -160 88q-25 43 -25 93t24 91.5t67 66.5q41 23 94 23q51 0 93.5 -23.5t67.5 -64.5q24 -40 24 -93q0 -51 -23.5 -93t-66.5 -65t-95 -23zM140 512
q0 -35 21.5 -57.5t54.5 -22.5t54.5 22.5t21.5 57.5q0 37 -21.5 60t-54.5 23t-54.5 -23t-21.5 -60zM275 0h-123l456 685h124zM216 332q-51 0 -93 23.5t-67 64.5q-25 40 -25 92q0 51 24 93t67 67q41 23 94 23q52 0 95 -24t66 -66q24 -42 24 -93t-23.5 -92.5t-66.5 -64.5
t-95 -23z" />
    <glyph glyph-name="guilsinglleft" unicode="&#x2039;" horiz-adv-x="371" 
d="M250 -8l-214 220v25l214 221l74 -77l-152 -156l152 -157z" />
    <glyph glyph-name="guilsinglright" unicode="&#x203a;" horiz-adv-x="371" 
d="M120 -8l-74 76l153 155l-153 158l74 77l214 -221v-25z" />
    <glyph glyph-name="fraction" unicode="&#x2044;" horiz-adv-x="170" 
d="M-70 0h-115l426 685h114z" />
    <glyph glyph-name="uni2070" unicode="&#x2070;" horiz-adv-x="362" 
d="M136 616q0 -43 12.5 -65.5t32.5 -22.5q19 0 31.5 23t12.5 65t-12.5 65t-31.5 23q-20 0 -32.5 -22.5t-12.5 -65.5zM39 616q0 78 38 130q39 51 104 51q63 0 102.5 -51t39.5 -130q0 -80 -38.5 -130t-103.5 -50t-103.5 50t-38.5 130z" />
    <glyph glyph-name="uni2074" unicode="&#x2074;" horiz-adv-x="309" 
d="M157 648l-35 -50h35v50zM245 510v-69h-88v69h-142v69l150 213h80v-194h44v-88h-44z" />
    <glyph glyph-name="uni2075" unicode="&#x2075;" horiz-adv-x="309" 
d="M22 497l51 71q42 -41 76 -41q31 0 31 32q0 31 -34 31q-17 0 -45 -16l-60 40l16 178h191v-88h-115l-3 -27q5 1 22 1q54 0 88 -33t34 -86q0 -54 -35.5 -88.5t-89.5 -34.5q-70 0 -127 61z" />
    <glyph glyph-name="uni2076" unicode="&#x2076;" horiz-adv-x="301" 
d="M116 559q0 -16 10 -26t26 -10t25.5 10t9.5 26q0 18 -10 28.5t-25 10.5q-36 0 -36 -39zM24 561q0 60 53 138l63 93h106l-77 -112q48 -5 79.5 -39t31.5 -82q0 -54 -36.5 -88.5t-91.5 -34.5q-54 0 -91 35.5t-37 89.5z" />
    <glyph glyph-name="uni2077" unicode="&#x2077;" horiz-adv-x="280" 
d="M144 441h-101l106 263h-132v88h238v-67z" />
    <glyph glyph-name="uni2078" unicode="&#x2078;" horiz-adv-x="329" 
d="M126 551q0 -31 38 -31q17 0 28 9t11 22q0 12 -11 21t-28 9t-27.5 -8.5t-10.5 -21.5zM136 688q0 -26 28 -26q29 0 29 26q0 23 -29 23q-28 0 -28 -23zM34 548q0 45 37 76q-27 28 -27 66q0 46 35 76q34 31 85 31q49 0 85 -31q36 -32 36 -76q0 -38 -27 -66q37 -31 37 -76
q0 -49 -37.5 -80.5t-93.5 -31.5q-55 0 -92.5 32t-37.5 80z" />
    <glyph glyph-name="uni2079" unicode="&#x2079;" horiz-adv-x="301" 
d="M117 674q0 -18 10 -29t25 -11q16 0 26 11t10 29q0 15 -10 25t-26 10q-15 0 -25 -10t-10 -25zM227 533l-63 -92h-106l77 111q-49 5 -80 38.5t-31 83.5q0 54 37 88q38 35 91 35q54 0 91 -36t37 -90q0 -59 -53 -138z" />
    <glyph glyph-name="uni2080" unicode="&#x2080;" horiz-adv-x="362" 
d="M136 67q0 -43 12.5 -65.5t32.5 -22.5q19 0 31.5 23t12.5 65t-12.5 65t-31.5 23q-20 0 -32.5 -22.5t-12.5 -65.5zM39 67q0 78 38 130q39 51 104 51q63 0 102.5 -51t39.5 -130q0 -80 -38.5 -130t-103.5 -50t-103.5 50t-38.5 130z" />
    <glyph glyph-name="uni2081" unicode="&#x2081;" horiz-adv-x="246" 
d="M85 -108v242l-57 -51v102l66 58h77v-351h-86z" />
    <glyph glyph-name="uni2082" unicode="&#x2082;" horiz-adv-x="308" 
d="M34 -108v69l108 129q23 28 23 47q0 21 -21 21q-23 0 -59 -44l-59 62q52 72 122 72q48 0 79.5 -30t31.5 -78t-44 -99l-53 -63h105v-86h-233z" />
    <glyph glyph-name="uni2083" unicode="&#x2083;" horiz-adv-x="312" 
d="M21 -52l50 72q46 -42 79 -42q29 0 29 25q0 28 -37 28h-44v82h42q26 0 26 23q0 21 -25 21q-24 0 -60 -41l-57 60q55 72 121 72q49 0 81.5 -29.5t32.5 -75.5q0 -40 -26 -66q40 -28 40 -78t-34.5 -81t-88.5 -31q-71 0 -129 61z" />
    <glyph glyph-name="uni2084" unicode="&#x2084;" horiz-adv-x="309" 
d="M157 99l-35 -50h35v50zM245 -39v-69h-88v69h-142v69l150 213h80v-194h44v-88h-44z" />
    <glyph glyph-name="uni2085" unicode="&#x2085;" horiz-adv-x="309" 
d="M22 -52l51 71q42 -41 76 -41q31 0 31 32q0 31 -34 31q-17 0 -45 -16l-60 40l16 178h191v-88h-115l-3 -27q5 1 22 1q54 0 88 -33t34 -86q0 -54 -35.5 -88.5t-89.5 -34.5q-70 0 -127 61z" />
    <glyph glyph-name="uni2086" unicode="&#x2086;" horiz-adv-x="301" 
d="M116 10q0 -16 10 -26t26 -10t25.5 10t9.5 26q0 18 -10 28.5t-25 10.5q-36 0 -36 -39zM24 12q0 60 53 138l63 93h106l-77 -112q48 -5 79.5 -39t31.5 -82q0 -54 -36.5 -88.5t-91.5 -34.5q-54 0 -91 35.5t-37 89.5z" />
    <glyph glyph-name="uni2087" unicode="&#x2087;" horiz-adv-x="280" 
d="M144 -108h-101l106 263h-132v88h238v-67z" />
    <glyph glyph-name="uni2088" unicode="&#x2088;" horiz-adv-x="329" 
d="M126 2q0 -31 38 -31q17 0 28 9t11 22q0 12 -11 21t-28 9t-27.5 -8.5t-10.5 -21.5zM136 139q0 -26 28 -26q29 0 29 26q0 23 -29 23q-28 0 -28 -23zM34 -1q0 45 37 76q-27 29 -27 66q0 46 35 76q34 31 85 31q49 0 85 -31t36 -76q0 -37 -27 -66q37 -31 37 -76
q0 -49 -37.5 -80.5t-93.5 -31.5q-55 0 -92.5 32t-37.5 80z" />
    <glyph glyph-name="uni2089" unicode="&#x2089;" horiz-adv-x="301" 
d="M117 125q0 -18 10 -29t25 -11q16 0 26 11t10 29q0 15 -10 25t-26 10q-15 0 -25 -10t-10 -25zM227 -16l-63 -92h-106l77 111q-49 5 -80 38.5t-31 83.5q0 54 37 88q38 35 91 35q54 0 91 -36t37 -90q0 -59 -53 -138z" />
    <glyph glyph-name="colonmonetary" unicode="&#x20a1;" horiz-adv-x="671" 
d="M210 208l43 320q-76 -70 -76 -186q0 -77 33 -134zM391 581l-16 -1l-61 -462q19 -6 39 -11l61 472l-11 1q-6 2 -12 1zM430 696l13 99h115l-18 -133q48 -26 101 -80l-79 -87q-25 28 -39 38l-54 -413q44 18 101 80l81 -88q-99 -100 -198 -119l-13 -93h-115l12 90
q-19 3 -39 9l-13 -99h-115l20 151q-66 49 -102.5 125t-36.5 166q0 167 110 268q48 46 111 68l16 117h115l-12 -96q19 0 39 -3z" />
    <glyph glyph-name="Euro" unicode="&#x20ac;" horiz-adv-x="759" 
d="M277 52q-83 58 -118 156h-108v112h85l-1 22l1 22h-85v112h108q34 96 118 156q89 63 199 63q140 0 253 -116l-79 -85q-84 84 -174 84q-57 0 -104 -26.5t-75 -75.5h298l-33 -112h-299l-1 -6l-1 -5l1 -11l-1 -11l1 -5l1 -6h286l-32 -112h-220q62 -101 179 -101q98 0 181 94
l82 -87q-123 -124 -263 -124q-110 0 -199 62z" />
    <glyph glyph-name="uni20B4" unicode="&#x20b4;" horiz-adv-x="634" 
d="M591 369h-114q-26 -23 -69 -44h183v-112h-379q-3 -12 -3 -25q0 -37 28 -61t73 -24q100 0 192 86l72 -88q-114 -111 -264 -111q-62 0 -113 24.5t-80 69.5q-29 46 -29 101q0 4 2 28h-47v112h115q37 27 80 44h-195v112h369q2 18 2 23q0 33 -27 55t-68 22q-77 0 -149 -65
l-73 87q101 92 222 92q132 0 189 -92q28 -44 28 -98q0 -2 -2 -24h57v-112z" />
    <glyph glyph-name="uni20B5" unicode="&#x20b5;" horiz-adv-x="671" 
d="M222 493q-45 -63 -45 -151t45 -151q40 -54 97 -74v452q-60 -23 -97 -76zM434 -11v-92h-115v96q-162 36 -232 186q-36 75 -36 163t35.5 164.5t100.5 124.5q60 47 132 60v104h115v-99q112 -16 207 -114l-78 -86q-63 66 -129 80v-467q67 16 136 91l80 -88
q-101 -107 -216 -123z" />
    <glyph glyph-name="uni20B9" unicode="&#x20b9;" horiz-adv-x="575" 
d="M208 265l224 -265h-155l-234 280v91h121q65 0 91 45h-212v112h212q-26 45 -91 45h-121v112h492v-112h-170q14 -24 20 -45h150v-112h-149q-15 -63 -61.5 -102t-116.5 -49z" />
    <glyph glyph-name="uni2113" unicode="&#x2113;" horiz-adv-x="381" 
d="M77 168v517h114v-508q0 -36 12.5 -55t34.5 -19q26 0 63 36l63 -90q-62 -59 -134 -59q-74 0 -113.5 46.5t-39.5 131.5z" />
    <glyph glyph-name="uni2116" unicode="&#x2116;" horiz-adv-x="1119" 
d="M760 255v87h327v-87h-327zM859 527q0 -32 18.5 -52t46.5 -20q27 0 45.5 20t18.5 52q0 33 -18 52.5t-46 19.5t-46.5 -20t-18.5 -52zM520 0l-308 469v-469h-116v685h112l308 -469v469h116v-685h-112zM924 360q-46 0 -84 22t-59 60q-21 39 -21 85q0 100 81 146q37 22 83 22
q45 0 82.5 -21t59.5 -60q21 -39 21 -87q0 -46 -21.5 -84.5t-58.5 -60.5t-83 -22z" />
    <glyph glyph-name="trademark" unicode="&#x2122;" horiz-adv-x="703" 
d="M580 381l-20 134l-53 -134h-74l-53 135l-20 -135h-93l53 304h82l69 -177l68 177h82l52 -304h-93zM194 602v-221h-93v221h-83v83h258v-83h-82z" />
    <glyph glyph-name="uni2126" unicode="&#x2126;" horiz-adv-x="797" 
d="M646 110h89v-110h-273v100q72 28 112 93q39 65 39 148q0 143 -104 207q-49 31 -110 31q-59 0 -108 -30.5t-79 -85.5q-28 -52 -28 -122q0 -85 38 -148q38 -64 112 -93v-100h-273v110h89q-92 92 -92 239q0 95 44.5 175t123.5 126q78 45 173 45q94 0 173 -45.5t123 -124.5
t44 -176q0 -146 -93 -239z" />
    <glyph glyph-name="estimated" unicode="&#x212e;" horiz-adv-x="722" 
d="M194 439v-135h334v138q0 5 -3 8q-68 73 -163 73q-97 0 -165 -77q-3 -3 -3 -7zM667 256h-473v-136q0 -4 3 -7q68 -74 165 -74q104 0 178 89h85q-113 -138 -264 -138q-83 0 -153 38t-112 106q-41 65 -41 145t40.5 147.5t112.5 107.5q70 39 153 39t153.5 -39t111.5 -107
t41 -148v-23z" />
    <glyph glyph-name="uni2150" unicode="&#x2150;" horiz-adv-x="696" 
d="M560 0h-101l106 263h-132v88h238v-67zM166 0h-115l426 685h114zM85 334v242l-57 -51v102l66 58h77v-351h-86z" />
    <glyph glyph-name="uni2151" unicode="&#x2151;" horiz-adv-x="717" 
d="M533 233q0 -18 10 -29t25 -11q16 0 26 11t10 29q0 15 -10 25t-26 10q-15 0 -25 -10t-10 -25zM643 92l-63 -92h-106l77 111q-49 5 -80 38.5t-31 83.5q0 54 37 88q38 35 91 35q54 0 91 -36t37 -90q0 -59 -53 -138zM177 0h-115l426 685h114zM85 334v242l-57 -51v102l66 58
h77v-351h-86z" />
    <glyph glyph-name="uni2153" unicode="&#x2153;" horiz-adv-x="728" 
d="M437 56l50 72q46 -42 79 -42q29 0 29 25q0 28 -37 28h-44v82h42q26 0 26 23q0 21 -25 21q-24 0 -60 -41l-57 60q56 72 121 72q49 0 81.5 -29.5t32.5 -75.5q0 -40 -26 -66q40 -28 40 -78t-34.5 -81t-88.5 -31q-71 0 -129 61zM176 0h-115l426 685h114zM85 334v242l-57 -51
v102l66 58h77v-351h-86z" />
    <glyph glyph-name="uni2154" unicode="&#x2154;" horiz-adv-x="790" 
d="M499 56l50 72q46 -42 79 -42q29 0 29 25q0 28 -37 28h-44v82h42q26 0 26 23q0 21 -25 21q-24 0 -60 -41l-57 60q56 72 121 72q49 0 81.5 -29.5t32.5 -75.5q0 -40 -26 -66q40 -28 40 -78t-34.5 -81t-88.5 -31q-71 0 -129 61zM246 0h-115l426 685h114zM34 334v69l108 129
q23 28 23 47q0 21 -21 21q-23 0 -59 -44l-59 62q52 72 122 72q48 0 79.5 -30t31.5 -78t-44 -99l-53 -63h105v-86h-233z" />
    <glyph glyph-name="uni2155" unicode="&#x2155;" horiz-adv-x="725" 
d="M438 56l51 71q42 -41 76 -41q31 0 31 32q0 31 -34 31q-17 0 -45 -16l-60 40l16 178h191v-88h-115l-3 -27q5 1 22 1q54 0 88 -33t34 -86q0 -54 -35.5 -88.5t-89.5 -34.5q-70 0 -127 61zM176 0h-115l426 685h114zM85 334v242l-57 -51v102l66 58h77v-351h-86z" />
    <glyph glyph-name="uni2156" unicode="&#x2156;" horiz-adv-x="787" 
d="M500 56l51 71q42 -41 76 -41q31 0 31 32q0 31 -34 31q-17 0 -45 -16l-60 40l16 178h191v-88h-115l-3 -27q5 1 22 1q54 0 88 -33t34 -86q0 -54 -35.5 -88.5t-89.5 -34.5q-70 0 -127 61zM246 0h-115l426 685h114zM34 334v69l108 129q23 28 23 47q0 21 -21 21q-23 0 -59 -44
l-59 62q52 72 122 72q48 0 79.5 -30t31.5 -78t-44 -99l-53 -63h105v-86h-233z" />
    <glyph glyph-name="uni2157" unicode="&#x2157;" horiz-adv-x="792" 
d="M504 56l51 71q42 -41 76 -41q31 0 31 32q0 31 -34 31q-17 0 -45 -16l-60 40l16 178h191v-88h-115l-3 -27q5 1 22 1q54 0 88 -33t34 -86q0 -54 -35.5 -88.5t-89.5 -34.5q-70 0 -127 61zM242 0h-115l426 685h114zM21 390l50 72q46 -42 79 -42q29 0 29 25q0 28 -37 28h-44
v82h42q26 0 26 23q0 21 -25 21q-24 0 -60 -41l-57 60q55 72 121 72q49 0 81.5 -29.5t32.5 -75.5q0 -40 -26 -66q40 -28 40 -78t-34.5 -81t-88.5 -31q-71 0 -129 61z" />
    <glyph glyph-name="uni2158" unicode="&#x2158;" horiz-adv-x="789" 
d="M502 56l51 71q42 -41 76 -41q31 0 31 32q0 31 -34 31q-17 0 -45 -16l-60 40l16 178h191v-88h-115l-3 -27q5 1 22 1q54 0 88 -33t34 -86q0 -54 -35.5 -88.5t-89.5 -34.5q-70 0 -127 61zM157 541l-35 -50h35v50zM239 0h-115l426 685h114zM245 403v-69h-88v69h-142v69
l150 213h80v-194h44v-88h-44z" />
    <glyph glyph-name="uni2159" unicode="&#x2159;" horiz-adv-x="717" 
d="M532 118q0 -16 10 -26t26 -10t25.5 10t9.5 26q0 18 -10 28.5t-25 10.5q-36 0 -36 -39zM440 120q0 60 53 138l63 93h106l-77 -112q48 -5 79.5 -39t31.5 -82q0 -54 -36.5 -88.5t-91.5 -34.5q-54 0 -91 35.5t-37 89.5zM187 0h-115l426 685h114zM85 334v242l-57 -51v102
l66 58h77v-351h-86z" />
    <glyph glyph-name="uni215A" unicode="&#x215a;" horiz-adv-x="781" 
d="M595 118q0 -16 10 -26t26 -10t25.5 10t9.5 26q0 18 -10 28.5t-25 10.5q-36 0 -36 -39zM503 120q0 60 53 138l63 93h106l-77 -112q48 -5 79.5 -39t31.5 -82q0 -54 -36.5 -88.5t-91.5 -34.5q-54 0 -91 35.5t-37 89.5zM250 0h-115l426 685h114zM22 390l51 71q42 -41 76 -41
q31 0 31 32q0 31 -34 31q-17 0 -45 -16l-60 40l16 178h191v-88h-115l-3 -27q5 1 22 1q54 0 88 -33t34 -86q0 -54 -35.5 -88.5t-89.5 -34.5q-70 0 -127 61z" />
    <glyph glyph-name="oneeighth" unicode="&#x215b;" horiz-adv-x="746" 
d="M542 110q0 -31 38 -31q17 0 28 9t11 22q0 12 -11 21t-28 9t-27.5 -8.5t-10.5 -21.5zM552 247q0 -26 28 -26q29 0 29 26q0 23 -29 23q-28 0 -28 -23zM450 107q0 45 37 76q-27 29 -27 66q0 46 35 76q34 31 85 31q49 0 85 -31q36 -32 36 -76q0 -37 -27 -66q37 -31 37 -76
q0 -49 -37.5 -80.5t-93.5 -31.5q-55 0 -92.5 32t-37.5 80zM179 0h-115l426 685h114zM85 334v242l-57 -51v102l66 58h77v-351h-86z" />
    <glyph glyph-name="threeeighths" unicode="&#x215c;" horiz-adv-x="812" 
d="M608 110q0 -31 38 -31q17 0 28 9t11 22q0 12 -11 21t-28 9t-27.5 -8.5t-10.5 -21.5zM618 247q0 -26 28 -26q29 0 29 26q0 23 -29 23q-28 0 -28 -23zM516 107q0 45 37 76q-27 29 -27 66q0 46 35 76q34 31 85 31q49 0 85 -31q36 -32 36 -76q0 -37 -27 -66q37 -31 37 -76
q0 -49 -37.5 -80.5t-93.5 -31.5q-55 0 -92.5 32t-37.5 80zM242 0h-115l426 685h114zM21 390l50 72q46 -42 79 -42q29 0 29 25q0 28 -37 28h-44v82h42q26 0 26 23q0 21 -25 21q-24 0 -60 -41l-57 60q55 72 121 72q49 0 81.5 -29.5t32.5 -75.5q0 -40 -26 -66q40 -28 40 -78
t-34.5 -81t-88.5 -31q-71 0 -129 61z" />
    <glyph glyph-name="fiveeighths" unicode="&#x215d;" horiz-adv-x="809" 
d="M605 110q0 -31 38 -31q17 0 28 9t11 22q0 12 -11 21t-28 9t-27.5 -8.5t-10.5 -21.5zM615 247q0 -26 28 -26q29 0 29 26q0 23 -29 23q-28 0 -28 -23zM513 107q0 45 37 76q-27 29 -27 66q0 46 35 76q34 31 85 31q49 0 85 -31q36 -32 36 -76q0 -37 -27 -66q37 -31 37 -76
q0 -49 -37.5 -80.5t-93.5 -31.5q-55 0 -92.5 32t-37.5 80zM243 0h-115l426 685h114zM22 390l51 71q42 -41 76 -41q31 0 31 32q0 31 -34 31q-17 0 -45 -16l-60 40l16 178h191v-88h-115l-3 -27q5 1 22 1q54 0 88 -33t34 -86q0 -54 -35.5 -88.5t-89.5 -34.5q-70 0 -127 61z" />
    <glyph glyph-name="seveneighths" unicode="&#x215e;" horiz-adv-x="780" 
d="M576 110q0 -31 38 -31q17 0 28 9t11 22q0 12 -11 21t-28 9t-27.5 -8.5t-10.5 -21.5zM586 247q0 -26 28 -26q29 0 29 26q0 23 -29 23q-28 0 -28 -23zM484 107q0 45 37 76q-27 29 -27 66q0 46 35 76q34 31 85 31q49 0 85 -31q36 -32 36 -76q0 -37 -27 -66q37 -31 37 -76
q0 -49 -37.5 -80.5t-93.5 -31.5q-55 0 -92.5 32t-37.5 80zM200 0h-115l426 685h114zM144 334h-101l106 263h-132v88h238v-67z" />
    <glyph glyph-name="partialdiff" unicode="&#x2202;" horiz-adv-x="566" 
d="M179 286q-17 -34 -17 -74q0 -48 27 -79t67 -31q54 0 90.5 50.5t50.5 147.5q-43 55 -111 55q-74 0 -107 -69zM252 -10q-60 0 -107.5 27.5t-74.5 77.5q-26 50 -26 112q0 72 30.5 131.5t85.5 93.5q56 33 123 33t119 -34q-6 92 -51 132q-22 19 -51 19q-53 0 -115 -57l-72 80
q91 90 193 90q132 0 187 -139q24 -61 24 -153q0 -123 -31.5 -216t-90.5 -144q-61 -53 -143 -53z" />
    <glyph glyph-name="uni2206" unicode="&#x2206;" horiz-adv-x="662" 
d="M329 521l-165 -409h330zM33 0v91l243 594h111l241 -594v-91h-595z" />
    <glyph glyph-name="product" unicode="&#x220f;" horiz-adv-x="731" 
d="M597 571v-571h-123v571h-217v-571h-123v571h-108v114h679v-114h-108z" />
    <glyph glyph-name="summation" unicode="&#x2211;" horiz-adv-x="562" 
d="M26 -133v91l268 330l-259 306v91h482v-114h-308l205 -240v-76l-223 -274h345v-114h-510z" />
    <glyph glyph-name="minus" unicode="&#x2212;" 
d="M38 298v78h424v-78h-424z" />
    <glyph glyph-name="uni2215" unicode="&#x2215;" horiz-adv-x="170" 
d="M-70 0h-115l426 685h114z" />
    <glyph glyph-name="radical" unicode="&#x221a;" horiz-adv-x="541" 
d="M289 0h-97l-170 376l105 45l110 -252l175 525l106 -34z" />
    <glyph glyph-name="infinity" unicode="&#x221e;" horiz-adv-x="635" 
d="M370 298q20 -35 36.5 -48t40.5 -13t40.5 16t16.5 40q0 26 -16.5 41t-44.5 15q-36 0 -73 -51zM131 292q0 -24 15.5 -39.5t38.5 -15.5q39 0 80 57q-32 55 -75 55q-25 0 -42 -16.5t-17 -40.5zM312 214q-57 -72 -134 -72q-88 0 -132 73q-20 35 -20 77t21.5 77.5t58.5 55.5
q36 19 81 19q85 0 136 -66q52 66 126 66q68 0 114 -43t46 -108q0 -66 -46 -109q-45 -42 -114 -42q-81 0 -137 72z" />
    <glyph glyph-name="integral" unicode="&#x222b;" horiz-adv-x="478" 
d="M347 581q-22 0 -36 -19t-14 -54v-538q0 -82 -43 -131t-117 -49q-71 0 -138 61l64 87q39 -34 67 -34q23 0 36.5 18.5t13.5 54.5v538q0 81 43.5 130.5t117.5 49.5q71 0 138 -61l-65 -87q-39 34 -67 34z" />
    <glyph glyph-name="approxequal" unicode="&#x2248;" 
d="M235 231l-44 12q-18 2 -20 2q-18 0 -29.5 -9t-26.5 -35l-90 37q44 98 139 98q38 0 102 -20q26 -8 42 -11q10 -3 21 -3q18 0 29.5 9t26.5 35l90 -37q-44 -98 -139 -98q-26 0 -101 20zM235 409l-44 12q-18 2 -20 2q-18 0 -29.5 -9t-26.5 -35l-90 37q44 98 139 98
q38 0 102 -20q26 -8 42 -11q10 -3 21 -3q18 0 29.5 9t26.5 35l90 -37q-44 -98 -139 -98q-26 0 -101 20z" />
    <glyph glyph-name="notequal" unicode="&#x2260;" 
d="M250 199l-51 -120l-99 42l33 78h-95v105h139l28 65h-167v106h211l51 122l100 -42l-34 -80h96v-106h-141l-27 -65h168v-105h-212z" />
    <glyph glyph-name="lessequal" unicode="&#x2264;" 
d="M33 0v107h433v-107h-433zM418 119l-385 177v95l385 178l40 -105l-263 -122l263 -118z" />
    <glyph glyph-name="greaterequal" unicode="&#x2265;" 
d="M33 0v107h433v-107h-433zM81 119l-40 105l263 118l-263 122l40 105l385 -178v-95z" />
    <glyph glyph-name="lozenge" unicode="&#x25ca;" horiz-adv-x="529" 
d="M263 549l-115 -207l115 -207l115 207zM311 0h-94l-191 332v20l191 333h94l191 -333v-20z" />
    <glyph glyph-name="uniF6C3" unicode="&#xf6c3;" horiz-adv-x="0" 
d="M-210 -171l-46 -94l-65 21l31 82q-20 18 -20 47q0 25 16.5 43t40.5 18t41 -19.5t17 -46.5q0 -19 -15 -51z" />
    <glyph glyph-name="fi" unicode="&#xfb01;" horiz-adv-x="566" 
d="M358 564q0 30 21 52t51 22t51 -22t21 -52q0 -31 -21 -52.5t-51 -21.5t-51 21.5t-21 52.5zM371 0v353h-145v-353h-118v353h-90v103l77 4q-19 53 -19 90q0 74 46.5 119.5t122.5 45.5q73 0 152 -62l-60 -89q-47 39 -81 39q-28 0 -45 -18t-17 -49q0 -29 18 -74h277v-462h-118
z" />
    <glyph glyph-name="fl" unicode="&#xfb02;" horiz-adv-x="566" 
d="M370 0v570q-52 33 -105 33q-33 0 -52 -19t-19 -52q0 -26 18 -70h112v-109h-98v-353h-118v353h-88v103l75 4q-18 50 -18 87q0 77 49 122.5t128 45.5q67 0 133 -32l5 22h96v-705h-118z" />
    <glyph glyph-name="kgreenlandic.case" horiz-adv-x="733" 
d="M700 455h-112l73 230h80zM486 0l-265 268l-3 -268h-122v685h122l3 -248l251 248h155l-322 -324l343 -361h-162z" />
    <glyph glyph-name="napostrophe.case" horiz-adv-x="796" 
d="M516 685h116v-685h-112l-308 469v-469h-116v619l-52 -164h-80l40 230h204l308 -469v469z" />
    <glyph glyph-name="i.dot" horiz-adv-x="247" 
d="M75 0v460h97v-460h-97zM64 580q0 30 17 52t42 22t42.5 -22t17.5 -52t-17.5 -51.5t-42.5 -21.5q-24 0 -41.5 21.5t-17.5 51.5z" />
    <glyph glyph-name="caron.alt" 
d="M353 501h-70v184h81z" />
    <glyph glyph-name="revcommaaccent" 
 />
    <glyph glyph-name="breve_cyr" horiz-adv-x="335" 
d="M56 545q-45 36 -45 88v33h99v-30q0 -44 57 -44t57 42v32h99v-34q0 -53 -44 -86.5t-112 -33.5q-67 0 -111 33z" />
    <glyph glyph-name="shinwithshinDot" horiz-adv-x="737" 
 />
    <glyph glyph-name="shinwithsinDot" horiz-adv-x="737" 
 />
    <glyph glyph-name="shinwithdageshandshinDot" horiz-adv-x="737" 
 />
    <glyph glyph-name="shinwithdageshandsinDot" horiz-adv-x="737" 
 />
    <glyph glyph-name="alefwithpatah" horiz-adv-x="545" 
 />
    <glyph glyph-name="alefwithqamats" horiz-adv-x="545" 
 />
    <glyph glyph-name="alefwithmapiq" horiz-adv-x="545" 
 />
    <glyph glyph-name="betwithdagesh" horiz-adv-x="548" 
 />
    <glyph glyph-name="gimelwithdagesh" horiz-adv-x="430" 
 />
    <glyph glyph-name="daletwithdagesh" horiz-adv-x="493" 
 />
    <glyph glyph-name="hewithmapiq" horiz-adv-x="618" 
 />
    <glyph glyph-name="vavwithdagesh" horiz-adv-x="280" 
 />
    <glyph glyph-name="zayinwithdagesh" horiz-adv-x="339" 
 />
    <glyph glyph-name="tetwithdagesh" horiz-adv-x="601" 
 />
    <glyph glyph-name="yodwithdagesh" horiz-adv-x="238" 
 />
    <glyph glyph-name="yodwithhiriq" horiz-adv-x="238" 
 />
    <glyph glyph-name="finalkafwithdagesh" horiz-adv-x="481" 
 />
    <glyph glyph-name="kafwithdagesh" horiz-adv-x="503" 
 />
    <glyph glyph-name="lamedwithdagesh" horiz-adv-x="491" 
 />
    <glyph glyph-name="memwithdagesh" horiz-adv-x="634" 
 />
    <glyph glyph-name="nunwithdagesh" horiz-adv-x="399" 
 />
    <glyph glyph-name="samekhwithdagesh" horiz-adv-x="597" 
 />
    <glyph glyph-name="finalpewithdagesh" horiz-adv-x="578" 
 />
    <glyph glyph-name="pewithdagesh" horiz-adv-x="569" 
 />
    <glyph glyph-name="tsadiwithdagesh" horiz-adv-x="527" 
 />
    <glyph glyph-name="qofwithdagesh" horiz-adv-x="580" 
 />
    <glyph glyph-name="reshwithdagesh" horiz-adv-x="481" 
 />
    <glyph glyph-name="shinwithdagesh" horiz-adv-x="737" 
 />
    <glyph glyph-name="tavwithdagesh" horiz-adv-x="686" 
 />
    <glyph glyph-name="vavwithholam" horiz-adv-x="280" 
 />
    <glyph glyph-name="geresh" horiz-adv-x="200" 
 />
    <glyph glyph-name="gershayim" horiz-adv-x="379" 
 />
    <glyph glyph-name="maqaf" horiz-adv-x="450" 
 />
    <glyph glyph-name="hatafSegol" horiz-adv-x="0" 
 />
    <glyph glyph-name="hatafPatah" horiz-adv-x="0" 
 />
    <glyph glyph-name="hatafQamats" horiz-adv-x="0" 
 />
    <glyph glyph-name="holamHaser" horiz-adv-x="0" 
 />
    <glyph glyph-name="shinDot" horiz-adv-x="0" 
 />
    <glyph glyph-name="sinDot" horiz-adv-x="0" 
 />
    <glyph glyph-name="qamatsQatan" horiz-adv-x="0" 
 />
    <glyph glyph-name="dotlessFeh.medi" horiz-adv-x="506" 
 />
    <glyph glyph-name="dotlessFeh.init" horiz-adv-x="494" 
 />
    <glyph glyph-name="tashdid_fathehTanvin.cmps" horiz-adv-x="0" 
 />
    <glyph glyph-name="wasleh" horiz-adv-x="0" 
 />
    <glyph glyph-name="wavyHamzehAbove" horiz-adv-x="0" 
 />
    <glyph glyph-name="hamzehAbove_fatheh.cmps" horiz-adv-x="0" 
 />
    <glyph glyph-name="hamzehAbove_sukun.cmps" horiz-adv-x="0" 
 />
    <glyph glyph-name="hamzehAbove_tashdid.cmps" horiz-adv-x="0" 
 />
    <glyph glyph-name="hamzehAbove_zameh.cmps" horiz-adv-x="0" 
 />
    <glyph glyph-name="hamzehAbove_zamehTanvin.cmps" horiz-adv-x="0" 
 />
    <glyph glyph-name="hamzehBelow_kasreh.cmps" horiz-adv-x="0" 
 />
    <glyph glyph-name="hamzehBelow_kasrehTanvin.cmps" horiz-adv-x="0" 
 />
    <glyph glyph-name="ovalComp" horiz-adv-x="0" 
 />
    <glyph glyph-name="threeDotSmall" horiz-adv-x="855" 
d="M43 18v101h756v-101h-756zM348 202q0 21 16 36t37 15q23 0 39.5 -15t16.5 -36t-16.5 -35.5t-39.5 -14.5q-21 0 -37 14.5t-16 35.5zM158 435v-69h178v-97h-178v-119h-112v382h325v-97h-213zM463 297l99 -2q0 -8 5 -20t23.5 -25.5t46.5 -13.5q27 0 42 8t15 18q0 22 -64 35
q-66 13 -113 39q-45 26 -45 80t46 85q46 33 117 33q73 0 116 -39t43 -95h-104q0 19 -16 33t-41 14q-20 0 -37.5 -9.5t-17.5 -19.5q0 -17 10.5 -27t41.5 -17l30 -7q2 0 21 -4q58 -11 88.5 -32.5t30.5 -62.5q0 -53 -46 -85.5t-119 -32.5q-85 0 -128.5 43t-43.5 104zM45 565
v101h756v-101h-756z" />
    <glyph glyph-name="zero.tlf" horiz-adv-x="586" 
d="M175 342q0 -147 60 -210q26 -26 58 -26q69 0 101 107q16 58 16 129q0 111 -33 173.5t-84 62.5q-52 0 -85 -62.5t-33 -173.5zM293 -10q-72 0 -127.5 45t-84.5 126q-29 78 -29 181q0 102 29.5 182t83.5 125q55 46 128 46q72 0 127 -45t85 -126q29 -79 29 -182
q0 -99 -29.5 -179t-83.5 -126q-55 -47 -128 -47z" />
    <glyph glyph-name="one.tlf" horiz-adv-x="586" 
d="M89 0v113h158v447l-146 -84l-4 122l156 87h114v-572h145v-113h-423z" />
    <glyph glyph-name="two.tlf" horiz-adv-x="586" 
d="M82 0v87l230 279q61 74 61 130q0 38 -23.5 61.5t-61.5 23.5q-66 0 -139 -91l-78 79q98 126 220 126q57 0 103 -25t72 -70q27 -45 27 -100q0 -51 -21.5 -98.5t-71.5 -106.5l-155 -185h268v-110h-431z" />
    <glyph glyph-name="three.tlf" horiz-adv-x="586" 
d="M286 -10q-135 0 -237 118l71 86q83 -89 166 -89q45 0 74 27t29 69q0 43 -32 70.5t-85 27.5h-102v111h100q40 0 65.5 24.5t25.5 61.5q0 38 -24 61.5t-64 23.5q-65 0 -138 -88l-78 76q98 126 218 126q57 0 104.5 -25t75.5 -70q26 -44 26 -100q0 -86 -73 -140
q48 -25 74.5 -67.5t26.5 -94.5q0 -59 -29 -107t-81 -74q-53 -27 -113 -27z" />
    <glyph glyph-name="four.tlf" horiz-adv-x="586" 
d="M338 494l-162 -229h162v229zM453 154v-154h-115v154h-306v86l316 445h105v-420h94v-111h-94z" />
    <glyph glyph-name="five.tlf" horiz-adv-x="586" 
d="M288 -10q-134 0 -235 117l72 86q82 -89 163 -89q49 0 78 32q32 35 32 84q0 51 -31.5 83t-81.5 32q-59 0 -110 -40l-86 49l31 341h347v-111h-247l-12 -141q37 14 83 14q66 0 117.5 -28.5t80.5 -81.5t29 -117q0 -65 -29.5 -117.5t-83.5 -82.5q-53 -30 -117 -30z" />
    <glyph glyph-name="six.tlf" horiz-adv-x="586" 
d="M291 345q-50 0 -83 -35q-32 -35 -32 -87q0 -56 32 -88q33 -34 83 -34q49 0 82 34q33 33 33 88q0 54 -33 87q-33 35 -82 35zM291 -10q-65 0 -118 30.5t-84 85.5t-31 120q0 107 101 256l138 203h134l-161 -233q5 1 21 1q66 0 120 -29.5t85 -82.5q30 -51 30 -118
q0 -66 -30 -118.5t-84 -83.5q-55 -31 -121 -31z" />
    <glyph glyph-name="seven.tlf" horiz-adv-x="586" 
d="M274 0h-128l232 574h-319v111h455v-85z" />
    <glyph glyph-name="eight.tlf" horiz-adv-x="586" 
d="M178 202q0 -42 32 -71q35 -29 83 -29q47 0 82 29q33 29 33 71q0 44 -32 73t-83 29q-50 0 -82.5 -29.5t-32.5 -72.5zM200 496q0 -37 26 -62t67 -25t67 25t26 62q0 36 -26.5 61t-66.5 25t-66.5 -25t-26.5 -61zM293 -10q-65 0 -118.5 27t-85.5 75q-32 47 -32 106
q0 104 91 163q-69 56 -69 139q0 53 29 97.5t78 71.5q50 26 107 26q58 0 107 -25.5t78 -69.5q29 -45 29 -100q0 -83 -69 -139q91 -62 91 -163q0 -58 -31 -105.5t-86 -75.5q-54 -27 -119 -27z" />
    <glyph glyph-name="nine.tlf" horiz-adv-x="586" 
d="M293 583q-48 0 -81 -35t-33 -87q0 -53 32 -88q31 -34 82 -34q49 0 83 34q33 33 33 88q0 54 -33 87q-33 35 -83 35zM426 202l-138 -202h-134l161 232q-5 -1 -22 -1q-65 0 -118.5 30t-84.5 83t-31 117q0 65 30.5 119t84.5 85q54 30 119 30t119 -30.5t85 -85.5
q30 -54 30 -121q0 -108 -101 -256z" />
    <glyph glyph-name="zero.posf" horiz-adv-x="600" 
d="M300 391q-78 0 -115 -70q-18 -33 -18 -75q0 -86 66 -126q31 -19 67 -19q37 0 68 18.5t47 51.5q17 34 17 75q0 87 -64 127q-28 18 -68 18zM300 -10q-71 0 -128.5 33t-90.5 93q-33 58 -33 130q0 71 32.5 130.5t90.5 93.5q57 33 129 33q71 0 128.5 -33t90.5 -92
q33 -60 33 -132q0 -71 -32.5 -129.5t-89.5 -92.5q-58 -34 -130 -34z" />
    <glyph glyph-name="one.posf" horiz-adv-x="457" 
d="M53 0v107h130v265l-124 -79l1 118l132 82h109v-386h117v-107h-365z" />
    <glyph glyph-name="two.posf" horiz-adv-x="482" 
d="M47 0v84l162 127q50 39 68 65t18 57q0 27 -19 43.5t-51 16.5q-30 0 -55 -15.5t-55 -54.5l-83 72q81 108 200 108q82 0 132.5 -44t50.5 -116q0 -57 -29.5 -102.5t-100.5 -99.5l-47 -36h207v-105h-398z" />
    <glyph glyph-name="three.posf" horiz-adv-x="498" 
d="M234 -166q-127 0 -220 112l75 83q72 -83 142 -83q46 0 75.5 29.5t29.5 74.5q0 47 -31.5 75t-85.5 28h-46l-50 71l145 159h-225v110h384v-83l-143 -153q67 -13 113 -59q58 -58 58 -148q0 -60 -28.5 -109.5t-78.5 -77.5q-53 -29 -114 -29z" />
    <glyph glyph-name="four.posf" horiz-adv-x="548" 
d="M313 314l-150 -204h150v204zM425 4v-160h-112v160h-292v82l303 407h101v-383h93v-106h-93z" />
    <glyph glyph-name="five.posf" horiz-adv-x="507" 
d="M244 -166q-126 0 -221 115l72 85q44 -49 77 -68.5t72 -19.5q45 0 74 32t29 83q0 49 -29.5 80t-76.5 31q-50 0 -97 -37l-85 46l31 312h329v-110h-233l-12 -115q34 12 74 12q62 0 111.5 -28t78.5 -79q28 -49 28 -113t-28.5 -115.5t-79.5 -80.5q-52 -30 -114 -30z" />
    <glyph glyph-name="six.posf" horiz-adv-x="559" 
d="M280 350q-53 0 -84 -35q-32 -35 -32 -91q0 -55 32 -90t84 -35q70 0 101 61q14 28 14 64q0 55 -33 91q-33 35 -82 35zM280 -10q-66 0 -119 31t-84 86t-31 121q0 59 24.5 118.5t78.5 134.5l133 185h136l-154 -211q4 1 16 1q65 0 119 -30t85 -83q30 -51 30 -119
q0 -66 -30 -119t-84 -84q-55 -31 -120 -31z" />
    <glyph glyph-name="seven.posf" horiz-adv-x="452" 
d="M192 -156h-125l228 540h-275v109h407v-85z" />
    <glyph glyph-name="eight.posf" horiz-adv-x="561" 
d="M171 197q0 -42 30.5 -70t78.5 -28t78.5 28t30.5 70q0 43 -30.5 71t-78.5 28t-78.5 -28t-30.5 -71zM191 485q0 -36 25 -60t64 -24t64 24t25 60t-24.5 59t-64.5 23t-64.5 -23t-24.5 -59zM280 -10q-62 0 -114 26.5t-83 73.5q-32 47 -32 103q0 103 87 160q-65 55 -65 135
q0 108 103 163q48 25 104 25t103.5 -24.5t75.5 -67.5q28 -44 28 -96q0 -80 -65 -135q87 -57 87 -160q0 -56 -30 -103t-84 -74q-51 -26 -115 -26z" />
    <glyph glyph-name="nine.posf" horiz-adv-x="560" 
d="M281 389q-51 0 -83 -35t-32 -90q0 -72 57 -108q26 -17 58 -17q51 0 83.5 35t32.5 90q0 54 -33 90q-32 35 -83 35zM413 9l-113 -165h-136l136 190h-19q-65 0 -118.5 29.5t-84.5 82.5t-31 118q0 66 30 119t84 85q54 31 120 31q65 0 119 -31t85 -86q30 -54 30 -121
q0 -104 -102 -252z" />
    <glyph glyph-name="zero.numerator" horiz-adv-x="362" 
d="M136 509q0 -43 12.5 -65.5t32.5 -22.5q19 0 31.5 23t12.5 65t-12.5 65t-31.5 23q-20 0 -32.5 -22.5t-12.5 -65.5zM39 509q0 78 38 130q39 51 104 51q63 0 102.5 -51t39.5 -130q0 -80 -38.5 -130t-103.5 -50t-103.5 50t-38.5 130z" />
    <glyph glyph-name="one.numerator" horiz-adv-x="246" 
d="M85 334v242l-57 -51v102l66 58h77v-351h-86z" />
    <glyph glyph-name="two.numerator" horiz-adv-x="308" 
d="M34 334v69l108 129q23 28 23 47q0 21 -21 21q-23 0 -59 -44l-59 62q52 72 122 72q48 0 79.5 -30t31.5 -78t-44 -99l-53 -63h105v-86h-233z" />
    <glyph glyph-name="three.numerator" horiz-adv-x="312" 
d="M21 390l50 72q46 -42 79 -42q29 0 29 25q0 28 -37 28h-44v82h42q26 0 26 23q0 21 -25 21q-24 0 -60 -41l-57 60q55 72 121 72q49 0 81.5 -29.5t32.5 -75.5q0 -40 -26 -66q40 -28 40 -78t-34.5 -81t-88.5 -31q-71 0 -129 61z" />
    <glyph glyph-name="four.numerator" horiz-adv-x="309" 
d="M157 541l-35 -50h35v50zM245 403v-69h-88v69h-142v69l150 213h80v-194h44v-88h-44z" />
    <glyph glyph-name="five.numerator" horiz-adv-x="309" 
d="M22 390l51 71q42 -41 76 -41q31 0 31 32q0 31 -34 31q-17 0 -45 -16l-60 40l16 178h191v-88h-115l-3 -27q5 1 22 1q54 0 88 -33t34 -86q0 -54 -35.5 -88.5t-89.5 -34.5q-70 0 -127 61z" />
    <glyph glyph-name="six.numerator" horiz-adv-x="301" 
d="M116 452q0 -16 10 -26t26 -10t25.5 10t9.5 26q0 18 -10 28.5t-25 10.5q-36 0 -36 -39zM24 454q0 60 53 138l63 93h106l-77 -112q48 -5 79.5 -39t31.5 -82q0 -54 -36.5 -88.5t-91.5 -34.5q-54 0 -91 35.5t-37 89.5z" />
    <glyph glyph-name="seven.numerator" horiz-adv-x="280" 
d="M144 334h-101l106 263h-132v88h238v-67z" />
    <glyph glyph-name="eight.numerator" horiz-adv-x="329" 
d="M126 444q0 -31 38 -31q17 0 28 9t11 22q0 12 -11 21t-28 9t-27.5 -8.5t-10.5 -21.5zM136 581q0 -26 28 -26q29 0 29 26q0 23 -29 23q-28 0 -28 -23zM34 441q0 45 37 76q-27 29 -27 66q0 46 35 76q34 31 85 31q49 0 85 -31t36 -76q0 -37 -27 -66q37 -31 37 -76
q0 -49 -37.5 -80.5t-93.5 -31.5q-55 0 -92.5 32t-37.5 80z" />
    <glyph glyph-name="nine.numerator" horiz-adv-x="301" 
d="M117 567q0 -18 10 -29t25 -11q16 0 26 11t10 29q0 15 -10 25t-26 10q-15 0 -25 -10t-10 -25zM227 426l-63 -92h-106l77 111q-49 5 -80 38.5t-31 83.5q0 54 37 88q38 35 91 35q54 0 91 -36t37 -90q0 -59 -53 -138z" />
    <glyph glyph-name="zero.denominator" horiz-adv-x="362" 
d="M136 175q0 -43 12.5 -65.5t32.5 -22.5q19 0 31.5 23t12.5 65t-12.5 65t-31.5 23q-20 0 -32.5 -22.5t-12.5 -65.5zM39 175q0 78 38 130q39 51 104 51q63 0 102.5 -51t39.5 -130q0 -80 -38.5 -130t-103.5 -50t-103.5 50t-38.5 130z" />
    <glyph glyph-name="one.denominator" horiz-adv-x="246" 
d="M85 0v242l-57 -51v102l66 58h77v-351h-86z" />
    <glyph glyph-name="two.denominator" horiz-adv-x="308" 
d="M34 0v69l108 129q23 28 23 47q0 21 -21 21q-23 0 -59 -44l-59 62q52 72 122 72q48 0 79.5 -30t31.5 -78t-44 -99l-53 -63h105v-86h-233z" />
    <glyph glyph-name="three.denominator" horiz-adv-x="312" 
d="M21 56l50 72q46 -42 79 -42q29 0 29 25q0 28 -37 28h-44v82h42q26 0 26 23q0 21 -25 21q-24 0 -60 -41l-57 60q55 72 121 72q49 0 81.5 -29.5t32.5 -75.5q0 -40 -26 -66q40 -28 40 -78t-34.5 -81t-88.5 -31q-71 0 -129 61z" />
    <glyph glyph-name="four.denominator" horiz-adv-x="309" 
d="M157 207l-35 -50h35v50zM245 69v-69h-88v69h-142v69l150 213h80v-194h44v-88h-44z" />
    <glyph glyph-name="five.denominator" horiz-adv-x="309" 
d="M22 56l51 71q42 -41 76 -41q31 0 31 32q0 31 -34 31q-17 0 -45 -16l-60 40l16 178h191v-88h-115l-3 -27q5 1 22 1q54 0 88 -33t34 -86q0 -54 -35.5 -88.5t-89.5 -34.5q-70 0 -127 61z" />
    <glyph glyph-name="six.denominator" horiz-adv-x="301" 
d="M116 118q0 -16 10 -26t26 -10t25.5 10t9.5 26q0 18 -10 28.5t-25 10.5q-36 0 -36 -39zM24 120q0 60 53 138l63 93h106l-77 -112q48 -5 79.5 -39t31.5 -82q0 -54 -36.5 -88.5t-91.5 -34.5q-54 0 -91 35.5t-37 89.5z" />
    <glyph glyph-name="seven.denominator" horiz-adv-x="280" 
d="M144 0h-101l106 263h-132v88h238v-67z" />
    <glyph glyph-name="eight.denominator" horiz-adv-x="329" 
d="M126 110q0 -31 38 -31q17 0 28 9t11 22q0 12 -11 21t-28 9t-27.5 -8.5t-10.5 -21.5zM136 247q0 -26 28 -26q29 0 29 26q0 23 -29 23q-28 0 -28 -23zM34 107q0 45 37 76q-27 29 -27 66q0 46 35 76q34 31 85 31q49 0 85 -31q36 -32 36 -76q0 -37 -27 -66q37 -31 37 -76
q0 -49 -37.5 -80.5t-93.5 -31.5q-55 0 -92.5 32t-37.5 80z" />
    <glyph glyph-name="nine.denominator" horiz-adv-x="301" 
d="M117 233q0 -18 10 -29t25 -11q16 0 26 11t10 29q0 15 -10 25t-26 10q-15 0 -25 -10t-10 -25zM227 92l-63 -92h-106l77 111q-49 5 -80 38.5t-31 83.5q0 54 37 88q38 35 91 35q54 0 91 -36t37 -90q0 -59 -53 -138z" />
    <glyph glyph-name="two_fraction_seven" horiz-adv-x="758" 
d="M622 0h-101l106 263h-132v88h238v-67zM230 0h-115l426 685h114zM34 334v69l108 129q23 28 23 47q0 21 -21 21q-23 0 -59 -44l-59 62q52 72 122 72q48 0 79.5 -30t31.5 -78t-44 -99l-53 -63h105v-86h-233z" />
    <glyph glyph-name="two_fraction_nine" horiz-adv-x="779" 
d="M595 233q0 -18 10 -29t25 -11q16 0 26 11t10 29q0 15 -10 25t-26 10q-15 0 -25 -10t-10 -25zM705 92l-63 -92h-106l77 111q-49 5 -80 38.5t-31 83.5q0 54 37 88q38 35 91 35q54 0 91 -36t37 -90q0 -59 -53 -138zM241 0h-115l426 685h114zM34 334v69l108 129q23 28 23 47
q0 21 -21 21q-23 0 -59 -44l-59 62q52 72 122 72q48 0 79.5 -30t31.5 -78t-44 -99l-53 -63h105v-86h-233z" />
    <glyph glyph-name="three_fraction_seven" horiz-adv-x="762" 
d="M626 0h-101l106 263h-132v88h238v-67zM231 0h-115l426 685h114zM21 390l50 72q46 -42 79 -42q29 0 29 25q0 28 -37 28h-44v82h42q26 0 26 23q0 21 -25 21q-24 0 -60 -41l-57 60q55 72 121 72q49 0 81.5 -29.5t32.5 -75.5q0 -40 -26 -66q40 -28 40 -78t-34.5 -81
t-88.5 -31q-71 0 -129 61z" />
    <glyph glyph-name="four_fraction_seven" horiz-adv-x="760" 
d="M624 0h-101l106 263h-132v88h238v-67zM157 541l-35 -50h35v50zM231 0h-115l426 685h114zM245 403v-69h-88v69h-142v69l150 213h80v-194h44v-88h-44z" />
    <glyph glyph-name="four_fraction_nine" horiz-adv-x="781" 
d="M597 233q0 -18 10 -29t25 -11q16 0 26 11t10 29q0 15 -10 25t-26 10q-15 0 -25 -10t-10 -25zM707 92l-63 -92h-106l77 111q-49 5 -80 38.5t-31 83.5q0 54 37 88q38 35 91 35q54 0 91 -36t37 -90q0 -59 -53 -138zM157 541l-35 -50h35v50zM241 0h-115l426 685h114zM245 403
v-69h-88v69h-142v69l150 213h80v-194h44v-88h-44z" />
    <glyph glyph-name="five_fraction_seven" horiz-adv-x="760" 
d="M623 0h-101l106 263h-132v88h238v-67zM229 0h-115l426 685h114zM22 390l51 71q42 -41 76 -41q31 0 31 32q0 31 -34 31q-17 0 -45 -16l-60 40l16 178h191v-88h-115l-3 -27q5 1 22 1q54 0 88 -33t34 -86q0 -54 -35.5 -88.5t-89.5 -34.5q-70 0 -127 61z" />
    <glyph glyph-name="five_fraction_nine" horiz-adv-x="781" 
d="M596 233q0 -18 10 -29t25 -11q16 0 26 11t10 29q0 15 -10 25t-26 10q-15 0 -25 -10t-10 -25zM706 92l-63 -92h-106l77 111q-49 5 -80 38.5t-31 83.5q0 54 37 88q38 35 91 35q54 0 91 -36t37 -90q0 -59 -53 -138zM239 0h-115l426 685h114zM22 390l51 71q42 -41 76 -41
q31 0 31 32q0 31 -34 31q-17 0 -45 -16l-60 40l16 178h191v-88h-115l-3 -27q5 1 22 1q54 0 88 -33t34 -86q0 -54 -35.5 -88.5t-89.5 -34.5q-70 0 -127 61z" />
    <glyph glyph-name="six_fraction_seven" horiz-adv-x="751" 
d="M615 0h-101l106 263h-132v88h238v-67zM116 452q0 -16 10 -26t26 -10t25.5 10t9.5 26q0 18 -10 28.5t-25 10.5q-36 0 -36 -39zM221 0h-115l426 685h114zM24 454q0 60 53 138l63 93h106l-77 -112q48 -5 79.5 -39t31.5 -82q0 -54 -36.5 -88.5t-91.5 -34.5q-54 0 -91 35.5
t-37 89.5z" />
    <glyph glyph-name="seven_fraction_nine" horiz-adv-x="751" 
d="M567 233q0 -18 10 -29t25 -11q16 0 26 11t10 29q0 15 -10 25t-26 10q-15 0 -25 -10t-10 -25zM677 92l-63 -92h-106l77 111q-49 5 -80 38.5t-31 83.5q0 54 37 88q38 35 91 35q54 0 91 -36t37 -90q0 -59 -53 -138zM200 0h-115l426 685h114zM144 334h-101l106 263h-132v88
h238v-67z" />
    <glyph glyph-name="eight_fraction_nine" horiz-adv-x="801" 
d="M617 233q0 -18 10 -29t25 -11q16 0 26 11t10 29q0 15 -10 25t-26 10q-15 0 -25 -10t-10 -25zM727 92l-63 -92h-106l77 111q-49 5 -80 38.5t-31 83.5q0 54 37 88q38 35 91 35q54 0 91 -36t37 -90q0 -59 -53 -138zM126 444q0 -31 38 -31q17 0 28 9t11 22q0 12 -11 21t-28 9
t-27.5 -8.5t-10.5 -21.5zM136 581q0 -26 28 -26q29 0 29 26q0 23 -29 23q-28 0 -28 -23zM259 0h-115l426 685h114zM34 441q0 45 37 76q-27 29 -27 66q0 46 35 76q34 31 85 31q49 0 85 -31t36 -76q0 -37 -27 -66q37 -31 37 -76q0 -49 -37.5 -80.5t-93.5 -31.5q-55 0 -92.5 32
t-37.5 80z" />
    <glyph glyph-name="at.case" horiz-adv-x="871" 
d="M332 325q0 -45 26 -73.5t66 -28.5t66 29q28 29 28 73q0 45 -27.5 75t-66.5 30q-40 0 -66 -29t-26 -76zM653 122q-75 0 -107 51q-51 -51 -123 -51q-56 0 -101.5 26.5t-71.5 73.5t-26 103q0 120 98 180q47 28 101 28q57 0 104 -36l3 27h86v-248q0 -34 10 -48t31 -14
q66 0 66 141q0 78 -35.5 140.5t-100.5 98.5q-65 35 -146 35q-82 0 -149 -38t-105 -106t-38 -152q0 -83 38 -150t107 -106q70 -39 152 -39q89 0 183 45l37 -90q-67 -32 -113 -41q-44 -9 -107 -9q-112 0 -203.5 50t-144.5 140q-52 88 -52 200q0 110 51.5 199.5t142.5 140.5
q90 51 201 51q107 0 194.5 -47.5t138.5 -132.5q50 -85 50 -189q0 -141 -81 -203q-41 -30 -90 -30z" />
    <glyph glyph-name="questiondown.case" horiz-adv-x="489" 
d="M76 89q-28 47 -28 106q0 75 45 129q41 51 107 67v113h112v-197l-51 -6q-45 -5 -71.5 -33.5t-26.5 -70.5q0 -43 28 -70.5t72 -27.5q69 0 131 81l76 -76q-88 -114 -210 -114q-59 0 -107.5 26t-76.5 73zM184 620q0 31 21 52.5t51 21.5t51.5 -21.5t21.5 -52.5t-21.5 -53
t-51.5 -22t-51 22.5t-21 52.5z" />
    <glyph glyph-name="exclamdown.case" horiz-adv-x="313" 
d="M105 0l6 504h91l6 -504h-103zM96 620q0 30 17.5 52t42.5 22t43 -22t18 -52q0 -32 -17 -53.5t-44 -21.5t-43.5 21t-16.5 54z" />
    <glyph glyph-name="parenleft.case" horiz-adv-x="430" 
d="M186 342q0 -117 52 -216q53 -100 156 -170l-56 -99q-137 88 -204 213q-68 125 -68 272t68 272q67 125 204 213l56 -99q-102 -68 -156 -171q-52 -100 -52 -215z" />
    <glyph glyph-name="parenright.case" horiz-adv-x="430" 
d="M79 -143l-57 99q103 70 155 170q53 101 53 216q0 112 -53 215q-53 102 -155 171l57 99q132 -85 203 -214q68 -125 68 -271q0 -148 -68 -272q-71 -126 -203 -213z" />
    <glyph glyph-name="braceleft.case" horiz-adv-x="456" 
d="M179 102v34q0 75 -22 108t-72 37l-52 4v112l52 5q49 5 71.5 38.5t22.5 105.5v36q0 234 189 234h68v-115h-63q-39 0 -57 -28t-18 -94v-42q0 -137 -89 -195q89 -58 89 -197v-40q0 -66 17.5 -93.5t57.5 -27.5h63v-115h-68q-189 0 -189 233z" />
    <glyph glyph-name="braceright.case" horiz-adv-x="456" 
d="M287 136v-34q0 -233 -188 -233h-69v115h64q38 0 56 28t18 93v40q0 66 23.5 117.5t66.5 79.5q-90 58 -90 195v42q0 65 -18 93.5t-56 28.5h-64v115h69q188 0 188 -234v-36q0 -72 22.5 -105.5t72.5 -38.5l52 -5v-112l-53 -4q-49 -4 -71.5 -37.5t-22.5 -107.5z" />
    <glyph glyph-name="bracketleft.case" horiz-adv-x="406" 
d="M100 -132v945h269v-115h-154v-715h154v-115h-269z" />
    <glyph glyph-name="bracketright.case" horiz-adv-x="406" 
d="M30 -132v115h155v715h-155v115h270v-945h-270z" />
    <glyph glyph-name="hyphen.case" horiz-adv-x="360" 
d="M50 311v86h260v-86h-260z" />
    <glyph glyph-name="endash.case" 
d="M40 311v83h420v-83h-420z" />
    <glyph glyph-name="emdash.case" horiz-adv-x="1000" 
d="M40 311v83h920v-83h-920z" />
    <glyph glyph-name="brokenbar.case" horiz-adv-x="294" 
d="M100 -100v376h94v-376h-94zM100 408v377h94v-377h-94z" />
    <glyph glyph-name="bar.case" horiz-adv-x="294" 
d="M100 -100v885h94v-885h-94z" />
    <glyph glyph-name="guillemotleft.case" horiz-adv-x="631" 
d="M506 92l-226 220v25l226 221l78 -77l-160 -156l160 -157zM262 92l-226 220v25l226 221l78 -77l-160 -156l160 -157z" />
    <glyph glyph-name="guillemotright.case" horiz-adv-x="631" 
d="M368 92l-78 76l161 155l-161 158l78 77l226 -221v-25zM124 92l-78 76l161 155l-161 158l78 77l226 -221v-25z" />
    <glyph glyph-name="guilsinglleft.case" horiz-adv-x="371" 
d="M250 92l-214 220v25l214 221l74 -77l-152 -156l152 -157z" />
    <glyph glyph-name="guilsinglright.case" horiz-adv-x="371" 
d="M120 92l-74 76l153 155l-153 158l74 77l214 -221v-25z" />
    </font>
</defs>
</svg>
